<?xml version="1.0" encoding="UTF-8" standalone="no"?>
<!-- Created with Inkscape (http://www.inkscape.org/) -->

<svg
   version="1.1"
   id="svg182"
   width="288"
   height="55.169918"
   viewBox="0 0 288 55.169918"
   sodipodi:docname="1password-Hackathon-QR-card.pdf"
   xmlns:inkscape="http://www.inkscape.org/namespaces/inkscape"
   xmlns:sodipodi="http://sodipodi.sourceforge.net/DTD/sodipodi-0.dtd"
   xmlns="http://www.w3.org/2000/svg"
   xmlns:svg="http://www.w3.org/2000/svg">
  <defs
     id="defs186" />
  <sodipodi:namedview
     id="namedview184"
     pagecolor="#ffffff"
     bordercolor="#000000"
     borderopacity="0.25"
     inkscape:showpageshadow="2"
     inkscape:pageopacity="0.0"
     inkscape:pagecheckerboard="0"
     inkscape:deskcolor="#d1d1d1"
     showgrid="false" />
  <g
     id="g190"
     inkscape:groupmode="layer"
     inkscape:label="Page 1"
     transform="matrix(1.3333333,0,0,-1.3333333,-61.957032,317.82031)"
     style="fill:#000000;fill-opacity:1">
    <path
       id="path204"
       style="fill:#000000;fill-opacity:1;fill-rule:evenodd;stroke:none"
       d="m 67.168947,238.36524 c -11.432989,0 -20.701172,-9.26346 -20.701172,-20.68945 0,-11.42599 9.268183,-20.68799 20.701172,-20.68799 11.432989,0 20.701172,9.262 20.701172,20.68799 0,11.42599 -9.268183,20.68945 -20.701172,20.68945 z m 33.735353,-8.02002 c -0.133,0 -0.25366,-0.0721 -0.32666,-0.1831 -0.822,-1.249 -2.348874,-1.87885 -4.442872,-1.94385 -0.205,-0.006 -0.37207,-0.17147 -0.37207,-0.37647 v -3.63574 c 0,-0.205 0.165605,-0.37061 0.370605,-0.37061 h 2.897461 c 0.205,0 0.370606,-0.1656 0.370606,-0.3706 v -17.79346 c 0,-0.205 0.165605,-0.37207 0.370605,-0.37207 h 4.716795 c 0.205,0 0.37061,0.16707 0.37061,0.37207 v 24.30176 c 0,0.205 -0.16561,0.37207 -0.37061,0.37207 z m 8.63379,-0.30469 c -0.205,0 -0.37061,-0.16707 -0.37061,-0.37207 v -23.99707 c 0,-0.205 0.16561,-0.37207 0.37061,-0.37207 h 4.67724 c 0.205,0 0.37208,0.16707 0.37208,0.37207 v 7.36524 c 0,0.205 0.16707,0.3706 0.37207,0.3706 h 3.83496 c 5.68599,0 8.98388,3.46323 8.98388,8.44922 0,4.719 -3.29789,8.18408 -8.98388,8.18408 z m -43.911624,-0.0557 h 3.083497 c 0.836999,0 1.255707,4e-4 1.574707,-0.1626 0.280999,-0.143 0.507855,-0.37085 0.651855,-0.65185 0.162,-0.319 0.162598,-0.73725 0.162598,-1.57325 v -10.37841 c 0,-0.209 -3.67e-4,-0.31316 -0.02637,-0.41016 -0.023,-0.085 -0.06179,-0.16531 -0.112793,-0.23731 -0.059,-0.081 -0.139758,-0.14632 -0.301758,-0.27832 l -1.199707,-0.97412 c -0.195,-0.159 -0.29166,-0.23798 -0.32666,-0.33398 -0.032,-0.083 -0.032,-0.17628 0,-0.25928 0.035,-0.096 0.13166,-0.17498 0.32666,-0.33398 l 1.199707,-0.97266 c 0.162,-0.132 0.242758,-0.19732 0.301758,-0.27832 0.051,-0.072 0.08979,-0.15377 0.112793,-0.23877 0.026,-0.097 0.02637,-0.20116 0.02637,-0.41016 v -4.73584 c 0,-0.83499 -5.98e-4,-1.25324 -0.162598,-1.57324 -0.144,-0.28 -0.370856,-0.50785 -0.651855,-0.65185 -0.319,-0.162 -0.737708,-0.1626 -1.574707,-0.1626 h -3.083497 c -0.835999,0 -1.252777,6e-4 -1.571777,0.1626 -0.281,0.144 -0.51032,0.37185 -0.65332,0.65185 -0.163,0.32 -0.162598,0.73825 -0.162598,1.57324 v 10.37842 c 0,0.208 -6.33e-4,0.31269 0.02637,0.40869 0.023,0.086 0.06079,0.16677 0.112793,0.23877 0.058,0.081 0.138758,0.14732 0.301758,0.27832 l 1.199707,0.97413 c 0.195,0.158 0.293125,0.23751 0.328125,0.33251 0.031,0.084 0.031,0.17675 0,0.26075 -0.035,0.095 -0.133125,0.17452 -0.328125,0.33252 l -1.199707,0.97412 c -0.163,0.131 -0.243758,0.19732 -0.301758,0.27832 -0.052,0.072 -0.08979,0.15277 -0.112793,0.23877 -0.027,0.096 -0.02637,0.19969 -0.02637,0.40869 v 4.7373 c 0,0.836 -4.02e-4,1.25425 0.162598,1.57325 0.143,0.281 0.37232,0.50885 0.65332,0.65185 0.319,0.163 0.735778,0.1626 1.571777,0.1626 z m 192.058604,0 c -0.205,0 -0.37208,-0.16561 -0.37208,-0.37061 v -8.10058 c -1.17499,2.208 -3.14644,3.08349 -5.64843,3.08349 -4.889,0 -8.2251,-4.26349 -8.2251,-9.89648 0,-5.633 3.3361,-9.8584 8.2251,-9.8584 2.65399,0 4.70031,1.06713 5.79931,3.80713 v -2.97803 c 0,-0.205 0.16707,-0.37207 0.37207,-0.37207 h 4.26123 c 0.205,0 0.37061,0.16707 0.37061,0.37207 v 23.94287 c 0,0.205 -0.16561,0.37061 -0.37061,0.37061 z M 114.58741,225.3193 h 4.20703 c 1.93299,0 3.48779,-1.02577 3.48779,-3.61377 0,-2.513 -1.5548,-3.6167 -3.48779,-3.6167 h -4.20703 z m 22.81054,-0.72217 c -3.91199,0 -6.90628,-2.08975 -8.13427,-5.44775 -0.073,-0.202 0.0488,-0.41922 0.25781,-0.47022 l 4.10156,-1.00488 c 0.185,-0.045 0.37331,0.0559 0.44531,0.23291 0.623,1.524 1.66059,2.42725 3.32959,2.42725 1.744,0 2.95752,-1.14176 2.95752,-3.19776 v -0.26513 c 0,-0.571 -0.19005,-0.80127 -0.87304,-0.80127 h -4.73731 c -3.942,0 -6.32959,-2.09281 -6.32959,-5.40381 0,-3.54 2.72902,-5.82422 6.52002,-5.82422 1.907,0 3.73828,0.62695 5.03027,2.02295 0.254,0.274 0.80567,0.1074 0.80567,-0.2666 v -0.92725 c 0,-0.205 0.16707,-0.37207 0.37207,-0.37207 h 4.0708 c 0.205,0 0.37207,0.16707 0.37207,0.37207 v 10.74317 c 0,5.17599 -2.91948,8.18261 -8.18848,8.18261 z m 17.85645,0 c -5.004,0 -7.65674,-2.66318 -7.65674,-6.01318 0,-7.15499 10.99219,-5.02466 10.99219,-7.99365 0,-1.18 -0.98497,-1.94092 -2.91797,-1.94092 -1.842,0 -3.18808,0.76543 -3.85108,2.16943 -0.08,0.171 -0.26817,0.27012 -0.45117,0.22412 l -3.83349,-0.97119 c -0.197,-0.05 -0.31828,-0.24885 -0.25928,-0.44385 0.971,-3.22399 4.21659,-4.78417 8.20459,-4.78417 5.11799,0 8.03613,2.62561 8.03613,6.20361 0,6.92699 -10.9541,4.56619 -10.9541,7.99219 0,1.142 0.94683,1.86621 2.65283,1.86621 1.698,0 2.8344,-0.92808 3.3794,-2.35108 0.068,-0.176 0.24906,-0.28695 0.43506,-0.25195 l 3.91259,0.74121 c 0.209,0.04 0.34225,0.24571 0.28125,0.44971 -0.897,3.03099 -3.41922,5.10351 -7.97021,5.10351 z m 17.02881,0 c -5.003,0 -7.65674,-2.66318 -7.65674,-6.01318 0,-7.15499 10.99219,-5.02466 10.99219,-7.99365 0,-1.18 -0.98497,-1.94092 -2.91797,-1.94092 -1.842,0 -3.18708,0.76543 -3.85108,2.16943 -0.08,0.171 -0.2667,0.27012 -0.4497,0.22412 l -3.83496,-0.97119 c -0.197,-0.05 -0.31828,-0.24885 -0.25928,-0.44385 0.971,-3.22399 4.21706,-4.78417 8.20605,-4.78417 5.117,0 8.03467,2.62561 8.03467,6.20361 0,6.92699 -10.9541,4.56619 -10.9541,7.99219 0,1.142 0.94683,1.86621 2.65283,1.86621 1.698,0 2.8354,-0.92808 3.3794,-2.35108 0.068,-0.176 0.24905,-0.28695 0.43505,-0.25195 l 3.9126,0.74121 c 0.209,0.04 0.34372,0.24571 0.28272,0.44971 -0.897,3.03099 -3.42069,5.10351 -7.97168,5.10351 z m 46.94385,0 c -5.648,0 -9.58887,-4.41402 -9.58887,-9.89502 0,-5.44299 3.94087,-9.85839 9.58887,-9.85839 5.68599,0 9.59033,4.4154 9.59033,9.85839 0,5.481 -3.90434,9.89502 -9.59033,9.89502 z m 22.06933,0 c -2.53899,0 -4.51001,-1.48421 -5.45801,-4.49121 v 3.66358 c 0,0.205 -0.1656,0.3706 -0.3706,0.3706 h -4.10889 c -0.206,0 -0.37207,-0.1656 -0.37207,-0.3706 v -18.09815 c 0,-0.205 0.16607,-0.3706 0.37207,-0.3706 h 4.56446 c 0.205,0 0.3706,0.1656 0.3706,0.3706 v 9.60059 c 0,3.23499 1.63033,3.99609 4.13233,3.99609 0.479,0 1.00539,-0.0471 1.50439,-0.14209 0.212,-0.041 0.42296,0.0942 0.45996,0.30615 l 0.79395,4.48243 c 0.028,0.157 -0.0478,0.31786 -0.19483,0.38086 -0.456,0.194 -1.02136,0.30175 -1.69336,0.30175 z m -60.00293,-0.45703 c -0.241,0 -0.41735,-0.22449 -0.36035,-0.45849 l 4.40479,-18.09815 c 0.041,-0.166 0.18981,-0.28271 0.36181,-0.28271 h 5.896 c 0.172,0 0.32135,0.11764 0.36035,0.28564 l 3.00293,12.76904 3.00293,-12.76904 c 0.04,-0.168 0.19028,-0.28564 0.36328,-0.28564 h 6.08496 c 0.17,0 0.31935,0.11571 0.36035,0.28271 l 4.44141,18.09815 c 0.058,0.234 -0.11789,0.45849 -0.35889,0.45849 h -4.19092 c -0.176,0 -0.32728,-0.1229 -0.36328,-0.2959 l -2.9707,-14.35839 -3.68115,14.37597 c -0.042,0.164 -0.19035,0.27832 -0.36035,0.27832 h -4.6875 c -0.172,0 -0.32036,-0.11864 -0.36036,-0.28564 l -3.41894,-14.36865 -2.93408,14.35693 c -0.036,0.173 -0.18875,0.29736 -0.36475,0.29736 z m 71.69825,-3.95801 c 2.72899,0 4.17041,-2.28444 4.17041,-5.48144 0,-3.197 -1.44142,-5.44336 -4.17041,-5.44336 -2.729,0 -4.16895,2.24636 -4.16895,5.44336 0,3.197 1.43995,5.48144 4.16895,5.48144 z m -33.76465,-0.11425 c 2.34999,0 4.20703,-2.01673 4.20703,-5.36573 0,-3.34999 -1.85704,-5.3291 -4.20703,-5.3291 -2.35,0 -4.16895,1.97911 -4.16895,5.3291 0,3.349 1.81895,5.36573 4.16895,5.36573 z m -83.30713,-7.34619 h 4.43554 v -0.38086 c 0,-2.207 -1.89541,-3.53907 -4.17041,-3.53907 -1.592,0 -2.57666,0.72309 -2.57666,2.01709 0,1.142 0.68153,1.90284 2.31153,1.90284 z" />
  </g>
</svg>
