<?xml version="1.0" encoding="UTF-8"?><svg id="Layer_1" xmlns="http://www.w3.org/2000/svg" viewBox="0 0 1440 900"><path d="M247.9788,166.8519h43.0775l47.3641,145.9758h-34.5044l-10.002-32.4649h-52.8759l-10.0061,32.4649h-31.0319l47.9788-145.9758Zm.2035,90.0345h38.5874l-19.194-63.0856-19.3934,63.0856Z"/><path d="M401.506,315.0707c-7.759,0-15.0071-1.1963-21.7444-3.5721-6.7372-2.3759-12.5565-5.8816-17.4578-10.517-4.8972-4.6189-8.7434-10.3094-11.5347-17.0466-2.7913-6.7372-4.1827-14.4547-4.1827-23.1691v-1.6365c0-8.5731,1.4289-16.2989,4.2866-23.1691,2.8577-6.8701,6.8037-12.76,11.8421-17.6613,5.0342-4.7601,10.8867-8.3987,17.5575-10.9241,6.6666-2.5171,13.8109-3.7715,21.437-3.7715,6.1225,0,12.0747,.7144,17.8648,2.1433,5.7819,1.4289,10.9864,3.7715,15.6177,7.0446,4.4901,3.2648,8.2325,7.5513,11.2273,12.8597,2.9906,5.3084,4.8307,11.7714,5.5119,19.3975h-27.9707c-.9512-6.1308-3.2315-10.6832-6.8369-13.6821-3.6095-2.9906-8.5441-4.4942-14.8036-4.4942-7.759,0-13.9521,2.7497-18.5793,8.2491-4.6272,5.4911-6.9407,13.3249-6.9407,23.5013v1.6282c0,10.7247,2.2804,18.7994,6.8411,24.2241,4.5566,5.4247,10.9906,8.1412,19.2937,8.1412,5.9854,0,11.1276-1.6864,15.4142-5.0591,4.2866-3.3645,6.7663-8.4818,7.4516-15.3602h26.7453c-.4112,6.3966-1.8401,12.22-4.2907,17.4536-2.4465,5.2419-5.8525,9.7029-10.2055,13.3747-4.3572,3.813-9.5949,6.7704-15.7216,8.8805-6.1225,2.1101-13.0674,3.1651-20.8222,3.1651Z"/><path d="M519.9182,315.0707c-7.759,0-15.0071-1.1963-21.7444-3.5721-6.7372-2.3759-12.5565-5.8816-17.4578-10.517-4.8972-4.6189-8.7434-10.3094-11.5347-17.0466s-4.1827-14.4547-4.1827-23.1691v-1.6365c0-8.5731,1.4289-16.2989,4.2866-23.1691,2.8577-6.8701,6.8037-12.76,11.8421-17.6613,5.0342-4.7601,10.8867-8.3987,17.5575-10.9241,6.6666-2.5171,13.8109-3.7715,21.437-3.7715,6.1225,0,12.0747,.7144,17.8648,2.1433,5.7819,1.4289,10.9864,3.7715,15.6177,7.0446,4.4901,3.2648,8.2325,7.5513,11.2273,12.8597,2.9906,5.3084,4.8307,11.7714,5.5119,19.3975h-27.9707c-.9512-6.1308-3.2315-10.6832-6.8369-13.6821-3.6095-2.9906-8.5441-4.4942-14.8036-4.4942-7.759,0-13.9521,2.7497-18.5793,8.2491-4.6272,5.4911-6.9407,13.3249-6.9407,23.5013v1.6282c0,10.7247,2.2804,18.7994,6.8411,24.2241,4.5566,5.4247,10.9906,8.1412,19.2937,8.1412,5.9854,0,11.1276-1.6864,15.4142-5.0591,4.2866-3.3645,6.7663-8.4818,7.4516-15.3602h26.7453c-.4112,6.3966-1.8401,12.22-4.2907,17.4536-2.4465,5.2419-5.8525,9.7029-10.2055,13.3747-4.3572,3.813-9.5949,6.7704-15.7216,8.8805-6.1225,2.1101-13.0674,3.1651-20.8222,3.1651Z"/><path d="M639.1445,315.0707c-8.0332,0-15.4474-1.2212-22.2511-3.6718-6.8078-2.4507-12.6603-6.056-17.5575-10.8244-5.0384-4.6272-8.9511-10.2761-11.7424-16.9469-2.7913-6.6625-4.1827-14.2886-4.1827-22.8617v-1.6365c0-8.4319,1.3915-16.058,4.1827-22.8617,2.7913-6.8037,6.704-12.6603,11.7424-17.5616,4.8972-4.7601,10.6832-8.4734,17.3539-11.1235,6.6666-2.6583,13.8815-3.9792,21.6405-3.9792,6.9407,0,13.5409,1.055,19.8004,3.1651,6.2595,2.1101,11.7756,5.3416,16.5357,9.6946,4.7684,4.353,8.5814,9.9688,11.4391,16.8389,2.8577,6.8784,4.2866,15.0777,4.2866,24.6062v8.1661h-76.9713c.4071,8.9802,2.8909,15.8919,7.4516,20.7184,4.5607,4.8348,10.9241,7.2523,19.0902,7.2523,6.9407,0,12.1453-1.3624,15.6177-4.0872,3.4725-2.7165,5.6822-6.3302,6.6334-10.8161h27.9707c-1.7695,11.5638-7.0446,20.4526-15.8254,26.6415-8.7808,6.1972-20.5149,9.2876-35.2146,9.2876Zm22.4588-67.1645c-.5441-8.1661-2.7913-14.1889-6.7372-18.0684-3.9501-3.8795-9.462-5.8234-16.5357-5.8234-6.6708,0-12.1494,2.0768-16.436,6.2305-4.2866,4.1536-6.9781,10.0352-8.0664,17.6613h47.7753Z"/><path d="M710.1927,206.0541h29.6072v16.9386c2.7165-5.3084,6.9366-9.8608,12.6603-13.6738,5.7154-3.813,13.0591-5.7154,22.0476-5.7154,5.3084,0,10.1349,.8141,14.4962,2.4507,4.353,1.6282,8.1661,4.0789,11.4308,7.3437,3.1319,3.406,5.5825,7.7258,7.352,12.9677,1.7611,5.2419,2.65,11.3976,2.65,18.4754v67.9869h-29.5989v-63.7004c0-7.352-1.5036-12.76-4.4942-16.2325-2.9989-3.4725-7.759-5.2004-14.2886-5.2004-6.4049,0-11.7133,1.9356-15.9251,5.8151-4.2201,3.8795-6.3302,9.7694-6.3302,17.6613v61.6568h-29.6072v-106.7737Z"/><path d="M875.159,314.8714c-11.2979,0-19.8711-2.8245-25.7194-8.4734-5.8566-5.649-8.7808-14.0559-8.7808-25.221v-54.0971h-13.6821v-21.0258h13.6821v-23.0777h29.3995v23.0777h22.4546v21.0258h-22.4546v51.4471c0,4.2201,.9886,7.3852,2.9574,9.4952,1.9771,2.1101,4.9345,3.1651,8.8805,3.1651,2.1765,0,4.1869-.1745,6.0228-.5151,1.8442-.3323,3.5721-.8473,5.2087-1.5285v22.8617c-2.0436,.6895-4.5607,1.3292-7.5513,1.9439-2.9989,.6147-6.4714,.9221-10.4174,.9221Z"/><path d="M949.069,315.0707c-5.1754,0-9.9771-.7809-14.3965-2.351-4.4278-1.5618-8.2658-3.9792-11.5388-7.244-3.2648-3.2648-5.8151-7.4516-7.651-12.5523-1.8359-5.109-2.758-11.1318-2.758-18.0684v-68.801h29.3995v64.7138c0,7.0778,1.5618,12.4194,4.6936,16.0248,3.1319,3.6137,7.759,5.4164,13.8815,5.4164,6.2637,0,11.5388-1.9439,15.8254-5.8234,4.2866-3.8795,6.4298-9.7611,6.4298-17.6613v-62.6703h29.3995v106.7737h-29.3995v-16.7392c-2.7248,5.4413-6.8369,9.9688-12.353,13.5741-5.5077,3.6054-12.6936,5.4081-21.5325,5.4081Z"/><path d="M1038.8875,206.0541h29.6072v20.411c3.3977-7.2107,7.8255-12.6603,13.2668-16.3321,5.4413-3.6718,12.5191-5.5825,21.2335-5.7154v27.5636c-11.0238-.1329-19.5305,1.8359-25.52,5.9148-5.9896,4.0872-8.9802,11.2315-8.9802,21.4411v53.4907h-29.6072v-106.7737Z"/><path d="M1169.96,315.0707c-8.0332,0-15.4516-1.2212-22.2552-3.6718-6.8037-2.4507-12.652-6.056-17.5533-10.8244-5.0425-4.6272-8.9553-10.2761-11.7382-16.9469-2.7913-6.6625-4.1869-14.2886-4.1869-22.8617v-1.6365c0-8.4319,1.3956-16.058,4.1869-22.8617,2.7829-6.8037,6.6957-12.6603,11.7382-17.5616,4.9013-4.7601,10.6832-8.4734,17.3539-11.1235,6.6625-2.6583,13.8815-3.9792,21.6405-3.9792,6.9366,0,13.5409,1.055,19.8046,3.1651,6.2554,2.1101,11.7714,5.3416,16.5315,9.6946,4.7684,4.353,8.5814,9.9688,11.4391,16.8389,2.8577,6.8784,4.2866,15.0777,4.2866,24.6062v8.1661h-76.9671c.4071,8.9802,2.8826,15.8919,7.4516,20.7184,4.5524,4.8348,10.9158,7.2523,19.0819,7.2523,6.9449,0,12.1536-1.3624,15.626-4.0872,3.4641-2.7165,5.6739-6.3302,6.6292-10.8161h27.9707c-1.7695,11.5638-7.0446,20.4526-15.8254,26.6415-8.7725,6.1972-20.5107,9.2876-35.2146,9.2876Zm22.4546-67.1645c-.54-8.1661-2.7913-14.1889-6.7372-18.0684s-9.4537-5.8234-16.5315-5.8234c-6.6708,0-12.1453,2.0768-16.4401,6.2305-4.2866,4.1536-6.9698,10.0352-8.0581,17.6613h47.767Z"/><path d="M211.435,371.0121h93.7063v25.7194h-60.635v38.7951h47.9788v24.9053h-47.9788v56.5561h-33.0714v-145.9758Z"/><path d="M369.0452,519.2309c-8.0332,0-15.4474-1.2212-22.2511-3.6718-6.8078-2.4507-12.6603-6.056-17.5575-10.8244-5.0384-4.6272-8.9511-10.2761-11.7424-16.9469-2.7913-6.6625-4.1827-14.2886-4.1827-22.8617v-1.6365c0-8.4319,1.3915-16.058,4.1827-22.8617,2.7913-6.8037,6.704-12.6603,11.7424-17.5616,4.8972-4.7601,10.6832-8.4734,17.3539-11.1235,6.6666-2.6583,13.8815-3.9792,21.6405-3.9792,6.9407,0,13.5409,1.055,19.8004,3.1651,6.2595,2.1101,11.7714,5.3416,16.5398,9.6946,4.7601,4.353,8.5731,9.9688,11.4308,16.8389,2.8577,6.8784,4.2866,15.0777,4.2866,24.6062v8.1661h-76.9671c.4071,8.9802,2.8909,15.8919,7.4516,20.7184,4.5607,4.8348,10.9241,7.2523,19.0902,7.2523,6.9407,0,12.1453-1.3624,15.6177-4.0872,3.4725-2.7165,5.6822-6.3302,6.6334-10.8161h27.9707c-1.7695,11.5638-7.0404,20.4526-15.8212,26.6415-8.7808,6.1972-20.519,9.2876-35.2188,9.2876Zm22.4588-67.1645c-.5441-8.1661-2.7913-14.1889-6.7372-18.0684-3.9501-3.8795-9.462-5.8234-16.5357-5.8234-6.6708,0-12.1494,2.0768-16.436,6.2305-4.2866,4.1536-6.9781,10.0352-8.0664,17.6613h47.7753Z"/><path d="M480.1055,519.2309c-6.5295,0-12.5897-1.1547-18.1681-3.4725-5.5825-2.3094-10.4838-5.7819-14.6998-10.409-4.2201-4.4942-7.5223-10.11-9.9023-16.8472-2.3842-6.7372-3.5721-14.5212-3.5721-23.3767v-1.6282c0-8.706,1.1879-16.5398,3.5721-23.4764,2.38-6.9449,5.6822-12.7932,9.9023-17.5616,4.216-4.7601,9.1879-8.3987,14.9033-10.9241,5.7154-2.5171,11.9085-3.7715,18.5793-3.7715,8.5731,0,15.5845,1.703,21.0299,5.1007,5.4413,3.406,9.6614,7.8255,12.6562,13.2668v-64.3068h29.3995v155.1637h-29.3995v-17.761c-2.7248,5.4413-7.1443,10.1349-13.2709,14.0809-6.1225,3.946-13.138,5.9231-21.0299,5.9231Zm8.7808-23.0694c7.759,0,14.085-2.6251,18.9863-7.8836,4.9013-5.2585,7.352-13.3498,7.352-24.2656v-1.6448c0-10.65-2.2139-18.6665-6.6375-24.0579-4.4236-5.3914-10.7164-8.0913-18.8825-8.0913-8.3073,0-14.6707,2.7663-19.0902,8.2907-4.4236,5.5327-6.6375,13.624-6.6375,24.2739v1.6365c0,10.65,2.3136,18.6,6.9449,23.8586,4.623,5.2585,10.6126,7.8836,17.9645,7.8836Z"/><path d="M619.7511,519.2309c-8.0332,0-15.4474-1.2212-22.2511-3.6718-6.8078-2.4507-12.6603-6.056-17.5575-10.8244-5.0384-4.6272-8.9511-10.2761-11.7424-16.9469-2.7913-6.6625-4.1827-14.2886-4.1827-22.8617v-1.6365c0-8.4319,1.3915-16.058,4.1827-22.8617s6.704-12.6603,11.7424-17.5616c4.8972-4.7601,10.6832-8.4734,17.3539-11.1235,6.6666-2.6583,13.8815-3.9792,21.6405-3.9792,6.9407,0,13.5409,1.055,19.8004,3.1651,6.2595,2.1101,11.7714,5.3416,16.5398,9.6946,4.7601,4.353,8.5731,9.9688,11.4308,16.8389,2.8577,6.8784,4.2866,15.0777,4.2866,24.6062v8.1661h-76.9671c.4071,8.9802,2.8909,15.8919,7.4516,20.7184,4.5607,4.8348,10.9241,7.2523,19.0902,7.2523,6.9407,0,12.1453-1.3624,15.6177-4.0872,3.4725-2.7165,5.6822-6.3302,6.6334-10.8161h27.9748c-1.7778,11.5638-7.0446,20.4526-15.8254,26.6415-8.7808,6.1972-20.519,9.2876-35.2188,9.2876Zm22.4588-67.1645c-.5441-8.1661-2.7913-14.1889-6.7372-18.0684-3.9501-3.8795-9.462-5.8234-16.5357-5.8234-6.6708,0-12.1494,2.0768-16.436,6.2305-4.2866,4.1536-6.9781,10.0352-8.0664,17.6613h47.7753Z"/><path d="M690.7993,410.2142h29.6114v20.411c3.3977-7.2107,7.8255-12.6603,13.2668-16.3321s12.5191-5.5825,21.2335-5.7154v27.5636c-11.0238-.1329-19.5305,1.8359-25.52,5.9148-5.9896,4.0872-8.9802,11.2315-8.9802,21.4411v53.4907h-29.6114v-106.7737Z"/><path d="M801.4566,519.2309c-4.9013,0-9.4952-.6147-13.7818-1.8359-4.2866-1.2295-8.0664-3.1319-11.3312-5.7154-3.2731-2.5836-5.8566-5.8899-7.759-9.9023-1.9107-4.0124-2.8577-8.814-2.8577-14.3965,0-6.2554,1.3541-11.5638,4.0789-15.9251,2.7248-4.353,6.5378-7.8919,11.4391-10.6167,4.893-2.7165,10.7496-4.6936,17.5533-5.9148,6.8037-1.2295,14.2886-1.8442,22.4546-1.8442h12.0456v-4.2866c0-6.3966-1.1879-11.2564-3.5721-14.5959-2.3842-3.3312-6.9698-5.001-13.7818-5.001-5.8483,0-10.1764,1.3624-12.9594,4.0872-2.7913,2.7248-4.5275,6.3966-5.2087,11.0238h-27.9707c.4071-6.2637,1.9439-11.705,4.5939-16.3321,2.6583-4.6272,6.0892-8.4402,10.3094-11.4391,4.2201-2.9906,9.1546-5.2004,14.8036-6.6292,5.649-1.4289,11.7382-2.1433,18.2761-2.1433,6.5295,0,12.5191,.7144,17.9604,2.1433s10.2097,3.7051,14.2969,6.8369c3.946,3.1319,7.0031,7.219,9.1879,12.245,2.1682,5.0425,3.2648,11.165,3.2648,18.3757v69.6235h-28.7848v-12.868c-3.1402,4.3613-7.1858,7.9667-12.1536,10.8244-4.9678,2.8577-11.6718,4.2866-20.1037,4.2866Zm8.7725-20.4193c6.5378,0,12.0124-1.6698,16.4401-5.0342,4.4195-3.3561,6.6292-8.0498,6.6292-14.0892v-9.0466h-11.4308c-8.5731,0-15.2439,1.0966-20.004,3.2897-4.7684,2.1931-7.1443,6.1723-7.1443,11.9293,0,3.9792,1.2212,7.1277,3.6718,9.462,2.4507,2.326,6.3966,3.4891,11.8379,3.4891Z"/><path d="M889.0405,361.8242h29.3995v155.1637h-29.3995v-155.1637Z"/><path d="M262.475,723.391c-10.0768,0-18.7828-1.1215-26.1348-3.3645-7.3478-2.2513-13.4744-5.4828-18.3757-9.7029-4.8972-4.2118-8.6437-9.2543-11.2273-15.1027-2.5877-5.8566-4.083-12.4609-4.4901-19.8046h31.6425c.4112,3.2648,1.0883,6.3634,2.0436,9.2876,.9512,2.9242,2.5171,5.4081,4.6936,7.4516,2.1765,2.1765,5.0051,3.9127,8.4734,5.2087,3.4725,1.2959,7.9293,1.9356,13.3747,1.9356,7.3478,0,13.2003-1.8027,17.5575-5.4164,4.353-3.6137,6.5337-8.2907,6.5337-14.0144,0-2.866-.4444-5.3167-1.3292-7.3686-.8847-2.0436-2.3468-3.8214-4.3904-5.3167-2.1765-1.3624-5.0342-2.5586-8.5731-3.5804-3.5431-1.0218-7.9625-1.9439-13.2709-2.758-9.3914-1.2212-17.3872-2.8909-23.9873-5.001-6.6043-2.1101-12.0165-4.9262-16.2325-8.4651-4.3572-3.3977-7.5223-7.6095-9.4911-12.6437-1.9771-5.0342-2.9616-11.0819-2.9616-18.1598,0-6.2471,1.2544-12.029,3.7757-17.3373,2.5171-5.3001,6.0892-9.9272,10.7206-13.8649,4.623-3.813,10.2055-6.8037,16.7392-8.9802s13.815-3.2648,21.844-3.2648c16.4692,0,29.3663,3.622,38.6912,10.8743,9.3208,7.244,14.6624,18.1182,16.0248,32.6144h-30.4213c-.9512-6.5378-3.4683-11.3976-7.5513-14.5959-4.083-3.1983-9.6655-4.8016-16.7434-4.8016-7.3478,0-12.8306,1.5369-16.4318,4.6022-3.6095,3.0737-5.4122,7.0612-5.4122,11.9708,0,2.5919,.3738,4.8764,1.1215,6.8535s2.1474,3.6469,4.1869,5.0093c1.9065,1.5036,4.6272,2.7913,8.1661,3.8878,3.5389,1.0883,8.0955,2.0436,13.678,2.866,8.8473,1.0883,16.6063,2.6251,23.277,4.5939,6.6666,1.9771,12.2491,4.6022,16.7392,7.8753,4.4901,3.406,7.8587,7.7009,10.1058,12.8846,2.2471,5.1754,3.3686,11.5139,3.3686,19.0071,0,6.5462-1.2959,12.6437-3.8795,18.301-2.5877,5.6656-6.2595,10.5337-11.0238,14.6208-4.7642,4.2284-10.6167,7.5679-17.5575,10.0186-6.9407,2.4507-14.6998,3.6801-23.2729,3.6801Z"/><path d="M389.0492,723.391c-8.0332,0-15.4474-1.2212-22.2511-3.6718-6.8078-2.4507-12.6603-6.056-17.5575-10.8244-5.0384-4.6272-8.9511-10.2761-11.7424-16.9469-2.7913-6.6625-4.1827-14.2886-4.1827-22.8617v-1.6365c0-8.4319,1.3915-16.058,4.1827-22.8617,2.7913-6.8037,6.704-12.6603,11.7424-17.5616,4.8972-4.7601,10.6832-8.4734,17.3539-11.1235,6.6666-2.6583,13.8815-3.9792,21.6405-3.9792,6.9407,0,13.5409,1.055,19.8004,3.1651,6.2595,2.1101,11.7714,5.3416,16.5398,9.6946,4.7601,4.353,8.5731,9.9688,11.4308,16.8389,2.8577,6.8784,4.2866,15.0777,4.2866,24.6062v8.1661h-76.9671c.4071,8.9802,2.8909,15.8919,7.4516,20.7184,4.5607,4.8348,10.9241,7.2523,19.0902,7.2523,6.9407,0,12.1453-1.3624,15.6177-4.0872,3.4725-2.7165,5.6822-6.3302,6.6334-10.8161h27.9707c-1.7695,11.5638-7.0404,20.4526-15.8212,26.6415-8.7808,6.1972-20.519,9.2876-35.2188,9.2876Zm22.4588-67.1645c-.5441-8.1661-2.7913-14.1889-6.7372-18.0684-3.9501-3.8795-9.462-5.8234-16.5357-5.8234-6.6708,0-12.1494,2.0768-16.436,6.2305-4.2866,4.1536-6.9781,10.0352-8.0664,17.6613h47.7753Z"/><path d="M460.1015,614.3744h29.6031v20.411c3.3977-7.2107,7.8255-12.6603,13.2709-16.3321,5.4413-3.6718,12.5191-5.5825,21.2293-5.7154v27.5636c-11.0238-.1329-19.5305,1.8359-25.52,5.9148-5.9896,4.0872-8.9802,11.2315-8.9802,21.4411v53.4907h-29.6031v-106.7737Z"/><path d="M534.8173,614.3744h31.6466l25.52,76.3524,25.3123-76.3524h28.5854l-38.7909,106.7737h-33.279l-38.9945-106.7737Z"/><path d="M677.5242,599.8781c-4.7684,0-8.7393-1.5369-11.9459-4.5939-3.1983-3.0654-4.7933-6.9117-4.7933-11.5388s1.595-8.4734,4.7933-11.5305c3.2066-3.0654,7.1775-4.5939,11.9459-4.5939s8.7725,1.5285,12.0456,4.5939c3.2731,3.0571,4.9013,6.9034,4.9013,11.5305s-1.6282,8.4734-4.9013,11.5388c-3.2731,3.0571-7.2772,4.5939-12.0456,4.5939Zm-14.4962,14.4962h29.3995v106.7737h-29.3995v-106.7737Z"/><path d="M768.3853,723.391c-7.759,0-15.0113-1.1963-21.7485-3.5721s-12.5523-5.8816-17.4536-10.517c-4.9013-4.6189-8.7476-10.3094-11.5305-17.0466-2.7913-6.7372-4.1869-14.4547-4.1869-23.1691v-1.6365c0-8.5731,1.4289-16.2989,4.2866-23.1691,2.8577-6.8701,6.8037-12.76,11.8379-17.6613,5.0342-4.7601,10.8909-8.3987,17.5616-10.9241,6.6625-2.5171,13.815-3.7715,21.4328-3.7715,6.1308,0,12.0788,.7144,17.869,2.1433,5.7819,1.4289,10.9906,3.7715,15.6177,7.0446,4.4942,3.2648,8.2325,7.5513,11.2315,12.8597,2.9906,5.3084,4.8265,11.7714,5.5077,19.3975h-27.9707c-.9553-6.1308-3.2315-10.6832-6.8369-13.6821-3.6054-2.9906-8.5399-4.4942-14.8036-4.4942-7.759,0-13.948,2.7497-18.5751,8.2491-4.6272,5.4911-6.9449,13.3249-6.9449,23.5013v1.6282c0,10.7247,2.2762,18.7994,6.8369,24.2241,4.5607,5.4247,10.9906,8.1412,19.2979,8.1412,5.9896,0,11.1235-1.6864,15.41-5.0591,4.2866-3.3645,6.7704-8.4818,7.4516-15.3602h26.7495c-.4071,6.3966-1.8359,12.22-4.2866,17.4536-2.4507,5.2419-5.8566,9.7029-10.2097,13.3747-4.3613,3.813-9.5949,6.7704-15.7174,8.8805-6.1308,2.1101-13.0674,3.1651-20.8264,3.1651Z"/><path d="M887.6116,723.391c-8.0332,0-15.4516-1.2212-22.2552-3.6718s-12.652-6.056-17.5533-10.8244c-5.0425-4.6272-8.9553-10.2761-11.7382-16.9469-2.7913-6.6625-4.1869-14.2886-4.1869-22.8617v-1.6365c0-8.4319,1.3956-16.058,4.1869-22.8617,2.7829-6.8037,6.6957-12.6603,11.7382-17.5616,4.9013-4.7601,10.6832-8.4734,17.3539-11.1235,6.6625-2.6583,13.8815-3.9792,21.6405-3.9792,6.9366,0,13.5409,1.055,19.8046,3.1651,6.2554,2.1101,11.7714,5.3416,16.5315,9.6946,4.7684,4.353,8.5814,9.9688,11.4391,16.8389,2.8577,6.8784,4.2866,15.0777,4.2866,24.6062v8.1661h-76.9671c.4071,8.9802,2.8826,15.8919,7.4516,20.7184,4.5524,4.8348,10.9158,7.2523,19.0819,7.2523,6.9449,0,12.1536-1.3624,15.626-4.0872,3.4641-2.7165,5.6739-6.3302,6.6292-10.8161h27.9707c-1.7695,11.5638-7.0446,20.4526-15.8254,26.6415-8.7725,6.1972-20.5107,9.2876-35.2146,9.2876Zm22.4546-67.1645c-.54-8.1661-2.7913-14.1889-6.7372-18.0684-3.946-3.8795-9.4537-5.8234-16.5315-5.8234-6.6708,0-12.1453,2.0768-16.4401,6.2305-4.2866,4.1536-6.9698,10.0352-8.0581,17.6613h47.767Z"/><path d="M998.4642,723.391c-14.4298,0-25.6612-3.0571-33.6861-9.1713-8.0332-6.1059-12.3197-14.9365-12.868-26.4754h27.5636c.6812,4.8016,2.351,8.5399,5.001,11.2149,2.6583,2.6833,7.2523,4.0124,13.7818,4.0124,5.7154,0,9.9355-1.0218,12.6603-3.082,2.7165-2.0602,4.0789-4.9428,4.0789-8.6479s-1.6615-6.488-5.001-8.3405c-3.3312-1.8525-8.8805-3.3312-16.6395-4.4278-7.0778-1.0883-13.1006-2.4507-18.0684-4.0789-4.9678-1.6365-9.0134-3.7466-12.1453-6.3302-3.2648-2.5836-5.6157-5.7486-7.0446-9.4952-1.4289-3.7383-2.1433-8.1993-2.1433-13.3747,0-5.5742,1.1879-10.4423,3.5721-14.5959,2.3842-4.1453,5.5493-7.651,9.4952-10.5087,3.813-2.7248,8.2658-4.7684,13.3747-6.1308,5.1007-1.3541,10.3758-2.0353,15.8171-2.0353,5.8566,0,11.3312,.5732,16.4401,1.7362,5.1007,1.163,9.6282,3.0405,13.5741,5.6323,3.813,2.5919,6.9449,6.0062,9.3956,10.2346,2.4507,4.2284,4.0124,9.4122,4.6936,15.5596h-27.1566c-.8141-4.3198-2.5171-7.5181-5.1007-9.6115-2.5919-2.0934-6.4714-3.1402-11.6385-3.1402-4.7684,0-8.4734,1.0135-11.1235,3.0405-2.6583,2.0187-3.9875,4.6521-3.9875,7.8836,0,3.3728,1.4953,5.8733,4.4942,7.4932,2.9906,1.6199,8.3738,2.9657,16.1328,4.0457,6.6625,.947,12.5856,2.1765,17.761,3.6718,5.1671,1.4953,9.5202,3.4725,13.0674,5.9231,3.3977,2.5836,6.0228,5.7819,7.8587,9.5949,1.8359,3.813,2.7497,8.5731,2.7497,14.2886,0,11.5721-3.946,20.3113-11.8379,26.2344-7.8919,5.9231-18.9157,8.8805-33.0714,8.8805Z"/></svg>