<?xml version="1.0" encoding="UTF-8" standalone="no"?>
<!-- Created with Inkscape (http://www.inkscape.org/) -->

<svg
   width="611.22266mm"
   height="102.20875mm"
   viewBox="0 0 611.22266 102.20875"
   version="1.1"
   id="svg5"
   xml:space="preserve"
   sodipodi:docname="applied.svg"
   inkscape:version="1.2.2 (732a01da63, 2022-12-09)"
   xmlns:inkscape="http://www.inkscape.org/namespaces/inkscape"
   xmlns:sodipodi="http://sodipodi.sourceforge.net/DTD/sodipodi-0.dtd"
   xmlns="http://www.w3.org/2000/svg"
   xmlns:svg="http://www.w3.org/2000/svg"><sodipodi:namedview
     id="namedview7"
     pagecolor="#ffffff"
     bordercolor="#000000"
     borderopacity="0.25"
     inkscape:showpageshadow="2"
     inkscape:pageopacity="0.0"
     inkscape:pagecheckerboard="0"
     inkscape:deskcolor="#d1d1d1"
     inkscape:document-units="mm"
     showgrid="false"
     inkscape:zoom="0.19929059"
     inkscape:cx="1151.5847"
     inkscape:cy="-2.5088992"
     inkscape:window-width="1128"
     inkscape:window-height="682"
     inkscape:window-x="-6"
     inkscape:window-y="-6"
     inkscape:window-maximized="1"
     inkscape:current-layer="layer1" /><defs
     id="defs2" /><g
     inkscape:label="Layer 1"
     inkscape:groupmode="layer"
     id="layer1"
     transform="translate(722.46652,-185.19246)"><path
       id="path5432"
       style="font-weight:bold;font-size:31.6985px;font-family:AvenirNextLTW01-Bold;-inkscape-font-specification:'AvenirNextLTW01-Bold Bold';text-align:start;text-anchor:start;fill:#020202;stroke-width:11.2317;paint-order:markers fill stroke"
       d="m -684.6032,185.19246 -0.77463,2.46238 c -1.72358,5.47938 -12.29879,37.9387 -12.45971,38.24366 -0.16233,0.30763 -9.56515,-29.98632 -10.51098,-33.86408 -0.76141,-3.12169 0.0295,-4.26397 3.31039,-4.78059 l 1.88619,-0.29714 v -0.86764 -0.86713 h -9.65729 -9.65729 v 0.92604 c 0,0.83352 0.0727,0.92659 0.7276,0.92759 2.50945,0.005 4.34198,1.47264 5.4498,4.36407 0.39028,1.01865 3.74571,11.67476 7.45639,23.68021 3.71068,12.00545 6.80066,21.97696 6.86676,22.15886 0.0661,0.1819 0.53119,0.33073 1.03301,0.33073 h 0.91209 l 1.06816,-3.24115 c 0.58756,-1.78263 3.57831,-11.03975 6.6461,-20.57135 6.47052,-20.10386 5.80509,-18.09784 5.95416,-17.94878 0.0652,0.0652 3.50526,9.27967 7.64449,20.47679 4.13923,11.1971 7.6085,20.56681 7.70909,20.82147 0.12404,0.31406 0.47163,0.46302 1.08056,0.46302 0.49375,0 0.89762,-0.0481 0.89762,-0.10646 0,-0.37779 12.03707,-41.23487 12.71343,-43.15292 0.9054,-2.56751 1.59833,-4.05874 2.44223,-5.25601 0.57307,-0.81304 2.85032,-2.01345 3.82819,-2.01745 0.50352,-0.002 0.59532,-0.14543 0.59532,-0.92862 v -0.92604 h -7.01146 -7.01146 v 0.92604 c 0,0.87055 0.0518,0.92604 0.86971,0.92604 1.12824,0 3.05542,0.99156 3.73259,1.92081 0.71952,0.98738 0.85617,3.50685 0.31885,5.8844 -0.64364,2.848 -8.73698,31.08296 -8.91057,31.08596 -0.0842,0.001 -3.49216,-9.13547 -7.57318,-20.30419 l -7.42022,-20.30677 -1.07797,-0.0806 z m 365.62626,0.0217 v 0.89141 0.89142 l 2.58692,0.14263 c 3.43869,0.18948 4.4108,0.61101 5.16299,2.24017 l 0.58446,1.26607 v 19.1823 c 0,17.36579 -0.0429,19.32038 -0.4532,20.64421 -0.84965,2.74132 -3.08737,4.59654 -6.35982,5.27255 -1.43425,0.29629 -1.52135,0.35869 -1.52135,1.08934 v 0.77515 h 9.39271 9.39271 v -0.78187 c 0,-0.69767 -0.10673,-0.79958 -0.99219,-0.94671 -3.6368,-0.60433 -6.03449,-2.37473 -7.00681,-5.17384 -0.22786,-0.65598 -0.33534,-6.22276 -0.39274,-20.34967 l -0.0791,-19.44687 8.14731,18.25625 c 4.48101,10.04093 9.1552,20.54978 10.38696,23.35309 l 2.23966,5.09685 1.01596,-0.0698 1.01596,-0.0698 10.22883,-23.17119 10.22883,-23.1712 0.0718,19.46703 c 0.0425,11.4665 -0.0317,20.14664 -0.18086,21.12119 -0.46776,3.0566 -1.67372,3.94827 -5.69888,4.21267 l -2.52646,0.16588 v 0.75396 0.75396 h 12.56771 12.56771 v -0.75603 -0.75551 l -2.76263,-0.14108 c -4.04433,-0.20641 -5.48815,-1.09328 -5.98723,-3.67677 -0.29072,-1.50482 -0.29072,-40.22442 0,-41.72924 0.26331,-1.36303 0.97968,-2.41505 1.97766,-2.90422 0.39997,-0.19605 2.07345,-0.41971 3.75998,-0.50281 l 3.0396,-0.14986 -0.0796,-0.8201 -0.0801,-0.81959 h -8.01811 -8.01863 l -9.42372,21.43125 c -5.18304,11.78718 -9.46241,21.48072 -9.51001,21.54132 -0.0477,0.0606 -0.1573,0.0396 -0.2434,-0.0465 -0.0861,-0.0862 -4.41844,-9.77965 -9.62732,-21.54132 l -9.47074,-21.38474 -7.96747,-0.0703 z m -23.6554,0.30385 c -1.8831,-0.0845 -4.37958,0.18786 -5.48132,0.68265 -3.65136,1.63981 -5.37976,5.18754 -3.9207,8.04757 1.31139,2.57051 5.29456,2.39139 6.67402,-0.30024 0.57881,-1.12936 0.41758,-2.36939 -0.48938,-3.75946 -1.32141,-2.02524 -0.57347,-3.11886 2.127,-3.10886 1.85147,0.007 3.34599,0.59524 4.53823,1.78749 1.44349,1.44347 1.81901,2.5485 1.81901,5.35058 0,2.28627 -0.0701,2.64021 -0.77722,3.91656 -2.25638,4.07305 -5.9022,5.4473 -15.62695,5.89008 -9.25845,0.42155 -12.62269,1.37503 -15.61093,4.42505 -1.7067,1.74196 -2.91983,4.01683 -3.32538,6.23528 -0.90684,4.96063 2.49274,9.23251 7.34684,9.23251 3.20899,0 5.51163,-1.92498 5.81463,-4.86069 0.18121,-1.75592 -0.31477,-2.91135 -1.58027,-3.68298 -1.01754,-0.62041 -2.0557,-0.65978 -3.10472,-0.1173 -1.07387,0.55531 -1.65076,1.81391 -1.73426,3.7822 -0.039,0.91838 -0.21324,1.84111 -0.38705,2.05052 -0.8559,1.03128 -3.26533,-0.16113 -4.19148,-2.07429 -2.44374,-5.0481 3.11314,-10.60992 10.57403,-10.58282 4.99703,0.0181 8.66513,2.15258 10.52856,6.12676 0.60946,1.29968 0.69643,1.82048 0.69143,4.13308 -0.005,2.44094 -0.0719,2.7828 -0.86661,4.41782 -1.13913,2.34365 -3.03753,4.37139 -5.8596,6.25905 -4.42337,2.95874 -9.09998,4.14637 -15.49311,3.93464 -4.08939,-0.13544 -5.71645,-0.44138 -8.65632,-1.62884 -4.83102,-1.95134 -9.62102,-6.54663 -11.51816,-11.04946 -0.60633,-1.43912 -0.70541,-2.05113 -0.71571,-4.44675 -0.0104,-2.37158 0.0736,-2.93771 0.57102,-3.86747 1.42192,-2.65791 3.61496,-4.33462 5.66942,-4.33462 1.60605,0 2.42541,0.32177 4.08812,1.60456 1.77789,1.3716 2.80252,1.72483 3.80029,1.31154 1.55207,-0.64288 1.6949,-2.95751 0.24908,-4.03696 -0.42447,-0.3169 -1.56617,-0.6429 -2.98638,-0.85266 -2.61374,-0.38604 -2.83241,-0.55874 -3.49488,-2.76469 -0.65579,-2.18372 -0.41169,-5.2706 0.57774,-7.30033 1.07839,-2.21218 3.76069,-4.84803 6.08852,-5.9831 1.66211,-0.81047 2.04691,-0.892 4.2106,-0.894 1.96834,-0.002 2.60047,0.10564 3.64525,0.62012 2.56625,1.26367 3.41936,3.68453 2.43913,6.92206 -0.71673,2.36717 -0.24424,2.9327 1.48311,1.77457 1.28468,-0.86132 2.39027,-3.05341 2.55127,-5.05913 0.23492,-2.92655 -1.31383,-5.35769 -4.43022,-6.95409 -1.36684,-0.70015 -1.65608,-0.74518 -4.7625,-0.74518 h -3.30729 l -2.28772,1.09916 c -3.2757,1.57383 -5.93139,4.13927 -7.44296,7.18974 -1.10314,2.22744 -1.11745,2.28805 -1.10845,5.05241 0.008,2.35554 0.12139,3.10974 0.71933,4.7687 0.39065,1.08384 0.68447,1.98636 0.65267,2.00556 -0.0318,0.0192 -0.84532,0.24287 -1.80764,0.49661 -2.67818,0.70617 -4.34658,1.59174 -6.03787,3.20497 -1.70543,1.62668 -2.98952,3.91706 -3.48093,6.20841 -0.17974,0.83399 -0.25163,2.62431 -0.17673,4.34909 0.19812,4.56493 1.67087,7.90952 4.96301,11.27114 3.83279,3.91371 9.08157,6.46729 14.61719,7.1112 4.53054,0.527 10.25868,0.21342 14.11387,-0.77256 4.40933,-1.12772 7.17896,-2.64229 10.39058,-5.68235 3.86984,-3.66309 5.75714,-7.21672 6.04252,-11.37708 0.28114,-4.09894 -0.95213,-7.30045 -3.93361,-10.21178 l -1.79058,-1.74873 2.57141,-0.17156 c 5.42173,-0.36231 8.99266,-1.72861 11.56364,-4.42402 3.1448,-3.29698 4.31905,-7.7806 3.08715,-11.78895 -0.95096,-3.0943 -3.48937,-5.73711 -6.21719,-6.47247 -0.41708,-0.11244 -0.97686,-0.18009 -1.60455,-0.20826 z m 119.71775,7.90598 c -0.73271,0 -1.02276,0.65744 -12.43541,28.17812 -5.08445,12.26071 -5.79197,13.40059 -8.8713,14.29577 -1.2591,0.36603 -1.46606,0.51675 -1.46606,1.06867 v 0.64286 h 6.61459 6.61458 v -0.63149 c 0,-0.54075 -0.16286,-0.65598 -1.13327,-0.8015 -2.5978,-0.38957 -3.77757,-1.88164 -3.56154,-4.5036 0.12562,-1.52456 1.92333,-6.7859 3.14865,-9.21494 l 0.50229,-0.99581 8.23258,0.0698 8.23257,0.0703 1.81746,4.36563 c 2.85365,6.85626 3.15937,7.78668 2.84685,8.68319 -0.33989,0.97496 -1.12056,1.3261 -3.42718,1.54048 -1.70954,0.15888 -1.84174,0.21548 -1.84174,0.79426 v 0.62374 h 8.59895 8.59896 v -0.63511 c 0,-0.5461 -0.19153,-0.6813 -1.36684,-0.96325 -0.99867,-0.23957 -1.65853,-0.62078 -2.44998,-1.41541 -1.18631,-1.19111 -1.05129,-0.88742 -12.33155,-27.74405 -5.37638,-12.80037 -5.67182,-13.4276 -6.32261,-13.4276 z m -277.33036,0.005 c -0.66348,-0.005 -0.95769,0.63491 -7.63157,16.59743 -9.34587,22.35334 -9.13038,21.85537 -10.07019,23.22133 -0.95854,1.39317 -2.3027,2.34649 -3.8995,2.76468 -0.93824,0.24573 -1.12434,0.40256 -1.12448,0.94568 v 0.65113 h 6.48229 6.48229 v -0.66146 c 0,-0.3638 -0.14883,-0.66221 -0.33073,-0.66301 -1.80161,-0.008 -3.75946,-1.39401 -4.18114,-2.96003 -0.38671,-1.43611 -0.0553,-2.78916 1.91565,-7.82019 l 1.58078,-4.0349 h 8.28322 8.28321 l 2.04845,4.94854 c 1.12665,2.72159 2.22038,5.45215 2.43035,6.06836 0.83138,2.43998 0.0258,3.42399 -3.03031,3.70158 -1.78926,0.16253 -1.91823,0.21583 -1.91823,0.79737 v 0.62374 h 8.59896 8.59896 v -0.61805 c 0,-0.52692 -0.22441,-0.68046 -1.52136,-1.0418 -2.0178,-0.56218 -2.96723,-1.58436 -4.3713,-4.70617 -0.61777,-1.37353 -4.45585,-10.44255 -8.5292,-20.15329 -7.10473,-16.93744 -7.43414,-17.65594 -8.09615,-17.66094 z m 317.9253,0.13487 c -4.80218,0.004 -9.89211,0.10494 -11.31094,0.22325 l -2.57968,0.21497 v 0.74311 0.74259 l 2.40295,0.0925 c 2.31764,0.0892 2.43006,0.12223 3.1564,0.93534 0.4691,0.52514 0.81511,1.27353 0.91777,1.98438 0.0909,0.6277 0.12927,8.76154 0.0853,18.07486 -0.0736,15.59919 -0.11712,17.00056 -0.54777,17.78858 -0.65019,1.18966 -1.78373,1.69037 -4.20337,1.85622 -1.96423,0.13463 -2.07584,0.17577 -2.07584,0.76584 v 0.62374 h 10.45104 10.45105 v -0.6258 c 0,-0.60474 -0.0837,-0.62937 -2.53473,-0.75758 -2.81115,-0.14704 -3.53558,-0.48222 -4.46175,-2.06396 -0.47231,-0.80663 -0.52398,-1.55659 -0.62942,-9.16688 l -0.11472,-8.28787 h 1.78852 c 1.31048,0 2.00882,0.13698 2.61328,0.51315 1.05545,0.65684 3.37803,3.43641 6.64611,7.95352 4.38591,6.0622 6.18733,8.38086 8.1163,10.44639 l 1.85777,1.98903 h 6.05906 6.05958 v -0.63356 c 0,-0.56936 -0.16672,-0.66242 -1.65365,-0.92345 -4.13507,-0.7259 -6.83442,-3.00411 -12.74599,-10.75852 -1.88076,-2.46702 -4.55967,-5.62785 -5.95313,-7.02386 l -2.53369,-2.53835 1.99936,-0.44183 c 4.33469,-0.95827 7.57568,-3.22731 9.12916,-6.39134 0.70321,-1.43223 0.77779,-1.83757 0.77773,-4.22972 -5e-5,-2.35252 -0.0811,-2.81083 -0.72967,-4.13101 -1.50387,-3.06103 -4.99688,-5.42522 -9.58908,-6.49056 -1.83941,-0.42674 -3.26042,-0.49018 -10.84792,-0.48318 z m -466.85729,0.38913 v 0.79375 0.79375 h 2.01073 c 2.42931,0 3.61379,0.48122 4.11654,1.67225 0.28534,0.67593 0.35502,4.35434 0.35502,18.71203 0,16.61092 -0.0329,17.9215 -0.4656,18.58181 -0.68486,1.04514 -1.86742,1.54236 -4.06332,1.70843 -1.83366,0.13868 -1.95337,0.18599 -1.95337,0.77101 v 0.62322 h 9.92187 9.92188 v -0.62374 c 0,-0.59204 -0.10929,-0.63125 -2.15594,-0.77153 -2.47783,-0.16983 -3.24325,-0.58304 -4.06177,-2.19366 -0.50732,-0.99827 -0.5326,-1.65846 -0.6165,-15.99024 -0.091,-15.5419 0.0949,-20.06173 0.87437,-21.25142 0.58958,-0.89981 1.68629,-1.23816 4.01474,-1.23816 h 1.9451 v -0.79375 -0.79375 h -9.92188 z m 23.54792,0 v 0.79375 0.79375 h 1.9451 c 3.70895,0 4.34237,0.60334 4.68757,4.46432 0.2849,3.18639 0.29422,27.83035 0.0119,31.33246 -0.30827,3.82375 -1.05525,4.60242 -4.67517,4.87619 -1.85016,0.13993 -1.96938,0.18708 -1.96938,0.77256 v 0.62322 h 18.48259 18.48259 l 0.16847,-1.78594 c 0.0928,-0.98226 0.16953,-3.84767 0.17053,-6.36757 l 0.002,-4.58163 -0.69144,0.0837 c -0.61145,0.074 -0.78969,0.35904 -1.54357,2.46497 -1.14375,3.195 -1.72692,4.27105 -3.20394,5.91385 -1.59376,1.77264 -2.77254,2.3616 -5.44514,2.72128 -3.27678,0.44099 -10.16064,0.18925 -11.41895,-0.41755 -1.99616,-0.96262 -1.90634,-0.0474 -1.90634,-19.46237 0,-16.30023 0.0293,-17.40644 0.49506,-18.61385 0.65088,-1.6873 1.44691,-2.02365 4.78834,-2.02365 h 2.52181 v -0.79375 -0.79375 h -10.45104 z m 39.95208,0 v 0.79375 0.79375 h 1.9451 c 3.70896,0 4.34237,0.60334 4.68757,4.46432 0.2849,3.18639 0.29422,27.83035 0.0119,31.33246 -0.30826,3.82375 -1.05525,4.60242 -4.67516,4.87619 -1.85017,0.13993 -1.96939,0.18708 -1.96939,0.77256 v 0.62322 h 18.48259 18.48259 l 0.16847,-1.78594 c 0.0927,-0.98226 0.16953,-3.84767 0.17053,-6.36757 l 0.002,-4.58163 -0.69143,0.0837 c -0.61145,0.074 -0.78969,0.35904 -1.54358,2.46497 -1.14375,3.195 -1.72691,4.27105 -3.20394,5.91385 -1.59374,1.77264 -2.77253,2.3616 -5.44514,2.72128 -3.27679,0.44099 -10.16064,0.18925 -11.41894,-0.41755 -1.99618,-0.96262 -1.90635,-0.0474 -1.90635,-19.46237 0,-16.30023 0.0293,-17.40644 0.49506,-18.61385 0.65087,-1.6873 1.44692,-2.02365 4.78834,-2.02365 h 2.52181 v -0.79375 -0.79375 h -10.45104 z m 39.6875,0 v 0.79375 0.79375 h 1.99264 c 2.43522,0 3.63217,0.45691 4.27364,1.63246 0.45079,0.82605 0.48059,1.9735 0.48059,18.47587 0,16.28792 -0.0346,17.66406 -0.46715,18.5322 -0.67583,1.35611 -1.72829,1.8689 -4.18217,2.03709 -1.98628,0.13615 -2.09755,0.17678 -2.09755,0.76739 v 0.62374 h 10.05417 10.05416 v -0.62374 c 0,-0.59007 -0.11159,-0.63121 -2.07584,-0.76584 -2.41963,-0.16584 -3.55319,-0.66656 -4.20336,-1.85622 -0.43078,-0.78824 -0.47352,-2.18369 -0.54312,-17.76791 -0.0808,-18.10494 -0.0191,-19.17797 1.16375,-20.2892 0.57396,-0.53921 1.01094,-0.64722 3.09697,-0.76326 2.41522,-0.13435 2.42983,-0.13904 2.51303,-0.86248 l 0.0837,-0.7276 h -10.07173 z m 71.66694,0 0.0837,0.7276 c 0.0836,0.72658 0.0875,0.7276 2.67735,0.87953 2.28562,0.13408 2.67014,0.22894 3.23857,0.79737 1.1316,1.1312 1.21601,2.57663 1.12861,19.23552 -0.0792,15.09338 -0.0975,15.56769 -0.63304,16.72456 -0.93078,2.01062 -2.89387,3.41267 -5.36246,3.82974 -0.9324,0.15752 -1.09761,0.28154 -1.09761,0.82372 l 5.2e-4,-5.1e-4 v 0.6382 h 7.80521 7.80521 v -0.63924 c 0,-0.55692 -0.17897,-0.67807 -1.38338,-0.93637 -2.98746,-0.64069 -4.78266,-2.4218 -5.23689,-5.19555 -0.14447,-0.88219 -0.25363,-8.24783 -0.25063,-16.90905 l 0.005,-15.34583 8.65838,19.5063 8.65839,19.5063 0.81752,0.007 c 0.63709,0.005 0.89145,-0.15329 1.15394,-0.72037 0.18524,-0.40019 3.96595,-8.94292 8.40155,-18.98385 4.43558,-10.04092 8.17191,-18.43485 8.30285,-18.65313 0.14228,-0.23712 0.21204,6.57897 0.17364,16.93334 -0.0593,15.99651 -0.10025,17.39586 -0.53175,18.18545 -0.66466,1.21616 -1.79746,1.70093 -4.34444,1.85983 -2.09592,0.13076 -2.19935,0.16695 -2.19935,0.76172 v 0.62425 h 10.45104 10.45104 v -0.62477 c 0,-0.59914 -0.0953,-0.63051 -2.32389,-0.75758 -2.76401,-0.15759 -3.77053,-0.60502 -4.45347,-1.97972 -0.47359,-0.95308 -0.49868,-1.89335 -0.49868,-18.59835 0,-15.99626 0.0403,-17.66903 0.44545,-18.40818 0.76803,-1.40144 1.13322,-1.54949 4.08657,-1.65881 l 2.74402,-0.1018 v -0.76378 -0.76326 l -6.68073,0.005 -6.68073,0.005 -7.91321,17.99786 c -4.35226,9.89875 -8.00009,17.90328 -8.10648,17.78806 -0.10641,-0.11521 -3.73779,-8.21625 -8.06928,-18.00251 l -7.87548,-17.79323 h -6.72311 z m 318.02917,0 0.0837,0.7276 c 0.0768,0.66759 0.20158,0.74162 1.50947,0.90124 0.78401,0.0957 1.73652,0.40295 2.11667,0.68264 0.97335,0.71614 3.00317,3.82051 9.77046,14.94224 l 5.90404,9.7038 -0.0832,6.29884 c -0.0719,5.41883 -0.1492,6.41818 -0.55139,7.15409 -0.61439,1.12419 -1.68018,1.64374 -3.7729,1.83916 -1.57682,0.14725 -1.71255,0.20954 -1.71255,0.78342 v 0.62322 h 9.26041 9.26042 v -0.62529 c 0,-0.57592 -0.13748,-0.63899 -1.7539,-0.8046 -2.14331,-0.21959 -3.12039,-0.69529 -3.72845,-1.81591 -0.39833,-0.73409 -0.47716,-1.776 -0.55656,-7.34684 l -0.0925,-6.49159 5.4467,-9.07025 c 5.87853,-9.79006 6.57364,-10.87989 8.18503,-12.83126 1.25176,-1.51591 2.53681,-2.37905 4.30671,-2.89284 1.08207,-0.31413 1.30336,-0.48801 1.37356,-1.07642 l 0.0837,-0.70125 h -7.16132 -7.16132 v 0.79375 c 0,0.72985 0.0743,0.79375 0.92087,0.79375 2.28029,0 4.10621,1.54941 4.10621,3.48454 0,0.52514 -0.43967,1.79669 -1.04128,3.0117 -1.47579,2.98054 -9.35747,16.08721 -9.66711,16.07551 -0.27157,-0.0102 -0.92158,-1.04438 -7.66413,-12.19926 -3.52904,-5.8384 -4.20915,-7.131 -4.22765,-8.03465 -0.0297,-1.46051 0.81273,-2.09467 3.06958,-2.31045 1.58043,-0.15111 1.67573,-0.19914 1.75493,-0.88729 l 0.0837,-0.7276 h -9.03098 z m -26.82007,1.19062 3.70417,0.0134 c 6.09985,0.0227 8.54135,1.10284 10.2247,4.5222 0.77555,1.57537 0.86642,2.01718 0.96945,4.70876 0.1275,3.33085 -0.23148,5.08416 -1.41232,6.89518 -1.40192,2.15013 -3.6189,3.1466 -7.93492,3.5662 v -5.2e-4 c -1.4523,0.14118 -3.32663,0.25955 -4.16512,0.26355 l -1.52445,0.007 0.0692,-9.98802 z m -42.16125,6.6983 c 0.12499,0.13113 5.79795,13.62564 7.55613,17.9741 0.10514,0.26013 -1.51736,0.33073 -7.59592,0.33073 -7.25256,0 -7.71878,-0.0286 -7.55251,-0.46302 1.63832,-4.28108 7.46549,-17.97485 7.5923,-17.84181 z m -277.2885,0.23048 c 0.0446,0.0151 0.082,0.063 0.11782,0.13229 0.17415,0.33643 1.77071,4.1242 3.5481,8.41706 1.7774,4.29285 3.39218,8.19216 3.58842,8.6651 l 0.35708,0.8599 h -7.65948 c -4.21268,0 -7.6598,-0.0893 -7.66,-0.19844 -1.9e-4,-0.10914 1.68921,-4.28387 3.75429,-9.27695 2.97547,-7.19426 3.64165,-8.70481 3.95377,-8.59896 z m 142.17892,61.6815 c -1.71172,0 -3.30702,0.2748 -4.78627,0.82424 -1.47927,0.54944 -2.76859,1.34215 -3.86747,2.37764 -1.09888,1.01435 -1.96535,2.25068 -2.59932,3.70881 -0.61284,1.45813 -0.91933,3.08511 -0.91933,4.88136 0,1.75398 0.30649,3.36018 0.91933,4.81831 0.61284,1.45812 1.45801,2.71524 2.53576,3.77186 1.07775,1.03548 2.34578,1.83858 3.8039,2.40916 1.47927,0.57057 3.08546,0.85576 4.81831,0.85576 1.90191,0 3.58187,-0.32727 5.04,-0.98237 1.45813,-0.67623 2.68356,-1.5853 3.67678,-2.72645 l -3.77186,-3.55017 c -0.48604,0.67623 -1.1307,1.22583 -1.93373,1.64848 -0.80303,0.42265 -1.74327,0.63407 -2.82102,0.63407 -0.92982,0 -1.78591,-0.16934 -2.5678,-0.50746 -0.7819,-0.33812 -1.45773,-0.80304 -2.0283,-1.39475 -0.54944,-0.61284 -0.98268,-1.34165 -1.29966,-2.18695 -0.31699,-0.84529 -0.47543,-1.77514 -0.47543,-2.78949 0,-0.99322 0.15844,-1.90177 0.47543,-2.72593 0.31698,-0.8453 0.76061,-1.57463 1.33118,-2.18747 0.57058,-0.61284 1.24692,-1.08815 2.02882,-1.42627 0.80302,-0.35924 1.67989,-0.53898 2.63085,-0.53898 0.86642,0 1.7116,0.16934 2.53576,0.50746 0.82416,0.33811 1.49011,0.85551 1.99729,1.55288 l 3.67678,-3.67678 c -0.95095,-1.07775 -2.19768,-1.89175 -3.74034,-2.44119 -1.52152,-0.57058 -3.07474,-0.85577 -4.65966,-0.85577 z m 54.20444,0 c -1.71172,0 -3.30752,0.2748 -4.78679,0.82424 -1.47926,0.54944 -2.76807,1.34215 -3.86694,2.37764 -1.09888,1.01435 -1.96536,2.25068 -2.59933,3.70881 -0.61284,1.45813 -0.91932,3.08511 -0.91932,4.88136 0,1.75398 0.30648,3.36018 0.91932,4.81831 0.61284,1.45812 1.45802,2.71524 2.53576,3.77186 1.07775,1.03548 2.34577,1.83858 3.80391,2.40916 1.47926,0.57057 3.08546,0.85576 4.81831,0.85576 1.90191,0 3.58187,-0.32727 5.04,-0.98237 1.45813,-0.67623 2.68356,-1.5853 3.67678,-2.72645 l -3.77187,-3.55017 c -0.48604,0.67623 -1.1307,1.22583 -1.93373,1.64848 -0.80302,0.42265 -1.74326,0.63407 -2.82102,0.63407 -0.92981,0 -1.7859,-0.16934 -2.5678,-0.50746 -0.7819,-0.33812 -1.45772,-0.80304 -2.0283,-1.39475 -0.54944,-0.61284 -0.98267,-1.34165 -1.29966,-2.18695 -0.31698,-0.84529 -0.47594,-1.77514 -0.47594,-2.78949 0,-0.99322 0.15896,-1.90177 0.47594,-2.72593 0.31699,-0.8453 0.76061,-1.57463 1.33119,-2.18747 0.57057,-0.61284 1.24692,-1.08815 2.02881,-1.42627 0.80303,-0.35924 1.6799,-0.53898 2.63085,-0.53898 0.86643,0 1.7116,0.16934 2.53576,0.50746 0.82416,0.33811 1.49012,0.85551 1.9973,1.55288 l 3.67677,-3.67678 c -0.95095,-1.07775 -2.19768,-1.89175 -3.74034,-2.44119 -1.52152,-0.57058 -3.07473,-0.85577 -4.65966,-0.85577 z m -139.47366,0.032 c -1.05661,0 -2.1023,0.13714 -3.13779,0.41186 -1.03549,0.25359 -1.96533,0.66553 -2.78949,1.2361 -0.82416,0.57058 -1.49012,1.29991 -1.9973,2.18747 -0.50718,0.88756 -0.76067,1.95455 -0.76067,3.20135 0,1.01436 0.15843,1.88084 0.47542,2.59933 0.33812,0.69737 0.77135,1.29995 1.29966,1.80712 0.54944,0.48604 1.16242,0.88708 1.83865,1.20406 0.69736,0.31699 1.4054,0.59179 2.1239,0.82424 0.73963,0.23246 1.39468,0.45428 1.96525,0.6656 0.5917,0.19019 1.07793,0.41252 1.45831,0.6661 0.40152,0.23246 0.70749,0.49635 0.91881,0.7922 0.21133,0.29586 0.31729,0.65533 0.31729,1.07797 0,0.44378 -0.0847,0.82403 -0.25373,1.14102 -0.16906,0.31699 -0.40126,0.57049 -0.69711,0.76068 -0.27472,0.19019 -0.60251,0.32785 -0.98289,0.41237 -0.38038,0.0845 -0.77154,0.12661 -1.17305,0.12661 -0.88756,0 -1.78572,-0.22181 -2.69441,-0.66559 -0.88756,-0.46491 -1.60599,-1.03581 -2.15543,-1.71204 l -3.55017,3.61373 c 0.99322,1.03548 2.23994,1.83858 3.74034,2.40916 1.50039,0.54944 3.05361,0.82424 4.65967,0.82424 1.09888,0 2.16639,-0.14806 3.20187,-0.4439 1.03548,-0.29586 1.95443,-0.75039 2.75745,-1.36323 0.80303,-0.61284 1.43731,-1.38373 1.90221,-2.31355 0.48605,-0.95095 0.72916,-2.07093 0.72916,-3.36 0,-1.12002 -0.22182,-2.04986 -0.6656,-2.7895 -0.44378,-0.76076 -1.00428,-1.39503 -1.68051,-1.90221 -0.67624,-0.50717 -1.42635,-0.90872 -2.25051,-1.20457 -0.82416,-0.31699 -1.61635,-0.60218 -2.37712,-0.85577 -0.5283,-0.16906 -1.00414,-0.32749 -1.42678,-0.47542 -0.42265,-0.16906 -0.79199,-0.3488 -1.10898,-0.53898 -0.29585,-0.1902 -0.52857,-0.41201 -0.69763,-0.6656 -0.14793,-0.25358 -0.22169,-0.57046 -0.22169,-0.95084 0,-0.44378 0.0951,-0.80325 0.28525,-1.07797 0.21132,-0.29586 0.46482,-0.52807 0.76068,-0.69712 0.29585,-0.19019 0.62311,-0.31694 0.98237,-0.38034 0.38038,-0.0634 0.75024,-0.0951 1.10949,-0.0951 0.69737,0 1.41631,0.17922 2.15594,0.53847 0.76077,0.33812 1.37322,0.80304 1.83813,1.39474 l 3.45509,-3.64525 c -0.99322,-0.90869 -2.15528,-1.59544 -3.48661,-2.06034 -1.31021,-0.46491 -2.59953,-0.69712 -3.86747,-0.69712 z m -183.69266,0.57051 -9.41441,22.44256 h 5.89576 l 1.64848,-4.40645 h 8.68526 l 1.74356,4.40645 h 6.02289 l -9.31933,-22.44256 z m 16.45171,0 v 22.44256 h 5.42034 v -8.46357 h 2.69441 c 1.16228,0 2.28225,-0.12675 3.36,-0.38034 1.07775,-0.25358 2.0289,-0.65513 2.85306,-1.20457 0.82416,-0.54944 1.4792,-1.26787 1.96525,-2.15543 0.48604,-0.90869 0.72864,-2.01828 0.72864,-3.32848 0,-1.28907 -0.2322,-2.36696 -0.69712,-3.23339 -0.44377,-0.88756 -1.06713,-1.5956 -1.87017,-2.1239 -0.78189,-0.54944 -1.71174,-0.94009 -2.78949,-1.17254 -1.05662,-0.25359 -2.19789,-0.38034 -3.42356,-0.38034 z m 20.28662,0 v 22.44256 h 5.42085 v -8.46357 h 2.69441 c 1.16228,0 2.28226,-0.12675 3.36,-0.38034 1.07776,-0.25358 2.02838,-0.65513 2.85254,-1.20457 0.82416,-0.54944 1.47921,-1.26787 1.96526,-2.15543 0.48604,-0.90869 0.72915,-2.01828 0.72915,-3.32848 0,-1.28907 -0.2322,-2.36696 -0.69711,-3.23339 -0.44378,-0.88756 -1.06714,-1.5956 -1.87017,-2.1239 -0.7819,-0.54944 -1.71175,-0.94009 -2.7895,-1.17254 -1.05662,-0.25359 -2.19789,-0.38034 -3.42356,-0.38034 z m 20.28713,0 v 22.44256 h 14.13764 v -4.72323 h -8.68526 V 264.3564 Z m 16.6734,0 v 22.44256 h 5.45238 V 264.3564 Z m 10.08052,0 v 22.44256 h 15.65899 v -4.62814 h -10.42882 v -4.65967 h 9.31933 v -4.34288 h -9.31933 v -4.21577 h 9.85832 v -4.5961 z m 19.24069,0 v 22.44256 h 8.36848 c 1.54266,0 3.06418,-0.21142 4.56458,-0.63407 1.50039,-0.44378 2.84218,-1.12013 4.02559,-2.02882 1.20454,-0.92982 2.16608,-2.10278 2.88458,-3.51865 0.73963,-1.43699 1.10949,-3.13774 1.10949,-5.10304 0,-2.11323 -0.36986,-3.88878 -1.10949,-5.32578 -0.73963,-1.437 -1.71156,-2.57775 -2.9161,-3.42304 -1.20455,-0.86643 -2.57802,-1.4794 -4.12068,-1.83865 -1.54266,-0.38039 -3.10678,-0.57051 -4.6917,-0.57051 z m 32.45952,0 v 22.44256 h 5.32525 v -8.90747 h 1.83865 l 4.84983,8.90747 h 6.33967 l -5.86424,-9.60458 c 1.45812,-0.44378 2.5994,-1.1835 3.42356,-2.21899 0.82416,-1.03548 1.2361,-2.3139 1.2361,-3.83542 0,-1.28908 -0.24312,-2.36698 -0.72916,-3.2334 -0.48604,-0.86642 -1.14109,-1.56406 -1.96525,-2.09238 -0.80303,-0.5283 -1.72249,-0.89765 -2.75797,-1.10897 -1.01435,-0.23246 -2.06005,-0.34882 -3.13779,-0.34882 z m 21.01577,0 v 22.44256 h 15.65951 v -4.62814 h -10.42882 v -4.65967 h 9.31932 v -4.34288 h -9.31932 v -4.21577 h 9.85779 v -4.5961 z m 37.97494,0 v 22.44256 h 15.65899 v -4.62814 h -10.42882 v -4.65967 h 9.31933 v -4.34288 h -9.31933 v -4.21577 h 9.85831 v -4.5961 z m 25.89764,0 -9.41441,22.44256 h 5.89577 l 1.64847,-4.40645 h 8.68526 l 1.74356,4.40645 h 6.02289 l -9.31933,-22.44256 z m 16.45171,0 v 22.44256 h 5.32526 v -8.90747 h 1.83865 l 4.84983,8.90747 h 6.33966 l -5.86424,-9.60458 c 1.45813,-0.44378 2.59941,-1.1835 3.42357,-2.21899 0.82416,-1.03548 1.2361,-2.3139 1.2361,-3.83542 0,-1.28908 -0.24312,-2.36698 -0.72916,-3.2334 -0.48604,-0.86642 -1.14109,-1.56406 -1.96525,-2.09238 -0.80303,-0.5283 -1.72249,-0.89765 -2.75797,-1.10897 -1.01436,-0.23246 -2.06005,-0.34882 -3.1378,-0.34882 z m 43.07799,0 v 22.44256 h 5.42086 v -9.38289 h 8.7483 v 9.38289 h 5.42086 V 264.3564 h -5.42086 v 8.49509 h -8.7483 v -8.49509 z m 54.20445,0 v 22.44256 h 15.65899 v -4.62814 h -10.42882 v -4.65967 h 9.31933 v -4.34288 h -9.31933 v -4.21577 h 9.85831 v -4.5961 z m 19.2412,0 v 22.44256 h 5.26169 l -0.1266,-14.67662 h 0.0951 l 9.03408,14.67662 h 6.14949 V 264.3564 h -5.26169 l 0.1266,14.64459 h -0.0951 l -9.00255,-14.64459 z m 22.88646,0 v 4.62763 h 6.33966 v 17.81493 h 5.42034 v -17.81493 h 6.33967 v -4.62763 z m 20.57187,0 v 22.44256 h 15.65951 v -4.62814 h -10.42882 v -4.65967 h 9.31933 v -4.34288 h -9.31933 v -4.21577 h 9.85779 v -4.5961 z m 19.2412,0 v 22.44256 h 5.32526 v -8.90747 h 1.83865 l 4.84983,8.90747 h 6.33966 l -5.86424,-9.60458 c 1.45813,-0.44378 2.59941,-1.1835 3.42357,-2.21899 0.82415,-1.03548 1.2361,-2.3139 1.2361,-3.83542 0,-1.28908 -0.24311,-2.36698 -0.72916,-3.2334 -0.48604,-0.86642 -1.14109,-1.56406 -1.96525,-2.09238 -0.80304,-0.5283 -1.72198,-0.89765 -2.75746,-1.10897 -1.01435,-0.23246 -2.06056,-0.34882 -3.13831,-0.34882 z m -394.17077,4.37441 h 2.37712 c 0.48603,0 0.95096,0.0317 1.39474,0.0951 0.46492,0.0634 0.87737,0.19015 1.23662,0.38033 0.35925,0.1902 0.64444,0.45408 0.85576,0.7922 0.21133,0.33812 0.31678,0.77135 0.31678,1.29967 0,0.5283 -0.10545,0.97245 -0.31678,1.3317 -0.21132,0.33812 -0.50742,0.6124 -0.8878,0.82372 -0.35925,0.21133 -0.77119,0.35937 -1.2361,0.4439 -0.46491,0.0845 -0.95113,0.12712 -1.45831,0.12712 h -2.28203 z m 20.28713,0 h 2.37712 c 0.48604,0 0.95097,0.0317 1.39475,0.0951 0.46491,0.0634 0.87685,0.19015 1.2361,0.38033 0.35925,0.1902 0.64496,0.45408 0.85627,0.7922 0.21133,0.33812 0.31678,0.77135 0.31678,1.29967 0,0.5283 -0.10545,0.97245 -0.31678,1.3317 -0.21131,0.33812 -0.50742,0.6124 -0.8878,0.82372 -0.35925,0.21133 -0.77118,0.35937 -1.2361,0.4439 -0.4649,0.0845 -0.95113,0.12712 -1.45831,0.12712 h -2.28203 z m 98.61414,0 h 2.88458 c 0.40151,0 0.81345,0.0317 1.2361,0.0951 0.44378,0.0634 0.83442,0.19015 1.17254,0.38033 0.35924,0.16906 0.64495,0.42256 0.85627,0.76068 0.23246,0.31699 0.3483,0.73984 0.3483,1.26814 0,0.57057 -0.12675,1.0355 -0.38033,1.39475 -0.23246,0.35925 -0.53895,0.63353 -0.91933,0.82372 -0.38038,0.19019 -0.80271,0.32785 -1.26762,0.41238 -0.46491,0.0634 -0.91945,0.0951 -1.36323,0.0951 h -2.56728 z m 101.34007,0 h 2.88458 c 0.40151,0 0.81345,0.0317 1.2361,0.0951 0.44377,0.0634 0.83442,0.19015 1.17253,0.38033 0.35926,0.16906 0.64496,0.42256 0.85628,0.76068 0.23246,0.31699 0.3483,0.73984 0.3483,1.26814 0,0.57057 -0.12674,1.0355 -0.38034,1.39475 -0.23245,0.35925 -0.53894,0.63353 -0.91932,0.82372 -0.38038,0.19019 -0.80271,0.32785 -1.26762,0.41238 -0.46492,0.0634 -0.91945,0.0951 -1.36323,0.0951 h -2.56728 z m 179.22317,0 h 2.88457 c 0.40152,0 0.81346,0.0317 1.2361,0.0951 0.44378,0.0634 0.83494,0.19015 1.17306,0.38033 0.35925,0.16906 0.64444,0.42256 0.85576,0.76068 0.23245,0.31699 0.34882,0.73984 0.34882,1.26814 0,0.57057 -0.12676,1.0355 -0.38034,1.39475 -0.23245,0.35925 -0.53895,0.63353 -0.91933,0.82372 -0.38038,0.19019 -0.80323,0.32785 -1.26814,0.41238 -0.46491,0.0634 -0.91944,0.0951 -1.36322,0.0951 h -2.56728 z m -313.02276,0.25322 h 2.69441 c 0.92983,0 1.82799,0.10596 2.69441,0.31729 0.88756,0.21132 1.66936,0.57027 2.34559,1.07745 0.69737,0.48604 1.24696,1.152 1.64848,1.9973 0.42265,0.82416 0.63407,1.87037 0.63407,3.13831 0,1.2468 -0.21142,2.2925 -0.63407,3.13779 -0.40152,0.84529 -0.95111,1.52164 -1.64848,2.02882 -0.67623,0.50718 -1.46843,0.87704 -2.37711,1.10949 -0.88756,0.21132 -1.81741,0.31678 -2.7895,0.31678 h -2.5678 z m -105.77804,1.36322 2.7895,7.70289 h -5.64204 z m 220.36795,0 2.78949,7.70289 h -5.64203 z" /></g></svg>
