<?xml version="1.0" encoding="UTF-8" standalone="no"?>
<!-- Created with Inkscape (http://www.inkscape.org/) -->

<svg
   version="1.1"
   id="svg305"
   width="670.60992"
   height="276.3996"
   viewBox="0 0 670.60992 276.3996"
   sodipodi:docname="careercenter.svg"
   inkscape:version="1.2.2 (732a01da63, 2022-12-09)"
   xmlns:inkscape="http://www.inkscape.org/namespaces/inkscape"
   xmlns:sodipodi="http://sodipodi.sourceforge.net/DTD/sodipodi-0.dtd"
   xmlns="http://www.w3.org/2000/svg"
   xmlns:svg="http://www.w3.org/2000/svg">
  <defs
     id="defs309" />
  <sodipodi:namedview
     id="namedview307"
     pagecolor="#ffffff"
     bordercolor="#000000"
     borderopacity="0.25"
     inkscape:showpageshadow="2"
     inkscape:pageopacity="0.0"
     inkscape:pagecheckerboard="0"
     inkscape:deskcolor="#d1d1d1"
     showgrid="false"
     inkscape:zoom="0.30109195"
     inkscape:cx="156.09849"
     inkscape:cy="237.46898"
     inkscape:window-width="1128"
     inkscape:window-height="682"
     inkscape:window-x="-6"
     inkscape:window-y="-6"
     inkscape:window-maximized="1"
     inkscape:current-layer="g311" />
  <g
     inkscape:groupmode="layer"
     inkscape:label="Image"
     id="g311"
     transform="translate(-22.420551,-100.17494)">
    <path
       style="fill:#ffffff;stroke-width:0.32;fill-opacity:1"
       d="m 153.5105,376.1742 c -4.13285,-0.8978 -7.04248,-3.14405 -8.87285,-6.84987 -1.19414,-2.41772 -1.20715,-2.48556 -1.20715,-6.2991 0,-3.49254 0.0785,-4.02056 0.83523,-5.61506 2.50758,-5.28403 8.44736,-8.24403 14.75027,-7.35056 6.37437,0.9036 10.49446,4.79165 11.4945,10.84714 1.62089,9.81488 -6.89476,17.46266 -17,15.26745 z m 7.30488,-6.18704 c 1.10776,-0.68488 1.72833,-1.39349 2.44133,-2.78764 1.97061,-3.85322 0.92109,-8.71726 -2.32574,-10.77876 -3.81904,-2.42481 -9.0479,-0.8223 -10.76484,3.29913 -0.70353,1.6888 -0.64347,5.50134 0.11233,7.13028 0.75961,1.63716 2.48854,3.28008 4.07197,3.86938 1.88549,0.70173 4.65229,0.38828 6.46495,-0.73239 z m 66.67153,6.29991 c -1.77607,-0.37429 -4.81169,-1.76333 -5.72148,-2.61803 l -0.70695,-0.66415 1.82322,-2.00084 1.82322,-2.00084 0.96279,0.81197 c 1.4138,1.19233 2.79898,1.67499 4.80706,1.67499 2.20968,0 3.35573,-0.91426 3.35573,-2.67701 0,-1.55163 -1.22929,-2.4801 -4.9049,-3.70463 -3.14177,-1.04669 -5.2617,-2.48082 -6.10565,-4.13048 -1.85264,-3.62133 -0.0438,-8.24461 3.94819,-10.09137 1.211,-0.56023 2.07294,-0.67651 5.01462,-0.67651 3.42974,0 3.62842,0.0388 5.76,1.12396 1.21426,0.61817 2.20774,1.27473 2.20774,1.45901 0,0.18429 -0.74617,1.18572 -1.65814,2.22542 -1.57731,1.7982 -1.68709,1.86417 -2.25172,1.35319 -0.96676,-0.87491 -2.84716,-1.52158 -4.42448,-1.52158 -2.65218,0 -4.28147,2.53299 -2.62566,4.082 0.396,0.37045 2.15881,1.18704 3.91736,1.81463 1.75855,0.62759 3.77424,1.55897 4.47932,2.06972 4.66539,3.37959 3.0837,11.02228 -2.68813,12.98893 -1.8388,0.62655 -5.22184,0.85891 -7.01214,0.48162 z m 23.05906,0.003 c -1.89335,-0.40006 -5.01257,-1.84421 -5.80485,-2.68755 l -0.66029,-0.70286 1.86964,-1.85013 1.86964,-1.85013 1.49744,1.05549 c 1.25853,0.88709 1.8401,1.0747 3.6452,1.17586 1.82986,0.10254 2.278,0.0177 3.02775,-0.57346 0.68666,-0.54139 0.88,-0.96369 0.88,-1.92215 0,-1.68856 -1.08046,-2.52484 -5.00979,-3.87758 -5.28344,-1.8189 -7.28407,-4.51329 -6.48722,-8.73681 0.77443,-4.10473 4.67306,-6.47648 10.2107,-6.21172 2.48098,0.11861 3.14711,0.28331 5.01069,1.23884 1.18213,0.60613 2.192,1.24605 2.24417,1.42205 0.0522,0.176 -0.678,1.184 -1.6226,2.24 -1.64647,1.84064 -1.7425,1.89736 -2.32342,1.3722 -0.97908,-0.88511 -2.85291,-1.53221 -4.43687,-1.53221 -1.20348,0 -1.64702,0.17213 -2.41027,0.93539 -1.90671,1.90669 -0.92067,3.34579 3.29313,4.80625 4.00811,1.38916 5.55531,2.34142 6.67631,4.10905 1.05268,1.6599 1.24732,3.90394 0.54403,6.27218 -0.53722,1.80901 -2.88009,4.10317 -4.88949,4.78784 -1.94886,0.66404 -5.30607,0.91355 -7.1239,0.52944 z m 41.26094,-0.0226 c -1.8491,-0.36389 -4.62527,-1.66048 -6.0241,-2.81351 -5.65975,-4.66525 -6.15613,-14.49712 -0.99259,-19.66066 5.83303,-5.83302 17.20018,-4.93632 21.63627,1.70679 3.43069,5.13749 2.94805,12.22786 -1.13235,16.63518 -3.35042,3.61885 -8.33519,5.14608 -13.48723,4.1322 z m 6.60421,-6.02731 c 4.07896,-2.08092 5.1813,-8.39057 2.15832,-12.35389 -2.4707,-3.23926 -8.18362,-3.4625 -10.94151,-0.42754 -1.46217,1.60906 -1.87195,2.86002 -1.87083,5.71114 9.6e-4,2.19953 0.13797,2.97751 0.71647,4.06574 1.86827,3.51447 6.30729,4.85657 9.93755,3.00455 z m 168.28817,6.05697 c -2.22701,-0.40347 -5.40605,-1.99187 -7.0863,-3.54068 -2.88202,-2.65655 -4.43559,-7.56662 -3.71671,-11.74658 1.03869,-6.03939 5.26176,-10.10345 11.37421,-10.94595 3.76592,-0.51907 8.60806,0.52607 10.87158,2.34655 l 0.95162,0.76533 -1.86154,2.1203 -1.8615,2.1203 -0.8928,-0.75124 c -2.13258,-1.79445 -6.25901,-1.9579 -8.83917,-0.35014 -2.24966,1.40179 -3.46176,3.73611 -3.46845,6.67977 -0.003,1.2403 0.18682,2.80743 0.42144,3.48253 0.57197,1.64586 2.14877,3.38374 3.71607,4.09576 1.31251,0.59625 4.54288,0.79276 6.52275,0.39679 l 1,-0.2 v -2.52 -2.52 h -2.4 -2.4 v -2.4 -2.4 h 5.12637 5.12637 l -0.0864,6.8 -0.0864,6.8 -2.57366,0.86349 c -2.86663,0.9618 -7.27952,1.36721 -9.83754,0.90377 z m 55.53158,-0.15127 c -6.57344,-1.49784 -10.64307,-6.94893 -10.24384,-13.72114 0.22794,-3.86668 1.1489,-5.97881 3.73418,-8.56411 1.59123,-1.59122 2.58083,-2.28649 4.02928,-2.83081 4.14646,-1.55826 8.85565,-1.45846 12.46537,0.26417 3.43837,1.64084 3.39981,1.52224 1.27799,3.93178 l -1.84461,2.09474 -1.56022,-0.96988 c -4.02464,-2.50185 -9.29514,-0.91491 -11.13044,3.35135 -1.04566,2.43075 -0.82739,6.00106 0.49984,8.17566 1.34087,2.19695 3.57943,3.29225 6.72861,3.29225 1.27699,0 2.69117,-0.14044 3.14263,-0.31208 0.78073,-0.29684 0.82083,-0.4297 0.82083,-2.72 v -2.40762 h -2.56 -2.56 v -2.4 -2.4 h 5.28 5.28 v 6.71571 6.7157 l -1.16768,0.48789 c -3.5897,1.49986 -8.84659,2.05897 -12.19194,1.29669 z M 57.269761,375.68864 c -4.239202,-1.46448 -6.309855,-5.72906 -4.602243,-9.47847 0.624798,-1.37187 2.740758,-3.47747 3.847616,-3.82877 0.7996,-0.25379 0.873792,-0.88819 0.171984,-1.47064 -0.970429,-0.80539 -1.828039,-2.97514 -1.828039,-4.62494 0,-3.74992 3.016717,-6.25446 7.611427,-6.31917 4.857194,-0.0684 8.0988,2.71841 7.770265,6.68011 -0.18,2.17056 -1.287001,3.85525 -3.4419,5.23804 l -1.652589,1.06046 1.680646,1.70179 1.680644,1.70178 1.388207,-2.06933 1.388208,-2.06933 h 3.052144 c 2.357245,0 2.997136,0.0911 2.810525,0.4 -0.13289,0.22 -1.229526,1.74143 -2.43697,3.38096 -1.207443,1.63952 -2.279555,3.20039 -2.382473,3.46859 -0.125142,0.32611 0.806182,1.48508 2.811766,3.49904 l 2.998887,3.01141 H 74.60913 71.080394 l -1.211383,-1.24057 -1.211382,-1.24057 -1.590189,1.07012 c -0.874604,0.58857 -2.122707,1.21802 -2.773561,1.39879 -1.817469,0.50477 -5.15368,0.37687 -7.024118,-0.2693 z m 6.279942,-4.33737 c 1.999174,-1.03381 1.959123,-1.28559 -0.617072,-3.87909 -1.30136,-1.31011 -2.467459,-2.38201 -2.591331,-2.38201 -0.123872,0 -0.739478,0.485 -1.36801,1.07779 -0.910022,0.85826 -1.142784,1.31878 -1.142784,2.26103 0,0.65079 0.14762,1.45909 0.328045,1.79621 0.772643,1.4437 3.62487,2.03945 5.391152,1.12607 z m 0.972547,-13.17786 c 1.675734,-2.13035 -0.182694,-4.91718 -2.6528,-3.97805 -1.936828,0.73638 -2.22151,2.92322 -0.627197,4.81795 0.762311,0.90595 0.837594,0.9271 1.704637,0.47873 0.498909,-0.25799 1.207821,-0.85138 1.57536,-1.31863 z m 29.148255,5.15676 v -12.64 h 6.18192 c 7.074975,0 8.609655,0.29815 10.686885,2.07618 1.78368,1.52676 2.44196,3.32176 2.27857,6.21323 -0.10479,1.85465 -0.29315,2.48087 -1.08784,3.6168 -1.69979,2.42967 -5.28991,3.765 -10.13954,3.77137 l -1.839995,0.002 v 4.8 4.8 h -3.04 -3.04 z m 11.290275,-2.19043 c 1.44901,-0.60569 1.917,-1.29753 1.917,-2.83392 0,-1.05107 -0.18252,-1.49062 -0.86148,-2.07464 -0.75355,-0.64817 -1.20005,-0.74101 -3.56364,-0.74101 h -2.702155 v 3.04 3.04 h 2.090275 c 1.14965,0 2.55365,-0.19369 3.12,-0.43043 z m 13.66972,2.19043 v -12.64 h 6.18193 c 6.94873,0 8.5577,0.29621 10.54736,1.94176 1.72097,1.42334 2.47071,3.06676 2.47071,5.41577 0,1.06867 -0.19398,2.4064 -0.43108,2.97275 -0.52507,1.25424 -2.76828,3.33705 -3.89993,3.62108 -0.55445,0.13916 -0.76771,0.36252 -0.64684,0.6775 0.0992,0.25845 1.54776,2.6949 3.21909,5.41435 1.67132,2.71945 3.03876,5.0151 3.03876,5.10145 0,0.0863 -1.54654,0.11612 -3.43676,0.0662 l -3.43676,-0.0909 -2.72324,-5.03061 -2.72323,-5.03061 -1.2,-0.009 -1.2,-0.009 v 5.12 5.12 h -2.88001 -2.88 z m 10.72001,-2.07088 c 2.6174,-0.60448 3.53324,-3.0851 1.78461,-4.83373 -0.89645,-0.89645 -1.0563,-0.93539 -3.84,-0.93539 h -2.90461 v 3.04 3.04 l 1.84,-0.008 c 1.012,-0.004 2.416,-0.14066 3.12,-0.30324 z m 47.51999,2.07088 v -12.64 h 8.32 8.32 v 2.4 2.4 h -5.44 -5.44 v 2.72 2.72 h 4.96 4.96 v 2.56 2.56 h -4.96 -4.96 v 4.96 4.96 h -2.88 -2.88 z m 22.4,0 v -12.64 h 8.48 8.48 v 2.4 2.4 h -5.6 -5.6 v 2.56 2.56 h 5.28 5.28 v 2.4 2.4 h -5.28 -5.28 v 2.72 2.72 h 5.92 5.92 v 2.56 2.56 h -8.8 -8.8 z m 69.76,0 v -12.64 h 3.04 3.04 v 12.64 12.64 h -3.04 -3.04 z m 45.76,0 v -12.64 h 3.46953 3.46953 l 4.90281,8.01346 c 2.69654,4.4074 5.02325,8.0879 5.17046,8.17889 0.14722,0.091 0.26767,-3.51508 0.26767,-8.01346 v -8.17889 h 2.88 2.88 v 12.64 12.64 l -3.44,-0.01 -3.44,-0.01 -5.12,-8.36693 -5.12,-8.36693 -0.0853,8.37643 -0.0853,8.37643 h -2.87469 -2.87468 v -12.64 z m 27.2,12.51937 c 0,-0.0663 2.3511,-5.71835 5.22464,-12.56 l 5.22467,-12.43937 3.01533,-0.0838 3.01535,-0.0838 5.12,12.36678 c 2.816,6.80173 5.168,12.49144 5.22666,12.64378 0.0587,0.15235 -1.38131,0.27651 -3.2,0.27592 l -3.30666,-9.6e-4 -0.97264,-2.47892 -0.97267,-2.47892 h -5.07027 -5.07027 l -0.9441,2.48 -0.94412,2.48 h -3.17296 c -1.74512,-1.2e-4 -3.17296,-0.0544 -3.17296,-0.12075 z m 15.17849,-13.87746 c -0.79568,-2.24296 -1.56083,-4.19225 -1.70035,-4.33176 -0.22192,-0.22194 -3.23814,7.33479 -3.23814,8.11275 0,0.1634 1.43667,0.2971 3.19257,0.2971 h 3.19258 z m 15.8615,1.35809 v -12.64 h 3.04 3.04 v 9.92 9.92 h 4.96 4.96 v 2.72 2.72 h -8 -8 z m 30.72,0 v -12.64 h 8.48 8.48 v 2.4 2.4 h -5.6 -5.6 v 2.56 2.56 h 5.28 5.28 v 2.4 2.4 h -5.28 -5.28 v 2.72 2.72 h 5.92 5.92 v 2.56 2.56 h -8.8 -8.8 z m 23.68,0 v -12.64 l 3.44,0.002 3.44,0.002 5.12,8.33028 5.12,8.33029 0.0853,-8.33209 0.0853,-8.3321 h 2.87468 2.87469 v 12.64 12.64 l -3.44,-0.004 -3.44,-0.004 -5.12,-8.35996 -5.12,-8.35996 -0.0853,8.36361 -0.0853,8.36361 h -2.87469 -2.87469 v -12.64 z m 58.77683,3.92 c 2.01715,-4.796 4.39882,-10.48896 5.29261,-12.65102 l 1.62505,-3.93102 3.01479,0.091 3.01481,0.091 5.21991,12.57044 5.21993,12.57044 -3.36342,-0.0904 -3.36346,-0.0904 -0.96784,-2.48 -0.9678,-2.48 h -5.00528 -5.00531 l -0.93082,2.56 -0.93082,2.56 h -3.25996 -3.25997 z m 12.90317,-1.459 c 0,-0.34625 -2.82848,-8.11615 -3.02666,-8.31434 -0.0855,-0.0855 -0.31565,0.26055 -0.51149,0.76896 -1.11088,2.88415 -2.86185,7.58774 -2.86185,7.68778 0,0.0641 1.44,0.1166 3.2,0.1166 1.76,0 3.2,-0.11655 3.2,-0.259 z m 43.52,-2.461 v -12.64 h 8.48 8.48 v 2.4 2.4 h -5.6 -5.6 v 2.56 2.56 h 5.28 5.28 v 2.4 2.4 h -5.28 -5.28 v 2.72 2.72 h 5.92 5.92 v 2.56 2.56 h -8.8 -8.8 z m 23.68,0 v -12.64 h 4.2694 4.26938 l 2.49776,7.12 c 1.37379,3.916 2.7047,7.624 2.95763,8.24 l 0.45984,1.12 2.79126,-8.16 2.79127,-8.16 4.38173,-0.089 4.38172,-0.089 v 12.64897 12.64903 h -2.8751 -2.87507 l -0.0849,-9.09872 -0.0849,-9.09873 -3.33939,9.11199 -3.33936,9.11199 -2.06915,-0.0933 -2.06912,-0.0933 -3.1351,-8.75693 c -1.72429,-4.81631 -3.21447,-8.83631 -3.31146,-8.93334 -0.097,-0.097 -0.17641,3.8796 -0.17641,8.83694 v 9.0134 h -2.72 -2.72 z m 36.15999,0 v -12.64 h 8.48 8.48 v 2.4 2.4 h -5.6 -5.6 v 2.56 2.56 h 5.28 5.28 v 2.4 2.4 h -5.28 -5.28 v 2.72 2.72 h 5.92 5.92 v 2.56 2.56 h -8.8 -8.8 z m 23.68,0 v -12.64 l 3.44,0.0124 3.44,0.0124 4.8,7.87365 c 2.64,4.33051 4.98992,8.10492 5.22205,8.38757 0.35078,0.42711 0.39088,-0.90509 0.23744,-7.88608 l -0.18464,-8.4 h 3.04256 3.04259 v 12.64 12.64 h -3.46646 -3.46643 l -5.09357,-8.31635 c -2.80144,-4.57399 -5.21549,-8.31799 -5.36455,-8.32 -0.14902,-0.002 -0.1656,3.74035 -0.0368,8.31635 l 0.23418,8.32 h -2.9232 -2.92317 v -12.64 z m 34.88,2.4 v -10.24 h -3.68 -3.68 v -2.4 -2.4 h 10.24 10.24 v 2.4 2.4 h -3.52 -3.52 v 10.24 10.24 h -3.04 -3.04 z M 32.26399,337.38376 c -6.697471,-1.80105 -10.752141,-8.12515 -9.669197,-15.08111 0.697885,-4.48266 3.226438,-7.86329 7.311014,-9.77469 1.807313,-0.84575 2.576776,-1.00825 5.360075,-1.13204 4.905221,-0.21816 8.195273,0.89442 11.031227,3.73037 4.805756,4.80576 4.892952,13.28701 0.190378,18.5174 -3.214287,3.57506 -9.090875,5.12031 -14.223497,3.74007 z m 6.846517,-5.53482 c 2.890171,-1.3258 4.302103,-3.72511 4.312972,-7.32905 0.0079,-2.60698 -0.523756,-4.22171 -1.849947,-5.61903 -3.65919,-3.85542 -10.233424,-2.621 -12.117096,2.27518 -1.094902,2.84596 -0.44015,7.04533 1.426294,9.14779 1.682333,1.89508 5.769684,2.65271 8.227777,1.52511 z m 84.653163,5.82643 c -7.57454,-1.60982 -12.09525,-9.16707 -10.08969,-16.86691 0.97525,-3.74426 3.36845,-6.52571 7.13905,-8.29724 1.85325,-0.8707 2.56298,-1.02024 5.33748,-1.12457 2.65355,-0.0998 3.55065,-0.002 5.25346,0.57301 1.96758,0.66434 4.82653,2.34415 4.82653,2.8359 0,0.12905 -0.85915,1.08484 -1.90923,2.12396 -1.80062,1.78183 -1.94238,1.85933 -2.49172,1.36219 -1.726,-1.56201 -5.82943,-2.0234 -8.01179,-0.90085 -3.14964,1.6201 -4.71435,5.26158 -3.91511,9.11146 1.12382,5.41344 7.25241,7.71756 11.56015,4.34619 l 1.15229,-0.90182 1.99242,2.01028 1.99241,2.01028 -1.27722,1.01158 c -2.38835,1.89161 -4.63181,2.68605 -7.86431,2.78487 -1.59933,0.0489 -3.26196,0.0136 -3.69472,-0.0783 z m 60.50031,-0.29161 c -5.21839,-1.4033 -8.96136,-5.64291 -9.58969,-10.86213 -1.06589,-8.85373 4.57993,-15.20068 13.50992,-15.18766 7.50311,0.0109 12.56388,4.08198 13.71577,11.03339 0.88896,5.3647 -1.8477,11.21644 -6.40573,13.69723 -3.23731,1.76196 -7.65429,2.28081 -11.23027,1.31917 z m 7.85266,-6.07647 c 4.26059,-2.62365 4.72502,-9.51556 0.8699,-12.90896 -3.04888,-2.68374 -7.56729,-2.35548 -10.2919,0.74768 -1.32881,1.51343 -1.76321,3.12752 -1.61762,6.01055 0.0999,1.97821 0.28857,2.66699 1.08218,3.95062 2.06748,3.34407 6.50686,4.32496 9.95744,2.20011 z m 57.99768,6.13886 c -7.19339,-2.08229 -11.07121,-8.56915 -9.52904,-15.94023 0.83063,-3.97011 3.42319,-7.18171 7.26774,-9.0031 2.03294,-0.96312 2.32528,-1.01242 5.97748,-1.00793 4.28627,0.005 6.32994,0.58041 8.48,2.38651 l 1.12,0.94082 -1.98572,1.99649 c -1.8481,1.85814 -2.02552,1.96158 -2.56,1.49257 -1.22092,-1.07136 -2.64105,-1.54105 -4.63839,-1.53408 -4.55834,0.0159 -7.37604,2.95404 -7.38571,7.70142 -0.006,2.99268 1.11879,5.38351 3.13436,6.66175 2.75053,1.74432 5.89675,1.69945 8.27783,-0.11808 l 1.39945,-1.06822 1.9838,2.00159 1.9838,2.00159 -1.27723,1.01158 c -2.37288,1.87936 -4.63373,2.6844 -7.86431,2.80031 -1.78637,0.0641 -3.47721,-0.0605 -4.38406,-0.32299 z m 286.14964,-0.0624 c -6.68678,-1.79818 -10.82618,-8.23785 -9.69261,-15.07878 0.74915,-4.52109 3.26259,-7.87158 7.33443,-9.77702 1.80733,-0.84575 2.57677,-1.00825 5.36007,-1.13204 4.90524,-0.21816 8.19529,0.89442 11.03123,3.73037 1.87149,1.87148 3.1656,4.56105 3.48963,7.25242 0.88246,7.33035 -2.95562,13.2571 -9.72742,15.02093 -2.32349,0.60519 -5.50992,0.59871 -7.79533,-0.0159 z m 7.18765,-5.66177 c 1.3774,-0.71228 2.70374,-2.12271 3.37766,-3.59182 0.71219,-1.55256 0.80707,-5.44931 0.1697,-6.97028 -1.953,-4.66053 -7.78071,-6.057 -11.52451,-2.76156 -2.66954,2.3498 -3.41696,6.7142 -1.72224,10.05628 0.96316,1.89941 1.53987,2.46056 3.44403,3.35125 1.66857,0.78049 4.66147,0.74036 6.25536,-0.0839 z M 55.910506,324.61017 v -12.64 h 8.32 8.32 v 2.56 2.56 h -5.28 -5.28 v 2.72 2.72 h 4.96 4.96 v 2.4 2.4 h -4.96 -4.96 v 4.96 4.96 h -3.04 -3.04 z m 22.719999,0 v -12.64 h 8.32 8.32 v 2.56 2.56 h -5.44 -5.44 v 2.72 2.72 h 4.96 4.96 v 2.4 2.4 h -4.96 -4.96 v 4.96 4.96 h -2.88 -2.88 z m 22.399995,0 v -12.64 h 3.04 3.04 v 12.64 12.64 h -3.04 -3.04 z m 40.32,0 v -12.64 h 8.48 8.48 v 2.4 2.4 h -5.6 -5.6 v 2.56 2.56 h 5.28 5.28 v 2.4 2.4 h -5.28 -5.28 v 2.72 2.72 h 5.92 5.92 v 2.56 2.56 h -8.8 -8.8 z m 66.88,0 v -12.64 h 8.16 8.16 v 2.56 2.56 h -5.28 -5.28 v 2.72 2.72 h 4.96 4.96 v 2.4 2.4 h -4.96 -4.96 v 4.96 4.96 h -2.88 -2.88 z m 57.49588,12.12975 c 0.11239,-0.29287 2.47634,-5.94988 5.25323,-12.57113 l 5.04888,-12.03862 2.981,-0.0885 2.98101,-0.0885 5.08054,12.24846 c 2.7943,6.73666 5.1497,12.42846 5.23424,12.64846 0.11688,0.30419 -0.64018,0.39974 -3.16055,0.39892 l -3.31423,-9.6e-4 -0.97229,-2.47892 -0.97228,-2.47892 -4.99765,-0.088 -4.99764,-0.088 -0.94645,2.48797 -0.94644,2.48797 -3.23786,0.0911 c -2.90982,0.0819 -3.21714,0.0372 -3.03351,-0.44137 z m 16.31308,-9.87755 c -0.0987,-0.25728 -0.79814,-2.20007 -1.55424,-4.3173 -0.75609,-2.11724 -1.44943,-3.85073 -1.54074,-3.85221 -0.15686,-0.003 -3.19398,8.0242 -3.19398,8.4413 0,0.10781 1.4554,0.19601 3.23424,0.19601 2.7059,0 3.20491,-0.0764 3.05472,-0.4678 z M 295.9105,324.587 v -12.66317 l 6.64,0.10366 c 6.18224,0.0965 6.75597,0.15605 8.32233,0.86358 3.08698,1.39441 4.40648,3.67891 4.17992,7.23689 -0.1612,2.53167 -1.22856,4.1956 -3.47598,5.4188 -1.85288,1.00846 -2.03139,0.32352 1.65277,6.3417 1.37313,2.24306 2.65115,4.36706 2.84004,4.72 0.33395,0.62399 0.24811,0.64156 -3.10783,0.63617 l -3.45125,-0.006 -2.72083,-5.03447 c -2.71651,-5.02648 -2.72272,-5.03462 -3.91999,-5.13378 l -1.19918,-0.0993 v 5.13931 5.13932 h -2.88 -2.88 z m 10.94544,-2.06964 c 2.33312,-0.64798 3.19052,-2.982 1.72264,-4.68935 -0.73007,-0.84916 -0.93826,-0.90385 -3.84,-1.00873 l -3.06808,-0.11089 v 3.07089 3.07089 l 2,-0.002 c 1.1,-9.6e-4 2.53345,-0.14994 3.18544,-0.33102 z m 14.65456,2.09281 v -12.64 h 8.48 8.48 v 2.4 2.4 h -5.6 -5.6 v 2.56 2.56 h 5.28 5.28 v 2.4 2.4 h -5.28 -5.28 v 2.72 2.72 h 5.92 5.92 v 2.56 2.56 h -8.8 -8.8 z m 23.68,0 v -12.64 h 8.48 8.47999 v 2.4 2.4 h -5.59999 -5.6 v 2.56 2.56 h 5.28 5.27999 v 2.4 2.4 h -5.27999 -5.28 v 2.72 2.72 h 5.92 5.91999 v 2.56 2.56 h -8.79999 -8.8 z m 23.67999,-0.0232 V 311.9238 l 6.64,0.10366 c 6.18224,0.0965 6.75597,0.15605 8.32234,0.86358 3.08698,1.39441 4.40646,3.67891 4.1799,7.23689 -0.16118,2.53167 -1.22854,4.1956 -3.47596,5.4188 -1.85152,1.00772 -2.02506,0.33421 1.61372,6.26341 1.35015,2.2 2.62756,4.324 2.83866,4.72 l 0.38387,0.72 -3.45126,-0.006 -3.45127,-0.006 -2.72083,-5.03447 c -2.71651,-5.02648 -2.72272,-5.03462 -3.92,-5.13378 l -1.19917,-0.0993 v 5.13931 5.13932 h -2.88 -2.88 z m 10.94544,-2.06964 c 2.33312,-0.64798 3.19053,-2.982 1.72266,-4.68935 -0.73008,-0.84916 -0.93827,-0.90385 -3.84,-1.00873 l -3.0681,-0.11089 v 3.07089 3.07089 l 2,-0.002 c 1.1,-9.6e-4 2.53344,-0.14994 3.18544,-0.33102 z m 25.53456,2.09284 v -12.64 l 6,0.005 c 8.27277,0.007 10.88227,0.6756 14.06045,3.60515 1.81731,1.67513 2.87171,3.74945 3.36339,6.61667 0.93648,5.46102 -1.47193,10.61752 -6.11481,13.09215 -2.86324,1.52609 -5.41444,1.94932 -11.78903,1.95574 l -5.52,0.006 z m 13.64403,6.39247 c 2.49914,-1.22271 3.43248,-2.73737 3.58829,-5.82326 0.27872,-5.51893 -2.46422,-8.08921 -8.63254,-8.08921 h -2.83978 v 7.56701 7.56702 l 3.06771,-0.18302 c 2.42756,-0.14483 3.43261,-0.36155 4.81632,-1.03854 z m 15.15597,-6.39247 v -12.64 h 8.48 8.48 v 2.4 2.4 h -5.6 -5.6 v 2.56 2.56 h 5.44 5.44 v 2.4 2.4 h -5.44 -5.44 v 2.72 2.72 h 5.92 5.92 v 2.56 2.56 h -8.8 -8.8 z m 25.63184,0.40577 c -2.5345,-6.73517 -4.67389,-12.42577 -4.75424,-12.64577 -0.11091,-0.30376 0.65661,-0.4 3.19018,-0.4 h 3.33625 l 2.81882,8.72 c 1.5503,4.796 2.93421,8.84662 3.07533,9.00137 0.14112,0.15475 1.57449,-3.76925 3.18534,-8.72 l 2.92874,-9.00137 h 3.29161 3.29159 l -4.84916,12.56 -4.84915,12.56 -3.02857,0.0858 -3.02858,0.0858 z m 24.60816,-0.40577 v -12.64 h 8.48 8.48 v 2.4 2.4 h -5.6 -5.6 v 2.56 2.56 h 5.28 5.28 v 2.4 2.4 h -5.28 -5.28 v 2.72 2.72 h 5.92 5.92 v 2.56 2.56 h -8.8 -8.8 z m 23.68,0 v -12.64 h 2.88 2.88 v 10.08 10.08 h 4.96 4.96 v 2.56 2.56 h -7.84 -7.84 z m 51.84,-0.0232 V 311.9238 l 6.64,0.10317 c 6.12982,0.0952 6.76262,0.15969 8.236,0.8388 3.09024,1.42434 4.30524,3.32789 4.31696,6.76334 0.009,2.4935 -0.808,4.39119 -2.48378,5.77249 -1.66909,1.37582 -3.63197,1.95232 -7.34918,2.15851 l -3.28,0.18194 v 4.75405 4.75404 h -3.04 -3.04 z m 12.04118,-2.5599 c 1.66554,-1.24351 1.6633,-3.6298 -0.004,-4.64673 -0.75219,-0.45867 -1.60528,-0.6081 -3.47677,-0.609 l -2.47993,-0.001 v 3.07388 3.07389 l 2.5384,-0.11528 c 1.94022,-0.0881 2.74678,-0.27087 3.42278,-0.77556 z m 12.91881,2.5831 v -12.64 h 4.28576 c 3.78317,0 4.312,0.0657 4.50935,0.56 0.12297,0.308 1.36288,3.77767 2.75533,7.71038 1.39248,3.93271 2.65321,7.36739 2.80163,7.63262 0.27088,0.48401 0.87209,-1.09725 4.4344,-11.663 l 1.42957,-4.24 h 4.45196 4.452 v 12.64 12.64 h -3.09142 -3.09146 l 0.21207,-8.96 c 0.11661,-4.928 0.10374,-8.95764 -0.0285,-8.95477 -0.13232,0.003 -1.69575,3.99888 -3.47424,8.88 l -3.23367,8.87477 -2.08684,0.0937 c -1.48218,0.0666 -2.13268,-0.0261 -2.245,-0.32 -0.087,-0.22755 -1.491,-4.15772 -3.12003,-8.73372 -1.62905,-4.576 -3.10358,-8.464 -3.27673,-8.64 -0.2065,-0.2099 -0.26541,2.79042 -0.17114,8.72 l 0.14368,9.04 h -2.82832 -2.82832 v -12.63998 z m 36.16,0 v -12.64 h 8.48 8.48 v 2.4 2.4 h -5.6 -5.6 v 2.56 2.56 h 5.28 5.28 v 2.4 2.4 h -5.28 -5.28 v 2.72 2.72 h 5.92 5.92 v 2.56 2.56 h -8.8 -8.8 z m 23.68,0 v -12.64 h 3.44714 3.44713 l 5.11287,8.31209 5.11286,8.31209 0.0853,-8.31209 0.0853,-8.31209 h 2.87468 2.87469 v 12.64 12.64 l -3.44,-0.004 -3.44,-0.004 -5.12,-8.35996 -5.12,-8.35996 -0.0853,8.36361 -0.0853,8.36361 h -2.87469 -2.87469 v -12.6393 z m 34.88,2.56 v -10.08 h -3.52 -3.52 v -2.56 -2.56 h 10.24 10.24 v 2.56 2.56 h -3.68 -3.68 v 10.08 10.08 h -3.04 -3.04 z M 392.87049,276.93568 c -2.58105,-0.57676 -6.71571,-2.6349 -8.68627,-4.32381 -1.92576,-1.65051 -3.73081,-4.39254 -4.50822,-6.84836 -0.79411,-2.50854 -0.66112,-6.39546 0.29184,-8.5296 1.28176,-2.87046 3.9559,-5.02545 7.06134,-5.69044 1.33187,-0.28521 1.31466,-0.18264 0.54624,-3.2533 -0.92745,-3.70616 0.0763,-7.00255 2.9976,-9.84441 3.71962,-3.61841 9.20247,-4.53638 12.81517,-2.1456 2.77917,1.83916 3.43798,5.57691 1.42304,8.07316 -0.53136,0.65827 -1.29632,1.24561 -1.69987,1.3052 -0.69296,0.10231 -0.71924,0.04 -0.47181,-1.12 0.52285,-2.45137 0.36742,-4.15667 -0.45904,-5.03639 -4.23171,-4.50447 -13.29987,0.61802 -13.23526,7.47643 0.0301,3.19259 0.99833,4.47566 3.38627,4.48724 0.96301,0.005 2.14928,0.51599 2.53408,1.09227 0.3672,0.54994 0.28534,1.94367 -0.13911,2.3681 -0.63728,0.63728 -2.20998,0.43404 -3.34592,-0.43238 -2.76147,-2.10627 -4.61657,-2.02793 -6.74854,0.28499 -1.77814,1.92905 -2.23677,3.91768 -1.5351,6.65646 0.28448,1.11053 0.86796,2.61757 1.2966,3.34897 1.21991,2.08162 4.45344,5.07025 6.84602,6.32752 9.88141,5.19252 24.59933,0.30323 26.09801,-8.66977 0.55632,-3.33064 -2.00233,-7.35536 -5.41532,-8.51829 -1.96573,-0.66979 -5.36816,-0.68668 -7.27744,-0.0361 -1.68058,0.57264 -3.89616,2.35122 -4.58269,3.67886 -0.59734,1.15512 -0.60643,3.27485 -0.0189,4.41098 0.90058,1.74155 3.14896,2.20941 3.3136,0.68952 0.34035,-3.14211 0.98835,-4.15673 2.65472,-4.15673 1.38531,0 2.09641,0.46805 2.50893,1.65133 1.69884,4.87331 -5.51319,7.66107 -9.02432,3.48829 -3.41639,-4.06011 -0.44963,-10.98565 5.50128,-12.84208 1.535,-0.47886 3.60128,-0.73682 7.55308,-0.94293 5.76397,-0.30064 8.46122,-0.8268 10.56,-2.05998 3.75597,-2.20687 4.52311,-7.37345 1.51466,-10.20072 -1.11203,-1.04507 -3.05741,-1.58224 -4.41514,-1.21914 -1.20112,0.32122 -1.3167,0.99454 -0.47065,2.7422 0.44982,0.92925 0.60793,1.68369 0.46893,2.23755 -0.51421,2.04887 -3.58948,2.8429 -5.11236,1.32002 -0.96576,-0.96578 -1.0792,-3.25849 -0.23216,-4.69243 1.32084,-2.236 5.4352,-3.67042 8.27741,-2.88582 7.25888,2.00384 7.49683,12.95247 0.36007,16.56894 -1.781,0.9025 -5.13965,1.70083 -7.19076,1.70921 -0.748,0.003 -1.36,0.0518 -1.36,0.10831 0,0.0565 0.6192,0.74899 1.376,1.53883 2.13696,2.23024 2.88756,4.09518 2.90087,7.20739 0.0102,2.3904 -0.0914,2.81651 -1.21322,5.08628 -2.17552,4.40189 -6.48659,7.86023 -11.54365,9.2603 -2.7176,0.75238 -10.82895,0.94918 -13.59999,0.32996 z m -257.40258,-0.72551 c -1.56529,-5.28923 -11.1793,-36.08494 -11.51667,-36.89032 -0.64754,-1.54579 -1.89186,-2.61342 -3.31378,-2.84323 -0.93191,-0.15061 -1.23026,-0.35817 -1.30921,-0.91076 l -0.10226,-0.71569 h 7.72452 7.72451 l -0.10226,0.72 c -0.07,0.4932 -0.35426,0.75082 -0.90225,0.81783 -2.91181,0.3561 -3.78532,1.36931 -3.18415,3.69336 0.52223,2.01884 8.02679,26.56933 8.21763,26.88324 0.14959,0.24604 3.23245,-8.95061 8.75397,-26.11443 1.89742,-5.89822 1.94536,-6 2.82602,-6 0.89149,0 0.92446,0.0785 6.78119,16.13871 3.23693,8.87629 5.97944,16.04029 6.09447,15.92 0.46342,-0.48465 7.03036,-24.03463 7.2045,-25.83637 0.28325,-2.93073 -0.65046,-4.27596 -3.25364,-4.68766 -0.37822,-0.0598 -0.68182,-0.39438 -0.74225,-0.81795 l -0.10226,-0.71673 h 5.62226 5.62225 v 0.8 c 0,0.61594 -0.16565,0.80028 -0.72,0.8012 -1.23846,0.002 -2.74177,1.18431 -3.54418,2.78726 -1.04283,2.08327 -1.76754,4.38906 -6.61641,21.05154 -2.30476,7.92 -4.33865,14.868 -4.51976,15.44 -0.23898,0.75481 -0.51992,1.03923 -1.02446,1.03719 -0.62509,-0.003 -1.27388,-1.57553 -6.43429,-15.6 -3.1565,-8.57845 -5.94819,-16.10119 -6.20375,-16.71719 l -0.46465,-1.12 -2.48934,7.68 c -1.36913,4.224 -3.80505,11.748 -5.41315,16.72 -2.74544,8.48849 -2.97027,9.04 -3.68535,9.04 -0.4488,0 -0.82958,-0.22997 -0.92725,-0.56 z m 42.04259,-0.0415 c 0,-0.50688 0.30409,-0.62354 1.93243,-0.74132 1.44315,-0.10438 2.11159,-0.31893 2.64,-0.84735 l 0.70757,-0.70757 v -14.73938 -14.73939 l -0.71609,-0.57985 c -0.4044,-0.32747 -1.55349,-0.67704 -2.64,-0.80315 -1.33072,-0.15444 -1.92391,-0.3616 -1.92391,-0.67187 0,-0.37281 1.35127,-0.44858 8,-0.44858 6.64874,0 8,0.0758 8,0.44858 0,0.31108 -0.59943,0.51815 -1.95554,0.67554 -2.43829,0.283 -3.0466,0.84906 -3.32017,3.08957 -0.3821,3.12942 -0.0472,27.23141 0.38896,27.99265 0.47151,0.82295 1.96806,1.39366 3.6545,1.39366 1.01892,0 1.23225,0.1108 1.23225,0.64 0,0.62293 -0.21333,0.64 -8,0.64 -7.61616,0 -8,-0.0289 -8,-0.60154 z m 18.88,-0.0385 c 0,-0.53418 0.21334,-0.64 1.29028,-0.64 1.96412,0 3.36111,-0.7133 3.78642,-1.93333 0.49864,-1.43041 0.50733,-27.31802 0.01,-28.74567 -0.43603,-1.25081 -0.91,-1.51441 -3.24634,-1.8055 -1.24381,-0.15496 -1.84,-0.37282 -1.84,-0.67237 0,-0.36614 1.44546,-0.44313 8.32,-0.44313 6.83367,0 8.32,0.0784 8.32,0.43865 0,0.30914 -0.66773,0.50445 -2.2615,0.6615 -2.55358,0.25162 -3.34708,0.79032 -3.65594,2.482 -0.10623,0.58182 -0.15026,7.20997 -0.0978,14.72923 l 0.0953,13.67138 0.72682,0.72655 c 0.65483,0.65459 1.09213,0.73816 4.4149,0.84363 6.5051,0.2065 8.13421,-0.28187 10.26671,-3.07777 0.56948,-0.74665 1.3599,-2.365 1.75648,-3.59635 0.62902,-1.95303 0.81951,-2.23882 1.49231,-2.23882 0.57181,0 0.72102,0.13089 0.57701,0.50617 -0.10683,0.2784 -0.19423,2.5824 -0.19423,5.12 l 10e-6,4.61383 h -14.88 c -14.66666,0 -14.88,-0.009 -14.88,-0.64 z m 32,0.0396 c 0,-0.49888 0.30671,-0.62581 1.81422,-0.75083 3.63678,-0.30159 3.73207,-0.79192 3.57321,-18.38583 -0.10381,-11.49594 -0.13007,-11.92747 -0.77897,-12.8 -0.5497,-0.73915 -1.02866,-0.95461 -2.64,-1.18763 -1.30718,-0.18902 -1.96846,-0.4309 -1.96846,-0.72 0,-0.35596 1.51708,-0.43534 8.32,-0.43534 6.79075,0 8.32,0.0798 8.32,0.43405 0,0.30645 -0.68199,0.49488 -2.32,0.641 -3.3318,0.29721 -3.62817,0.70428 -3.92027,5.38462 -0.35794,5.73502 -0.0595,24.93012 0.40029,25.74667 0.59933,1.06437 2.08757,1.39381 6.28773,1.39187 4.09288,-0.002 5.89182,-0.32675 7.28249,-1.31513 1.22572,-0.87114 2.6936,-3.23072 3.48011,-5.59418 0.52233,-1.56961 0.82544,-2.0489 1.29574,-2.0489 0.56368,0 0.61391,0.258 0.61391,3.15306 0,1.73418 -0.0925,4.03818 -0.20559,5.12 l -0.20558,1.96697 h -14.67442 c -14.13823,0 -14.67441,-0.0219 -14.67441,-0.60037 z m 31.68,0 c 0,-0.49748 0.3049,-0.62566 1.77901,-0.74791 2.15431,-0.17865 2.98207,-0.88179 3.36372,-2.85728 0.31268,-1.61847 0.39494,-24.43253 0.096,-26.61377 -0.28196,-2.05711 -0.96777,-2.66782 -3.29986,-2.93848 -1.34271,-0.15584 -1.93884,-0.36295 -1.93884,-0.67361 0,-0.37281 1.35126,-0.44858 8,-0.44858 6.56276,0 8,0.0788 8,0.43867 0,0.2982 -0.60889,0.50755 -1.9016,0.65381 -1.10335,0.12483 -2.21157,0.46613 -2.64,0.81306 l -0.7384,0.59791 v 14.73939 14.73938 l 0.70757,0.70757 c 0.52842,0.52842 1.19685,0.74297 2.64,0.84735 1.62834,0.11778 1.93243,0.23444 1.93243,0.74132 0,0.57268 -0.38383,0.60154 -8,0.60154 -7.61066,0 -8,-0.0292 -8,-0.60037 z m 18.24,-0.0142 c 0,-0.42376 0.30045,-0.68057 0.96766,-0.82711 1.21235,-0.26628 2.73319,-1.52659 3.42279,-2.83644 0.2901,-0.55103 3.36607,-7.76988 6.8355,-16.04188 4.88324,-11.64291 6.44198,-15.05852 6.90104,-15.12198 0.49812,-0.0689 1.66484,2.47745 7.29191,15.91432 7.10625,16.96899 7.44841,17.60667 9.7011,18.07999 0.73647,0.15475 1.04,0.39789 1.04,0.8331 0,0.58704 -0.30821,0.61457 -6.88,0.61457 -6.66667,0 -6.88,-0.0198 -6.88,-0.64 0,-0.52538 0.2149,-0.64084 1.2,-0.64472 1.56831,-0.006 2.77479,-0.636 2.9011,-1.51451 0.0556,-0.38676 -0.73639,-2.79639 -1.76,-5.35472 l -1.8611,-4.65151 -6.71158,0.0827 -6.71158,0.0827 -1.23671,3.17034 c -1.37434,3.52318 -1.67827,4.87633 -1.3706,6.10221 0.23261,0.92676 1.89203,2.08443 2.99047,2.08625 0.50627,9.6e-4 0.72,0.19118 0.72,0.6412 0,0.61414 -0.21334,0.64 -5.28,0.64 -4.99385,0 -5.28,-0.0333 -5.28,-0.61457 z m 22.00586,-14.0254 c -0.22761,-0.85667 -5.76734,-14.1867 -5.85443,-14.08726 -0.14338,0.16372 -5.91143,14.27385 -5.91143,14.46088 0,0.10251 2.68079,0.18638 5.95732,0.18638 5.51698,0 5.94633,-0.0414 5.80854,-0.56 z m 17.03414,14.03799 c 0,-0.44392 0.36775,-0.69461 1.40042,-0.95464 1.80547,-0.45463 3.25009,-1.81983 3.70215,-3.49864 0.24417,-0.90677 0.32948,-5.46961 0.26785,-14.32614 l -0.0904,-12.99559 -0.71609,-0.57962 c -0.40418,-0.32715 -1.55411,-0.67687 -2.64,-0.80291 -1.34804,-0.15645 -1.92391,-0.35988 -1.92391,-0.67961 0,-0.38035 0.88813,-0.44171 5.33486,-0.36858 l 5.33487,0.0877 6.25993,14.14921 c 3.44296,7.78206 6.35755,14.04606 6.47686,13.92 0.11932,-0.12607 2.98724,-6.52921 6.37312,-14.22921 l 6.1562,-14 h 5.39209 c 4.27302,0 5.39206,0.0883 5.39206,0.42556 0,0.28701 -0.74566,0.52141 -2.29043,0.72 -3.78419,0.48647 -3.60816,-0.15746 -3.73933,13.6775 -0.13116,13.83826 0.0301,16.54246 1.0568,17.73625 0.61879,0.71936 1.04215,0.86495 2.84986,0.98006 1.81814,0.11577 2.1231,0.22176 2.1231,0.73791 0,0.57484 -0.38486,0.60272 -8.31999,0.60272 -7.92935,0 -8.32,-0.0283 -8.32,-0.60154 0,-0.50688 0.30409,-0.62354 1.93241,-0.74132 2.62282,-0.18971 3.23539,-0.82553 3.55367,-3.68853 0.32124,-2.88993 0.34288,-25.76899 0.024,-25.57202 -0.13735,0.0849 -3.26935,7.00521 -6.96,15.37847 -5.63451,12.78351 -6.81284,15.22383 -7.35024,15.22239 -0.53616,-0.002 -1.72561,-2.45474 -7.33058,-15.11959 -3.67965,-8.31482 -6.82009,-15.26186 -6.97858,-15.43786 -0.17122,-0.19015 -0.24809,4.939 -0.18942,12.64 0.0909,11.9284 0.14573,13.03758 0.68911,13.93463 0.75935,1.25356 2.28993,2.28131 3.80963,2.55806 0.88596,0.16135 1.2,0.37671 1.2,0.82292 0,0.57186 -0.3359,0.60439 -6.24,0.60439 -5.89541,0 -6.24,-0.0332 -6.24,-0.60201 z m 123.51999,-0.19799 c 0,-0.65769 0.15655,-0.80125 0.88,-0.80703 1.2328,-0.01 3.28461,-1.02229 4.28141,-2.11262 1.67843,-1.83592 1.71859,-2.2688 1.71859,-18.52035 0,-13.47668 -0.0566,-15.16494 -0.54451,-16.24204 -0.66166,-1.46063 -1.53962,-1.83796 -4.27632,-1.83796 -1.98762,0 -2.05917,-0.028 -2.05917,-0.80663 v -0.80662 l 6.46061,0.0866 6.46061,0.0866 7.53939,17.03678 c 4.14665,9.37023 7.61139,17.03676 7.69939,17.03673 0.088,-3e-5 3.544,-7.70239 7.68,-17.11636 l 7.52,-17.1163 6.48,-3.2e-4 6.48,-3.2e-4 v 0.76716 c 0,0.74031 -0.0949,0.77112 -2.71123,0.88 -3.40378,0.14166 -3.89338,0.53923 -4.36074,3.54115 -0.20105,1.2916 -0.28928,7.9685 -0.228,17.25912 0.0898,13.60771 0.15607,15.25507 0.65024,16.15788 0.68051,1.2432 1.95018,1.71469 4.61747,1.71469 1.9544,0 2.03226,0.0307 2.03226,0.8 v 0.8 h -10.08 -10.08 v -0.8 c 0,-0.7675 0.0812,-0.80019 2,-0.80472 2.45971,-0.006 3.43414,-0.46199 4.16298,-1.94889 0.51814,-1.05703 0.55638,-2.4275 0.48,-17.19642 l -0.083,-16.04786 -4.12269,9.35894 c -12.64848,28.71345 -12.0672,27.48054 -12.90659,27.37547 -0.69094,-0.0865 -1.59782,-1.95833 -8.72851,-18.01652 -4.37661,-9.856 -8.10829,-18.136 -8.29267,-18.4 -0.23517,-0.33678 -0.31344,4.10305 -0.26237,14.88 0.0684,14.41782 0.11049,15.43589 0.68694,16.59719 0.7904,1.59237 2.73744,2.99434 4.53229,3.2635 1.21734,0.18255 1.4136,0.318 1.4136,0.97564 v 0.76367 h -7.52 -7.52 v -0.8 z m 58.56,0.21065 c 0,-0.40799 0.38477,-0.70462 1.25033,-0.96395 1.43357,-0.42951 3.05146,-2.10886 3.88295,-4.03044 0.30851,-0.71294 2.96537,-7.05626 5.90416,-14.09626 2.93878,-7.04 5.63533,-13.484 5.99232,-14.32 0.40029,-0.9374 0.85152,-1.52 1.17731,-1.52 0.39107,0 1.68589,2.7634 4.98544,10.64 7.25229,17.31234 9.06339,21.41052 9.816,22.21165 0.39226,0.41751 1.26179,0.92349 1.93232,1.12439 0.83869,0.25127 1.21917,0.54919 1.21917,0.95461 0,0.55419 -0.41043,0.58935 -6.88,0.58935 -6.66666,0 -6.88,-0.0198 -6.88,-0.64 0,-0.51579 0.21334,-0.64 1.09917,-0.64 0.60454,0 1.45977,-0.13711 1.90054,-0.30468 1.63002,-0.61973 1.58723,-1.14962 -0.51402,-6.36653 l -1.95795,-4.86119 -6.69891,0.0862 -6.69888,0.0862 -1.29312,3.2 c -2.1265,5.26223 -1.79082,7.45944 1.22602,8.0254 0.78963,0.14813 1.09715,0.37524 1.09715,0.81021 0,0.5681 -0.31706,0.60439 -5.28,0.60439 -4.91539,0 -5.28,-0.0407 -5.28,-0.58935 z m 22.10009,-14.21065 c -0.15622,-0.396 -1.46182,-3.528 -2.90131,-6.96 -1.43949,-3.432 -2.69571,-6.43099 -2.79161,-6.66443 -0.1313,-0.31952 -6.16717,13.59958 -6.16717,14.22185 0,0.0674 2.73245,0.12258 6.07206,0.12258 h 6.0721 z m 17.25991,14.16 c 0,-0.54622 0.21334,-0.64 1.4559,-0.64 1.9047,0 3.18822,-0.69245 3.62941,-1.95803 0.49059,-1.40734 0.49152,-27.31392 0,-28.72097 -0.42682,-1.22438 -0.89885,-1.49878 -3.08634,-1.79418 -1.07712,-0.14546 -1.68,-0.38062 -1.68,-0.65528 0,-0.66452 0.64509,-0.74263 8,-0.9687 10.16301,-0.31237 14.01741,0.39301 17.13299,3.13544 1.9026,1.67474 2.69082,3.35979 2.69997,5.772 0.0122,3.24056 -1.45821,5.63705 -4.43136,7.22172 -1.02573,0.54672 -2.58941,1.1494 -3.47481,1.33928 l -1.60986,0.34525 1.74122,1.64677 c 0.95766,0.90572 3.05792,3.3815 4.6672,5.50173 4.07692,5.37135 6.33996,7.58109 8.64665,8.44297 1.01859,0.3806 2.13459,0.692 2.48,0.692 0.41466,0 0.628,0.21741 0.628,0.64 0,0.61135 -0.21334,0.64 -4.76553,0.64 h -4.76554 l -1.77482,-1.91701 c -0.97612,-1.05436 -3.10121,-3.75436 -4.72236,-6 -5.52301,-7.65052 -6.89072,-8.9969 -9.17175,-9.02856 l -1.03897,-0.0144 v 6.41028 c 0,8.67022 0.28073,9.26972 4.34083,9.26972 1.52582,0 1.73917,0.0785 1.73917,0.64 0,0.62359 -0.21335,0.64 -8.32,0.64 -8.10666,0 -8.32,-0.0164 -8.32,-0.64 z m 18.39564,-18.36765 c 2.81072,-1.19622 4.07546,-3.39722 4.07546,-7.09245 0,-1.79857 -0.18042,-2.72117 -0.7945,-4.06244 -1.30236,-2.84479 -3.31379,-3.7904 -8.2366,-3.87224 l -2.72,-0.0452 -0.0857,7.9622 -0.0857,7.9622 3.28566,-0.15458 c 2.05763,-0.0968 3.76246,-0.35749 4.56134,-0.69747 z m 24.16435,18.40836 c 0,-0.48662 0.30583,-0.62867 1.62669,-0.75559 2.83808,-0.2727 2.99552,-0.61735 3.11491,-6.81863 l 0.1016,-5.27745 -5.11807,-8.39452 c -7.00829,-11.49477 -6.90458,-11.36358 -9.40512,-11.89847 -0.484,-0.10353 -0.88,-0.4015 -0.88,-0.66215 0,-0.40418 1.0358,-0.4739 7.04,-0.4739 5.80412,0 7.03999,0.0782 7.03999,0.44576 0,0.51594 -0.6815,0.83424 -1.78617,0.83424 -1.08877,0 -2.14061,1.12701 -1.88186,2.01637 0.25607,0.88019 9.19338,15.87355 9.47232,15.89092 0.37715,0.0235 8.06755,-13.19314 8.39872,-14.43394 0.44071,-1.65106 -0.39283,-2.81608 -2.46822,-3.44977 -0.82211,-0.25103 -1.49479,-0.64703 -1.49479,-0.88 0,-0.33575 1.19431,-0.42358 5.76,-0.42358 5.32452,0 5.76,0.0434 5.76,0.57363 0,0.40679 -0.40604,0.68223 -1.39603,0.94701 -2.14195,0.57289 -3.94509,2.84942 -9.24397,11.67095 l -4.72,7.85781 v 4.9153 c 0,6.60886 0.44208,7.50166 3.75949,7.6034 0.81603,0.025 1.04,0.16972 1.04,0.6719 0,0.62145 -0.21334,0.64 -7.36,0.64 -6.98,0 -7.36,-0.0309 -7.36,-0.59929 z M 347.54093,208.75637 c -0.28029,-0.73044 0.0102,-0.87661 2.28745,-1.15076 2.2416,-0.26987 6.54064,-1.61368 9.60211,-3.0015 l 1.92,-0.87037 -1.62931,-0.75996 -1.62934,-0.75995 -2.27594,0.77409 c -5.51961,1.87735 -10.64131,2.24917 -12.91952,0.93792 -3.49987,-2.01439 -2.11274,-6.37554 2.23524,-7.02756 2.04304,-0.30637 4.64633,0.28259 8.85888,2.00419 1.936,0.79122 3.73663,1.50668 4.0014,1.58991 0.26477,0.0832 1.19859,-0.16591 2.07514,-0.55364 1.21389,-0.53697 1.48045,-0.77246 1.11856,-0.98812 -0.26131,-0.15573 -2.20311,-1.23176 -4.3151,-2.39119 -2.112,-1.15944 -6.98679,-4.17408 -10.83287,-6.6992 l -6.99289,-4.59115 -1.35052,1.83054 c -1.92778,2.61299 -4.82711,5.14683 -7.11883,6.22143 -4.67208,2.19077 -8.5878,1.83102 -11.37165,-1.04477 -4.13466,-4.27119 -2.7251,-9.99736 3.11964,-12.67317 3.43486,-1.57253 6.93422,-1.28411 11.82251,0.97442 l 2.36558,1.09296 1.16269,-2.77016 c 1.41447,-3.37002 3.39296,-10.04522 4.1573,-14.02623 l 0.56371,-2.93607 -1.21457,-3.14393 c -1.39519,-3.61148 -4.7453,-11.24255 -6.20536,-14.13492 -1.11624,-2.21126 -1.51611,-2.36394 -3.51724,-1.34304 -2.67385,1.36409 -3.87285,3.95397 -3.25494,7.03076 0.69336,3.45249 2.5759,5.20621 6.33301,5.89963 1.49706,0.2763 2.20287,0.55686 2.26935,0.90207 0.14827,0.76989 -0.75319,0.93649 -3.0671,0.56684 -5.1848,-0.82827 -7.73738,-3.73732 -7.81059,-8.90137 -0.0478,-3.36975 1.84839,-6.0786 5.24226,-7.48902 1.58531,-0.65883 1.69723,-0.77938 1.29561,-1.39561 -0.16838,-0.25834 -1.09787,-0.13193 -3.2751,0.44545 -3.91565,1.03838 -10.63192,1.20178 -13.44,0.32699 -2.55551,-0.7961 -5.11461,-2.45127 -6.2128,-4.01829 -1.22308,-1.74526 -1.51935,-4.76664 -0.68231,-6.95841 0.74477,-1.95013 3.15083,-4.05621 5.46588,-4.78438 5.66861,-1.783 12.14722,1.31916 18.03187,8.6342 1.05747,1.31452 2.05978,2.63502 2.22736,2.93446 0.27247,0.48688 0.68865,0.35252 3.93733,-1.27114 3.65948,-1.82896 9.23439,-5.22035 9.23065,-5.61527 0,-0.11709 -0.42502,-0.45354 -0.94205,-0.74768 -0.92416,-0.52581 -0.98393,-0.51236 -3.55085,0.79912 -2.27244,1.16102 -2.93204,1.34851 -5.08869,1.44644 -2.04715,0.093 -2.7111,-0.006 -3.81991,-0.57215 -1.69315,-0.86378 -2.19935,-1.85974 -1.63621,-3.21928 0.66708,-1.61046 1.92977,-2.07933 5.59973,-2.07933 2.52072,0 3.65851,0.15837 5.36,0.74609 l 2.16003,0.74609 1.07776,-0.66609 c 1.82121,-1.12557 2.59014,-0.578 0.97376,0.69345 l -0.82842,0.65164 0.99754,0.63161 0.99757,0.63161 1.28297,-0.88911 c 1.01031,-0.70015 1.36541,-0.80586 1.67088,-0.4974 0.30461,0.30758 0.15613,0.58154 -0.69142,1.27577 l -1.07936,0.88407 1.58605,1.16427 c 2.06931,1.519 7.85747,7.52721 9.69263,10.06108 0.792,1.09354 1.52676,1.99246 1.6328,1.99759 0.10602,0.005 0.89002,-0.89067 1.74218,-1.99067 3.48662,-4.50068 7.38778,-8.47262 10.38035,-10.56871 l 0.77351,-0.54179 -0.86442,-0.90226 c -1.5719,-1.64071 -0.90755,-2.26424 0.92403,-0.86724 1.25303,0.95572 1.34618,0.96201 2.37155,0.16016 l 0.8,-0.6256 -0.96,-0.7834 c -0.66806,-0.54515 -0.85907,-0.88671 -0.62816,-1.12312 0.2329,-0.23842 0.70144,-0.0886 1.57136,0.50256 l 1.23956,0.84228 2.2647,-0.7294 c 5.83062,-1.87788 11.07254,-0.89482 11.07254,2.07652 0,0.79068 -0.24841,1.27213 -0.9694,1.87882 -2.04714,1.72253 -5.74535,1.58717 -9.6496,-0.35318 -2.5729,-1.27869 -2.67191,-1.30087 -3.53402,-0.7916 -0.48784,0.28817 -0.88698,0.62389 -0.88698,0.74603 0,0.57526 8.2105,5.41089 11.57194,6.8154 l 1.16467,0.48663 1.36967,-1.83105 c 2.13875,-2.85924 5.96425,-6.65758 8.11923,-8.0616 3.94678,-2.57144 7.97641,-3.23322 11.5487,-1.89665 3.28701,1.22982 5.15542,3.56989 5.49763,6.88536 0.68599,6.64677 -7.53632,10.71238 -18.02992,8.91509 -1.56307,-0.26772 -3.48108,-0.70024 -4.2623,-0.96116 -1.12678,-0.37634 -1.47306,-0.39148 -1.6751,-0.0732 -0.42541,0.67001 -0.33783,0.7572 1.83494,1.82686 3.40336,1.67546 4.82106,4.17366 4.54646,8.01144 -0.34828,4.86774 -3.52457,7.78112 -8.79107,8.06343 -1.68189,0.0902 -1.86384,0.0363 -1.95142,-0.57715 -0.0845,-0.59225 0.11161,-0.70419 1.57373,-0.89814 4.52704,-0.60054 6.98048,-3.19232 6.9958,-7.39027 0.009,-2.46446 -0.70553,-3.84131 -2.69606,-5.19501 -2.79722,-1.90233 -3.02493,-1.71673 -6.07002,4.94751 -2.7752,6.07358 -5.37859,12.64878 -5.36528,13.5507 0.0382,2.58784 3.09412,13.46336 4.96109,17.65566 l 0.81667,1.83388 2.34032,-1.10531 c 5.82036,-2.7489 10.16893,-2.62575 14.15706,0.40093 3.07952,2.33709 3.93273,5.88619 2.2344,9.2943 -2.69117,5.40044 -9.46166,5.92658 -15.70022,1.22008 -1.08298,-0.81703 -2.79546,-2.56442 -3.80548,-3.88308 -1.19372,-1.55852 -1.96044,-2.30268 -2.19091,-2.12643 -2.13481,1.63267 -13.51712,8.86103 -16.99453,10.79242 -2.464,1.36853 -4.61174,2.60267 -4.77276,2.74254 -0.161,0.13987 0.40841,0.55487 1.2654,0.92222 l 1.55815,0.6679 4.13904,-1.65298 c 5.01177,-2.00152 7.57523,-2.51739 9.73331,-1.95875 3.27942,0.84892 4.71184,4.11267 2.69165,6.13286 -2.16823,2.16822 -7.19072,2.10642 -13.84899,-0.17042 l -2.3658,-0.809 -1.52,0.70718 c -0.836,0.38895 -1.52,0.79577 -1.52,0.90404 0,0.25086 5.2393,2.30705 8.1137,3.18427 1.20656,0.36822 2.72704,0.66948 3.37885,0.66948 1.32534,0 2.48547,0.66837 2.13747,1.23146 -0.62022,1.00349 -5.3504,-0.0335 -11.44752,-2.50957 -2.16838,-0.88059 -4.11568,-1.60126 -4.32736,-1.60148 -0.21168,-2.3e-4 -1.95126,0.64115 -3.86579,1.42528 -6.52634,2.67301 -11.35376,3.72061 -11.79891,2.56051 z m 5.22352,-6.26052 c 3.63168,-0.95123 3.75344,-1.07494 1.86563,-1.89535 -4.64944,-2.02058 -6.26723,-2.55033 -7.78835,-2.55033 -3.524,0 -4.90087,3.34361 -2.0432,4.96172 1.10521,0.62581 4.42838,0.41053 7.96592,-0.51604 z m 28.71302,0.54874 c 1.91341,-0.79947 2.16973,-3.28601 0.46202,-4.48213 -1.32784,-0.93006 -3.60042,-0.64881 -7.44352,0.92116 -1.92199,0.78517 -3.62692,1.55999 -3.78874,1.72181 -0.35322,0.35324 1.96221,1.16725 5.08576,1.78793 2.90704,0.57766 4.39251,0.59105 5.68448,0.0512 z m -16.58525,-0.877 1.54311,-0.68259 -1.52525,-0.77516 c -1.49936,-0.76198 -1.54954,-0.76589 -2.95287,-0.22995 -0.78518,0.29987 -1.50499,0.67039 -1.59952,0.82338 -0.14502,0.23463 2.18269,1.51838 2.79213,1.53987 0.10963,0.004 0.8937,-0.30013 1.7424,-0.67555 z m 1.93879,-5.55674 c 4.81811,-2.57292 7.37734,-4.17875 13.10233,-8.22122 2.81923,-1.9907 5.45152,-3.83546 5.84947,-4.09946 l 0.72359,-0.48 -1.27373,-2.72 c -0.70054,-1.496 -1.88064,-4.49277 -2.62246,-6.65948 -0.7418,-2.16672 -1.4586,-3.82272 -1.59287,-3.68 -0.22339,0.23745 -2.88931,8.94193 -3.90169,12.73948 -0.32122,1.20479 -0.57588,1.6 -1.03104,1.6 -0.51549,0 -0.68592,-0.47116 -1.15748,-3.2 -0.64128,-3.71082 -1.81033,-8.38331 -3.12252,-12.48 -0.91472,-2.85582 -0.92576,-2.87194 -1.31655,-1.92 -1.45427,3.54278 -4.51632,15.91483 -5.78153,23.36 -0.88432,5.20374 -0.9049,5.28 -1.42324,5.28 -0.65916,0 -0.68422,-0.0805 -1.44496,-4.64 -0.94963,-5.69164 -2.6286,-13.12515 -4.15321,-18.38806 -1.61242,-5.56592 -1.88246,-6.27209 -2.25578,-5.89878 -0.48416,0.48416 -3.07526,9.9429 -3.67264,13.40684 -0.6416,3.72051 -0.98352,4.73946 -1.53081,4.56221 -0.21747,-0.0704 -0.56627,-0.69374 -0.77511,-1.38513 -0.20883,-0.6914 -1.2111,-4.02281 -2.22726,-7.40315 -1.01616,-3.38034 -1.90208,-6.09155 -1.9687,-6.02492 -0.0666,0.0666 -0.68173,1.79403 -1.36692,3.83868 -0.68515,2.04465 -1.84776,5.01327 -2.58356,6.59693 -0.77384,1.66553 -1.21473,2.98666 -1.04583,3.13384 0.96297,0.83917 10.83211,7.71848 13.02562,9.07953 2.89936,1.79905 9.4983,5.34831 9.95936,5.35669 0.16112,0.003 1.77552,-0.78638 3.58752,-1.754 z m -39.91723,-4.46773 c 2.81706,-0.99391 5.69325,-3.70235 7.90269,-7.44176 l 0.79694,-1.3488 -1.53145,-0.77475 c -4.03909,-2.04335 -8.61974,-2.67315 -11.13421,-1.53085 -3.72555,1.69248 -5.02892,6.08126 -2.74312,9.23672 1.58195,2.18381 3.93859,2.83695 6.70915,1.85944 z m 77.43863,-0.19001 c 0.64301,-0.36137 1.52659,-1.17882 1.96359,-1.81655 0.66582,-0.97173 0.79449,-1.53419 0.79449,-3.47324 0,-2.10694 -0.088,-2.42252 -0.98496,-3.53069 -0.54173,-0.66932 -1.62173,-1.55258 -2.4,-1.9628 -2.08396,-1.09843 -5.90889,-0.88147 -9.28784,0.52682 -3.83913,1.60008 -3.78566,1.51768 -2.39545,3.69091 3.74387,5.85262 8.79005,8.54397 12.31017,6.56555 z m -38.16553,-26.79766 2.33696,-4.89471 -1.21533,-2.78529 c -0.66845,-1.5319 -1.87485,-4.08128 -2.6809,-5.66528 l -1.46556,-2.88 -2.22592,4.64 c -3.23053,6.73421 -3.20535,6.63938 -2.2168,8.3464 0.72371,1.24971 3.27644,6.75463 4.14265,8.9336 l 0.31805,0.8 0.33494,-0.8 c 0.1842,-0.44 1.38656,-3.00262 2.67191,-5.69472 z m -14.48147,-1.60146 1.47597,-3.29618 -1.31421,-2.62382 c -0.72282,-1.44311 -1.68218,-3.25584 -2.13194,-4.02831 -0.99702,-1.71252 -1.01421,-1.67779 -1.81811,3.67846 l -0.58147,3.87396 1.22429,3.09319 c 0.67334,1.70126 1.32444,2.98197 1.44688,2.84603 0.12246,-0.13593 0.88681,-1.73044 1.69859,-3.54333 z m 26.2015,0.63399 1.19642,-3.12993 -0.737,-4.46394 -0.73696,-4.46394 -0.85561,1.34757 c -0.47059,0.74116 -1.45693,2.56008 -2.19191,4.04202 l -1.33632,2.69446 1.57143,3.55797 c 0.86429,1.95689 1.6439,3.55522 1.73248,3.55185 0.0886,-0.003 0.69945,-1.4146 1.35747,-3.13606 z m -21.31193,-10.53781 c 0.65769,-1.188 1.96073,-3.4059 2.89567,-4.92867 0.93492,-1.52277 1.69984,-2.94908 1.69984,-3.16958 0,-0.64169 -4.04572,-6.54017 -6.54787,-9.54648 -1.26259,-1.51696 -3.03635,-3.37832 -3.94176,-4.13636 l -1.64617,-1.37826 -3.4521,2.28218 c -1.89865,1.2552 -4.84657,2.95605 -6.55094,3.77968 -1.70437,0.82362 -3.10837,1.60751 -3.12,1.74197 -0.0116,0.13447 0.30168,0.73698 0.69626,1.33892 0.49196,0.7505 1.04728,1.1563 1.76713,1.29135 1.47572,0.27684 4.81229,2.07299 7.0513,3.79589 2.39312,1.84145 5.70291,5.40354 7.99955,8.60936 0.97718,1.364 1.81641,2.48 1.86499,2.48 0.0485,0 0.6264,-0.972 1.2841,-2.16 z m 16.27551,-0.16779 c 3.70871,-5.33143 9.70605,-10.55711 13.82282,-12.04428 2.43837,-0.88084 2.57926,-0.97245 3.33094,-2.16586 l 0.64116,-1.01793 -3.52896,-1.80509 c -1.9409,-0.9928 -4.9066,-2.73267 -6.5904,-3.86639 -2.35399,-1.58493 -3.18791,-1.99307 -3.60852,-1.76608 -0.8255,0.44548 -5.18528,5.05604 -6.83996,7.23342 -0.80253,1.056 -2.27578,3.17353 -3.27389,4.70564 l -1.81479,2.78563 2.40375,3.98874 c 1.32208,2.19381 2.6496,4.50427 2.95008,5.13437 0.30048,0.63009 0.62765,1.13938 0.72704,1.13176 0.0994,-0.008 0.90073,-1.0489 1.78073,-2.31393 z m -28.96489,-4.61593 c 0.005,-2.61845 0.003,-2.6254 -1.10131,-3.46747 -1.24025,-0.94597 -3.42724,-2.12203 -3.6087,-1.94058 -0.0652,0.0652 0.85581,2.07364 2.0467,4.46317 1.34795,2.70468 2.25835,4.19815 2.41182,3.9566 0.13562,-0.2134 0.2488,-1.56867 0.25149,-3.01172 z m 41.25309,-0.96937 c 1.22777,-2.41619 2.17891,-4.44647 2.11366,-4.51173 -0.18662,-0.18661 -3.10656,1.49365 -4.09373,2.35571 -0.88825,0.77568 -0.89101,0.79061 -0.67411,3.66398 0.11981,1.58682 0.26371,2.88513 0.31984,2.88513 0.0561,0 1.10656,-1.97689 2.33434,-4.39309 z m -56.01509,-9.17124 c 0.9422,-0.26137 1.79538,-0.55749 1.89594,-0.65805 0.33271,-0.33271 -3.36846,-5.42269 -5.42666,-7.46294 -3.37733,-3.34786 -5.19342,-4.31353 -8.11525,-4.31513 -4.02087,-0.002 -6.54713,2.4657 -6.54713,6.39589 0,2.86995 2.35468,5.0586 6.72,6.24616 2.48668,0.67649 8.69363,0.56508 11.4731,-0.20593 z m 80.8362,-0.15705 c 3.40688,-1.21141 5.61069,-3.55613 5.61069,-5.9694 0,-2.16942 -1.44224,-4.58771 -3.30896,-5.54836 -3.49878,-1.80053 -7.28342,-0.69024 -11.24883,3.30005 -2.90281,2.92103 -6.11462,7.56597 -5.47792,7.92227 0.24691,0.1382 1.57997,0.46495 2.96234,0.72612 3.52752,0.66646 8.9502,0.46272 11.46268,-0.43068 z m -67.7493,-9.77541 c 1.1,-0.50084 2,-1.00865 2,-1.12847 0,-0.50835 -3.57383,-1.29474 -5.88402,-1.29474 -3.08496,0 -4.44288,0.58511 -4.29548,1.85088 0.14606,1.25408 1.28541,1.71349 3.9395,1.58847 1.61319,-0.076 2.79965,-0.36034 4.24,-1.01614 z m 49.21027,0.63312 c 1.28979,-0.53891 1.44844,-1.37049 0.43635,-2.28674 -0.94557,-0.85601 -5.30362,-1.03101 -7.7761,-0.31224 -0.9848,0.28629 -1.79053,0.64084 -1.79053,0.78789 0,0.2255 2.51572,1.46713 4.16,2.05316 0.97895,0.34889 3.89591,0.20683 4.97028,-0.24207 z m -38.6937,-3.95715 c -0.0886,-0.14344 0.0607,-1.01775 0.33191,-1.94289 l 0.49308,-1.68209 -1.31539,-1.55996 c -1.38953,-1.64791 -2.90617,-4.38091 -2.90617,-5.23694 0,-0.33789 -0.24276,-0.48406 -0.72,-0.43353 -0.46055,0.0488 -0.72,-0.0967 -0.72,-0.40377 0,-0.264 0.216,-0.48 0.48,-0.48 0.5478,0 0.94793,-0.44474 0.9551,-1.06157 0.003,-0.27652 -0.2153,-0.35167 -0.6351,-0.21843 -0.43207,0.13713 -0.64,0.0575 -0.64,-0.24511 0,-0.68256 0.37283,-0.90941 0.84736,-0.51559 0.32902,0.27307 0.49084,0.18121 0.70956,-0.40278 0.23063,-0.61586 0.17172,-0.77553 -0.3168,-0.85878 -0.33008,-0.0562 -0.60012,-0.22774 -0.60012,-0.38111 0,-0.49663 0.65654,-0.70127 1.09155,-0.34024 0.31657,0.26274 0.53526,0.21616 0.86598,-0.18449 0.34426,-0.41703 0.3537,-0.56586 0.0425,-0.67061 -0.56458,-0.19 -0.49917,-1.04129 0.08,-1.04129 0.264,0 0.48,0.2314 0.48,0.51423 0,0.33745 0.17401,0.44746 0.50617,0.32 0.2784,-0.10683 0.65603,-0.19423 0.83917,-0.19423 0.19757,0 0.16643,-0.20075 -0.0766,-0.49356 -0.29104,-0.35071 -0.31046,-0.59271 -0.0671,-0.83612 0.44438,-0.44438 1.13318,-0.0191 0.91021,0.56205 -0.11723,0.3055 0.0678,0.44763 0.58264,0.44763 0.52208,0 0.74071,-0.17246 0.70995,-0.56 -0.0243,-0.308 0.17156,-0.56 0.43556,-0.56 0.28464,0 0.4568,0.25859 0.423,0.63533 -0.0516,0.57518 0.37575,1.1071 0.89968,1.11977 0.11146,0.003 0.28576,-0.31281 0.3873,-0.70113 0.2175,-0.83175 0.69002,-0.49691 0.69002,0.48898 0,0.39748 0.2351,0.73107 0.55999,0.79455 0.3424,0.0669 0.56,-0.0862 0.56,-0.39404 0,-0.2769 0.13549,-0.50346 0.30112,-0.50346 0.51312,0 0.73156,0.64686 0.36682,1.08634 -0.27085,0.32636 0.1145,0.65262 1.75325,1.48441 l 2.10038,1.06611 2.05923,-1.01545 c 2.01808,-0.99516 2.45901,-1.46148 1.6592,-1.75475 -0.3151,-0.11553 -0.31052,-0.24005 0.0214,-0.58666 0.35632,-0.37193 0.49012,-0.34715 0.86464,0.16013 0.27421,0.3714 0.64564,0.52242 0.9745,0.39622 0.43811,-0.16812 0.46003,-0.28992 0.12493,-0.6937 -0.28883,-0.34802 -0.30733,-0.58892 -0.0639,-0.83233 0.41565,-0.41563 1.03834,-0.0867 1.03834,0.54856 0,0.51694 0.2816,0.5772 0.89085,0.19063 0.22595,-0.14337 0.32412,-0.4866 0.21817,-0.76273 -0.10595,-0.27612 -0.0291,-0.6031 0.17069,-0.72661 0.21488,-0.1328 0.4352,0.0501 0.53914,0.44763 0.22758,0.87021 1.25472,0.87021 1.4823,0 0.10394,-0.39751 0.32426,-0.58043 0.53914,-0.44763 0.19984,0.12351 0.27664,0.45049 0.17068,0.72661 -0.10595,0.27613 -0.008,0.61936 0.21818,0.76273 0.61485,0.39013 0.89085,0.32522 0.89085,-0.20951 0,-0.264 0.192,-0.48 0.42665,-0.48 0.64436,0 0.88682,0.37407 0.52506,0.81 -0.1775,0.21388 -0.23286,0.62313 -0.12301,0.90944 0.21863,0.56946 0.77139,0.71319 0.77139,0.20056 0,-0.176 0.216,-0.32 0.48,-0.32 0.264,0 0.48,0.216 0.48,0.48 0,0.264 -0.23139,0.48 -0.51424,0.48 -0.33744,0 -0.44745,0.17401 -0.32,0.50617 0.10685,0.27839 0.19424,0.65603 0.19424,0.83918 0,0.19757 0.20074,0.16641 0.49357,-0.0766 0.35069,-0.29106 0.59271,-0.31047 0.8361,-0.0671 0.44438,0.44438 0.0192,1.13317 -0.56205,0.91018 -0.31098,-0.11934 -0.44762,0.076 -0.44762,0.63975 0,0.67778 0.11031,0.77651 0.66941,0.59906 0.53469,-0.1697 0.64506,-0.0935 0.54842,0.37843 -0.0685,0.3346 -0.34701,0.55284 -0.64205,0.50316 -0.35491,-0.0598 -0.64416,0.2973 -0.9072,1.12 -0.49696,1.55418 -1.45933,3.13937 -2.82422,4.65209 -1.14042,1.26391 -1.14468,1.30031 -0.505,4.31565 l 0.22064,1.04 H 363.3294 c -5.73161,0 -10.49363,-0.11736 -10.5823,-0.26081 z m 18.86061,-1.83056 c -0.4833,-0.36553 -0.53706,-0.55675 -0.24,-0.85382 0.21056,-0.21054 0.38281,-0.498 0.38281,-0.6388 0,-0.1408 -3.82569,-0.256 -8.50156,-0.256 -8.42234,0 -8.49962,0.006 -8.29357,0.65535 0.1144,0.36045 0.0345,0.86445 -0.1776,1.12 -0.33558,0.40435 0.77194,0.46333 8.53357,0.45447 7.92272,-0.009 8.8496,-0.0628 8.29635,-0.4812 z m -13.89815,-0.26159 c -0.38899,-0.46869 -0.16819,-0.84703 0.49431,-0.84703 0.4767,0 0.58409,0.82491 0.14291,1.09759 -0.15606,0.0965 -0.44282,-0.0163 -0.63722,-0.25056 z m 3.26932,-0.0662 c -0.24026,-0.62611 0.0486,-0.91183 0.67785,-0.67038 0.63299,0.24291 0.63386,0.72736 0.003,0.96995 -0.28336,0.10874 -0.57158,-0.0183 -0.67952,-0.29957 z m 3.6222,0.28309 c -0.1158,-0.11581 -0.21056,-0.40256 -0.21056,-0.63723 0,-0.4767 0.82493,-0.58412 1.0976,-0.14292 0.21776,0.35237 -0.59766,1.06953 -0.88704,0.78015 z m 3.34848,-0.21686 c -0.38899,-0.46869 -0.16819,-0.84703 0.49431,-0.84703 0.4767,0 0.58409,0.82491 0.14291,1.09759 -0.15606,0.0965 -0.44282,-0.0163 -0.63722,-0.25056 z m -12.83903,-2.59179 c 0,-0.0796 -0.69015,-0.83562 -1.5337,-1.68 -2.65478,-2.65748 -3.58803,-5.60605 -2.46298,-7.78165 0.6154,-1.19006 1.38224,-1.59359 3.02839,-1.59359 2.32797,0 5.24086,1.95159 6.94937,4.65596 0.98896,1.56544 1.49661,1.84441 1.19907,0.65895 -0.23065,-0.919 0.24807,-1.28749 1.32234,-1.01786 0.66067,0.16581 0.75638,0.33657 0.6,1.07012 l -0.18611,0.87283 0.73645,-0.96 c 1.66083,-2.16496 3.60771,-4.01094 4.87942,-4.62657 1.8024,-0.87253 4.00013,-0.86485 4.94701,0.0173 2.15801,2.01049 1.59216,5.08717 -1.54583,8.40515 -1.78044,1.88253 -1.89539,2.12412 -1.01068,2.12412 0.82163,0 2.81302,-2.27325 3.74521,-4.27534 0.96019,-2.06218 0.97639,-3.82381 0.052,-5.65686 -1.39283,-2.76206 -3.81001,-2.75658 -9.08684,0.0206 -1.66333,0.8754 -3.23786,1.59163 -3.49895,1.59163 -0.26112,0 -2.05709,-0.80868 -3.9911,-1.79707 -4.86048,-2.484 -7.13453,-2.48992 -8.63904,-0.0225 -0.76544,1.25534 -0.82877,3.91023 -0.13299,5.57545 0.87091,2.08434 2.95686,4.56412 3.83929,4.56412 0.43431,0 0.78964,-0.0651 0.78964,-0.14476 z m 5.43647,-0.65341 c 0.89604,-0.46337 1.92352,-1.62437 1.92352,-2.1735 0,-0.1481 -0.468,-0.22406 -1.04,-0.1688 -0.89366,0.0863 -1.05552,-0.01 -1.1504,-0.6816 -0.0639,-0.45273 0.10391,-0.93876 0.39847,-1.15414 0.45312,-0.33134 0.40912,-0.50972 -0.40199,-1.6294 -1.84774,-2.55074 -4.12396,-3.95439 -6.41257,-3.95439 -2.61712,0 -3.41251,2.88157 -1.6457,5.96205 1.06679,1.85998 3.37328,3.99885 4.03741,3.74399 0.65107,-0.24984 0.42375,-2.15244 -0.27321,-2.28666 -0.30359,-0.0585 -0.552,0.0482 -0.552,0.23715 0,0.18891 -0.15402,0.34347 -0.34228,0.34347 -0.18822,0 -0.29622,-0.324 -0.24,-0.72 0.0672,-0.47293 0.35981,-0.75646 0.85274,-0.82625 0.57584,-0.0815 0.71114,-0.25654 0.58154,-0.75221 -0.18016,-0.68893 0.35907,-2.18154 0.78809,-2.18154 0.4745,0 0.97632,1.33169 0.78662,2.08748 -0.15104,0.60177 -0.0469,0.76787 0.5328,0.8502 0.53511,0.076 0.74698,0.34931 0.82343,1.06232 0.0962,0.89717 0.073,0.91994 -0.35373,0.348 -0.60323,-0.80842 -1.42921,-0.46371 -1.42921,0.59648 0,0.83525 0.9358,1.77552 1.7671,1.77552 0.23357,0 0.8408,-0.21518 1.34937,-0.47817 z m 7.89012,0.01 c 0.4776,-0.33452 0.62438,-0.70211 0.51299,-1.28473 -0.21114,-1.10459 -0.72163,-1.35182 -1.27107,-0.61557 -0.42356,0.56754 -0.44743,0.54369 -0.35146,-0.35111 0.0734,-0.68472 0.2929,-0.98716 0.76538,-1.05471 0.53808,-0.0769 0.63628,-0.27267 0.52323,-1.04293 -0.0765,-0.52153 0.0405,-1.16468 0.26003,-1.42924 0.59011,-0.71101 1.2743,9.9e-4 1.2743,1.32606 0,0.84712 0.13098,1.08082 0.60576,1.08082 0.68212,0 1.06893,0.71301 0.78634,1.4494 -0.16442,0.4285 -0.23677,0.42242 -0.58141,-0.0489 -0.48979,-0.66984 -1.00605,-0.38228 -1.20771,0.67272 -0.26365,1.37924 0.54826,1.6549 1.7737,0.60221 2.76192,-2.37254 4.07449,-5.10822 3.4504,-7.19126 -0.4242,-1.41586 -1.10493,-1.88418 -2.73879,-1.88418 -1.66179,0 -3.35347,0.98393 -5.23926,3.04728 -1.61975,1.77223 -1.96439,2.3927 -1.32903,2.3927 0.176,0 0.32,0.51544 0.32,1.14542 0,1.10622 -0.0329,1.13821 -0.96,0.93458 -1.34323,-0.29503 -1.26809,0.46318 0.17114,1.72685 1.23914,1.08797 2.20704,1.24489 3.23546,0.52456 z m -4.42928,-3.33229 c -0.11559,-0.99674 -1.11495,-1.15326 -1.66244,-0.26038 -0.28249,0.46069 -0.2343,0.66834 0.23623,1.01802 0.84157,0.62542 1.54336,0.25261 1.42621,-0.75764 z m -2.28772,-6.38432 c -0.96508,-1.06642 -0.65334,-1.33482 1.5504,-1.33482 2.21018,0 2.4801,0.23991 1.44,1.28 -0.79958,0.79957 -2.29164,0.82691 -2.9904,0.0548 z m -0.5296,-2.27194 c 0,-0.38485 0.91802,-1.30286 1.30285,-1.30286 0.16343,0 0.29715,0.36 0.29715,0.8 0,0.64 -0.16,0.8 -0.8,0.8 -0.44,0 -0.8,-0.13372 -0.8,-0.29714 z m 2.24,-0.50288 c 0,-0.94623 0.63911,-1.04497 1.3904,-0.21481 0.74663,0.82499 0.66612,1.01481 -0.4304,1.01481 -0.81065,0 -0.96,-0.12445 -0.96,-0.8 z m -0.8704,-1.73827 c -0.53952,-0.13802 -0.63692,-0.29719 -0.40489,-0.66173 0.59392,-0.93315 0.36102,-1.32536 -0.72471,-1.22047 -0.96454,0.0932 -1.04,0.0308 -1.04,-0.85953 0,-0.8916 0.076,-0.95396 1.0665,-0.87519 1.02442,0.0815 1.05837,0.048 0.86125,-0.84954 -0.23901,-1.08827 0.16589,-1.461545 1.28166,-1.1815 0.67015,0.16819 0.74663,0.32602 0.57466,1.1859 -0.19453,0.9726 -0.17879,0.98759 0.80877,0.77069 0.98633,-0.21664 1.00716,-0.19701 1.00716,0.94964 0,1.14665 -0.0208,1.16628 -1.00716,0.94964 -0.98212,-0.21571 -1.00237,-0.19729 -0.81469,0.7411 0.21222,1.06107 -0.28899,1.38855 -1.60855,1.05099 z m 1.44772,-2.86261 c -0.11559,-0.99674 -1.11495,-1.15326 -1.66244,-0.26038 -0.28249,0.46069 -0.2343,0.66834 0.23623,1.01802 0.84157,0.62542 1.54336,0.25261 1.42621,-0.75764 z"
       id="path432" />
  </g>
</svg>
