<?xml version="1.0" encoding="UTF-8" standalone="no"?>
<!-- Created with Inkscape (http://www.inkscape.org/) -->

<svg
   width="611.22266mm"
   height="109.7871mm"
   viewBox="0 0 611.22266 109.7871"
   version="1.1"
   id="svg5"
   xml:space="preserve"
   sodipodi:docname="cs.svg"
   inkscape:version="1.2.2 (732a01da63, 2022-12-09)"
   xmlns:inkscape="http://www.inkscape.org/namespaces/inkscape"
   xmlns:sodipodi="http://sodipodi.sourceforge.net/DTD/sodipodi-0.dtd"
   xmlns="http://www.w3.org/2000/svg"
   xmlns:svg="http://www.w3.org/2000/svg"><sodipodi:namedview
     id="namedview7"
     pagecolor="#ffffff"
     bordercolor="#000000"
     borderopacity="0.25"
     inkscape:showpageshadow="2"
     inkscape:pageopacity="0.0"
     inkscape:pagecheckerboard="0"
     inkscape:deskcolor="#d1d1d1"
     inkscape:document-units="mm"
     showgrid="false"
     inkscape:zoom="0.099645297"
     inkscape:cx="391.38826"
     inkscape:cy="-968.43507"
     inkscape:window-width="1128"
     inkscape:window-height="682"
     inkscape:window-x="-6"
     inkscape:window-y="-6"
     inkscape:window-maximized="1"
     inkscape:current-layer="layer1" /><defs
     id="defs2" /><g
     inkscape:label="Layer 1"
     inkscape:groupmode="layer"
     id="layer1"
     transform="translate(722.46652,-185.19246)"><path
       id="path5507"
       style="font-weight:bold;font-size:41.8569px;font-family:AvenirNextLTW01-Bold;-inkscape-font-specification:'AvenirNextLTW01-Bold Bold';text-align:start;text-anchor:start;fill:#020202;stroke-width:14.8311;paint-order:markers fill stroke"
       d="m -684.6032,185.19246 -0.77463,2.46238 c -1.72358,5.47938 -12.29879,37.9387 -12.45971,38.24366 -0.16233,0.30763 -9.56515,-29.98632 -10.51098,-33.86408 -0.76141,-3.12169 0.0295,-4.26397 3.31039,-4.78059 l 1.88619,-0.29714 v -0.86764 -0.86713 h -9.65729 -9.65729 v 0.92604 c 0,0.83352 0.0727,0.92659 0.7276,0.92759 2.50945,0.005 4.34198,1.47264 5.4498,4.36407 0.39028,1.01865 3.74571,11.67476 7.45639,23.68021 3.71068,12.00545 6.80066,21.97696 6.86676,22.15886 0.0661,0.1819 0.53119,0.33073 1.03301,0.33073 h 0.91209 l 1.06816,-3.24115 c 0.58756,-1.78263 3.57831,-11.03975 6.6461,-20.57135 6.47052,-20.10386 5.80509,-18.09784 5.95416,-17.94878 0.0652,0.0652 3.50526,9.27967 7.64449,20.47679 4.13923,11.1971 7.6085,20.56681 7.70909,20.82147 0.12404,0.31406 0.47163,0.46302 1.08056,0.46302 0.49375,0 0.89762,-0.0481 0.89762,-0.10646 0,-0.37779 12.03707,-41.23487 12.71343,-43.15292 0.9054,-2.56751 1.59833,-4.05874 2.44223,-5.25601 0.57307,-0.81304 2.85032,-2.01345 3.82819,-2.01745 0.50352,-0.002 0.59532,-0.14543 0.59532,-0.92862 v -0.92604 h -7.01146 -7.01146 v 0.92604 c 0,0.87055 0.0518,0.92604 0.86971,0.92604 1.12824,0 3.05542,0.99156 3.73259,1.92081 0.71952,0.98738 0.85617,3.50685 0.31885,5.8844 -0.64364,2.848 -8.73698,31.08296 -8.91057,31.08596 -0.0842,0.001 -3.49216,-9.13547 -7.57318,-20.30419 l -7.42022,-20.30677 -1.07797,-0.0806 z m 365.62626,0.0217 v 0.89141 0.89142 l 2.58692,0.14263 c 3.43869,0.18948 4.4108,0.61101 5.16299,2.24017 l 0.58446,1.26607 v 19.1823 c 0,17.36579 -0.0429,19.32038 -0.4532,20.64421 -0.84965,2.74132 -3.08737,4.59654 -6.35982,5.27255 -1.43425,0.29629 -1.52135,0.35869 -1.52135,1.08934 v 0.77515 h 9.39271 9.39271 v -0.78187 c 0,-0.69767 -0.10673,-0.79958 -0.99219,-0.94671 -3.6368,-0.60433 -6.03449,-2.37473 -7.00681,-5.17384 -0.22786,-0.65598 -0.33534,-6.22276 -0.39274,-20.34967 l -0.0791,-19.44687 8.14731,18.25625 c 4.48101,10.04093 9.1552,20.54978 10.38696,23.35309 l 2.23966,5.09685 1.01596,-0.0698 1.01596,-0.0698 10.22883,-23.17119 10.22883,-23.1712 0.0718,19.46703 c 0.0425,11.4665 -0.0317,20.14664 -0.18086,21.12119 -0.46776,3.0566 -1.67372,3.94827 -5.69888,4.21267 l -2.52646,0.16588 v 0.75396 0.75396 h 12.56771 12.56771 v -0.75603 -0.75551 l -2.76263,-0.14108 c -4.04433,-0.20641 -5.48815,-1.09328 -5.98723,-3.67677 -0.29072,-1.50482 -0.29072,-40.22442 0,-41.72924 0.26331,-1.36303 0.97968,-2.41505 1.97766,-2.90422 0.39997,-0.19605 2.07345,-0.41971 3.75998,-0.50281 l 3.0396,-0.14986 -0.0796,-0.8201 -0.0801,-0.81959 h -8.01811 -8.01863 l -9.42372,21.43125 c -5.18304,11.78718 -9.46241,21.48072 -9.51001,21.54132 -0.0477,0.0606 -0.1573,0.0396 -0.2434,-0.0465 -0.0861,-0.0862 -4.41844,-9.77965 -9.62732,-21.54132 l -9.47074,-21.38474 -7.96747,-0.0703 z m -23.6554,0.30385 c -1.8831,-0.0845 -4.37958,0.18786 -5.48132,0.68265 -3.65136,1.63981 -5.37976,5.18754 -3.9207,8.04757 1.31139,2.57051 5.29456,2.39139 6.67402,-0.30024 0.57881,-1.12936 0.41758,-2.36939 -0.48938,-3.75946 -1.32141,-2.02524 -0.57347,-3.11886 2.127,-3.10886 1.85147,0.007 3.34599,0.59524 4.53823,1.78749 1.44349,1.44347 1.81901,2.5485 1.81901,5.35058 0,2.28627 -0.0701,2.64021 -0.77722,3.91656 -2.25638,4.07305 -5.9022,5.4473 -15.62695,5.89008 -9.25845,0.42155 -12.62269,1.37503 -15.61093,4.42505 -1.7067,1.74196 -2.91983,4.01683 -3.32538,6.23528 -0.90684,4.96063 2.49274,9.23251 7.34684,9.23251 3.20899,0 5.51163,-1.92498 5.81463,-4.86069 0.18121,-1.75592 -0.31477,-2.91135 -1.58027,-3.68298 -1.01754,-0.62041 -2.0557,-0.65978 -3.10472,-0.1173 -1.07387,0.55531 -1.65076,1.81391 -1.73426,3.7822 -0.039,0.91838 -0.21324,1.84111 -0.38705,2.05052 -0.8559,1.03128 -3.26533,-0.16113 -4.19148,-2.07429 -2.44374,-5.0481 3.11314,-10.60992 10.57403,-10.58282 4.99703,0.0181 8.66513,2.15258 10.52856,6.12676 0.60946,1.29968 0.69643,1.82048 0.69143,4.13308 -0.005,2.44094 -0.0719,2.7828 -0.86661,4.41782 -1.13913,2.34365 -3.03753,4.37139 -5.8596,6.25905 -4.42337,2.95874 -9.09998,4.14637 -15.49311,3.93464 -4.08939,-0.13544 -5.71645,-0.44138 -8.65632,-1.62884 -4.83102,-1.95134 -9.62102,-6.54663 -11.51816,-11.04946 -0.60633,-1.43912 -0.70541,-2.05113 -0.71571,-4.44675 -0.0104,-2.37158 0.0736,-2.93771 0.57102,-3.86747 1.42192,-2.65791 3.61496,-4.33462 5.66942,-4.33462 1.60605,0 2.42541,0.32177 4.08812,1.60456 1.77789,1.3716 2.80252,1.72483 3.80029,1.31154 1.55207,-0.64288 1.6949,-2.95751 0.24908,-4.03696 -0.42447,-0.3169 -1.56617,-0.6429 -2.98638,-0.85266 -2.61374,-0.38604 -2.83241,-0.55874 -3.49488,-2.76469 -0.65579,-2.18372 -0.41169,-5.2706 0.57774,-7.30033 1.07839,-2.21218 3.76069,-4.84803 6.08852,-5.9831 1.66211,-0.81047 2.04691,-0.892 4.2106,-0.894 1.96834,-0.002 2.60047,0.10564 3.64525,0.62012 2.56625,1.26367 3.41936,3.68453 2.43913,6.92206 -0.71673,2.36717 -0.24424,2.9327 1.48311,1.77457 1.28468,-0.86132 2.39027,-3.05341 2.55127,-5.05913 0.23492,-2.92655 -1.31383,-5.35769 -4.43022,-6.95409 -1.36684,-0.70015 -1.65608,-0.74518 -4.7625,-0.74518 h -3.30729 l -2.28772,1.09916 c -3.2757,1.57383 -5.93139,4.13927 -7.44296,7.18974 -1.10314,2.22744 -1.11745,2.28805 -1.10845,5.05241 0.008,2.35554 0.12139,3.10974 0.71933,4.7687 0.39065,1.08384 0.68447,1.98636 0.65267,2.00556 -0.0318,0.0192 -0.84532,0.24287 -1.80764,0.49661 -2.67818,0.70617 -4.34658,1.59174 -6.03787,3.20497 -1.70543,1.62668 -2.98952,3.91706 -3.48093,6.20841 -0.17974,0.83399 -0.25163,2.62431 -0.17673,4.34909 0.19812,4.56493 1.67087,7.90952 4.96301,11.27114 3.83279,3.91371 9.08157,6.46729 14.61719,7.1112 4.53054,0.527 10.25868,0.21342 14.11387,-0.77256 4.40933,-1.12772 7.17896,-2.64229 10.39058,-5.68235 3.86984,-3.66309 5.75714,-7.21672 6.04252,-11.37708 0.28114,-4.09894 -0.95213,-7.30045 -3.93361,-10.21178 l -1.79058,-1.74873 2.57141,-0.17156 c 5.42173,-0.36231 8.99266,-1.72861 11.56364,-4.42402 3.1448,-3.29698 4.31905,-7.7806 3.08715,-11.78895 -0.95096,-3.0943 -3.48937,-5.73711 -6.21719,-6.47247 -0.41708,-0.11244 -0.97686,-0.18009 -1.60455,-0.20826 z m 119.71775,7.90598 c -0.73271,0 -1.02276,0.65744 -12.43541,28.17812 -5.08445,12.26071 -5.79197,13.40059 -8.8713,14.29577 -1.2591,0.36603 -1.46606,0.51675 -1.46606,1.06867 v 0.64286 h 6.61459 6.61458 v -0.63149 c 0,-0.54075 -0.16286,-0.65598 -1.13327,-0.8015 -2.5978,-0.38957 -3.77757,-1.88164 -3.56154,-4.5036 0.12562,-1.52456 1.92333,-6.7859 3.14865,-9.21494 l 0.50229,-0.99581 8.23258,0.0698 8.23257,0.0703 1.81746,4.36563 c 2.85365,6.85626 3.15937,7.78668 2.84685,8.68319 -0.33989,0.97496 -1.12056,1.3261 -3.42718,1.54048 -1.70954,0.15888 -1.84174,0.21548 -1.84174,0.79426 v 0.62374 h 8.59895 8.59896 v -0.63511 c 0,-0.5461 -0.19153,-0.6813 -1.36684,-0.96325 -0.99867,-0.23957 -1.65853,-0.62078 -2.44998,-1.41541 -1.18631,-1.19111 -1.05129,-0.88742 -12.33155,-27.74405 -5.37638,-12.80037 -5.67182,-13.4276 -6.32261,-13.4276 z m -277.33036,0.005 c -0.66348,-0.005 -0.95769,0.63491 -7.63157,16.59743 -9.34587,22.35334 -9.13038,21.85537 -10.07019,23.22133 -0.95854,1.39317 -2.3027,2.34649 -3.8995,2.76468 -0.93824,0.24573 -1.12434,0.40256 -1.12448,0.94568 v 0.65113 h 6.48229 6.48229 v -0.66146 c 0,-0.3638 -0.14883,-0.66221 -0.33073,-0.66301 -1.80161,-0.008 -3.75946,-1.39401 -4.18114,-2.96003 -0.38671,-1.43611 -0.0553,-2.78916 1.91565,-7.82019 l 1.58078,-4.0349 h 8.28322 8.28321 l 2.04845,4.94854 c 1.12665,2.72159 2.22038,5.45215 2.43035,6.06836 0.83138,2.43998 0.0258,3.42399 -3.03031,3.70158 -1.78926,0.16253 -1.91823,0.21583 -1.91823,0.79737 v 0.62374 h 8.59896 8.59896 v -0.61805 c 0,-0.52692 -0.22441,-0.68046 -1.52136,-1.0418 -2.0178,-0.56218 -2.96723,-1.58436 -4.3713,-4.70617 -0.61777,-1.37353 -4.45585,-10.44255 -8.5292,-20.15329 -7.10473,-16.93744 -7.43414,-17.65594 -8.09615,-17.66094 z m 317.9253,0.13487 c -4.80218,0.004 -9.89211,0.10494 -11.31094,0.22325 l -2.57968,0.21497 v 0.74311 0.74259 l 2.40295,0.0925 c 2.31764,0.0892 2.43006,0.12223 3.1564,0.93534 0.4691,0.52514 0.81511,1.27353 0.91777,1.98438 0.0909,0.6277 0.12927,8.76154 0.0853,18.07486 -0.0736,15.59919 -0.11712,17.00056 -0.54777,17.78858 -0.65019,1.18966 -1.78373,1.69037 -4.20337,1.85622 -1.96423,0.13463 -2.07584,0.17577 -2.07584,0.76584 v 0.62374 h 10.45104 10.45105 v -0.6258 c 0,-0.60474 -0.0837,-0.62937 -2.53473,-0.75758 -2.81115,-0.14704 -3.53558,-0.48222 -4.46175,-2.06396 -0.47231,-0.80663 -0.52398,-1.55659 -0.62942,-9.16688 l -0.11472,-8.28787 h 1.78852 c 1.31048,0 2.00882,0.13698 2.61328,0.51315 1.05545,0.65684 3.37803,3.43641 6.64611,7.95352 4.38591,6.0622 6.18733,8.38086 8.1163,10.44639 l 1.85777,1.98903 h 6.05906 6.05958 v -0.63356 c 0,-0.56936 -0.16672,-0.66242 -1.65365,-0.92345 -4.13507,-0.7259 -6.83442,-3.00411 -12.74599,-10.75852 -1.88076,-2.46702 -4.55967,-5.62785 -5.95313,-7.02386 l -2.53369,-2.53835 1.99936,-0.44183 c 4.33469,-0.95827 7.57568,-3.22731 9.12916,-6.39134 0.70321,-1.43223 0.77779,-1.83757 0.77773,-4.22972 -5e-5,-2.35252 -0.0811,-2.81083 -0.72967,-4.13101 -1.50387,-3.06103 -4.99688,-5.42522 -9.58908,-6.49056 -1.83941,-0.42674 -3.26042,-0.49018 -10.84792,-0.48318 z m -466.85729,0.38913 v 0.79375 0.79375 h 2.01073 c 2.42931,0 3.61379,0.48122 4.11654,1.67225 0.28534,0.67593 0.35502,4.35434 0.35502,18.71203 0,16.61092 -0.0329,17.9215 -0.4656,18.58181 -0.68486,1.04514 -1.86742,1.54236 -4.06332,1.70843 -1.83366,0.13868 -1.95337,0.18599 -1.95337,0.77101 v 0.62322 h 9.92187 9.92188 v -0.62374 c 0,-0.59204 -0.10929,-0.63125 -2.15594,-0.77153 -2.47783,-0.16983 -3.24325,-0.58304 -4.06177,-2.19366 -0.50732,-0.99827 -0.5326,-1.65846 -0.6165,-15.99024 -0.091,-15.5419 0.0949,-20.06173 0.87437,-21.25142 0.58958,-0.89981 1.68629,-1.23816 4.01474,-1.23816 h 1.9451 v -0.79375 -0.79375 h -9.92188 z m 23.54792,0 v 0.79375 0.79375 h 1.9451 c 3.70895,0 4.34237,0.60334 4.68757,4.46432 0.2849,3.18639 0.29422,27.83035 0.0119,31.33246 -0.30827,3.82375 -1.05525,4.60242 -4.67517,4.87619 -1.85016,0.13993 -1.96938,0.18708 -1.96938,0.77256 v 0.62322 h 18.48259 18.48259 l 0.16847,-1.78594 c 0.0928,-0.98226 0.16953,-3.84767 0.17053,-6.36757 l 0.002,-4.58163 -0.69144,0.0837 c -0.61145,0.074 -0.78969,0.35904 -1.54357,2.46497 -1.14375,3.195 -1.72692,4.27105 -3.20394,5.91385 -1.59376,1.77264 -2.77254,2.3616 -5.44514,2.72128 -3.27678,0.44099 -10.16064,0.18925 -11.41895,-0.41755 -1.99616,-0.96262 -1.90634,-0.0474 -1.90634,-19.46237 0,-16.30023 0.0293,-17.40644 0.49506,-18.61385 0.65088,-1.6873 1.44691,-2.02365 4.78834,-2.02365 h 2.52181 v -0.79375 -0.79375 h -10.45104 z m 39.95208,0 v 0.79375 0.79375 h 1.9451 c 3.70896,0 4.34237,0.60334 4.68757,4.46432 0.2849,3.18639 0.29422,27.83035 0.0119,31.33246 -0.30826,3.82375 -1.05525,4.60242 -4.67516,4.87619 -1.85017,0.13993 -1.96939,0.18708 -1.96939,0.77256 v 0.62322 h 18.48259 18.48259 l 0.16847,-1.78594 c 0.0927,-0.98226 0.16953,-3.84767 0.17053,-6.36757 l 0.002,-4.58163 -0.69143,0.0837 c -0.61145,0.074 -0.78969,0.35904 -1.54358,2.46497 -1.14375,3.195 -1.72691,4.27105 -3.20394,5.91385 -1.59374,1.77264 -2.77253,2.3616 -5.44514,2.72128 -3.27679,0.44099 -10.16064,0.18925 -11.41894,-0.41755 -1.99618,-0.96262 -1.90635,-0.0474 -1.90635,-19.46237 0,-16.30023 0.0293,-17.40644 0.49506,-18.61385 0.65087,-1.6873 1.44692,-2.02365 4.78834,-2.02365 h 2.52181 v -0.79375 -0.79375 h -10.45104 z m 39.6875,0 v 0.79375 0.79375 h 1.99264 c 2.43522,0 3.63217,0.45691 4.27364,1.63246 0.45079,0.82605 0.48059,1.9735 0.48059,18.47587 0,16.28792 -0.0346,17.66406 -0.46715,18.5322 -0.67583,1.35611 -1.72829,1.8689 -4.18217,2.03709 -1.98628,0.13615 -2.09755,0.17678 -2.09755,0.76739 v 0.62374 h 10.05417 10.05416 v -0.62374 c 0,-0.59007 -0.11159,-0.63121 -2.07584,-0.76584 -2.41963,-0.16584 -3.55319,-0.66656 -4.20336,-1.85622 -0.43078,-0.78824 -0.47352,-2.18369 -0.54312,-17.76791 -0.0808,-18.10494 -0.0191,-19.17797 1.16375,-20.2892 0.57396,-0.53921 1.01094,-0.64722 3.09697,-0.76326 2.41522,-0.13435 2.42983,-0.13904 2.51303,-0.86248 l 0.0837,-0.7276 h -10.07173 z m 71.66694,0 0.0837,0.7276 c 0.0836,0.72658 0.0875,0.7276 2.67735,0.87953 2.28562,0.13408 2.67014,0.22894 3.23857,0.79737 1.1316,1.1312 1.21601,2.57663 1.12861,19.23552 -0.0792,15.09338 -0.0975,15.56769 -0.63304,16.72456 -0.93078,2.01062 -2.89387,3.41267 -5.36246,3.82974 -0.9324,0.15752 -1.09761,0.28154 -1.09761,0.82372 l 5.2e-4,-5.1e-4 v 0.6382 h 7.80521 7.80521 v -0.63924 c 0,-0.55692 -0.17897,-0.67807 -1.38338,-0.93637 -2.98746,-0.64069 -4.78266,-2.4218 -5.23689,-5.19555 -0.14447,-0.88219 -0.25363,-8.24783 -0.25063,-16.90905 l 0.005,-15.34583 8.65838,19.5063 8.65839,19.5063 0.81752,0.007 c 0.63709,0.005 0.89145,-0.15329 1.15394,-0.72037 0.18524,-0.40019 3.96595,-8.94292 8.40155,-18.98385 4.43558,-10.04092 8.17191,-18.43485 8.30285,-18.65313 0.14228,-0.23712 0.21204,6.57897 0.17364,16.93334 -0.0593,15.99651 -0.10025,17.39586 -0.53175,18.18545 -0.66466,1.21616 -1.79746,1.70093 -4.34444,1.85983 -2.09592,0.13076 -2.19935,0.16695 -2.19935,0.76172 v 0.62425 h 10.45104 10.45104 v -0.62477 c 0,-0.59914 -0.0953,-0.63051 -2.32389,-0.75758 -2.76401,-0.15759 -3.77053,-0.60502 -4.45347,-1.97972 -0.47359,-0.95308 -0.49868,-1.89335 -0.49868,-18.59835 0,-15.99626 0.0403,-17.66903 0.44545,-18.40818 0.76803,-1.40144 1.13322,-1.54949 4.08657,-1.65881 l 2.74402,-0.1018 v -0.76378 -0.76326 l -6.68073,0.005 -6.68073,0.005 -7.91321,17.99786 c -4.35226,9.89875 -8.00009,17.90328 -8.10648,17.78806 -0.10641,-0.11521 -3.73779,-8.21625 -8.06928,-18.00251 l -7.87548,-17.79323 h -6.72311 z m 318.02917,0 0.0837,0.7276 c 0.0768,0.66759 0.20158,0.74162 1.50947,0.90124 0.78401,0.0957 1.73652,0.40295 2.11667,0.68264 0.97335,0.71614 3.00317,3.82051 9.77046,14.94224 l 5.90404,9.7038 -0.0832,6.29884 c -0.0719,5.41883 -0.1492,6.41818 -0.55139,7.15409 -0.61439,1.12419 -1.68018,1.64374 -3.7729,1.83916 -1.57682,0.14725 -1.71255,0.20954 -1.71255,0.78342 v 0.62322 h 9.26041 9.26042 v -0.62529 c 0,-0.57592 -0.13748,-0.63899 -1.7539,-0.8046 -2.14331,-0.21959 -3.12039,-0.69529 -3.72845,-1.81591 -0.39833,-0.73409 -0.47716,-1.776 -0.55656,-7.34684 l -0.0925,-6.49159 5.4467,-9.07025 c 5.87853,-9.79006 6.57364,-10.87989 8.18503,-12.83126 1.25176,-1.51591 2.53681,-2.37905 4.30671,-2.89284 1.08207,-0.31413 1.30336,-0.48801 1.37356,-1.07642 l 0.0837,-0.70125 h -7.16132 -7.16132 v 0.79375 c 0,0.72985 0.0743,0.79375 0.92087,0.79375 2.28029,0 4.10621,1.54941 4.10621,3.48454 0,0.52514 -0.43967,1.79669 -1.04128,3.0117 -1.47579,2.98054 -9.35747,16.08721 -9.66711,16.07551 -0.27157,-0.0102 -0.92158,-1.04438 -7.66413,-12.19926 -3.52904,-5.8384 -4.20915,-7.131 -4.22765,-8.03465 -0.0297,-1.46051 0.81273,-2.09467 3.06958,-2.31045 1.58043,-0.15111 1.67573,-0.19914 1.75493,-0.88729 l 0.0837,-0.7276 h -9.03098 z m -26.82007,1.19062 3.70417,0.0134 c 6.09985,0.0227 8.54135,1.10284 10.2247,4.5222 0.77555,1.57537 0.86642,2.01718 0.96945,4.70876 0.1275,3.33085 -0.23148,5.08416 -1.41232,6.89518 -1.40192,2.15013 -3.6189,3.1466 -7.93492,3.5662 v -5.2e-4 c -1.4523,0.14118 -3.32663,0.25955 -4.16512,0.26355 l -1.52445,0.007 0.0692,-9.98802 z m -42.16125,6.6983 c 0.12499,0.13113 5.79795,13.62564 7.55613,17.9741 0.10514,0.26013 -1.51736,0.33073 -7.59592,0.33073 -7.25256,0 -7.71878,-0.0286 -7.55251,-0.46302 1.63832,-4.28108 7.46549,-17.97485 7.5923,-17.84181 z m -277.2885,0.23048 c 0.0446,0.0151 0.082,0.063 0.11782,0.13229 0.17415,0.33643 1.77071,4.1242 3.5481,8.41706 1.7774,4.29285 3.39218,8.19216 3.58842,8.6651 l 0.35708,0.8599 h -7.65948 c -4.21268,0 -7.6598,-0.0893 -7.66,-0.19844 -1.9e-4,-0.10914 1.68921,-4.28387 3.75429,-9.27695 2.97547,-7.19426 3.64165,-8.70481 3.95377,-8.59896 z m -111.56373,61.6815 c -2.26028,0 -4.36671,0.36279 -6.32003,1.08831 -1.95332,0.72552 -3.65563,1.77202 -5.10667,3.13934 -1.45104,1.33942 -2.59521,2.97197 -3.43235,4.89738 -0.80923,1.92542 -1.21388,4.07423 -1.21388,6.44612 0,2.31608 0.40465,4.43647 1.21388,6.36188 0.80924,1.92542 1.92551,3.58587 3.34864,4.98109 1.42314,1.36733 3.09753,2.42778 5.02295,3.1812 1.95331,0.75343 4.0737,1.13017 6.36188,1.13017 2.51141,0 4.72999,-0.43255 6.65541,-1.2976 1.92541,-0.89294 3.544,-2.09293 4.85552,-3.59978 l -4.98109,-4.68808 c -0.64181,0.89294 -1.49296,1.61852 -2.55334,2.17661 -1.06038,0.55809 -2.30222,0.83716 -3.72535,0.83716 -1.2278,0 -2.35802,-0.22326 -3.39049,-0.66973 -1.03247,-0.44647 -1.92496,-1.06042 -2.67839,-1.84175 -0.72552,-0.80923 -1.29761,-1.77201 -1.71618,-2.88819 -0.41857,-1.11618 -0.62786,-2.34356 -0.62786,-3.68298 0,-1.31152 0.20929,-2.5115 0.62786,-3.59978 0.41857,-1.11618 1.00461,-2.07897 1.75804,-2.8882 0.75342,-0.80923 1.64591,-1.43713 2.67839,-1.88361 1.06037,-0.47437 2.2185,-0.71158 3.4742,-0.71158 1.1441,0 2.26036,0.22325 3.34864,0.66973 1.08827,0.44647 1.96733,1.13018 2.63704,2.05103 l 4.85552,-4.85551 c -1.2557,-1.42314 -2.9022,-2.49754 -4.93923,-3.22306 -2.00913,-0.75342 -4.06027,-1.13017 -6.15311,-1.13017 z m 28.67215,0 c -2.31609,0 -4.4649,0.36279 -6.44612,1.08831 -1.95332,0.72552 -3.65563,1.75807 -5.10667,3.09749 -1.42313,1.33941 -2.53888,2.97195 -3.34811,4.89737 -0.80923,1.89751 -1.21388,4.03237 -1.21388,6.40426 0,2.34399 0.40465,4.49228 1.21388,6.4456 0.80923,1.92542 1.92498,3.58587 3.34811,4.98109 1.45104,1.36733 3.15335,2.42778 5.10667,3.1812 1.98122,0.75343 4.13003,1.13017 6.44612,1.13017 2.31608,0 4.46489,-0.37674 6.44612,-1.13017 1.98122,-0.75342 3.68301,-1.81387 5.10614,-3.1812 1.45104,-1.39522 2.58126,-3.05567 3.39049,-4.98109 0.80924,-1.95332 1.21388,-4.10161 1.21388,-6.4456 0,-2.37189 -0.40464,-4.50675 -1.21388,-6.40426 -0.80923,-1.92542 -1.93945,-3.55796 -3.39049,-4.89737 -1.42313,-1.33942 -3.12492,-2.37197 -5.10614,-3.09749 -1.98123,-0.72552 -4.13004,-1.08831 -6.44612,-1.08831 z m 245.90902,0 c -2.26027,0 -4.36671,0.36279 -6.32003,1.08831 -1.95332,0.72552 -3.65563,1.77202 -5.10666,3.13934 -1.45104,1.33942 -2.59521,2.97197 -3.43235,4.89738 -0.80924,1.92542 -1.21388,4.07423 -1.21388,6.44612 0,2.31608 0.40464,4.43647 1.21388,6.36188 0.80923,1.92542 1.9255,3.58587 3.34863,4.98109 1.42313,1.36733 3.09753,2.42778 5.02295,3.1812 1.95332,0.75343 4.07371,1.13017 6.36188,1.13017 2.51142,0 4.73,-0.43255 6.65541,-1.2976 1.92542,-0.89294 3.544,-2.09293 4.85552,-3.59978 l -4.98109,-4.68808 c -0.6418,0.89294 -1.49296,1.61852 -2.55333,2.17661 -1.06038,0.55809 -2.30223,0.83716 -3.72536,0.83716 -1.2278,0 -2.3575,-0.22326 -3.38997,-0.66973 -1.03247,-0.44647 -1.92548,-1.06042 -2.67891,-1.84175 -0.72552,-0.80923 -1.29761,-1.77201 -1.71617,-2.88819 -0.41858,-1.11618 -0.62787,-2.34356 -0.62787,-3.68298 0,-1.31152 0.20929,-2.5115 0.62787,-3.59978 0.41856,-1.11618 1.0046,-2.07897 1.75803,-2.8882 0.75342,-0.80923 1.64643,-1.43713 2.67891,-1.88361 1.06037,-0.47437 2.21798,-0.71158 3.47369,-0.71158 1.14408,0 2.26035,0.22325 3.34863,0.66973 1.08828,0.44647 1.96733,1.13018 2.63705,2.05103 l 4.85551,-4.85551 c -1.2557,-1.42314 -2.90219,-2.49754 -4.93923,-3.22306 -2.00912,-0.75342 -4.06027,-1.13017 -6.15311,-1.13017 z m 100.91735,0 c -2.26027,0 -4.36722,0.36279 -6.32054,1.08831 -1.95332,0.72552 -3.65563,1.77202 -5.10667,3.13934 -1.45104,1.33942 -2.59521,2.97197 -3.43235,4.89738 -0.80923,1.92542 -1.21387,4.07423 -1.21387,6.44612 0,2.31608 0.40464,4.43647 1.21387,6.36188 0.80924,1.92542 1.92551,3.58587 3.34864,4.98109 1.42314,1.36733 3.09754,2.42778 5.02295,3.1812 1.95331,0.75343 4.07422,1.13017 6.3624,1.13017 2.51141,0 4.72947,-0.43255 6.65489,-1.2976 1.92541,-0.89294 3.544,-2.09293 4.85552,-3.59978 l -4.98109,-4.68808 c -0.64181,0.89294 -1.49245,1.61852 -2.55282,2.17661 -1.06038,0.55809 -2.30222,0.83716 -3.72535,0.83716 -1.2278,0 -2.35802,-0.22326 -3.39049,-0.66973 -1.03247,-0.44647 -1.92548,-1.06042 -2.67891,-1.84175 -0.72552,-0.80923 -1.29761,-1.77201 -1.71617,-2.88819 -0.41857,-1.11618 -0.62787,-2.34356 -0.62787,-3.68298 0,-1.31152 0.2093,-2.5115 0.62787,-3.59978 0.41856,-1.11618 1.0046,-2.07897 1.75803,-2.8882 0.75342,-0.80923 1.64643,-1.43713 2.6789,-1.88361 1.06038,-0.47437 2.2185,-0.71158 3.47421,-0.71158 1.14409,0 2.26036,0.22325 3.34863,0.66973 1.08828,0.44647 1.96682,1.13018 2.63653,2.05103 l 4.85552,-4.85551 c -1.2557,-1.42314 -2.9022,-2.49754 -4.93923,-3.22306 -2.00913,-0.75342 -4.05975,-1.13017 -6.1526,-1.13017 z m -129.84013,0.0419 c -1.39524,0 -2.77661,0.1814 -4.14394,0.54415 -1.36732,0.33486 -2.59521,0.87904 -3.68349,1.63246 -1.08828,0.75343 -1.96734,1.71621 -2.63705,2.8882 -0.66971,1.17199 -1.00459,2.58128 -1.00459,4.22765 0,1.33942 0.2093,2.48359 0.62787,3.43235 0.44647,0.92085 1.01856,1.71618 1.71617,2.3859 0.72552,0.6418 1.53481,1.17203 2.42776,1.5906 0.92085,0.41856 1.85572,0.78083 2.80448,1.08779 0.97666,0.30694 1.84177,0.59997 2.59519,0.87901 0.78133,0.25114 1.42319,0.54416 1.92546,0.87902 0.53019,0.30695 0.93484,0.65578 1.21388,1.04645 0.27905,0.39066 0.41858,0.86508 0.41858,1.42317 0,0.586 -0.11162,1.08831 -0.33486,1.50688 -0.22323,0.41857 -0.53021,0.75345 -0.92087,1.00459 -0.36276,0.25114 -0.79532,0.43253 -1.2976,0.54415 -0.50229,0.11162 -1.01856,0.16744 -1.54874,0.16744 -1.17199,0 -2.35803,-0.29302 -3.55792,-0.87902 -1.172,-0.6139 -2.12082,-1.36738 -2.84634,-2.26033 l -4.68809,4.7718 c 1.31151,1.36733 2.95801,2.42778 4.93924,3.1812 1.98122,0.72552 4.03236,1.08831 6.15311,1.08831 1.45104,0 2.86032,-0.19534 4.22765,-0.58601 1.36732,-0.39066 2.58075,-0.99066 3.64112,-1.79989 1.06037,-0.80924 1.89757,-1.82783 2.51147,-3.05563 0.64181,-1.2557 0.96273,-2.73476 0.96273,-4.43694 0,-1.47894 -0.29302,-2.70683 -0.87901,-3.68349 -0.586,-1.00457 -1.32552,-1.84125 -2.21847,-2.51096 -0.89295,-0.66971 -1.88312,-1.19994 -2.9714,-1.5906 -1.08827,-0.41857 -2.13478,-0.79531 -3.13934,-1.13016 -0.69762,-0.22324 -1.32552,-0.43254 -1.8836,-0.62787 -0.5581,-0.22324 -1.04646,-0.46045 -1.46503,-0.71159 -0.39066,-0.25114 -0.69764,-0.54415 -0.92088,-0.87901 -0.19533,-0.33486 -0.293,-0.75346 -0.293,-1.25574 0,-0.586 0.12557,-1.06041 0.37672,-1.42317 0.27904,-0.39066 0.61392,-0.69763 1.00459,-0.92087 0.39067,-0.25114 0.82322,-0.41859 1.2976,-0.5023 0.50227,-0.0837 0.99064,-0.12557 1.46502,-0.12557 0.92085,0 1.86967,0.2372 2.84634,0.71158 1.00456,0.44647 1.81385,1.06042 2.42776,1.84175 l 4.56199,-4.81366 c -1.31151,-1.1999 -2.84586,-2.10686 -4.60385,-2.72076 -1.73008,-0.6139 -3.43239,-0.92088 -5.10666,-0.92088 z m -196.09966,0.75344 v 29.63489 h 6.73912 l -0.16743,-20.9703 h 0.12557 l 7.49205,20.9703 h 5.02295 l 7.70186,-20.9703 h 0.12557 l -0.16743,20.9703 h 6.98975 v -29.63489 h -10.33838 l -6.44612,19.00298 h -0.16743 l -6.73913,-19.00298 z m 39.97327,0 v 29.63489 h 7.1577 V 283.0082 h 3.55792 c 1.53476,0 3.01329,-0.16745 4.43643,-0.5023 1.42313,-0.33485 2.67893,-0.86456 3.76721,-1.59008 1.08828,-0.72552 1.95338,-1.67435 2.59519,-2.84634 0.6418,-1.1999 0.96273,-2.665 0.96273,-4.39508 0,-1.70218 -0.30698,-3.12542 -0.92087,-4.26951 -0.586,-1.17199 -1.40925,-2.10687 -2.46962,-2.80448 -1.03247,-0.72552 -2.26037,-1.24179 -3.6835,-1.54874 -1.39522,-0.33485 -2.90167,-0.5023 -4.52013,-0.5023 z m 26.49554,0 v 18.45883 c 0,1.78589 0.29302,3.41843 0.87901,4.89737 0.586,1.45104 1.42321,2.70684 2.51148,3.76721 1.08828,1.03248 2.41333,1.84177 3.97598,2.42776 1.56266,0.586 3.32078,0.87902 5.2741,0.87902 1.92541,0 3.66958,-0.29302 5.23224,-0.87902 1.59056,-0.58599 2.94403,-1.39528 4.06022,-2.42776 1.11618,-1.06037 1.96734,-2.31617 2.55333,-3.76721 0.6139,-1.47894 0.92087,-3.11148 0.92087,-4.89737 v -18.45883 h -7.1577 v 17.87282 c 0,0.80923 -0.0977,1.57667 -0.293,2.30218 -0.19534,0.72552 -0.51626,1.38132 -0.96274,1.96732 -0.44647,0.55809 -1.03251,1.0046 -1.75803,1.33946 -0.69762,0.33485 -1.54877,0.50229 -2.55333,0.50229 -1.00457,0 -1.86967,-0.16744 -2.59519,-0.50229 -0.69761,-0.33486 -1.2697,-0.78137 -1.71618,-1.33946 -0.41857,-0.586 -0.73949,-1.2418 -0.96273,-1.96732 -0.19533,-0.72551 -0.293,-1.49295 -0.293,-2.30218 v -17.87282 z m 28.33677,0 v 6.11126 h 8.37158 v 23.52363 h 7.15771 v -23.52363 h 8.37106 v -6.11126 z m 27.16527,0 v 29.63489 h 20.67729 V 288.073 h -13.77074 v -6.15311 h 12.30571 v -5.73402 h -12.30571 v -5.5671 h 13.0173 v -6.0694 z m 25.40723,0 v 29.63489 h 7.03213 v -11.76207 h 2.42776 l 6.40374,11.76207 h 8.37159 l -7.74372,-12.68295 c 1.92542,-0.58599 3.43238,-1.56221 4.52066,-2.92954 1.08828,-1.36732 1.63245,-3.05568 1.63245,-5.0648 0,-1.70218 -0.32092,-3.12542 -0.96273,-4.26951 -0.6418,-1.14409 -1.50691,-2.06501 -2.59519,-2.76262 -1.06037,-0.69762 -2.27431,-1.18599 -3.64164,-1.46503 -1.33941,-0.30695 -2.7208,-0.46044 -4.14393,-0.46044 z m 92.08534,0 v 29.63489 h 7.19904 v -29.63489 z m 13.3103,0 v 29.63489 h 20.67729 V 288.073 h -13.77074 v -6.15311 h 12.30571 v -5.73402 h -12.30571 v -5.5671 h 13.01729 v -6.0694 z m 25.40723,0 v 29.63489 h 6.94841 l -0.16743,-19.3797 h 0.12558 l 11.92898,19.3797 h 8.12044 v -29.63489 h -6.94842 l 0.16744,19.33784 h -0.12558 l -11.88713,-19.33784 z m 62.1993,0 v 29.63489 h 20.6773 V 288.073 h -13.77074 v -6.15311 h 12.30571 v -5.73402 h -12.30571 v -5.5671 h 13.01729 v -6.0694 z m -361.26683,5.65082 c 1.2557,0 2.39988,0.23721 3.43235,0.71159 1.06037,0.44647 1.95338,1.07437 2.6789,1.8836 0.75343,0.78133 1.33947,1.73015 1.75803,2.84634 0.41858,1.11618 0.62787,2.31617 0.62787,3.59978 0,1.33942 -0.20929,2.58075 -0.62787,3.72484 -0.41856,1.11618 -1.0046,2.07896 -1.75803,2.88819 -0.75342,0.80924 -1.64643,1.45109 -2.6789,1.92547 -1.03247,0.44647 -2.17665,0.66972 -3.43235,0.66972 -1.25571,0 -2.39988,-0.22325 -3.43235,-0.66972 -1.03247,-0.47438 -1.92548,-1.11623 -2.67891,-1.92547 -0.72552,-0.80923 -1.29761,-1.77201 -1.71617,-2.88819 -0.41857,-1.14409 -0.62787,-2.38542 -0.62787,-3.72484 0,-1.28361 0.19534,-2.4836 0.58601,-3.59978 0.41857,-1.11619 1.00461,-2.06501 1.75803,-2.84634 0.75343,-0.80923 1.64644,-1.43713 2.67891,-1.8836 1.03247,-0.47438 2.17664,-0.71159 3.43235,-0.71159 z m 68.01755,0.12558 h 3.13934 c 0.64181,0 1.25524,0.0419 1.84124,0.12557 0.6139,0.0837 1.15808,0.25115 1.63245,0.50229 0.47438,0.25114 0.85112,0.59998 1.13017,1.04645 0.27904,0.44648 0.41858,1.01856 0.41858,1.71618 0,0.69761 -0.13954,1.28365 -0.41858,1.75803 -0.27905,0.44647 -0.66974,0.80926 -1.17202,1.0883 -0.47438,0.27905 -1.01856,0.4744 -1.63246,0.58602 -0.61391,0.11161 -1.25524,0.16743 -1.92495,0.16743 h -3.01377 z m 107.23738,0 h 3.80856 c 0.53018,0 1.07436,0.0419 1.63245,0.12557 0.586,0.0837 1.10227,0.25115 1.54875,0.50229 0.47437,0.22324 0.85111,0.55812 1.13016,1.00459 0.30695,0.41857 0.46044,0.9767 0.46044,1.67432 0,0.75342 -0.16744,1.36737 -0.5023,1.84175 -0.30695,0.47438 -0.7116,0.83716 -1.21388,1.0883 -0.50228,0.25114 -1.06041,0.43254 -1.67431,0.54416 -0.6139,0.0837 -1.21338,0.12557 -1.79938,0.12557 h -3.39049 z" /></g></svg>
