<?xml version="1.0" encoding="UTF-8" standalone="no"?>
<!-- Created with Inkscape (http://www.inkscape.org/) -->

<svg
   version="1.1"
   id="svg2"
   width="487.68002"
   height="238.2093"
   viewBox="0 0 487.68002 238.2093"
   sodipodi:docname="ehub.svg"
   inkscape:version="1.2.2 (732a01da63, 2022-12-09)"
   xmlns:inkscape="http://www.inkscape.org/namespaces/inkscape"
   xmlns:sodipodi="http://sodipodi.sourceforge.net/DTD/sodipodi-0.dtd"
   xmlns="http://www.w3.org/2000/svg"
   xmlns:svg="http://www.w3.org/2000/svg">
  <defs
     id="defs6" />
  <sodipodi:namedview
     id="namedview4"
     pagecolor="#000000"
     bordercolor="#000000"
     borderopacity="0.25"
     inkscape:showpageshadow="2"
     inkscape:pageopacity="0"
     inkscape:pagecheckerboard="0"
     inkscape:deskcolor="#d1d1d1"
     showgrid="false"
     inkscape:zoom="0.98993291"
     inkscape:cx="225.26779"
     inkscape:cy="128.79661"
     inkscape:window-width="1128"
     inkscape:window-height="682"
     inkscape:window-x="-6"
     inkscape:window-y="-6"
     inkscape:window-maximized="1"
     inkscape:current-layer="g8" />
  <g
     inkscape:groupmode="layer"
     inkscape:label="Image"
     id="g8"
     transform="translate(4.0406768,8.9517978)">
    <path
       style="fill:#fefefe;stroke-width:0.32"
       d="m 259.76204,228.87721 c -3.37241,-0.86067 -5.41876,-2.58533 -6.91313,-5.82636 -0.69765,-1.51309 -0.73421,-1.99221 -0.83495,-10.94238 l -0.10535,-9.36 h 3.19466 3.19466 l 0.11761,8.56 c 0.1005,7.31472 0.19714,8.70718 0.6643,9.57174 0.90205,1.66942 2.02776,2.34889 3.88263,2.34354 2.00903,-0.006 2.99795,-0.47861 3.94724,-1.88726 0.7153,-1.06144 0.7296,-1.25425 0.7296,-9.83534 v -8.75268 h 3.38536 3.38535 l -0.10535,9.36782 -0.10536,9.36783 -1.05116,2.13413 c -1.19683,2.42986 -2.73042,3.82368 -5.27819,4.79715 -2.08865,0.79805 -5.93252,1.01699 -8.10792,0.46181 z m 50.47592,0.0884 c -2.84863,-0.50275 -6.75865,-2.57665 -6.75865,-3.58484 0,-0.2063 0.88547,-1.26851 1.96771,-2.36045 l 1.9677,-1.98535 1.15856,0.93104 c 3.3752,2.71238 7.70603,2.25027 7.70603,-0.82226 0,-1.34045 -0.89573,-2.0033 -4.16,-3.07842 -5.65214,-1.86158 -7.36,-3.68153 -7.36,-7.8431 0,-4.90674 2.99503,-7.57516 9.0009,-8.01935 2.95267,-0.21837 6.10835,0.60987 8.25872,2.16758 l 1.38115,1.00052 -2.18598,2.20288 c -2.15952,2.17618 -2.19392,2.19565 -2.84039,1.60617 -2.79188,-2.5458 -7.2144,-1.97486 -7.2144,0.93137 0,0.93398 1.39476,1.7959 4.67393,2.88835 3.56291,1.18699 5.43971,2.48474 6.46921,4.4733 1.04387,2.01635 0.86611,5.34432 -0.40096,7.5064 -0.93619,1.59751 -3.03034,3.15231 -4.97114,3.69083 -1.77823,0.49342 -4.81155,0.62728 -6.69239,0.29533 z m 128.96349,-0.002 c -2.2007,-0.43249 -4.07164,-1.496 -5.57667,-3.16992 -2.30572,-2.56455 -2.46547,-3.46913 -2.46547,-13.96199 v -9.08333 h 3.2 3.2 l 0.007,8.4 c 0.006,7.5594 0.0678,8.53397 0.61485,9.73878 0.73248,1.61338 1.98624,2.34122 4.03283,2.34122 1.76022,0 3.03232,-0.67308 3.86192,-2.04337 0.54474,-0.89978 0.61296,-1.84398 0.70218,-9.71663 l 0.0988,-8.72 h 3.19847 3.19849 l -0.0973,9.68 -0.0973,9.68 -0.85946,1.62881 c -2.25027,4.26466 -7.3974,6.33103 -13.0184,5.22635 z M 0.11932315,215.70847 v -12.96 H 8.9193232 17.719324 v 2.72 2.72 H 12.119323 6.5193232 v 2.24 2.24 h 5.2799998 5.28 v 2.72 2.72 h -5.28 -5.2799998 v 2.4 2.4 h 5.9199998 5.920001 v 2.88 2.88 H 9.2393232 0.11932315 Z m 23.68000085,-0.0101 v -12.97016 l 3.72724,0.0902 3.72724,0.0901 4.83276,7.88069 4.83276,7.88069 0.0855,-7.96069 0.0855,-7.96069 h 3.0345 3.03451 v 12.97048 12.97048 l -3.59386,-0.0905 -3.59385,-0.0905 -3.94294,-6.4 c -2.16862,-3.52 -4.44706,-7.192 -5.0632,-8.16 l -1.12025,-1.76 0.20972,8.24 0.20972,8.24 h -3.23267 l -3.23267,-1e-5 V 215.6983 Z m 35.2,2.73014 v -10.24 h -3.68 -3.68 v -2.72 -2.72 h 10.56 10.56 v 2.72 2.72 h -3.68 -3.68 v 10.24 10.24 h -3.2 -3.2 z m 17.92,-2.72 v -12.96 h 5.706626 c 6.60283,0 8.84514,0.35719 10.87799,1.73279 2.04368,1.38293 2.93538,3.19851 2.93538,5.97671 0,1.19286 -0.13436,2.52221 -0.29857,2.95412 -0.46922,1.23415 -2.30529,3.14731 -3.55931,3.70875 l -1.14337,0.5119 3.30062,5.37185 c 1.81535,2.95452 3.30063,5.43756 3.30063,5.51787 0,0.0803 -1.70209,0.14601 -3.78242,0.14601 h -3.78242 l -2.80544,-5.12 c -2.62982,-4.79948 -2.8638,-5.12 -3.73759,-5.12 h -0.93213 v 5.12 5.12 h -3.039996 -3.04 z m 12.058386,-2.91338 c 1.317,-0.97956 1.43694,-2.98493 0.23508,-3.93032 -0.71954,-0.56598 -1.29643,-0.6763 -3.53663,-0.6763 h -2.67684 v 2.75389 2.75388 l 2.53839,-0.11528 c 1.95277,-0.0887 2.74641,-0.26999 3.44,-0.78587 z m 13.22161,2.91334 v -12.96 h 8.8 8.8 v 2.72 2.72 h -5.6 -5.6 v 2.24 2.24 h 5.28 5.28 v 2.72 2.72 h -5.28 -5.28 v 2.4 2.4 h 5.92 5.92 v 2.88 2.88 h -9.12 -9.12 z m 23.68,0 v -12.96 h 5.74425 c 3.15933,0 6.50733,0.16174 7.44,0.35943 4.48398,0.95041 6.33575,3.18353 6.33575,7.64057 0,2.43191 -0.53999,4.1479 -1.69528,5.38731 -1.6572,1.77787 -5.42739,2.91006 -9.74472,2.92635 l -1.68,0.006 v 4.8 4.8 h -3.2 -3.2 z m 12.29556,-3.01704 c 1.00356,-0.9428 1.09572,-2.49704 0.21273,-3.58748 -0.54068,-0.66772 -0.93076,-0.76852 -3.36,-0.86829 l -2.74829,-0.11286 v 2.78672 2.78672 l 2.53556,-0.11515 c 2.15077,-0.0977 2.66068,-0.23269 3.36,-0.88966 z m 12.34444,2.98954 v -12.9875 l 6.8,0.13805 c 7.82216,0.1588 8.65545,0.34887 10.84804,2.47441 3.59877,3.48871 2.69361,9.67976 -1.72155,11.77498 l -1.19351,0.56638 3.19351,5.20823 c 1.75643,2.86453 3.19351,5.34886 3.19351,5.52075 0,0.19059 -1.45089,0.27734 -3.71915,0.22236 l -3.71915,-0.0902 -2.76085,-5.03497 c -2.52356,-4.60222 -2.83649,-5.0354 -3.64085,-5.04 l -0.88,-0.005 v 5.12 5.12 h -3.2 -3.2 z m 11.83657,-2.613 c 1.95186,-0.97806 2.1409,-3.45965 0.33468,-4.39368 -0.5967,-0.30857 -1.82091,-0.48582 -3.35536,-0.48582 h -2.41589 v 2.72 2.72 l 2.16,-6.4e-4 c 1.41647,-3.2e-4 2.54435,-0.19309 3.27657,-0.56 z m 13.76343,2.6405 v -12.96 h 8.8 8.8 v 2.72 2.72 h -5.6 -5.6 v 2.24 2.24 h 5.28 5.28 v 2.72 2.72 h -5.28 -5.28 v 2.4 2.4 h 5.92 5.92 v 2.88 2.88 h -9.12 -9.12 z m 23.36,-0.0101 v -12.97016 l 3.74363,0.0902 3.74364,0.0901 4.89636,7.97271 4.89637,7.97269 v -8.05271 -8.0527 h 3.2 3.2 v 12.97016 12.97015 l -3.73196,-0.0902 -3.73196,-0.0902 -4.88972,-7.95501 c -2.68934,-4.37526 -4.96086,-8.02615 -5.0478,-8.11309 -0.087,-0.087 -0.0727,3.5288 0.0317,8.03501 l 0.1898,8.19309 h -3.25003 -3.25003 v -12.97016 z m 29.44,0.0101 v -12.96 h 8.8 8.79999 v 2.72 2.72 h -5.6 -5.59999 v 2.24 2.24 h 5.27999 5.28 v 2.72 2.72 h -5.28 -5.27999 v 2.4 2.4 h 5.91999 5.92 v 2.88 2.88 h -9.11999 -9.12 z m 50.87999,-0.0275 v -12.98749 l 6.8,0.11366 c 6.31382,0.10555 6.91993,0.16745 8.47733,0.86576 3.70346,1.66057 5.30517,5.14429 4.20946,9.15557 -0.48828,1.78756 -1.67823,3.24174 -3.34644,4.08956 l -1.42175,0.72255 3.2007,5.26674 c 1.76039,2.89669 3.2007,5.38254 3.2007,5.52409 0,0.14155 -1.69095,0.21679 -3.75768,0.16721 l -3.75768,-0.0902 -2.72232,-5.03446 c -2.49299,-4.61036 -2.79645,-5.03493 -3.60232,-5.04 l -0.88,-0.006 v 5.12 5.12 h -3.2 -3.2 v -12.9875 z m 11.68212,-2.55495 c 1.3748,-0.65238 1.98117,-2.02593 1.45508,-3.29604 -0.51952,-1.25422 -1.54638,-1.64152 -4.35225,-1.64152 h -2.38495 v 2.72 2.72 h 2.11164 c 1.25605,0 2.54066,-0.20358 3.17048,-0.50245 z m 36.63788,2.58244 v -12.96 h 3.2 3.2 v 4.8 4.8 h 4.8 4.8 v -4.8 -4.8 h 3.2 3.2 v 12.96 12.96 h -3.2 -3.2 v -5.44 -5.44 h -4.8 -4.8 v 5.44 5.44 h -3.2 -3.2 z m 28.16,0 v -12.96 h 3.36 3.36 v 12.96 12.96 h -3.36 -3.36 z m 12.16,-0.0275 v -12.98749 l 6.8,0.11033 c 6.27971,0.10189 6.92243,0.16646 8.4,0.84389 2.232,1.02331 3.60685,2.45798 4.16877,4.35013 1.0112,3.40509 0.29139,6.48954 -1.98134,8.49008 -1.80429,1.5882 -3.75175,2.21461 -7.70743,2.47914 l -2.96,0.19795 v 4.75174 4.75173 h -3.36 -3.36 z m 11.64698,-2.49807 c 1.24899,-0.52187 1.93677,-2.01472 1.48073,-3.21411 -0.50496,-1.32821 -1.5408,-1.78032 -4.07891,-1.78032 h -2.3288 v 2.72 2.72 h 1.93027 c 1.06167,0 2.41018,-0.20051 2.99671,-0.44557 z m 22.91302,2.52556 v -12.96 h 3.36 3.36 v 4.8 4.8 h 4.8 4.8 v -4.8 -4.8 h 3.2 3.2 v 12.96 12.96 h -3.2 -3.2 v -5.44 -5.44 h -4.8 -4.8 v 5.44 5.44 h -3.36 -3.36 z m 55.68,0.009 v -13.02307 l 6.96,0.10705 c 6.88912,0.10596 6.97875,0.11626 8.80042,1.0108 2.4128,1.1848 3.43958,2.81951 3.43958,5.47601 0,2.26329 -0.70845,3.85233 -2.12694,4.77067 -1.13981,0.73793 -1.36282,1.16957 -0.6042,1.16957 0.66752,0 2.66948,1.83435 3.28231,3.0075 0.31792,0.60863 0.51302,1.74008 0.50438,2.92537 -0.0246,3.37906 -1.63174,5.51736 -5.05555,6.72628 -1.27251,0.44932 -2.99184,0.59437 -8.4,0.70864 l -6.8,0.14369 z m 12.51267,6.78032 c 1.12304,-0.755 1.44589,-1.63433 1.10247,-3.00264 -0.28167,-1.12227 -1.92644,-1.70638 -4.80487,-1.70638 h -2.41027 v 2.72 2.72 h 2.51267 c 2.08627,0 2.69719,-0.12405 3.6,-0.73099 z m -1.01174,-10.0695 c 1.39862,-0.71078 1.89053,-2.01754 1.17219,-3.11388 -0.60029,-0.91614 -2.27117,-1.44138 -4.59312,-1.44384 l -1.68,-0.002 v 2.56 2.56 l 2,-6.4e-4 c 1.27011,-3.2e-4 2.40179,-0.20469 3.10093,-0.56 z m -197.90093,-43.9118 c -2.96842,-0.33658 -4.70817,-0.83138 -7.01176,-1.99424 -5.37213,-2.71184 -8.41164,-6.57341 -9.12194,-11.58901 -0.89107,-6.29211 2.2696,-11.29459 7.8937,-12.49361 1.20026,-0.25588 1.17884,-0.17037 0.55654,-2.22172 -0.26209,-0.86398 -0.47642,-2.44797 -0.47628,-3.52 6.4e-4,-5.23465 5.10317,-10.32106 10.71101,-10.67724 2.97505,-0.18896 4.71471,0.32077 6.40163,1.87571 1.83362,1.69017 2.32362,3.47501 1.61923,5.89804 -0.52502,1.80599 -2.05721,3.47337 -3.0148,3.2808 -0.54551,-0.1097 -0.56008,-0.39054 -0.17436,-3.36125 0.16887,-1.30061 0.0974,-1.85811 -0.32014,-2.49528 -0.89204,-1.36142 -2.38083,-2.0682 -4.34283,-2.0617 -5.74719,0.019 -10.56959,6.66073 -8.39903,11.56763 0.6344,1.43416 0.65576,1.44806 2.51943,1.63912 1.4885,0.15259 2.02942,0.36622 2.5996,1.0267 0.84712,0.98126 0.905,1.6718 0.22186,2.64712 -0.74388,1.06204 -1.96318,0.8859 -4.14186,-0.59833 -1.61996,-1.1036 -2.10579,-1.28349 -3.10892,-1.15117 -1.37413,0.18126 -2.60691,1.06085 -3.75935,2.68228 -0.69802,0.98208 -0.81173,1.48361 -0.81173,3.58024 0,3.21809 1.06162,5.44613 3.97665,8.34587 3.75185,3.73217 7.62238,5.25821 13.30335,5.24517 4.12605,-0.009 6.65922,-0.59222 9.85328,-2.26673 7.15726,-3.75224 9.14636,-10.62801 4.33269,-14.97688 -1.8874,-1.70515 -3.22663,-2.18264 -6.19174,-2.20763 -2.28468,-0.0193 -2.8032,0.0952 -4.73295,1.04481 -2.50401,1.23218 -3.73791,2.76859 -3.95746,4.92772 -0.16575,1.62999 0.71769,3.28738 2.01526,3.78071 1.19512,0.45438 1.72092,-0.10738 1.72092,-1.83866 0,-1.16132 0.18025,-1.60568 0.97282,-2.39825 0.81342,-0.81341 1.14114,-0.94052 2,-0.77573 2.23449,0.42875 3.13486,2.96281 1.88246,5.29805 -1.63559,3.04974 -6.82573,2.96858 -9.1997,-0.14385 -1.77692,-2.32966 -1.37815,-6.65544 0.87588,-9.50138 2.363,-2.98354 5.05976,-3.84079 13.70926,-4.35795 5.72131,-0.34208 8.09147,-0.91921 10.1157,-2.46317 3.09201,-2.35839 3.29076,-7.72655 0.36325,-9.81112 -1.19488,-0.85083 -3.68479,-1.12989 -4.51572,-0.50611 -0.57909,0.43472 -0.57681,0.48519 0.08,1.77264 1.21859,2.38863 0.70329,4.17522 -1.40494,4.871 -2.99777,0.98935 -5.37551,-2.14905 -3.85535,-5.08872 2.08719,-4.03618 8.77385,-4.83097 12.12851,-1.4416 1.69372,1.71124 2.25931,3.22866 2.25502,6.04999 -0.005,3.07469 -0.79845,5.00612 -2.93672,7.14559 -2.04999,2.05116 -3.57005,2.60022 -9.52991,3.4423 l -0.97944,0.13839 1.3688,1.46986 c 3.30279,3.54665 3.57081,9.40887 0.62933,13.7652 -2.52988,3.74676 -6.66848,6.63281 -11.14309,7.77064 -2.80125,0.71231 -7.89045,1.02563 -10.97616,0.67575 z M 12.494704,167.62846 c -0.07831,-0.132 -1.540562,-4.776 -3.2494398,-10.32 -6.04986,-19.62715 -8.194766,-26.32199 -8.83544105,-27.57782 -0.67813,-1.32924 -2.10095695,-2.18218 -3.64022195,-2.18218 -0.650963,0 -0.810278,-0.15729 -0.810278,-0.8 v -0.8 h 7.84 7.8399998 v 0.76367 c 0,0.66154 -0.195649,0.79301 -1.463067,0.98307 -2.0145248,0.30209 -2.8201158,1.16313 -2.6029638,2.78213 0.194109,1.44719 7.9834918,27.14365 8.2294338,27.14814 0.08987,0.002 2.469388,-7.08901 5.287808,-15.75701 l 5.12441,-15.76 h 1.10308 1.10307 l 5.74756,15.76 c 3.16115,8.668 5.82926,15.75876 5.92911,15.75723 0.20702,-0.003 6.93419,-23.53566 7.24285,-25.33637 0.41017,-2.39297 -1.22195,-4.73621 -3.30129,-4.73966 -0.55435,-9.6e-4 -0.72,-0.18525 -0.72,-0.8012 v -0.8 h 5.6 5.6 v 0.74935 c 0,0.59465 -0.25939,0.82706 -1.25642,1.12578 -1.65924,0.49712 -2.65213,1.74309 -3.7925,4.75917 -0.51691,1.36714 -3.08437,9.86492 -5.70546,18.88397 -4.74539,16.32864 -4.76923,16.39828 -5.61451,16.4 -1.00176,0.002 -0.2779,1.73533 -7.6484,-18.31388 -2.89449,-7.87359 -5.34465,-14.31759 -5.44481,-14.32 -0.10015,-0.003 -2.54815,7.3385 -5.44,16.31314 -5.217611,16.1925 -5.2645,16.31755 -6.119016,16.32001 -0.473613,10e-4 -0.92519,-0.10553 -1.003504,-0.23754 z m 42.02462,-0.36313 c 0,-0.49281 0.32975,-0.64432 1.80293,-0.82839 2.3696,-0.29606 3.18848,-1.09917 3.47236,-3.40554 0.11663,-0.94762 0.16541,-7.4431 0.10839,-14.43442 -0.10296,-12.62303 -0.1086,-12.7164 -0.81125,-13.41868 -0.52823,-0.52795 -1.19737,-0.74263 -2.64,-0.84698 -1.78275,-0.12895 -1.93243,-0.19877 -1.93243,-0.90132 v -0.76154 h 8.16 8.16 v 0.76272 c 0,0.71197 -0.13868,0.77156 -2.08399,0.89542 -3.45,0.21968 -3.19601,-1.05039 -3.19601,15.98157 v 14.73684 l 0.73839,0.59792 c 0.42844,0.34692 1.53666,0.68823 2.64,0.81306 1.56784,0.17738 1.90161,0.32021 1.90161,0.81381 0,0.56924 -0.40113,0.59867 -8.16,0.59867 -7.78039,0 -8.16,-0.0281 -8.16,-0.60314 z m 18.88,0 c 0,-0.49073 0.32644,-0.64391 1.7517,-0.82198 2.4523,-0.3064 3.1113,-0.93622 3.39936,-3.24886 0.30957,-2.48523 0.31063,-23.8053 0.001,-25.97888 -0.31813,-2.23545 -0.85165,-2.71298 -3.22266,-2.88449 -1.77991,-0.12875 -1.92968,-0.19869 -1.92968,-0.90112 v -0.76154 h 8.479996 8.48 v 0.76503 c 0,0.72776 -0.11662,0.77091 -2.39452,0.88594 -2.93781,0.14835 -3.40501,0.53293 -3.72095,3.06293 -0.29238,2.34141 -0.30986,24.41292 -0.0208,26.29264 0.15719,1.0222 0.46322,1.59055 1.11998,2.08 0.81758,0.60928 1.32075,0.67239 5.28,0.66218 2.69694,-0.007 4.83278,-0.16865 5.56587,-0.42137 1.87669,-0.64697 3.89553,-3.15041 4.95132,-6.13987 0.76272,-2.15961 1.00834,-2.54594 1.61912,-2.54664 0.69248,-9.6e-4 0.71999,0.10737 0.71999,2.83088 0,1.55745 -0.0931,3.93345 -0.20695,5.28 l -0.20694,2.44829 H 88.23209 c -14.317436,0 -14.833036,-0.021 -14.833036,-0.60314 z m 31.679996,0.004 c 0,-0.49047 0.33254,-0.63765 1.84,-0.81437 2.0839,-0.24431 2.78987,-0.65783 3.26742,-1.91387 0.47515,-1.24974 0.4509,-27.27817 -0.0267,-28.64819 -0.42335,-1.21444 -1.30791,-1.62492 -3.50156,-1.62492 -1.47112,0 -1.57917,-0.0547 -1.57917,-0.8 v -0.8 h 8.48 8.48 v 0.8 c 0,0.76374 -0.0863,0.8 -1.90495,0.8 -2.52488,0 -3.45366,0.4559 -3.85228,1.89092 -0.41497,1.49386 -0.43143,27.54163 -0.0181,28.62879 0.52684,1.38572 1.42263,1.62576 6.09531,1.63331 5.16749,0.008 6.7426,-0.44999 8.46613,-2.46354 0.93076,-1.08739 2.05496,-3.48032 2.86082,-6.08948 0.10804,-0.34979 0.49276,-0.56 1.02488,-0.56 0.80636,0 0.84131,0.0642 0.65357,1.2 -0.1091,0.66 -0.19994,3.036 -0.20187,5.28 l -0.004,4.08001 h -15.04 c -14.48054,0 -15.04,-0.0223 -15.04,-0.59867 z m 31.68,0.003 c 0,-0.48281 0.32893,-0.6346 1.73277,-0.79959 3.90639,-0.45929 3.70723,0.41127 3.70723,-16.20464 0,-11.46534 -0.0788,-13.94417 -0.46719,-14.69522 -0.52688,-1.01887 -1.25766,-1.2941 -3.45281,-1.30041 -1.40684,-0.004 -1.52,-0.0639 -1.52,-0.80437 v -0.8 h 8.16 8.16 v 0.8 c 0,0.75537 -0.0972,0.8 -1.74216,0.8 -1.38028,0 -1.92865,0.16042 -2.64,0.7723 l -0.89784,0.77229 v 14.40193 14.40192 l 0.74948,0.79778 c 0.56415,0.60052 1.21694,0.85204 2.64,1.0172 1.56773,0.18196 1.89052,0.32333 1.89052,0.828 0,0.58221 -0.35377,0.60859 -8.16,0.60859 -7.74558,0 -8.16,-0.0303 -8.16,-0.59595 z m 18.56,-0.16844 c 0,-0.61206 0.21133,-0.80403 1.06045,-0.96333 0.59517,-0.11165 1.51787,-0.67087 2.10297,-1.27455 1.10159,-1.13655 1.78489,-2.66033 9.8167,-21.89177 4.14531,-9.92557 4.50056,-10.6476 5.19564,-10.56 0.66218,0.0835 1.45756,1.78559 7.07192,15.13404 3.47921,8.272 6.64323,15.65692 7.03116,16.41094 0.65544,1.27397 1.44966,1.85643 3.32116,2.43565 0.308,0.0953 0.56,0.46584 0.56,0.82336 0,0.6337 -0.17708,0.65006 -7.04,0.65006 -6.73909,0 -7.04,-0.0264 -7.04,-0.61699 0,-0.50853 0.31215,-0.65597 1.77601,-0.83887 2.0045,-0.25045 2.83478,-0.85947 2.57621,-1.8897 -0.0957,-0.38144 -0.98649,-2.66474 -1.97945,-5.074 l -1.80538,-4.38063 h -6.48023 -6.48024 l -1.36499,3.44 c -2.07094,5.21912 -1.83892,7.00685 1.00888,7.77369 0.8953,0.24108 1.22919,0.50147 1.22919,0.95865 0,0.5982 -0.24792,0.62767 -5.28,0.62767 h -5.28 v -0.76439 z m 20.59397,-17.07579 c -0.79553,-1.892 -2.10922,-5.05595 -2.91932,-7.031 l -1.47289,-3.59101 -2.81747,6.79101 c -1.54961,3.73505 -2.819,6.899 -2.82088,7.031 -0.002,0.132 2.57967,0.24 5.73678,0.24 h 5.7402 z m 18.18377,17.13303 c 0.0771,-0.53296 0.4058,-0.76972 1.33555,-0.96191 1.57043,-0.32464 2.9445,-1.30246 3.64849,-2.59635 0.48682,-0.89472 0.56536,-2.35869 0.66385,-12.37477 0.16265,-16.54056 0.13679,-16.66254 -3.58288,-16.89938 -1.99166,-0.12683 -2.12275,-0.18274 -2.12275,-0.90545 v -0.77028 l 5.51452,0.0876 5.51453,0.0876 6.30049,14.2299 c 5.67949,12.82737 6.33473,14.15205 6.64803,13.44 0.19116,-0.43444 3.00517,-6.8379 6.25337,-14.2299 l 5.90581,-13.44 5.61162,-0.0874 5.61162,-0.0874 v 0.80738 c 0,0.77248 -0.0821,0.80738 -1.89916,0.80738 -2.51538,0 -3.38385,0.36927 -3.82156,1.62491 -0.49488,1.4196 -0.49994,27.31608 -0.006,28.7341 0.45193,1.2964 1.0875,1.62036 3.64811,1.85947 1.74117,0.16259 2.07823,0.29036 2.07823,0.78779 0,0.56366 -0.43779,0.59374 -8.64,0.59374 -8.24854,0 -8.64,-0.0273 -8.64,-0.60273 0,-0.50456 0.33298,-0.63838 2.04458,-0.82167 1.59795,-0.17113 2.20961,-0.39454 2.8,-1.02272 l 0.75541,-0.80377 0.0657,-13.49456 c 0.0435,-8.94684 -0.0395,-13.27887 -0.2464,-12.85456 -0.17165,0.352 -3.17021,7.12 -6.66349,15.04 -6.14174,13.92467 -6.38026,14.40001 -7.22595,14.40001 -0.84504,0 -1.09746,-0.50006 -7.4822,-14.82265 l -6.60726,-14.82233 -0.0838,12.20622 c -0.0738,10.74987 -0.0214,12.33779 0.43945,13.30894 0.64111,1.35104 1.89721,2.28348 3.53108,2.62124 0.92975,0.19219 1.25846,0.42895 1.33555,0.96191 l 0.10226,0.70698 h -6.44454 -6.44452 z m 123.78225,-0.0406 c 0,-0.63664 0.27296,-0.8244 1.84,-1.26566 1.96858,-0.55432 3.25197,-1.54134 4.15709,-3.19705 0.51578,-0.94355 0.56291,-2.35694 0.56291,-16.88372 0,-14.52723 -0.0466,-15.9251 -0.55696,-16.70412 -0.63814,-0.97404 -2.24086,-1.5175 -4.48304,-1.52013 -1.40752,-0.002 -1.52,-0.061 -1.52,-0.80179 v -0.8 h 6.51927 6.51929 l 6.41732,14.48 c 3.52953,7.964 6.89583,15.59406 7.48073,16.9557 0.58486,1.36163 1.13539,2.47321 1.22339,2.47017 0.088,-0.003 3.48775,-7.59711 7.55498,-16.8757 l 7.39497,-16.87017 6.60503,-0.0865 6.60502,-0.0865 v 0.76077 c 0,0.72411 -0.12553,0.76937 -2.6056,0.93935 -2.25155,0.15433 -2.71897,0.29194 -3.44,1.01278 l -0.8344,0.83418 -0.0854,16.87295 c -0.079,15.59618 -0.0426,16.9577 0.48,17.99295 0.67651,1.34016 1.98486,1.87583 4.64537,1.90194 1.74451,0.0171 1.84,0.0596 1.84,0.81806 v 0.80001 h -10.08 -10.08 v -0.80001 c 0,-0.73852 0.11683,-0.80139 1.52,-0.81806 2.0656,-0.0245 3.56791,-0.6038 4.37002,-1.685 0.65657,-0.88501 0.67161,-1.22731 0.752,-17.12 l 0.082,-16.21694 -3.6903,8.32 c -2.02966,4.576 -5.66659,12.81649 -8.08202,18.3122 -4.35379,9.90593 -4.4,9.99225 -5.35171,9.99628 l -0.96,0.004 -8,-17.97999 -8,-17.97998 -0.0832,14.65023 c -0.0783,13.77726 -0.0472,14.73176 0.52195,16.01843 0.76509,1.72959 2.33415,2.93452 4.46048,3.42533 1.41575,0.3268 1.6608,0.4933 1.6608,1.12841 v 0.74553 h -7.68 -7.68 v -0.74755 z m 58.61773,0.0544 c 0.0636,-0.43064 0.46579,-0.82445 1.06227,-1.04 2.67357,-0.96614 2.84192,-1.28526 10.7793,-20.43297 5.22425,-12.60268 5.58438,-13.36114 6.30566,-13.28 0.68877,0.0775 1.38128,1.55039 6.95488,14.7924 3.40448,8.08848 6.54579,15.43361 6.98067,16.32251 0.8081,1.65168 2.13172,2.73115 3.34887,2.73115 0.50198,0 0.67062,0.20116 0.67062,0.8 v 0.80001 h -6.88 c -6.62649,0 -6.88,-0.0232 -6.88,-0.62899 0,-0.51423 0.29575,-0.6682 1.62119,-0.84403 1.62499,-0.21557 2.53881,-0.77235 2.53881,-1.54692 0,-0.22781 -0.85091,-2.48553 -1.89094,-5.01714 l -1.89095,-4.60293 -6.50905,-0.0844 -6.50906,-0.0844 -0.89907,2.19783 c -0.49446,1.20881 -1.18074,3.10289 -1.52499,4.20907 -0.60288,1.93696 -0.60512,2.0539 -0.061,3.16658 0.43472,0.88894 0.87862,1.25459 1.92502,1.58572 0.97347,0.30806 1.36,0.60362 1.36,1.04 0,0.57499 -0.30137,0.60964 -5.30227,0.60964 -5.25578,0 -5.30134,-0.006 -5.2,-0.6931 z m 21.52461,-14.90691 c -0.27843,-0.66 -1.51552,-3.648 -2.74909,-6.64 -1.23357,-2.992 -2.34944,-5.55056 -2.47974,-5.68569 -0.17754,-0.18412 -3.77184,8.07885 -5.70068,13.10536 -0.12953,0.33758 0.98029,0.42033 5.63722,0.42033 h 5.79853 z m 17.45766,15.00134 c 0,-0.4936 0.33376,-0.63643 1.9016,-0.81381 2.71331,-0.30698 3.27994,-0.87384 3.58064,-3.58199 0.31581,-2.84406 0.31898,-22.33914 0.004,-25.17132 -0.30473,-2.74099 -0.73645,-3.19071 -3.23667,-3.37156 -1.7407,-0.12591 -1.9297,-0.20944 -1.9297,-0.85285 0,-0.67481 0.16829,-0.72442 3.12,-0.91989 5.54132,-0.36695 14.48013,-0.23268 16.76608,0.25183 3.65674,0.77506 6.4064,2.59595 7.71335,5.10796 0.95308,1.83181 0.95043,5.27379 -0.005,7.11132 -0.99956,1.92146 -3.29588,3.79956 -5.59504,4.57599 -1.07975,0.36464 -2.22,0.66298 -2.53389,0.66298 -0.40986,0 -0.17319,0.36646 0.83961,1.3 0.77568,0.715 3.05661,3.415 5.06874,6 2.01213,2.585 4.33485,5.32289 5.1616,6.0842 1.58298,1.45763 3.71373,2.59697 4.87885,2.60878 1.12243,0.0114 1.70617,0.35394 1.70617,1.00126 0,0.56899 -0.30931,0.60577 -5.0944,0.60577 h -5.0944 l -1.6536,-1.84001 c -0.90947,-1.012 -3.28048,-4.072 -5.26892,-6.8 -1.98842,-2.728 -4.25386,-5.644 -5.03434,-6.48 -1.31366,-1.4071 -1.53369,-1.52 -2.96253,-1.52 h -1.54345 l 0.16243,6.49995 c 0.10003,4.00312 0.30483,6.76604 0.53315,7.19266 0.52138,0.97423 1.31693,1.32385 3.54131,1.55634 1.5994,0.16717 1.93476,0.30526 1.93476,0.79664 0,0.56427 -0.43012,0.59442 -8.48,0.59442 -8.07152,0 -8.48,-0.0288 -8.48,-0.59867 z m 17.92,-18.28086 c 1.83782,-0.51702 3.13014,-1.49266 3.9048,-2.94792 1.04522,-1.96358 1.05696,-6.52027 0.0218,-8.46231 -1.36966,-2.56979 -3.79558,-3.63025 -8.30464,-3.63025 h -2.66192 v 7.88724 7.88723 l 2.96,-0.20946 c 1.628,-0.1152 3.464,-0.35123 4.08,-0.52453 z m 24.64,18.26955 c 0,-0.48939 0.31667,-0.65352 1.60195,-0.8303 3.02234,-0.41567 3.48023,-1.45473 3.5041,-7.95125 l 0.014,-3.79152 -5.36,-8.79774 c -6.24282,-10.24676 -6.98163,-11.21836 -8.74515,-11.50035 -1.05075,-0.16803 -1.25485,-0.32413 -1.25485,-0.95977 v -0.7591 h 7.2 7.2 v 0.75839 c 0,0.66143 -0.18406,0.77913 -1.43984,0.92067 -1.65702,0.18677 -2.40016,0.68438 -2.40016,1.60717 0,0.60221 8.19926,14.59947 9.10032,15.53547 0.33126,0.34414 1.11187,-0.77419 4.2439,-6.08 2.11088,-3.57593 3.98746,-6.9438 4.17018,-7.48415 0.63366,-1.8741 -0.81424,-3.65755 -2.96947,-3.65755 -0.62394,0 -0.78493,-0.16409 -0.78493,-0.8 v -0.8 h 5.76 5.76 v 0.8 c 0,0.44 -0.17053,0.8 -0.37898,0.8 -0.20841,0 -1.01558,0.30819 -1.79366,0.68485 -1.83638,0.88898 -3.11978,2.65173 -8.72314,11.9814 l -4.46422,7.43301 0.0234,3.63037 c 0.0453,7.03368 0.44349,7.99515 3.47814,8.39772 1.32288,0.17548 1.6185,0.32957 1.6185,0.84367 0,0.60785 -0.25821,0.62899 -7.68,0.62899 -7.34064,0 -7.68,-0.0269 -7.68,-0.60998 z M 224.23504,100.18847 c -0.36688,-0.956069 0.14693,-1.359129 2.01886,-1.583689 1.94659,-0.23352 7.11508,-1.84695 9.86417,-3.07927 l 1.59876,-0.71667 -1.32649,-0.56336 c -1.3157,-0.55878 -1.35083,-0.55571 -4.31876,0.37785 -6.29716,1.98075 -11.35828,1.94989 -13.38983,-0.0817 -0.80191,-0.80191 -0.96243,-1.21799 -0.96243,-2.49466 0,-2.55309 1.61046,-3.99809 4.85243,-4.35386 2.13727,-0.23454 5.32082,0.56186 9.60884,2.40374 l 3.10127,1.33213 1.34966,-0.58854 1.34966,-0.58855 -2.05093,-1.07703 c -3.96917,-2.08438 -8.18782,-4.6514 -13.80449,-8.39993 -3.12046,-2.08257 -5.78446,-3.7865 -5.92,-3.7865 -0.13555,10e-6 -0.9456,0.94464 -1.80013,2.09919 -3.0794,4.16056 -7.184,6.56829 -11.59176,6.79964 -2.95394,0.15504 -4.28173,-0.17549 -6.15436,-1.53201 -2.5623,-1.85612 -3.77754,-6.34333 -2.5279,-9.33414 1.07198,-2.5656 4.30655,-4.76119 7.94864,-5.39543 2.52969,-0.44052 5.72521,0.13607 8.84489,1.59594 1.13632,0.53174 2.18294,0.96681 2.32584,0.96681 0.7598,0 4.5058,-11.61528 5.43379,-16.84863 l 0.40583,-2.28864 -1.77353,-4.43136 c -1.93421,-4.83284 -5.71109,-13.193912 -6.41205,-14.194667 -0.43214,-0.61697 -0.46638,-0.61361 -2.11397,0.207418 -2.86524,1.427808 -4.00119,3.948444 -3.22935,7.165829 0.71347,2.97409 3.13212,4.92502 6.6506,5.36453 1.6737,0.20907 1.82702,0.29524 1.82702,1.02687 0,0.74891 -0.11591,0.80467 -1.86102,0.89525 -2.55558,0.13265 -5.07133,-0.65645 -6.65539,-2.08756 -1.96016,-1.77089 -2.61569,-3.30617 -2.77067,-6.489038 -0.12199,-2.505325 -0.0606,-2.856435 0.7777,-4.448697 0.96993,-1.842279 3.29748,-3.756922 4.97496,-4.09242 0.85346,-0.170691 1.09252,-0.434115 0.7263,-0.800329 -0.0925,-0.09246 -1.1357,0.100192 -2.31831,0.428118 -7.88349,2.186026 -15.86477,1.159258 -19.67092,-2.530608 -1.66471,-1.613852 -2.29114,-3.406979 -2.08545,-5.969481 0.57982,-7.223349 8.94048,-10.17545 16.56192,-5.84792 2.14084,1.21559 6.46818,5.313229 8.69584,8.234246 l 1.63968,2.150019 1.79267,-0.788515 c 3.14315,-1.382524 10.27269,-5.655188 10.27269,-6.156325 0,-0.132157 -0.29849,-0.373475 -0.66331,-0.536261 -0.51273,-0.228786 -1.23333,-0.01267 -3.17438,0.951993 -4.14305,2.059032 -8.5889,1.982945 -10.40731,-0.178108 -1.52948,-1.817692 -0.40059,-3.976519 2.4901,-4.761914 1.81031,-0.491859 5.62532,-0.191065 8.32364,0.656279 l 2.16875,0.681044 0.92065,-0.65556 c 1.19261,-0.849211 2.26186,-0.865144 2.26186,-0.03371 0,0.34202 -0.31532,0.842707 -0.7007,1.112639 -0.38538,0.269932 -0.63738,0.534845 -0.56,0.588695 0.0774,0.05385 0.39236,0.290513 0.69994,0.525916 0.4829,0.369577 0.70933,0.31353 1.65865,-0.410549 0.60467,-0.461206 1.32953,-0.838556 1.6108,-0.838556 0.91134,0 0.93637,0.954443 0.0493,1.880335 l -0.84514,0.882129 2.07538,1.683847 c 2.52947,2.052271 6.07141,5.800728 8.40694,8.897119 l 1.73742,2.303433 2.48903,-3.103433 c 2.40466,-2.998221 6.7278,-7.390573 8.92276,-9.065591 l 1.0644,-0.812264 -0.8244,-0.540164 c -0.91393,-0.598834 -1.09708,-1.72086 -0.32899,-2.015602 0.27524,-0.10562 1.00433,0.172003 1.64057,0.624696 0.96438,0.686165 1.26732,0.759144 1.9189,0.462265 l 0.77374,-0.352536 -0.81431,-0.755067 c -0.44787,-0.415287 -0.81431,-0.897759 -0.81431,-1.07216 0,-0.691139 1.12351,-0.697145 2.31334,-0.01237 l 1.24307,0.715423 2.1418,-0.740032 c 1.6929,-0.584928 2.81248,-0.738241 5.34179,-0.731487 4.32697,0.01156 5.92,0.870352 5.92,3.191455 0,2.063652 -2.02687,3.341163 -5.31976,3.352972 -2.13127,0.0076 -3.79269,-0.474351 -6.52744,-1.893674 -1.52719,-0.792605 -1.84664,-0.85909 -2.35204,-0.489525 -0.32167,0.235204 -0.49339,0.575618 -0.38162,0.756474 0.35119,0.568233 5.97601,3.923087 8.95669,5.342111 l 2.85584,1.359584 1.60472,-2.133971 c 6.03377,-8.023771 12.94475,-11.607811 18.94553,-9.825175 4.16711,1.237909 6.33871,3.980001 6.36398,8.035812 0.0123,1.974704 -0.10999,2.466285 -0.95522,3.84 -1.20206,1.953644 -3.35395,3.436435 -6.35171,4.376739 -3.15989,0.991155 -8.99155,0.965286 -13.23303,-0.05871 -3.35671,-0.810384 -3.39516,-0.814964 -3.52683,-0.419959 -0.0533,0.159879 0.50477,0.470947 1.24014,0.691271 1.92175,0.575769 4.50997,3.253446 5.06357,5.238598 0.50235,1.801353 0.29484,4.932489 -0.44374,6.695539 -1.27955,3.0544 -4.06425,4.73021 -8.28444,4.98552 l -2.50537,0.15156 0.10537,-0.92025 c 0.0961,-0.83953 0.2449,-0.94006 1.69631,-1.1462 3.44072,-0.48868 5.38818,-1.76518 6.40438,-4.19789 0.71465,-1.710791 0.69437,-4.443438 -0.0423,-5.700798 -0.78482,-1.339532 -2.59888,-2.777203 -3.80992,-3.019411 l -0.97431,-0.194861 -2.26988,4.74712 c -1.24845,2.61091 -3.14354,6.92133 -4.21133,9.57869 l -1.94143,4.83158 0.78767,3.48842 c 1.14411,5.06708 2.25906,8.8101 3.72681,12.51138 1.27288,3.20988 1.30552,3.25535 2.00686,2.79581 0.39212,-0.25692 1.92334,-0.91414 3.40272,-1.46048 4.98028,-1.83924 9.59613,-1.22582 12.94277,1.72 1.87844,1.65347 2.69173,3.3669 2.69686,5.68172 0.005,2.24495 -1.04548,4.55983 -2.7778,6.12138 -1.76926,1.59484 -3.1387,1.98049 -6.44996,1.81639 -2.30517,-0.11424 -3.13124,-0.31404 -4.99363,-1.20782 -2.23496,-1.07257 -5.19173,-3.69204 -7.40011,-6.55594 l -0.97622,-1.26598 -6.85606,4.50158 c -5.92035,3.88721 -10.76768,6.79669 -14.16652,8.50309 l -0.91044,0.45709 1.43929,0.54967 1.4393,0.54968 3.05874,-1.30684 c 5.8335,-2.49234 9.29141,-2.9997 12.19005,-1.78857 2.18958,0.91487 3.12478,3.99573 1.74526,5.74951 -1.99963,2.54211 -6.95403,2.7103 -13.96289,0.474 l -2.95114,-0.94162 -1.20886,0.62487 -1.20886,0.62487 1.6,0.69681 c 2.84565,1.23928 7.9522,2.82463 9.81891,3.04833 1.85078,0.22179 2.34411,0.63235 1.96063,1.631679 -0.46647,1.21559 -6.50219,-0.15793 -13.04964,-2.969649 l -2.87011,-1.23253 -4.18609,1.67677 c -6.60098,2.644079 -11.42893,3.653409 -11.87797,2.483229 z m 5.67808,-6.910449 2.6862,-0.72678 -2.24,-1.04076 c -1.232,-0.57242 -3.20143,-1.3527 -4.37651,-1.73396 -1.82297,-0.59147 -2.30416,-0.63786 -3.279,-0.31613 -2.23665,0.73816 -2.73779,2.6183 -1.0716,4.02031 0.96818,0.81466 1.1758,0.85831 3.31381,0.69661 1.2545,-0.0949 3.4897,-0.49955 4.9671,-0.89929 z m 29.11081,0.0551 c 0.51446,-0.51446 0.93538,-1.21483 0.93538,-1.55636 0,-0.86631 -1.41652,-2.19156 -2.59425,-2.4271 -1.05903,-0.21181 -4.07179,0.67967 -7.48575,2.21504 l -1.92,0.86349 1.24833,0.44014 c 2.00999,0.70869 5.33818,1.34595 7.17629,1.37409 1.47554,0.0226 1.83032,-0.0996 2.64,-0.9093 z m -17.36067,-0.29863 1.06395,-0.56719 -1.23246,-0.55576 c -1.18156,-0.53281 -1.28865,-0.5306 -2.59343,0.0536 l -1.36098,0.60933 1.20949,0.49593 c 1.5579,0.6388 1.64997,0.63767 2.91343,-0.0359 z m 1.94729,-5.53278 c 4.30852,-2.31209 8.17697,-4.77546 14.24822,-9.07304 l 5.24408,-3.71206 -1.29459,-2.76257 c -0.71201,-1.51941 -1.82988,-4.35623 -2.48413,-6.30405 l -1.18956,-3.54148 -0.89232,2.88 c -0.49078,1.584 -1.42631,4.7452 -2.07896,7.02489 -1.67205,5.84044 -2.75621,6.24363 -3.48253,1.29511 -0.64727,-4.4099 -3.47519,-14.78627 -3.90532,-14.32963 -0.81924,0.86973 -4.31445,14.61769 -5.55493,21.84963 -1.07354,6.25867 -1.15728,6.53745 -2.00015,6.65866 -0.82678,0.11888 -0.82759,0.11644 -1.69533,-5.05866 -0.94453,-5.63304 -2.67649,-13.26986 -4.14692,-18.28517 -1.91261,-6.52349 -1.65006,-6.3632 -3.00197,-1.8327 -1.10621,3.70716 -2.33918,8.92207 -2.97853,12.59787 -0.24405,1.4031 -0.37369,1.6 -1.0535,1.6 -0.72707,0 -0.87035,-0.32791 -2.30705,-5.28 -0.84252,-2.904 -1.80575,-6.13206 -2.14052,-7.17347 l -0.60868,-1.89347 -1.18177,3.54658 c -0.64997,1.95061 -1.74989,4.72139 -2.44427,6.15727 -0.69438,1.43588 -1.2625,2.71294 -1.2625,2.8379 0,0.12496 0.396,0.46177 0.88,0.74846 0.484,0.28669 3.02057,2.04609 5.63683,3.90977 2.61626,1.86368 5.97048,4.12158 7.45382,5.01756 3.17275,1.91643 8.46397,4.75447 8.88058,4.76326 0.16017,0.003 1.67217,-0.73492 3.36,-1.64066 z m -38.57548,-5.08542 c 1.75004,-0.87401 4.71681,-3.88983 6.20358,-6.30614 l 0.99764,-1.62138 -1.65848,-0.7142 c -6.53365,-2.81364 -10.63719,-2.58261 -13.03984,0.73415 -1.59151,2.19702 -1.56456,4.71091 0.0728,6.79251 1.77271,2.25365 4.36492,2.64298 7.42427,1.11506 z m 76.04359,0.49252 c 2.08073,-1.07599 3.45465,-4.10866 2.8607,-6.31445 -0.40736,-1.51281 -1.93777,-3.28888 -3.537,-4.10474 -2.37926,-1.21381 -6.69954,-0.64607 -10.7507,1.4128 l -1.39637,0.70965 1.30942,2.02593 c 3.40098,5.26197 8.30254,7.93149 11.51395,6.27081 z m -36.46902,-30.41706 0.6481,-1.04864 -1.39985,-3.14732 c -0.76992,-1.73102 -1.90811,-4.15137 -2.52932,-5.37855 l -1.12946,-2.231238 -1.11762,2.231238 c -0.61469,1.22718 -1.72428,3.61494 -2.46575,5.30615 l -1.34813,3.07491 1.41092,2.84509 c 0.776,1.56479 1.8902,3.9532 2.47599,5.30757 l 1.06506,2.46249 1.87099,-4.18653 c 1.02904,-2.30259 2.16262,-4.65841 2.51907,-5.23517 z m -16.13827,1.91886 1.38707,-3.07956 -1.1486,-2.29129 c -0.63173,-1.26021 -1.52582,-2.93929 -1.98686,-3.73129 l -0.83825,-1.44 -0.38181,2.56 c -0.90221,6.04911 -0.91451,5.62885 0.25123,8.58689 0.59158,1.50113 1.13287,2.67207 1.20287,2.60207 0.07,-0.07 0.75145,-1.51306 1.51435,-3.20682 z m 26.29523,0.38947 1.04729,-2.66608 -0.60852,-3.74732 c -0.33468,-2.06104 -0.68483,-3.82365 -0.77811,-3.91693 -0.17373,-0.17373 -1.85054,2.70208 -3.13374,5.37454 l -0.71824,1.49581 1.38968,3.06419 c 0.76432,1.6853 1.47173,3.06366 1.57202,3.06303 0.10028,-6.4e-4 0.65361,-1.2009 1.22962,-2.66724 z m -17.43569,-16.978011 0.65807,-0.926407 -0.70473,-1.313593 c -1.46898,-2.738147 -5.11777,-7.501376 -8.07719,-10.544198 l -3.07226,-3.158834 -2.89007,1.966018 c -1.58953,1.081309 -4.48461,2.79519 -6.43349,3.808624 l -3.54343,1.842605 0.60569,0.923331 c 0.41257,0.628921 1.2227,1.146742 2.54074,1.62399 5.02844,1.820758 10.34265,6.393782 14.51789,12.493075 l 1.33615,1.95187 2.20228,-3.87004 c 1.21125,-2.128518 2.49841,-4.286921 2.86035,-4.796441 z m 11.9175,7.086401 c 3.95833,-6.020673 9.70721,-11.045639 14.58419,-12.747723 1.55048,-0.54112 2.27421,-0.993603 2.74989,-1.71926 l 0.64559,-0.984855 -2.80752,-1.366803 c -1.54413,-0.751741 -4.42364,-2.434304 -6.39889,-3.73903 l -3.59138,-2.372226 -1.4174,1.161458 c -1.98017,1.622598 -5.89054,6.362848 -8.44063,10.231939 l -2.15094,3.263494 2.5294,4.245728 c 1.39117,2.335148 2.61093,4.502578 2.71057,4.816498 0.2748,0.86582 0.60791,0.70017 1.58712,-0.78922 z m -29.23657,-7.818737 c -1.12012,-0.918067 -3.36847,-2.189181 -3.21374,-1.816899 0.0667,0.1604 0.91322,1.872035 1.88122,3.803638 l 1.76,3.511998 0.21252,-2.399998 c 0.20612,-2.327731 0.18685,-2.42104 -0.64,-3.098739 z m 43.59076,-1.99816 c -0.0717,-0.0753 -0.95682,0.430397 -1.96685,1.123763 -2.03751,1.398701 -2.18637,1.771834 -1.83128,4.59023 l 0.22464,1.782904 1.85195,-3.679998 c 1.01858,-2.024 1.79327,-3.741606 1.72154,-3.816899 z m -58.86331,-5.289238 c 1.33995,-0.256375 2.57854,-0.554061 2.75242,-0.661523 0.48306,-0.298544 -2.7566,-4.826128 -5.28582,-7.387204 -4.63278,-4.69112 -8.96945,-5.491931 -12.19938,-2.25274 -1.54254,1.546961 -2.29239,3.996753 -1.70182,5.559966 0.74166,1.963139 3.34578,3.87864 6.38238,4.69465 2.28073,0.612886 6.97937,0.634787 10.05222,0.04685 z m 81.46441,-0.134515 c 1.84531,-0.570592 4.56368,-2.364228 5.34489,-3.526669 1.37516,-2.04625 0.62471,-5.505713 -1.55444,-7.165763 -2.45461,-1.869879 -5.59296,-1.821452 -8.6518,0.133503 -1.89878,1.213542 -5.45831,4.967402 -7.22304,7.61738 -1.44868,2.175401 -1.59429,2.570166 -0.96,2.602745 0.22,0.0113 1.264,0.223472 2.32,0.471492 2.19519,0.51558 8.89599,0.432672 10.72439,-0.132688 z m -67.68947,-9.832687 c 1.1449,-0.458338 2.01413,-0.942585 1.93161,-1.076105 -0.3109,-0.503036 -3.28519,-1.122306 -5.32731,-1.109183 -2.31985,0.01491 -3.79921,0.675734 -3.79921,1.697104 0,1.505196 3.97991,1.775238 7.19491,0.488184 z m 49.59245,0.518142 c 1.16327,-0.442273 1.39361,-1.259585 0.54796,-1.944346 -1.06194,-0.859912 -3.41919,-1.04827 -6.10652,-0.487947 -3.3477,0.698016 -3.36423,0.768817 -0.45848,1.96356 1.98488,0.816109 4.57307,1.017732 6.01704,0.468733 z M 229.6621,16.634754 c -0.10843,-0.282546 -0.0305,-1.235554 0.17313,-2.117796 0.3665,-1.587764 0.35922,-1.616303 -0.71597,-2.806405 -1.27782,-1.414398 -2.63124,-3.6567108 -2.92279,-4.8424008 -0.12714,-0.517078 -0.41252,-0.824812 -0.74189,-0.8 -0.36472,0.02747 -0.56888,-0.25407 -0.64077,-0.883668 -0.0912,-0.799142 -0.0156,-0.900475 0.56,-0.749958 0.36603,0.09572 0.66551,0.06031 0.66551,-0.07869 0,-0.138996 -0.288,-0.328033 -0.64,-0.420083 -0.36907,-0.09651 -0.64,-0.436485 -0.64,-0.803086 0,-0.653902 0.79181,-1.165908 1.30887,-0.846347 0.49979,0.308884 0.3178,-0.247789 -0.20629,-0.631012 -0.64041,-0.468275 -0.27848,-1.46683601 0.53165,-1.46683601 0.33317,0 0.60577,0.152499 0.60577,0.338886 0,0.186387 0.15099,0.245567 0.33553,0.131511 0.22975,-0.141989 0.21846,-0.348453 -0.0358,-0.65481 -0.20423,-0.24609 -0.28774,-0.66527 -0.18558,-0.931511 0.24674,-0.64298799 1.48585,-0.63063699 1.48585,0.01481 0,0.274387 0.144,0.409888 0.32,0.301114 0.176,-0.108774 0.32,-0.47727199 0.32,-0.81888499 0,-0.456571 0.22182,-0.621114 0.83732,-0.621114 0.67977,0 0.80583,0.120419 0.66996,0.64 -0.10375,0.396737 -0.01,0.63999999 0.24712,0.63999999 0.22797,0 0.39448,-0.25199999 0.37004,-0.55999999 -0.075,-0.945459 1.47878,-0.73227 1.74923,0.24 0.14037,0.50462299 0.23431,0.59323599 0.25443,0.23999999 0.0218,-0.38252599 0.29725,-0.55999999 0.8692,-0.55999999 0.72057,0 0.81598,0.111531 0.68438,0.79999999 -0.17765,0.929307 0.008,1.018624 0.55676,0.268006 0.56562,-0.77351999 1.555,-0.311165 1.37288,0.641563 -0.10696,0.559517 0.0817,0.86984301 0.7682,1.26386501 0.87345,0.501287 0.89694,0.497893 0.58523,-0.08455 -0.61483,-1.14883001 -0.38934,-1.28888201 2.07524,-1.28888201 1.32,0 2.4,0.111959 2.4,0.248798 0,0.136839 -0.22581,0.57118701 -0.5018,0.96521901 l -0.5018,0.71642 1.09075,-0.520142 c 0.88239,-0.420782 1.06296,-0.66553001 0.94526,-1.28123901 -0.19564,-1.023428 0.80294,-1.43539099 1.42319,-0.587138 0.41869,0.572594 0.43814,0.562258 0.35373,-0.188006 -0.0731,-0.64963699 0.0657,-0.81183799 0.76362,-0.89255699 0.60646,-0.07014 0.89627,0.06857 1.00288,0.47999999 0.0981,0.378548 0.16277,0.274338 0.18705,-0.30135499 0.0302,-0.715435 0.18673,-0.88 0.83712,-0.88 0.58667,0 0.8,0.170667 0.8,0.64 0,0.352 0.144,0.63999999 0.32,0.63999999 0.176,0 0.32,-0.27259399 0.32,-0.60576399 0,-0.333169 0.18,-0.671957 0.4,-0.752861 0.72576,-0.266893 1.19986,0.119249 1.20974,0.985291 0.008,0.73412699 0.0553,0.77510399 0.3359,0.29333399 0.68249,-1.17176199 2.1489,-0.42403399 1.53038,0.780345 -0.23032,0.448487 -0.12782,0.530087 0.60292,0.48 0.69188,-0.04742 0.90238,0.09384 0.983,0.65965501 0.0704,0.493921 -0.0611,0.72 -0.41857,0.72 -0.28662,0 -0.43603,0.137711 -0.332,0.306024 0.10402,0.168313 0.37745,0.23376 0.60761,0.145437 0.56999,-0.218723 1.21835,0.626806 0.97231,1.267979 -0.10987,0.286308 -0.43635,0.529687 -0.72552,0.540843 -0.36209,0.01397 -0.30161,0.110381 0.19423,0.309688 0.7174,0.288356 1.02739,1.551605 0.4,1.630028 -0.176,0.022 -0.48963,0.058 -0.69697,0.08 -0.20734,0.022 -0.47351,0.400933 -0.59149,0.842072 -0.33973,1.270325 -1.12832,2.639274 -2.57365,4.4677628 l -1.34054,1.695905 0.3832,1.712303 c 0.21075,0.941766 0.29285,1.858475 0.18244,2.03713 -0.12916,0.208979 -3.90671,0.324827 -10.59191,0.324827 -9.24453,0 -10.41291,-0.05669 -10.58829,-0.51372 z m 18.68319,-1.759761 c -0.3771,-0.219432 -0.50693,-0.545427 -0.37844,-0.950269 0.16712,-0.526542 0.0359,-0.61625 -0.9016,-0.61625 -0.99778,0 -1.08333,0.07248 -0.94426,0.8 0.13161,0.688469 0.0362,0.8 -0.68437,0.8 -0.67979,0 -0.83731,-0.150495 -0.83731,-0.8 0,-0.675555 -0.14933,-0.8 -0.96,-0.8 -0.81066,0 -0.96,0.124445 -0.96,0.8 0,0.649505 -0.15751,0.8 -0.8373,0.8 -0.72057,0 -0.81598,-0.111531 -0.68438,-0.8 0.13728,-0.718135 0.0485,-0.8 -0.8681,-0.8 -0.85304,0 -1.01685,0.118461 -0.99562,0.72 0.0198,0.561442 -0.15077,0.72 -0.77459,0.72 -0.62383,0 -0.79441,-0.158558 -0.7746,-0.72 0.0212,-0.600073 -0.14296,-0.72 -0.9854,-0.72 -0.84245,0 -1.00659,0.119927 -0.98541,0.72 0.0198,0.561442 -0.15077,0.72 -0.77459,0.72 -0.63889,0 -0.78465,-0.145006 -0.72378,-0.72 0.0657,-0.620235 -0.0743,-0.72 -1.01004,-0.72 -0.94635,0 -1.06361,0.08665 -0.91034,0.672755 0.10307,0.394149 -0.009,0.789681 -0.26996,0.955099 -0.26388,0.1671 3.08073,0.280374 8.19411,0.277515 6.15712,-0.0034 8.47504,-0.100818 8.06598,-0.33885 z m -18.04858,-4.526519 c -0.72372,-0.7479998 -1.61716,-1.8639998 -1.98543,-2.4799998 -0.36826,-0.616 -0.67011,-0.960094 -0.67077,-0.764655 -0.003,0.833892 2.98234,4.6046548 3.6453,4.6046548 0.17972,0 -0.26538,-0.612 -0.9891,-1.36 z m 20.48133,0 c 1.0797,-1.3329908 2.14422,-3.1571388 2.13827,-3.6641078 -0.002,-0.140741 -0.4224,0.475317 -0.93501,1.369016 -0.5126,0.893699 -1.45226,2.0816988 -2.08813,2.6399998 -0.66134,0.580665 -0.9551,1.015092 -0.68642,1.015092 0.25835,0 0.96543,-0.612 1.57129,-1.36 z m -12.65402,-0.09847 1.1953,-1.1384668 -1.00108,0.195343 c -0.87414,0.170574 -1.02636,0.09458 -1.20052,-0.599326 -0.1097,-0.437068 -0.064,-1.150839 0.10147,-1.586158 0.24501,-0.644426 0.14106,-1.004017 -0.55947,-1.935308 -2.20418,-2.930236 -5.91081,-4.30425901 -7.37415,-2.733547 -1.32415,1.421303 -0.63737,4.462713 1.45666,6.450862 l 0.92153,0.874933 -0.0122,-0.874933 c -0.008,-0.607457 0.20789,-0.971501 0.70778,-1.190814 0.52677,-0.231104 0.72,-0.585589 0.72,-1.320818 0,-0.552715 0.23251,-1.197898 0.51668,-1.43374 0.44354,-0.368107 0.60557,-0.319022 1.14469,0.346769 0.36776,0.454154 0.56987,1.079782 0.4877,1.509621 -0.10413,0.544757 0.008,0.734049 0.43374,0.734049 0.70027,0 1.06981,1.028067 0.78189,2.175241 l -0.2131,0.8490498 -0.60868,-0.7921448 c -0.33478,-0.43568 -0.62388,-0.720146 -0.64247,-0.632146 -0.21432,1.0150948 -0.10665,1.6788868 0.31204,1.9237408 0.91705,0.536299 1.62021,0.332169 2.83222,-0.822207 z m 7.06685,0.774458 c 0.38431,-0.240005 0.53364,-0.621547 0.43835,-1.1199998 -0.17697,-0.925758 -0.59591,-0.97929 -0.87138,-0.111345 -0.30573,0.9632758 -0.79853,0.4365618 -0.79853,-0.853491 0,-0.861951 0.15228,-1.170894 0.64,-1.298436 0.42024,-0.109892 0.64,-0.436485 0.64,-0.951079 0,-1.032289 0.54811,-2.021641 1.12,-2.021641 0.5719,0 1.12,0.989352 1.12,2.021641 0,0.514594 0.21977,0.841187 0.64,0.951079 0.4753,0.124293 0.64,0.436485 0.64,1.213102 v 1.045739 l 0.80696,-0.758089 c 0.44382,-0.41695 1.1815,-1.523649 1.63928,-2.459332 0.9061,-1.851989 0.8741,-3.237182 -0.0996,-4.313142 -0.77097,-0.851907 -2.79642,-0.753269 -4.45171,0.216795 -1.59117,0.932488 -4.10241,3.725631 -3.6185,4.024703 0.18034,0.111456 0.28193,0.76399 0.22575,1.450076 -0.0934,1.140271 -0.17774,1.242253 -0.98215,1.187184 -1.11878,-0.07659 -1.10467,0.0736 0.11385,1.2118568 1.06022,0.990394 1.85789,1.151307 2.79771,0.564379 z m -11.94418,-0.936059 c 0.0597,-0.8103268 -0.42625,-1.1515608 -0.68387,-0.4802148 -0.22445,0.5849098 0.11278,1.6506588 0.42388,1.3395638 0.11678,-0.116776 0.23377,-0.503483 0.25999,-0.859349 z m 14.87262,0.366239 c 0,-0.5536968 -0.38842,-1.3061718 -0.67423,-1.3061718 -0.15717,0 -0.28577,0.36 -0.28577,0.8 0,0.4977778 0.18134,0.7999998 0.48,0.7999998 0.264,0 0.48,-0.132223 0.48,-0.293828 z m -7.25325,-2.7695678 c -0.0964,-0.251132 -0.38033,-0.456604 -0.63102,-0.456604 -0.6344,0 -0.94294,0.966521 -0.41309,1.293991 0.5573,0.344429 1.27632,-0.232239 1.04411,-0.837387 z m 12.27185,-2.116604 c -0.10215,-0.255274 -0.17798,-0.179448 -0.19333,0.193334 -0.0139,0.337333 0.0617,0.526333 0.16807,0.42 0.10633,-0.106334 0.1177,-0.382334 0.0253,-0.613334 z m -12.8586,-0.708 c 0.66777,0 1.28814,0.197611 1.45666,0.464 0.19477,0.307863 0.29519,0.33174 0.29845,0.07096 0.003,-0.216174 0.7762,-1.164352 1.71891,-2.107061 l 1.71402,-1.714019 -2.37124,1.227062 c -1.30418,0.674884 -2.63952,1.227061 -2.96744,1.227061 -0.32791,0 -1.57123,-0.517265 -2.76294,-1.149479 l -2.16674,-1.149479 1.74016,1.897428 c 1.00156,1.092076 1.83288,1.756534 1.9586,1.565479 0.12015,-0.182572 0.74185,-0.331949 1.38156,-0.331949 z m -13.0614,-0.252 c -0.10215,-0.255274 -0.17798,-0.179448 -0.19333,0.193334 -0.0139,0.337333 0.0617,0.526333 0.16807,0.42 0.10633,-0.106334 0.1177,-0.382334 0.0252,-0.613334 z m 13.45474,-2.053333 c -0.10633,-0.106333 -0.38234,-0.117702 -0.61334,-0.02526 -0.25527,0.102152 -0.17944,0.177979 0.19334,0.193334 0.33733,0.01389 0.52633,-0.06174 0.42,-0.168071 z M 231.5654,0.29857119 c -0.21664,-0.08765 -0.64864,-0.09299 -0.96,-0.01186 -0.31135,0.08113 -0.13408,0.152852 0.39392,0.159373 0.528,0.0065 0.78273,-0.05986 0.56608,-0.147516 z m 18.56,0 c -0.21665,-0.08765 -0.64865,-0.09299 -0.96,-0.01186 -0.31135,0.08113 -0.13409,0.152852 0.39391,0.159373 0.528,0.0065 0.78274,-0.05986 0.56609,-0.147516 z m -12.24608,-1.0205 c 0,-0.71366899 0.96747,-1.64959599 1.70519,-1.64959599 0.39787,0 0.5348,0.286769 0.5348,1.12 0,1.06666599 -0.0533,1.11999899 -1.11999,1.11999899 -0.87531,0 -1.12,-0.128989 -1.12,-0.590403 z m 2.55999,-0.52959599 c 0,-1.301792 0.59863,-1.481379 1.6,-0.48 1.00138,1.00137799 0.8218,1.59999899 -0.48,1.59999899 -1.06666,0 -1.12,-0.05333 -1.12,-1.11999899 z m -1.48304,-2.424757 c 0.18948,-0.9473974 0.16212,-0.9771064 -0.72108,-0.7831234 -0.77707,0.170674 -0.94679,0.08701 -1.10539,-0.544892 -0.10305,-0.410588 -0.10013,-1.080095 0.006,-1.487794 0.16124,-0.616606 0.34598,-0.710845 1.09844,-0.560353 0.85056,0.170114 0.89378,0.126894 0.72367,-0.723674 -0.20402,-1.020117 0.42383,-1.36756 1.94561,-1.076654 0.74566,0.142541 0.82401,0.273153 0.64709,1.078664 -0.19432,0.884731 -0.16646,0.909519 0.80402,0.715423 l 1.00531,-0.201062 -0.10056,1.404111 c -0.0946,1.320567 -0.1542,1.400349 -1.00229,1.34089 -0.84062,-0.05894 -0.8877,7.04e-4 -0.69458,0.8800004 0.20645,0.939988 0.202,0.943221 -1.29827,0.943221 h -1.50492 z m 1.76781,-2.4177004 c -0.48172,-0.580438 -0.90054,-0.553009 -1.14144,0.07475 -0.25129,0.654866 0.53674,1.166015 1.08989,0.706942 0.31233,-0.259216 0.32506,-0.452138 0.0515,-0.781696 z"
       id="path239" />
  </g>
</svg>
