<?xml version="1.0" encoding="UTF-8" standalone="no"?>
<!-- Created with Inkscape (http://www.inkscape.org/) -->

<svg
   version="1.1"
   id="svg2082"
   width="552.55383"
   height="410.94455"
   viewBox="0 0 552.55384 410.94455"
   sodipodi:docname="gar.svg"
   xml:space="preserve"
   inkscape:version="1.2.2 (732a01da63, 2022-12-09)"
   xmlns:inkscape="http://www.inkscape.org/namespaces/inkscape"
   xmlns:sodipodi="http://sodipodi.sourceforge.net/DTD/sodipodi-0.dtd"
   xmlns="http://www.w3.org/2000/svg"
   xmlns:svg="http://www.w3.org/2000/svg"><defs
     id="defs2086" /><sodipodi:namedview
     id="namedview2084"
     pagecolor="#ffffff"
     bordercolor="#000000"
     borderopacity="0.25"
     inkscape:showpageshadow="2"
     inkscape:pageopacity="0.0"
     inkscape:pagecheckerboard="0"
     inkscape:deskcolor="#d1d1d1"
     showgrid="false"
     inkscape:zoom="0.3601459"
     inkscape:cx="447.04104"
     inkscape:cy="-23.601546"
     inkscape:window-width="1128"
     inkscape:window-height="682"
     inkscape:window-x="-6"
     inkscape:window-y="-6"
     inkscape:window-maximized="1"
     inkscape:current-layer="g2088" /><g
     inkscape:groupmode="layer"
     inkscape:label="Image"
     id="g2088"
     transform="translate(910.81903,-158.01289)"><path
       d="m -712.8892,511.40143 v -7.5 h -11 -11 v -30.5 -30.5 l -4.75,0.004 c -4.52965,0.004 -5.10953,0.34462 -12.5,7.34592 l -7.75,7.34189 v 23.38056 23.38057 l 7.22497,7.27351 7.22497,7.27352 h 16.27503 16.27503 v -7.5 z m 26,-13.5 v -21 h -17.5 -17.5 v 7.5 7.5 h 6 6 v 13.5 13.5 h 11.5 11.5 z m 39.44207,0.71639 c 3.60686,-11.15599 6.57022,-20.94349 6.58523,-21.75 0.0458,-2.46017 -10.41114,-29.98949 -11.09237,-29.20219 -0.35017,0.40469 -5.40432,13.5608 -11.23145,29.2358 -5.82713,15.675 -11.74037,31.5375 -13.14054,35.25 l -2.54575,6.75 h 12.43347 12.43348 z m 50.1737,12.03361 c -1.78698,-4.5375 -8.5889,-21.6375 -15.11539,-38 l -11.86634,-29.75 h -12.38441 c -12.31156,0 -12.38029,0.013 -11.68486,2.20408 0.38475,1.21224 3.59804,9.64974 7.14063,18.75 3.5426,9.10026 7.75824,20.06444 9.3681,24.36485 l 2.92702,7.81892 -6.74135,-0.24439 -6.74134,-0.2444 -2.7505,7.42547 c -1.51277,4.08401 -2.75428,7.53797 -2.75891,7.67547 -0.005,0.1375 5.56772,0.25 12.383,0.25 h 12.39142 l 1.60048,4 1.60049,4 h 12.9405 12.9405 z m 38.14626,-29.5 -0.26203,-37.75 -12.75,-0.27988 -12.75,-0.27987 v 38.02987 38.02988 h 13.01203 13.01202 z m 49.92541,37 c -0.23683,-0.4125 -3.45502,-6.31988 -7.15154,-13.12751 l -6.72094,-12.3775 5.59252,-5.65149 5.59252,-5.65149 -0.0117,-11.47101 -0.0117,-11.471 -7.62382,-7.75 -7.62381,-7.75 h -14.3645 -14.36449 v 8 8 h 9.5 9.5 v 11 c 0,6.05 -0.3375,11.01621 -0.75,11.03601 -0.4125,0.0198 -4.575,0.13231 -9.25,0.25 l -8.5,0.21399 v 7.5 7.5 l 4.34202,0.31199 c 4.34203,0.312 4.34203,0.312 9.5,11.21999 l 5.15798,10.908 13.80902,0.03 c 7.59496,0.0165 13.61525,-0.30749 13.37842,-0.71999 z m -37.68744,-23.11649 c 0,-1.01563 21.76806,-3.69878 22.67224,-2.79461 0.33702,0.33702 0.0435,1.29864 -0.65218,2.13693 -0.98461,1.18638 -3.56483,1.52417 -11.6425,1.52417 -5.70766,0 -10.37756,-0.38992 -10.37756,-0.86649 z m -140.00907,-32.88351 c -0.008,-3.17755 -1.02697,-4.93307 -6.67712,-11.5 l -6.66806,-7.75 h -15.32287 -15.32288 v 8 8 h 9 c 9.39801,0 9.42283,0.0131 9.03913,4.75 -0.18047,2.22788 -0.0537,2.25 12.8893,2.25 h 13.07157 l -0.009,-3.75 z m 32.00907,-81.75 v -20.49999 h 4.45431 4.45431 l 0.29569,-6.75 0.29569,-6.75 h 9 9 l 0.29569,6.75 0.29569,6.75 h 5.93402 5.93402 l 0.27029,20.74999 0.27029,20.75 6.8976,-6.5 c 7.87839,-7.42426 15.02119,-17.72411 19.18222,-27.66055 2.74982,-6.56653 2.87841,-7.59553 3.22268,-25.7881 0.35857,-18.94867 0.35857,-18.94867 3.32583,-23.08051 l 2.96726,-4.13184 -0.29779,-35.91949 c -0.29541,-35.63092 -0.31693,-35.95566 -2.67832,-40.4195 -4.05559,-7.66647 -16.5122,-18.9054 -32.71032,-29.51278 -8.20004,-5.36981 -16.14363,-10.90746 -17.65243,-12.3059 -2.74326,-2.5426 -2.74326,-2.5426 -5,-0.49185 -1.2412,1.12791 -9.00673,6.54358 -17.25673,12.03482 -18.60023,12.38039 -29.2503,22.08722 -33.44621,30.48398 l -3.05379,6.11117 v 35.03653 35.03653 l 2.75,3.96283 c 2.71782,3.91645 2.75606,4.19207 3.26767,23.55375 0.51768,19.59092 0.51768,19.59092 4.12574,27.2128 1.98444,4.19204 5.44006,10.31961 7.67915,13.61682 4.18522,6.16301 15.61844,18.26129 17.25744,18.26129 0.53008,0 0.92,-8.68841 0.92,-20.5 z m 0,-38.99999 c 0,-4.5 0,-4.5 4,-4.5 4,0 4,0 4,4.5 0,4.5 0,4.5 -4,4.5 -4,0 -4,0 -4,-4.5 z m 29,0 v -4.5 h 5.5 5.5 v 4.5 4.5 h -5.5 -5.5 z m -20,-11.46247 v -6.03753 h 9.5499 9.54991 l -0.29991,5.75 -0.2999,5.75 -9.25,0.28753 -9.25,0.28752 z m -9,-21.03753 c 0,-4.33333 -0.26667,-5 -2,-5 -1.11111,0 -2,-0.66667 -2,-1.5 0,-1.16667 1.33333,-1.5 6,-1.5 h 6 v 6.5 6.5 h -4 c -4,0 -4,0 -4,-5 z m 28,-1.5 v -6.5 h 6 6 v 6.5 6.5 h -6 -6 z m 23,-11 v -5.5 h -5.05479 -5.05479 l 0.30479,-4.64638 0.30479,-4.64638 11.40847,-2.86182 c 6.27466,-1.574 11.55207,-2.71821 11.72758,-2.5427 0.60651,0.60651 -8.84645,24.19968 -9.98937,24.93197 -2.81048,1.8007 -3.64668,0.71501 -3.64668,-4.73469 z m -71.35596,-7.65493 c -2.56714,-6.68521 -4.48561,-12.33684 -4.26327,-12.55918 0.22234,-0.22234 2.81513,0.27304 5.76174,1.10085 2.94662,0.8278 7.26999,1.99678 9.60749,2.59772 4.25,1.09263 4.25,1.09263 4.25,6.05408 v 4.96146 h -4.5 -4.5 v 5 c 0,2.75 -0.3799,5 -0.84422,5 -0.46432,0 -2.94461,-5.46972 -5.51174,-12.15493 z"
       style="fill:#000000"
       id="path2465" /></g></svg>
