<?xml version="1.0" encoding="UTF-8" standalone="no"?>
<!-- Created with Inkscape (http://www.inkscape.org/) -->

<svg
   version="1.1"
   id="svg2082"
   width="628.37219"
   height="652.61206"
   viewBox="0 0 628.37219 652.61205"
   sodipodi:docname="GRI.svg"
   xml:space="preserve"
   inkscape:version="1.2.2 (732a01da63, 2022-12-09)"
   xmlns:inkscape="http://www.inkscape.org/namespaces/inkscape"
   xmlns:sodipodi="http://sodipodi.sourceforge.net/DTD/sodipodi-0.dtd"
   xmlns="http://www.w3.org/2000/svg"
   xmlns:svg="http://www.w3.org/2000/svg"><defs
     id="defs2086" /><sodipodi:namedview
     id="namedview2084"
     pagecolor="#ffffff"
     bordercolor="#000000"
     borderopacity="0.25"
     inkscape:showpageshadow="2"
     inkscape:pageopacity="0.0"
     inkscape:pagecheckerboard="0"
     inkscape:deskcolor="#d1d1d1"
     showgrid="false"
     inkscape:zoom="0.50932322"
     inkscape:cx="217.93626"
     inkscape:cy="222.84474"
     inkscape:window-width="1128"
     inkscape:window-height="682"
     inkscape:window-x="-6"
     inkscape:window-y="-6"
     inkscape:window-maximized="1"
     inkscape:current-layer="g2088" /><g
     inkscape:groupmode="layer"
     inkscape:label="Image"
     id="g2088"
     transform="translate(195.05967,165.75627)"><path
       id="path2251"
       style="fill:#000000"
       d="m 114.82815,-165.7142 c -5.8008,-0.0821 -11.59855,-0.0462 -15.992183,0.12695 -11.115688,0.43808 -16.37578,1.02813 -17.287109,1.93946 -0.720419,0.72043 -1.052218,1.98344 -0.736328,2.80664 0.49283,1.2843 3.656318,1.43382 22.28711,1.05859 11.96941,-0.24107 27.13467,0.06 33.79492,0.67188 6.6449,0.61043 16.99492,1.97531 23,3.0332 6.00509,1.05789 15.64298,3.05519 21.41797,4.4375 5.77499,1.38232 14.325,3.7206 19,5.19727 4.675,1.47667 14.04206,4.87634 20.81641,7.55468 6.77433,2.67834 17.34934,7.40994 23.5,10.51367 6.15064,3.10374 12.07137,6.262 13.15625,7.01758 1.08487,0.75557 2.99737,1.37305 4.25,1.37305 1.35776,0 2.27734,-0.60575 2.27734,-1.5 0,-0.825 0.1125,-1.79884 0.25,-2.16406 0.1375,-0.36523 -1.325,-1.55029 -3.25,-2.63282 -1.925,-1.08252 -8.73062,-4.58924 -15.12305,-7.79296 -6.39242,-3.20374 -16.06743,-7.59574 -21.5,-9.75977 -5.43256,-2.16403 -13.47695,-5.14698 -17.87695,-6.62891 -4.4,-1.48192 -14.97501,-4.43978 -23.5,-6.57226 -8.52499,-2.13249 -20.21286,-4.5833 -25.97266,-5.44727 -5.75979,-0.86397 -17.68481,-2.05881 -26.5,-2.65429 -4.40759,-0.29774 -10.21091,-0.49602 -16.01172,-0.57813 z m -8.51562,41.91211 c -6.874993,-0.17481 -17.968157,0.18024 -24.650391,0.78906 -6.682233,0.60882 -17.032246,1.95079 -23,2.98047 -5.967754,1.02969 -16.364665,3.2688 -23.105468,4.97656 -6.740804,1.70776 -14.840814,4.03013 -18,5.16211 -3.159187,1.13197 -10.0191462,3.69002 -15.244141,5.6836 -5.2249948,1.99358 -15.800008,6.805685 -23.5,10.693357 -7.699992,3.887671 -20.54284,11.419771 -28.539063,16.738281 -7.996212,5.31851 -15.36709,10.586832 -16.380859,11.707031 -1.779228,1.966038 -1.781824,2.133213 -0.04102,4.8125 0.99188,1.526589 3.189705,4.455235 4.882813,6.507813 1.693108,2.052588 3.767599,3.74 4.611328,3.75 0.843729,0.0099 4.443734,-2.153073 8,-4.806641 3.556267,-2.653567 11.191803,-7.771327 16.966797,-11.371094 5.774994,-3.599776 14.100004,-8.347917 18.5,-10.552734 4.3999956,-2.204817 12.27500522,-5.814714 17.5,-8.021484 5.2249948,-2.20677 13.775005,-5.458423 19,-7.226563 5.224995,-1.76814 11.075002,-3.588524 13,-4.044922 1.924998,-0.456396 7.325005,-1.75107 12,-2.876953 4.674995,-1.125881 15.190696,-2.954811 23.367187,-4.064451 9.474681,-1.28582 20.400653,-2.01758 30.126957,-2.01758 11.88796,0 15.51929,-0.3097 16.42773,-1.4043 0.73186,-0.88185 1.05546,-4.32694 0.8711,-9.25 l -0.29297,-7.8457 z m 118.08203,4.32031 c -1.58244,-0.3776 -2.02279,0.0637 -2.70312,0.99414 -0.77334,1.0576 -1.26171,2.35353 -1.08594,2.88086 0.17578,0.52733 3.66953,2.38159 7.76367,4.11914 4.09414,1.73756 11.04336,4.95995 15.44336,7.16016 4.4,2.20022 10.22616,5.266511 12.94727,6.814453 2.7211,1.547944 7.22111,4.149475 10,5.78125 2.77888,1.631775 9.32774,5.918397 14.55273,9.525391 5.22499,3.606993 14.45001,10.681108 20.5,15.720703 6.04999,5.039595 14.825,12.970595 19.5,17.625 4.675,4.654405 10.19908,10.349429 12.27539,12.654297 2.0763,2.304867 7.47631,8.810497 12,14.457031 4.52369,5.646534 10.24961,13.3000093 12.72461,17.0097656 3.21602,4.82046521 5.11103,6.746 6.64258,6.75 1.17866,0.00274 2.38528,-0.6261382 2.68164,-1.39843748 0.29636,-0.77230922 -1.8787,-4.93481432 -4.83399,-9.25000002 -2.95529,-4.3151961 -9.31862,-12.7957091 -14.14062,-18.8457031 -4.82201,-6.049994 -15.11369,-17.300008 -22.87109,-25 -7.7574,-7.699992 -19.25072,-18.009503 -25.54102,-22.910156 -6.29029,-4.900654 -16.38751,-12.155876 -22.4375,-16.123047 -6.04999,-3.96717 -13.475,-8.558007 -16.5,-10.201177 -3.025,-1.64315 -7.975,-4.33845 -11,-5.99023 -3.025,-1.65177 -10.38585,-5.18644 -16.35742,-7.85352 -5.25338,-2.3463 -7.97811,-3.54232 -9.56055,-3.91992 z M 65.808624,-89.712246 c -1.380573,0.12596 -3.089859,0.37423 -4.794922,0.714844 -3.410127,0.681228 -9.351176,2.097085 -13.201172,3.146484 -3.849996,1.049401 -8.800002,2.399176 -11,2.998047 -2.199998,0.598873 -10.340261,3.519753 -18.089844,6.492188 -7.749572,2.972431 -17.87458438,7.37099 -22.4999998,9.773437 -4.6254053,2.402448 -11.1101592,5.856957 -14.4101562,7.677735 -3.299997,1.820778 -8.925004,5.319563 -12.5,7.77539 -3.574996,2.455838 -8.750003,6.067213 -11.5,8.025391 -2.749997,1.958188 -9.275005,7.215568 -14.5,11.683594 -5.224995,4.468035 -13.954013,12.808579 -19.398438,18.533203 -5.444424,5.7246142 -13.126746,14.6832082 -17.070312,19.908203 -3.943566,5.224995 -8.98249,12.200003 -11.19727,15.5 -2.21477,3.299997 -5.45723,8.475003 -7.20703,11.5 -1.74979,3.024997 -5.82961,10.900007 -9.0664,17.5 -3.23679,6.599993 -7.23463,15.600004 -8.88282,20 -1.64817,4.399996 -3.77256,10.475003 -4.72265,13.5 -0.95009,3.024997 -2.08046,6.400001 -2.51172,7.5 -0.43125,1.099999 -1.74773,6.275005 -2.92383,11.5 -1.1761,5.22499 -2.56061,11.38731 -3.07812,13.69336 -0.5175,2.30605 -0.94141,5.31742 -0.94141,6.69141 0,1.37398 0.5625,2.8539 1.25,3.28906 0.6875,0.43516 3.5,1.07311 6.25,1.41797 2.75,0.34486 6.41393,0.69018 8.14258,0.76757 2.03984,0.0914 3.35606,-0.4148 3.75,-1.4414 0.33385,-0.86998 0.60742,-2.64058 0.60742,-3.93555 0,-1.29498 1.32458,-7.89542 2.94336,-14.66797 1.61877,-6.77253 3.83014,-15.014453 4.91406,-18.31445 1.08391,-3.299997 3.16597,-9.150004 4.62695,-13 1.46099,-3.849996 5.07023,-11.996502 8.01954,-18.103516 2.94929,-6.107014 7.498094,-14.657024 10.109371,-19 2.611268,-4.342975 8.427726,-12.84649 12.925781,-18.896484 4.498056,-6.049994 9.178242,-12.125001 10.400391,-13.5 1.222159,-1.3749986 5.049543,-5.4250036 8.505859,-9 3.456307,-3.5749964 8.483225,-8.5250025 11.169922,-11 2.686708,-2.474998 7.280305,-6.525002 10.207032,-9 2.926717,-2.474998 9.226724,-7.304042 14,-10.730469 4.773265,-3.426416 9.20208,-6.2389 9.84375,-6.25 0.641659,-0.01107 1.31666,-0.383215 1.5,-0.828125 0.183329,-0.444919 2.808987,-2.201055 5.833984,-3.902344 3.024997,-1.701288 8.42500357,-4.611578 12,-6.466796 3.5749964,-1.855219 10.550005,-5.097311 15.5,-7.205079 4.949995,-2.107767 9.900001,-4.186501 11,-4.61914 1.099999,-0.43264 5.825005,-1.934312 10.5,-3.337891 4.674995,-1.403578 12.273663,-3.47589 16.886719,-4.605469 4.613055,-1.129578 9.483537,-2.054687 10.822265,-2.054687 1.338729,0 3.110048,0.674501 3.935547,1.5 0.838269,0.838269 2.461476,1.279057 3.677735,0.998047 1.197718,-0.27671 6.227739,-0.947928 11.177734,-1.492188 4.949995,-0.544259 16.21289,-0.993047 25.0293,-0.998047 8.81641,-0.0045 21.49806,0.668895 28.17968,1.496094 6.68163,0.827199 17.01681,2.640075 22.96875,4.027344 5.95195,1.387269 15.09728,3.914799 20.32227,5.617187 5.22499,1.702389 14.61069,5.285857 20.85742,7.964844 6.24675,2.678978 11.75925,4.623612 12.25,4.320313 0.49076,-0.30331 0.89258,-1.542798 0.89258,-2.753907 0,-1.818818 -1.65408,-2.937044 -9.50781,-6.425781 -5.22961,-2.323067 -14.34212,-5.843347 -20.25,-7.822265 -5.90789,-1.978908 -15.6922,-4.752774 -21.74219,-6.164063 -6.04999,-1.411288 -13.475,-2.920266 -16.5,-3.353516 -3.025,-0.433249 -10.22501,-1.320828 -16,-1.972656 -6.751,-0.76199 -17.46242,-0.966962 -30,-0.574219 -10.724989,0.335964 -21.724182,1.069632 -24.443359,1.628907 -2.791668,0.574185 -5.322771,0.638167 -5.8125,0.148437 -0.47702,-0.477014 -1.348021,-4.116248 -1.9375,-8.08789 -0.66966,-4.511914 -1.605046,-7.425947 -2.490235,-7.765625 -0.389599,-0.149503 -1.43974,-0.145492 -2.820312,-0.01953 z m 194.798826,14.240235 c -0.6624,-0.09261 -1.29023,-0.06633 -1.72265,0.09961 -0.86484,0.331871 -1.57227,1.406806 -1.57227,2.390625 0,1.067639 2.1165,3.134112 5.25,5.125 2.8875,1.834598 9.66673,6.670368 15.06445,10.746094 5.39773,4.075726 13.94774,11.100349 19,15.609375 5.05227,4.509035 12.24404,11.450065 15.98242,15.425781 3.73838,3.975716 10.41141,11.810412 14.82813,17.4101564 4.41671,5.5997444 8.55955,10.8566414 9.20703,11.6816406 0.64747,0.8249992 2.80524,3.975003 4.79492,7 1.98968,3.024997 5.54032,8.650004 7.89063,12.5 2.3503,3.849996 7.05391,12.633285 10.45117,19.517578 3.39726,6.884293 6.43859,13.521801 6.75977,14.75 0.37318,1.427009 1.35104,2.232422 2.70898,2.232422 1.16875,0 2.38821,-0.683612 2.70898,-1.519531 0.32077,-0.835919 -0.42412,-3.873423 -1.65429,-6.75 -1.23018,-2.876577 -4.15416,-9.097221 -6.49805,-13.822266 -2.34388,-4.725055 -7.08225,-13.275066 -10.5293,-19 -3.44704,-5.724944 -10.05773,-15.5195242 -14.6914,-21.767578 -4.63368,-6.248044 -9.83598,-12.998052 -11.56055,-15 -1.72457,-2.001938 -9.00267,-9.490632 -16.17383,-16.640625 -7.17116,-7.149993 -14.62091,-14.350002 -16.55469,-16 -1.93377,-1.649998 -5.53378,-4.603485 -8,-6.564453 -2.46621,-1.960958 -8.35262,-6.296146 -13.08007,-9.632813 -4.72745,-3.336666 -9.53254,-6.568749 -10.67774,-7.18164 -0.5726,-0.306446 -1.26924,-0.516766 -1.93164,-0.609376 z M 72.888702,-52.186855 c -1.249849,0.02698 -2.80976,0.165816 -4.376953,0.410156 -3.134397,0.48868 -9.091326,1.752735 -13.238282,2.808594 -4.146955,1.055859 -11.121964,3.08653 -15.5,4.511719 -4.378035,1.425178 -14.260945,5.687993 -21.960937,9.474609 -7.699992,3.786626 -18.05000495,9.604528 -23,12.927734 -4.949995,3.323207 -12.992652,9.311375 -17.873047,13.3066411 -4.880385,3.995266 -11.801613,10.4136758 -15.380859,14.2636719 -3.579257,3.8499962 -7.135072,7.949366 -7.900391,9.109375 -0.764829,1.159999 -1.108038,2.847501 -0.761719,3.75 0.34632,0.902489 1.074678,1.640625 1.617188,1.640625 0.542509,0 5.262076,-4.497706 10.488281,-9.994141 5.226195,-5.4964341 13.621315,-13.2692711 18.65625,-17.2734371 5.034935,-4.0041659 11.085685,-8.5250469 13.4453126,-10.0468749 2.35962767,-1.521839 7.7596343,-4.82583 12,-7.341797 4.2403654,-2.515967 11.7589894,-6.364867 16.7089844,-8.552734 4.949995,-2.187858 12.938911,-5.256161 17.753906,-6.81836 4.814995,-1.562188 13.365006,-3.818506 19,-5.015625 5.634995,-1.197129 10.819562,-2.342992 11.519531,-2.544922 0.69998,-0.201919 1.551862,-1.097255 1.894532,-1.990234 0.342669,-0.892989 0.08403,-1.956462 -0.574219,-2.363281 -0.329125,-0.203415 -1.267729,-0.288695 -2.517578,-0.261719 z M -135.29685,-15.48373 c -1.22267,0 -3.56676,2.473965 -6.63476,7 -2.60973,3.8499961 -7.24067,11.1372344 -10.28906,16.1933594 -3.0484,5.0561346 -8.21648,14.5862106 -11.48438,21.1777346 -3.26789,6.591523 -7.69992,16.404306 -9.84961,21.80664 -2.14968,5.402335 -5.75775,15.616666 -8.01953,22.699219 -2.26178,7.082563 -4.11328,13.726273 -4.11328,14.763672 0,1.037399 -0.42491,2.668008 -0.94531,3.623047 -0.52039,0.955039 -1.65075,5.561333 -2.50977,10.236328 -0.85902,4.675 -2.25285,13.00001 -3.09961,18.5 -0.84676,5.49999 -1.94108,17.42501 -2.42969,26.5 -0.51815,9.62359 -0.51669,23.58478 0.002,33.5 0.48908,9.34999 1.36467,20.41764 1.94531,24.5957 0.58063,4.17807 2.2138,13.17808 3.62891,20 1.41511,6.82193 2.80887,13.87147 3.09961,15.66407 0.29073,1.79259 0.93069,3.50622 1.41992,3.80859 0.48923,0.30236 0.88867,1.36683 0.88867,2.36523 0,0.9984 1.74228,6.93477 3.87109,13.19141 2.12881,6.25663 5.23278,14.75943 6.89844,18.89648 1.66567,4.13705 4.96909,11.56206 7.33984,16.5 2.37076,4.93794 6.06591,12.12852 8.2129,15.97852 2.14697,3.85 6.16961,10.6 8.93945,15 2.76985,4.4 6.58288,10.1375 8.47265,12.75 1.88978,2.6125 4.01771,4.75 4.72852,4.75 0.71082,0 1.83529,-0.65259 2.49805,-1.45117 0.66276,-0.79858 1.05348,-2.03608 0.86914,-2.75 -0.18434,-0.71392 -3.8298,-6.57842 -8.10156,-13.03125 -6.93801,-10.48041 -7.63202,-11.94949 -6.49805,-13.76758 1.0939,-1.75385 0.82977,-2.8971 -1.91602,-8.26758 -1.75252,-3.42774 -5.19653,-10.36819 -7.65234,-15.42383 -2.45582,-5.05563 -6.26795,-13.83064 -8.4707,-19.5 -2.20275,-5.66935 -4.9943,-13.45859 -6.20313,-17.30859 -1.20882,-3.85 -2.62905,-8.575 -3.1582,-10.5 -0.52915,-1.925 -1.40766,-5.3 -1.95117,-7.5 -0.5435,-2.2 -1.43296,-6.025 -1.97657,-8.5 -0.54361,-2.475 -1.62391,-8.1 -2.40039,-12.5 -0.77647,-4.4 -1.99469,-12.72501 -2.70703,-18.5 -0.7256,-5.88252 -1.29492,-20.83435 -1.29492,-34 0,-12.92499 0.32747,-24.97254 0.72852,-26.77148 0.57758,-2.5909 0.30556,-3.69444 -1.3086,-5.3086 -1.83347,-1.83347 -1.93519,-2.55758 -1.01172,-7.22851 0.5645,-2.85527 1.72091,-8.79141 2.56836,-13.19141 0.84744,-4.4 2.16903,-10.700003 2.9375,-14 0.76847,-3.299997 2.13731,-8.700003 3.04102,-12 0.90371,-3.299997 2.25233,-7.800002 2.99804,-10 0.74571,-2.199998 3.25529,-9.175006 5.57618,-15.5 2.32088,-6.324994 7.8911,-18.700009 12.3789,-27.5 4.48781,-8.799991 11.9363,-21.7871752 16.55078,-28.86132813 6.66388,-10.21592977 8.17607,-13.19907087 7.35547,-14.49999987 -0.56823,-0.900839 -1.88377,-1.638672 -2.92383,-1.638672 z m 16.76172,14.5 c -1.3134,0 -3.76937,2.8897264 -7.86328,9.25 -3.27465,5.087495 -7.85351,12.521785 -10.17578,16.519531 -2.32228,3.997736 -6.02839,11.197745 -8.23437,16 -2.20599,4.802245 -4.62161,10.080471 -5.36719,11.730469 -0.74558,1.649998 -3.03675,7.500005 -5.09375,13 -2.05699,5.499994 -4.08027,11.350002 -4.4961,13 -0.41583,1.649998 -1.70066,6.150004 -2.85351,10 -1.15286,3.849996 -2.27593,7.900001 -2.49609,9 -0.22016,1.099999 -1.08148,5.375 -1.91407,9.5 -0.8326,4.125 -1.99722,10.65 -2.58789,14.5 -0.59067,3.85 -1.52169,11.95001 -2.07031,18 -0.54861,6.04999 -0.99954,14.18816 -1,18.08398 -4.6e-4,3.89584 0.29935,7.38334 0.66602,7.75 0.36666,0.36667 1.44504,0.66602 2.39453,0.66602 0.94949,0 1.99819,-0.71245 2.33203,-1.58203 0.33385,-0.86998 0.61219,-5.48249 0.61719,-10.25 0.005,-4.76751 0.69586,-14.49977 1.53515,-21.62891 0.83929,-7.12914 2.68769,-18.60415 4.10742,-25.5 1.41973,-6.89585 4.14514,-17.705588 6.0586,-24.021482 1.91345,-6.315894 5.33151,-16.187242 7.59375,-21.935547 2.26225,-5.748294 7.10921,-16.394873 10.77148,-23.660156 3.66228,-7.265283 9.91627,-18.207319 13.89844,-24.314453 4.26799,-6.5454636 7.00372,-11.7203398 6.66406,-12.60546888 -0.31691,-0.82586917 -1.43575,-1.50195312 -2.48633,-1.50195312 z M 319.7012,6.3346294 c -0.81625,-0.3132297 -2.28315,0.2739585 -3.26172,1.3046875 -1.71611,1.8075682 -1.5291,2.2464501 5.28907,12.3750001 3.88792,5.775594 7.56447,11.401954 8.16992,12.501953 0.60546,1.099999 2.13217,3.800002 3.39258,6 1.26041,2.199998 4.19481,7.825005 6.52148,12.5 2.32667,4.674995 6.25952,13.675006 8.74023,20 2.48073,6.324994 5.42828,14.425004 6.54883,18 1.12055,3.574996 3.18921,11.45001 4.59766,17.5 1.40845,6.04999 2.8182,12.575 3.13281,14.5 0.31462,1.925 1.04233,6.875 1.61719,11 0.57486,4.125 1.34265,12.00001 1.70508,17.5 0.59923,9.09338 0.86219,10.08869 2.9082,10.98633 2.04711,0.89811 2.24819,1.66459 2.24219,8.5 -0.004,4.13207 -0.29748,10.58775 -0.65235,14.3457 -0.55589,5.88665 -0.96057,6.95279 -2.92382,7.69922 -1.77641,0.67539 -2.42388,1.92539 -2.94141,5.66797 -0.36514,2.64052 -1.30173,8.62578 -2.08008,13.30078 -0.77835,4.675 -2.56549,12.97675 -3.97266,18.44922 -1.40715,5.47245 -3.81728,13.57246 -5.35546,18 -1.53819,4.42752 -4.47079,12.10078 -6.51758,17.05078 -2.0468,4.95 -4.90242,11.25 -6.34375,14 -1.44134,2.75 -4.63673,8.6 -7.10156,13 -2.46485,4.4 -7.1745,12.05 -10.4668,17 -3.2923,4.95 -9.44383,13.27501 -13.66992,18.5 -4.22611,5.22499 -13.50251,15.1335 -20.61328,22.01953 -7.11079,6.88602 -17.18623,15.71918 -22.39063,19.62891 -5.20439,3.90972 -13.80355,9.84266 -19.10937,13.18359 -5.30584,3.34093 -14.56912,8.54995 -20.58399,11.57617 -6.01486,3.02623 -14.72636,7.03066 -19.35937,8.89844 -4.63302,1.86778 -12.69474,4.77565 -17.91602,6.46094 -5.22127,1.6853 -11.51914,3.58132 -13.99414,4.21484 -2.475,0.63353 -6.1875,1.58888 -8.25,2.12305 -2.57965,0.66812 -3.75,1.53097 -3.75,2.76562 0,0.98713 0.29935,2.09623 0.66602,2.46289 0.36666,0.36667 1.31403,0.66602 2.10546,0.66602 0.79145,0 4.2046,-0.70602 7.58399,-1.56836 3.37938,-0.86233 10.19453,-2.83133 15.14453,-4.375 4.95,-1.54368 13.27501,-4.47898 18.5,-6.52344 5.22499,-2.04445 15.21645,-6.57879 22.20312,-10.07617 6.98668,-3.49739 17.24039,-9.30222 22.78516,-12.90039 5.54478,-3.59818 10.62833,-6.98535 11.29688,-7.52734 0.66854,-0.54199 5.74338,-4.57243 11.27929,-8.95703 5.53592,-4.38461 13.8822,-11.70857 18.54688,-16.27344 4.66467,-4.56487 10.48989,-10.54883 12.94531,-13.29883 2.45543,-2.75 6.29397,-7.25 8.5293,-10 2.23533,-2.75 6.83034,-8.92385 10.21093,-13.7207 3.38061,-4.79687 7.86509,-11.54961 9.96485,-15.00586 2.09975,-3.45626 6.32334,-11.23244 9.38672,-17.2793 3.06337,-6.04686 7.29266,-15.49415 9.39843,-20.99414 2.10578,-5.49999 4.15841,-10.39112 4.56055,-10.86914 0.40214,-0.47801 3.55458,0.0845 7.00586,1.25 3.45128,1.16552 7.06752,2.11914 8.03711,2.11914 1.36279,0 2.42833,-2.2128 4.69531,-9.75 1.6129,-5.36249 3.63026,-12.675 4.48242,-16.25 0.85218,-3.575 2.48654,-12.21186 3.63086,-19.19336 1.14433,-6.9815 2.54851,-18.68152 3.1211,-26 0.5726,-7.31848 0.77063,-19.38165 0.43945,-26.80664 -0.33118,-7.42499 -1.06847,-17.55 -1.63867,-22.5 -0.57019,-4.95 -1.67486,-12.76396 -2.45508,-17.36328 -0.78022,-4.59934 -2.37782,-12.47435 -3.54883,-17.500001 -1.17101,-5.025665 -2.79584,-10.824221 -3.61133,-12.886719 -0.81548,-2.062498 -1.99722,-3.738109 -2.625,-3.724609 -0.62777,0.01352 -3.79704,0.913521 -7.04492,2 -3.24786,1.086469 -6.231,1.974609 -6.6289,1.974609 -0.3979,0 -1.19103,-1.237502 -1.76172,-2.75 -0.57069,-1.512498 -2.27094,-6.125004 -3.77735,-10.25 -1.50641,-4.124996 -3.95939,-10.200003 -5.45117,-13.5 -1.49178,-3.299997 -3.69074,-8.153992 -4.88672,-10.787109 -1.19598,-2.633118 -4.69519,-9.158126 -7.77734,-14.5 -3.08214,-5.341875 -8.26701,-13.674483 -11.52148,-18.517579 -3.25448,-4.843095 -6.58609,-9.0637229 -7.40235,-9.3769526 z M 103.38284,111.25455 c -0.38365,0 -0.58203,16.69571 -0.58203,48.92188 0,32.22615 0.19838,48.92187 0.58203,48.92187 0.38364,0 0.58203,-16.69572 0.58203,-48.92187 0,-32.22617 -0.19839,-48.92188 -0.58203,-48.92188 z m 39.27344,0.0117 c -2.63949,0.008 -4.84721,0.38105 -6.37305,1.07422 -1.28403,0.58333 -3.17244,2.01444 -4.19726,3.18164 -1.02482,1.1672 -2.16487,3.2399 -2.53321,4.60547 -0.36838,1.36556 -0.51942,3.75425 -0.33593,5.30859 0.1835,1.55434 0.99552,3.95714 1.80468,5.33789 0.80917,1.38074 2.39499,3.07993 3.52344,3.77735 1.12846,0.69742 2.76815,1.50028 3.64453,1.7832 0.87638,0.28288 3.42769,0.42781 5.66992,0.32226 2.24224,-0.10555 5.06052,-0.60889 6.26172,-1.11914 l 2.1836,-0.92773 v -6.4375 -6.43555 h -5.24219 -5.24023 v 2.33008 c 0,2.3296 -0.001,2.33008 2.32812,2.33008 2.31711,0 2.33008,0.0112 2.33008,2.25586 0,2.0633 -0.15668,2.28915 -1.82617,2.62305 -1.00434,0.20086 -2.8242,0.0963 -4.04493,-0.23243 -1.22073,-0.32871 -2.72796,-1.24486 -3.3496,-2.03515 -0.62164,-0.7903 -1.29746,-2.3207 -1.5,-3.40039 -0.20365,-1.08553 -0.0377,-2.9647 0.37109,-4.20508 0.4679,-1.41965 1.48921,-2.75159 2.7793,-3.62695 1.60457,-1.08877 2.57009,-1.32487 4.53711,-1.10938 1.37436,0.15056 2.96272,0.69447 3.53125,1.20898 0.96032,0.86909 1.16563,0.79921 2.88867,-0.97851 1.02007,-1.05245 1.85547,-2.20397 1.85547,-2.56055 0,-0.35658 -1.13126,-1.19601 -2.51368,-1.86523 -1.82097,-0.88152 -3.62687,-1.21408 -6.55273,-1.20508 z m 46.63086,0.2793 c -5.11188,0 -5.58144,0.10459 -7.95313,1.77148 -1.38622,0.97429 -3.10801,2.80821 -3.82617,4.07617 -0.99406,1.75504 -1.30745,3.24936 -1.31445,6.25977 -0.007,2.76322 0.3249,4.60533 1.10156,6.11523 0.6113,1.18844 1.89152,2.90239 2.8457,3.8086 0.95418,0.90622 2.74706,2.00812 3.98438,2.44922 1.23731,0.44109 3.42966,0.81191 4.87109,0.82421 1.44145,0.0123 3.62183,-0.25585 4.84571,-0.5957 1.22387,-0.33985 3.22743,-1.52353 4.45312,-2.63086 1.22568,-1.10734 2.6487,-2.89855 3.16211,-3.98047 0.57832,-1.21872 0.92983,-3.48388 0.92383,-5.95508 -0.007,-3.04606 -0.31729,-4.5344 -1.31445,-6.29492 -0.71816,-1.26796 -2.43995,-3.10188 -3.82618,-4.07617 -2.37168,-1.66689 -2.84124,-1.77148 -7.95312,-1.77148 z m 56.60156,0.23828 -3.19726,0.17187 -3.19727,0.17188 -4.86523,11.58594 c -2.67591,6.37183 -4.86524,11.82248 -4.86524,12.11328 0,0.29076 1.48418,0.44961 3.29883,0.35351 3.19797,-0.1693 3.32126,-0.23714 3.98242,-2.21289 0.68214,-2.03841 0.68293,-2.0371 5.36524,-2.20508 l 4.68164,-0.16797 0.9414,2.35157 c 0.94109,2.35199 0.9413,2.35156 4.40235,2.35156 h 3.46093 l -3.80273,-9.17383 c -2.09058,-5.04504 -4.34075,-10.55968 -5.00195,-12.25586 z m -87.75976,0.0527 v 12.23047 12.23047 h 7.86132 7.86329 v -2.62109 -2.6211 h -4.66016 -4.6582 v -9.60937 -9.60938 h -3.20313 z m 50.08593,0 v 12.29102 12.29297 l 6.84375,-0.20703 c 5.59952,-0.16946 7.21291,-0.42501 8.88086,-1.40235 1.38358,-0.81073 2.27696,-1.91512 2.78125,-3.43945 0.57165,-1.7281 0.59111,-2.70939 0.0801,-4.25781 -0.36526,-1.10674 -1.3628,-2.41417 -2.2168,-2.9043 l -1.55273,-0.89063 1.61914,-1.61914 c 1.12732,-1.12731 1.61914,-2.21432 1.61914,-3.57422 0,-1.07448 -0.40828,-2.53625 -0.9082,-3.25 -0.49993,-0.71373 -1.66619,-1.68931 -2.5918,-2.16796 -1.19519,-0.61805 -3.54887,-0.8711 -8.11914,-0.8711 z m 51.25196,0 v 12.23047 12.23047 h 7.57031 7.57226 v -2.62109 -2.6211 h -4.66015 -4.6582 v -9.60937 -9.60938 h -2.91211 z m -43.82618,4.66797 c 0.88089,0.004 2.17254,0.16031 2.8711,0.34766 0.69857,0.18735 1.41844,0.7271 1.59961,1.19922 0.18116,0.47212 0.059,1.36304 -0.27149,1.98046 -0.45555,0.85122 -1.2295,1.12305 -3.20117,1.12305 -2.60032,0 -2.59961,-4.8e-4 -2.59961,-2.33008 0,-2.15504 0.11998,-2.32731 1.60156,-2.32031 z m -26.23828,0.14453 c 0.68062,0.004 1.35042,0.1443 2.18555,0.41992 1.33376,0.44018 2.58474,1.41227 3.27539,2.54493 0.61465,1.00802 1.11814,2.82781 1.11914,4.04492 0.001,1.21711 -0.38854,2.97087 -0.86719,3.89648 -0.47865,0.92561 -1.45423,2.09187 -2.16796,2.5918 -0.71374,0.49992 -2.36126,0.9082 -3.66016,0.9082 -1.29889,0 -2.94642,-0.40827 -3.66016,-0.9082 -0.71374,-0.49992 -1.68932,-1.66619 -2.16797,-2.5918 -0.47865,-0.92561 -0.86818,-2.67937 -0.86718,-3.89648 0.001,-1.21711 0.51259,-3.05062 1.13672,-4.07422 0.75644,-1.24062 1.89624,-2.089 3.41796,-2.54492 0.88335,-0.26467 1.57525,-0.39496 2.25586,-0.39063 z m 53.17383,2.75781 c 0.16046,0 0.84233,1.57417 1.51563,3.4961 l 1.22461,3.49414 h -2.74024 -2.74023 l 1.22461,-3.49414 c 0.6733,-1.92193 1.35517,-3.4961 1.51562,-3.4961 z m -26.64453,6.41602 c 1.04105,0.004 2.48476,0.16532 3.20898,0.35938 0.76442,0.20483 1.4723,0.97261 1.6875,1.83007 0.26666,1.06248 0.0711,1.69654 -0.69921,2.25977 -0.58894,0.43064 -2.19986,0.7832 -3.58008,0.7832 -2.50949,0 -2.50977,-2.9e-4 -2.50977,-2.62109 0,-2.57015 0.0363,-2.61933 1.89258,-2.61133 z m -186.716796,11.60742 -7.607422,0.16211 c -6.439772,0.13695 -7.635372,0.30436 -7.78711,1.0957 -0.139566,0.72788 0.495445,1.01575 2.869141,1.29688 1.676905,0.19861 3.457215,0.76938 3.957031,1.26953 0.786003,0.78653 0.908203,3.45936 0.908203,19.7793 v 18.86719 l -1.669921,1.74414 c -0.918947,0.95894 -2.620287,1.96762 -3.78125,2.24218 -1.265742,0.29935 -2.187449,0.89944 -2.302735,1.49805 -0.174913,0.90829 0.624822,0.99805 8.876953,0.99805 8.503496,0 9.070313,-0.0683 9.070313,-1.09961 0,-0.78498 -0.555639,-1.20365 -1.9375,-1.46289 -1.065013,-0.1998 -2.701683,-1.16313 -3.638672,-2.14063 l -1.705078,-1.77734 -0.148438,-17.58008 -0.148437,-17.58008 9.220703,20.67383 c 7.428198,16.65622 9.452488,20.7095 10.412109,20.85156 1.043278,0.15444 2.220854,-2.15938 9.492188,-18.63672 4.566165,-10.34724 8.653096,-19.46676 9.080078,-20.26757 0.661979,-1.24154 0.778968,1.18023 0.798828,16.45117 0.02233,17.14881 -0.02525,17.95885 -1.140625,19.07422 -0.819676,0.81968 -1.942839,1.16406 -3.787109,1.16406 -2.232533,0 -2.621094,0.17378 -2.621094,1.16601 0,1.1269 0.388512,1.16407 11.939453,1.16407 11.550941,0 11.939453,-0.0372 11.939453,-1.16407 0,-1.00949 -0.388376,-1.16601 -2.912109,-1.16601 -2.13547,0 -3.221983,-0.30987 -4.076172,-1.16406 -1.118501,-1.11853 -1.164063,-1.94071 -1.164063,-20.71289 0,-12.03705 0.225993,-19.97028 0.587891,-20.64649 0.430564,-0.80451 1.520186,-1.20496 4.076172,-1.49414 2.879836,-0.32582 3.488281,-0.58505 3.488281,-1.48437 0,-1.00988 -0.565133,-1.08985 -7.738281,-1.08985 h -7.740234 l -8.347657,19.07422 c -4.591686,10.49049 -8.537477,19.28146 -8.767578,19.53516 -0.230101,0.25371 -4.305673,-8.33674 -9.05664,-19.08985 z m -65.900391,0.0312 c -6.181389,0 -6.697266,0.0848 -6.697266,1.10156 0,0.71556 0.561446,1.24335 1.59961,1.50391 0.879087,0.22064 1.925931,0.67401 2.328125,1.00781 0.402188,0.33379 0.736987,1.68763 0.742187,3.00977 0.0053,1.32214 -1.764528,8.60815 -3.93164,16.18945 -2.167107,7.58129 -4.044608,13.67806 -4.173828,13.54883 -0.129221,-0.12921 -3.177736,-8.29786 -6.773438,-18.15234 -5.953018,-16.31502 -6.656272,-17.91797 -7.859375,-17.91797 -1.218871,0 -1.765122,1.37692 -7.068359,17.76367 -3.161786,9.76977 -5.836664,18.02538 -5.94336,18.3457 -0.106695,0.32032 -1.131106,-2.43154 -2.277343,-6.11523 -1.146238,-3.68368 -3.338319,-10.83746 -4.871094,-15.89844 -2.131993,-7.03949 -2.641934,-9.43416 -2.167969,-10.18555 0.340753,-0.54021 1.58971,-1.20982 2.775391,-1.49023 1.536726,-0.36343 2.103222,-0.78464 1.972656,-1.46484 -0.15885,-0.82754 -1.400859,-0.97615 -9.349609,-1.11524 -8.747234,-0.15307 -9.164063,-0.10894 -9.164063,0.97266 0,0.78467 0.535449,1.25101 1.740234,1.51562 0.957059,0.21021 2.2059,0.97523 2.775391,1.69922 0.569491,0.72399 4.038494,11.05687 7.708984,22.96094 5.965611,19.34755 6.801544,21.64258 7.878907,21.64258 1.069572,0 1.887638,-2.12944 7.265625,-18.91602 5.484652,-17.11952 6.119697,-18.76448 6.701172,-17.32617 0.353364,0.87407 3.5128,9.39661 7.019531,18.9375 5.611054,15.26619 6.514911,17.326 7.535156,17.17969 0.995571,-0.14277 1.987421,-3.00767 7.03125,-20.29102 3.230348,-11.06923 6.379576,-21.16073 6.996094,-22.42383 0.711192,-1.45708 1.812756,-2.60033 3.013672,-3.1289 1.136712,-0.50032 1.892578,-1.25618 1.892578,-1.89258 0,-0.9632 -0.611311,-1.06055 -6.699219,-1.06055 z m 42.9277345,7.375 c -0.7272661,-0.0295 -1.4706732,0.0405 -2.2207031,0.20899 -1.2472399,0.28021 -2.8574044,1.19191 -3.57812503,2.02734 -0.72072061,0.83543 -1.31054687,2.14229 -1.31054687,2.90234 0,0.76005 0.4126527,1.79352 0.91601562,2.29688 0.50335711,0.50336 1.51000688,0.91406 2.23828128,0.91406 0.7282743,0 1.799909,-0.52407 2.3808593,-1.16601 0.8800771,-0.97248 0.9431089,-1.41445 0.3808594,-2.64844 -0.3711406,-0.81457 -0.6738281,-1.72991 -0.6738281,-2.03516 0,-0.30525 0.6722803,-0.55664 1.4941406,-0.55664 0.8218603,0 1.9727047,0.25677 2.5585938,0.57031 0.5858891,0.31356 1.345052,1.36896 1.6855466,2.34571 0.340481,0.97675 0.474515,2.22775 0.298828,2.77929 -0.175692,0.55153 -0.5959466,1.58088 -0.9335934,2.28711 -0.3376466,0.70623 -1.5372419,1.72218 -2.6660156,2.25782 -1.2273741,0.58243 -4.5711441,1.16005 -8.3203125,1.4375 -4.1545481,0.30743 -7.1616367,0.85958 -8.9140625,1.63476 -1.620273,0.71672 -3.100077,1.91752 -3.822266,3.10156 -0.648252,1.06283 -1.333999,2.75178 -1.523437,3.75391 -0.219163,1.15935 0.0059,2.49961 0.61914,3.68555 0.567386,1.0972 1.803494,2.21636 3.00586,2.71875 1.123357,0.46963 2.6133435,0.67896 3.3105467,0.46679 0.6972092,-0.21217 1.726549,-0.78901 2.2871094,-1.28125 0.5649053,-0.49605 1.0195313,-1.71133 1.0195313,-2.72656 0,-1.00741 -0.3148345,-2.14491 -0.6992188,-2.5293 -0.3843843,-0.38437 -1.2921109,-0.69921 -2.0175781,-0.69921 -0.7254672,0 -1.5902852,0.50737 -1.9218755,1.12695 -0.331589,0.61958 -0.603515,1.66643 -0.603515,2.32812 0,0.6617 -0.341397,1.20313 -0.757813,1.20313 -0.416416,0 -1.070693,-0.31483 -1.455078,-0.69922 -0.384384,-0.38438 -0.699219,-1.53977 -0.699219,-2.56836 0,-1.37338 0.476913,-2.26956 1.792969,-3.37695 0.985648,-0.82937 2.4411537,-1.67153 3.2363284,-1.8711 0.7951805,-0.19957 2.6667512,-0.2267 4.1582031,-0.0586 2.1598963,0.24345 3.1014519,0.73205 4.625,2.39453 1.4139869,1.54292 1.9121094,2.62758 1.9121094,4.16211 0,1.14174 -0.3703869,2.78347 -0.8222657,3.64844 -0.45188447,0.86498 -1.56513267,2.26311 -2.4746093,3.10742 -0.9094824,0.84431 -2.4394298,1.92244 -3.4003907,2.39453 -0.9609607,0.4721 -2.5200095,1.04423 -3.4648437,1.27149 -0.9448341,0.22727 -3.5000805,0.40739 -5.6777345,0.40039 -2.732034,-0.009 -4.816894,-0.3909 -6.726562,-1.23438 -1.522157,-0.67232 -3.641826,-2.06131 -4.710938,-3.08594 -1.069107,-1.02463 -2.473773,-2.89187 -3.121094,-4.14843 -0.853375,-1.65633 -1.090191,-2.93736 -0.859375,-4.65821 0.211033,-1.57338 0.833233,-2.81437 1.84375,-3.68359 0.838471,-0.72122 1.998544,-1.3125 2.578125,-1.3125 0.579576,0 1.743649,0.54295 2.587891,1.20703 0.844242,0.66409 1.966205,1.12305 2.492187,1.01953 0.525984,-0.10353 1.230327,-0.62449 1.566407,-1.1582 0.442962,-0.70345 0.40066,-1.2239 -0.154297,-1.89258 -0.421047,-0.50733 -1.368723,-0.92187 -2.107422,-0.92187 -0.738699,0 -1.756409,-0.41266 -2.259766,-0.91602 -0.503363,-0.50336 -0.913309,-1.87831 -0.912109,-3.05664 0.0012,-1.17832 0.512565,-2.98028 1.136719,-4.00391 0.624146,-1.02364 1.774424,-2.28044 2.55664,-2.79297 0.782211,-0.51251 2.362922,-1.08505 3.511719,-1.27148 1.45793,-0.23659 2.552591,-0.0347 3.625,0.66797 1.370133,0.89775 1.504552,1.28512 1.246094,3.57812 -0.166526,1.47742 -0.03057,2.73161 0.318359,2.94727 0.334013,0.20643 1.2184591,-0.33704 1.9667971,-1.20703 0.8311321,-0.96625 1.3613281,-2.33054 1.3613281,-3.50391 0,-1.21529 -0.5088119,-2.46889 -1.3847656,-3.41406 -0.7614946,-0.82167 -2.3201936,-1.7523 -3.4648436,-2.06836 -1.198476,-0.33091 -2.973997,-0.37286 -4.185547,-0.0996 -1.157143,0.26098 -3.103946,1.13648 -4.326172,1.94531 -1.333569,0.88252 -2.745153,2.55011 -3.529297,4.16993 -0.924262,1.90926 -1.217785,3.32527 -1.001953,4.84179 0.167824,1.1792 0.476267,2.56698 0.685547,3.08399 0.288819,0.7135 -0.06325,1.03022 -1.464844,1.31054 -1.015619,0.20313 -2.840242,1.36173 -4.054687,2.57618 -1.689498,1.68948 -2.30572,2.85851 -2.623047,4.9746 -0.26324,1.7554 -0.136462,3.76394 0.349609,5.5 0.461471,1.64821 1.694465,3.74301 3.101563,5.26954 1.284297,1.39328 3.395727,3.07437 4.691406,3.73632 1.295678,0.66196 3.011699,1.41798 3.8125,1.67969 0.8008,0.2617 4.076094,0.40446 7.279297,0.31836 4.5481227,-0.12223 6.4622637,-0.44223 8.736328,-1.46484 1.6016013,-0.72022 3.9246735,-2.27945 5.1640625,-3.46485 1.2393832,-1.18539 2.7405204,-3.20309 3.3359375,-4.48437 0.595423,-1.28129 1.0886531,-3.46133 1.0957031,-4.84375 0.00704,-1.38242 -0.2822295,-3.0855 -0.6425781,-3.78516 -0.3603486,-0.69966 -1.1432855,-1.81137 -1.7402344,-2.46875 -1.07953173,-1.18883 -1.06694786,-1.19842 2.3789063,-1.91015 2.0661996,-0.42676 4.1874922,-1.32369 5.2558593,-2.22266 0.9852588,-0.82905 2.1755528,-2.24935 2.6445308,-3.15625 0.468972,-0.9069 0.853516,-2.80291 0.853516,-4.21289 0,-1.70545 -0.446112,-3.22647 -1.332031,-4.54297 -0.794359,-1.18044 -2.170016,-2.25512 -3.4101564,-2.66406 -0.6876169,-0.22674 -1.399687,-0.35531 -2.1269531,-0.38477 z m 179.5410125,2.52735 c -1.78796,0 -3.95925,0.36635 -4.82422,0.8164 -0.86497,0.45004 -2.20272,1.4942 -2.97265,2.31836 -1.01565,1.08723 -1.41428,2.20829 -1.45508,4.08789 -0.0387,1.7842 0.32218,3.10363 1.16211,4.23633 0.70204,0.94675 2.71572,2.26145 4.74414,3.09961 1.93803,0.8008 3.94464,1.81625 4.45898,2.25586 0.51435,0.43963 0.9336,1.01131 0.9336,1.26953 0,0.25822 -0.4107,0.88141 -0.91406,1.38477 -0.50336,0.50336 -1.6166,0.91311 -2.47461,0.91211 -0.85799,-0.001 -2.44699,-0.54135 -3.5293,-1.20118 -1.96784,-1.1997 -1.96651,-1.19969 -3.63867,0.40235 -0.9197,0.88112 -1.67188,1.93642 -1.67188,2.3457 0,0.40928 0.58788,1.08052 1.3086,1.49219 0.72072,0.41167 2.09763,1.05561 3.05859,1.43164 0.96096,0.37604 2.92574,0.6995 4.36719,0.7168 1.44144,0.0173 3.71847,-0.46775 5.05859,-1.07618 1.45997,-0.66285 2.80106,-1.81214 3.34766,-2.86914 0.50172,-0.97022 0.91211,-2.98365 0.91211,-4.47265 0,-2.24445 -0.29227,-2.97946 -1.71094,-4.30469 -0.94117,-0.87919 -3.31431,-2.18339 -5.27539,-2.89844 -1.96109,-0.71505 -3.71775,-1.69473 -3.90235,-2.17578 -0.18458,-0.48105 0.0771,-1.28609 0.58204,-1.79102 0.50493,-0.50493 1.74727,-0.89598 2.75976,-0.86718 1.01251,0.0288 2.34953,0.51205 2.9707,1.07422 1.08617,0.98297 1.19841,0.95394 2.93555,-0.78321 1.17072,-1.17072 1.67818,-2.1408 1.44141,-2.75781 -0.20092,-0.5236 -1.27919,-1.33476 -2.39453,-1.80078 -1.11534,-0.46602 -3.48939,-0.8457 -5.27735,-0.8457 z m 99.18164,0.0117 c -2.29138,0.008 -4.5445,0.41548 -6.02929,1.08985 -1.30394,0.59224 -3.18754,2.06657 -4.18555,3.27734 -0.99801,1.21076 -2.12072,3.48221 -2.49609,5.04688 -0.37539,1.56467 -0.5129,3.98064 -0.30469,5.36914 0.20822,1.3885 1.12446,3.70072 2.03515,5.13672 1.17179,1.84773 2.55888,3.06144 4.74805,4.15234 1.98989,0.99161 4.04012,1.53911 5.7461,1.53711 1.45862,-0.002 3.56833,-0.26219 4.68945,-0.57813 1.12112,-0.31593 2.82615,-1.20969 3.78711,-1.98828 l 1.74609,-1.41601 -1.95898,-2.03516 c -1.95946,-2.0344 -1.95901,-2.03345 -3.78516,-0.91992 -1.00438,0.61243 -2.83512,1.11423 -4.06836,1.11523 -1.77507,0.002 -2.65506,-0.41091 -4.22265,-1.97851 -1.70859,-1.7086 -1.98052,-2.36743 -1.97852,-4.80469 0.001,-1.75652 0.42419,-3.51848 1.11914,-4.6582 0.68228,-1.11891 1.94157,-2.10328 3.23242,-2.5293 1.16293,-0.38377 2.82168,-0.52221 3.68555,-0.30664 0.86387,0.21557 2.03955,0.81493 2.61328,1.33203 0.97286,0.87681 1.18863,0.79392 3.20313,-1.24023 2.11863,-2.1393 2.13856,-2.19831 0.99609,-3.08594 -0.64064,-0.49774 -2.00831,-1.2705 -3.03906,-1.7168 -1.03076,-0.44629 -3.52092,-0.80582 -5.53321,-0.79883 z m -56.07422,0.52149 -4.20312,10.07031 c -2.31174,5.53896 -4.60815,11.0527 -5.10352,12.25391 l -0.90039,2.18554 h 3.40821 c 3.40899,0 3.40889,-4.8e-4 4.17773,-2.33007 l 0.76953,-2.33008 h 4.76367 4.76368 l 0.76953,2.33008 c 0.76884,2.32959 0.76855,2.33007 4.20898,2.33007 3.17721,0 3.41225,-0.0906 3.07031,-1.16796 -0.20366,-0.64166 -2.42448,-6.079 -4.93359,-12.08399 l -4.56055,-10.91797 -3.11523,-0.16992 z m -98.71679,0.0488 v 12.23047 12.23046 h 2.88867 2.88867 l 0.16797,-4.80468 c 0.13326,-3.7851 0.35386,-4.80469 1.03516,-4.80469 0.48375,0 2.01648,2.11709 3.47851,4.80469 l 2.61328,4.80468 h 3.36328 c 1.85052,0 3.36582,-0.19726 3.36524,-0.4375 -6.1e-4,-0.24023 -1.29963,-2.59556 -2.88672,-5.23437 -2.86709,-4.76702 -2.87844,-4.80177 -1.60156,-5.45508 0.70682,-0.36165 1.73757,-1.21716 2.29101,-1.90039 0.64974,-0.80212 1.01154,-2.27927 1.01953,-4.16992 0.007,-1.64949 -0.35905,-3.46007 -0.83984,-4.14649 -0.46939,-0.67015 -1.75493,-1.64572 -2.85547,-2.16796 -1.47628,-0.70054 -3.69584,-0.94922 -8.46484,-0.94922 z m 24.46094,0 v 12.23047 12.23046 h 8.73632 8.73438 v -2.62109 -2.62109 h -5.82422 -5.82227 v -2.30664 -2.30664 l 5.09571,-0.16797 5.0957,-0.16992 0.17969,-2.47461 0.17773,-2.47461 h -5.27539 -5.27344 v -2.01758 -2.01563 l 5.38672,-0.16797 5.38672,-0.16796 0.17969,-2.47461 0.17773,-2.47461 h -8.47656 z m 44.84375,0 v 12.23047 12.23046 h 8.44531 8.44531 v -2.62109 -2.62109 h -5.5332 -5.53321 v -2.33008 -2.33008 h 4.95118 4.94921 v -2.61914 -2.62109 h -4.94921 -4.95118 v -2.03907 -2.03906 h 5.24219 5.24219 v -2.61914 -2.62109 h -8.1543 z m 48.92187,0 v 12.23047 12.23046 h 2.88867 2.88867 l 0.16993,-4.80664 c 0.13324,-3.78477 0.35206,-4.80468 1.0332,-4.80468 0.48192,0 2.02859,2.12482 3.49414,4.79882 l 2.62891,4.79883 3.70703,0.006 c 3.70698,0.007 3.70778,0.008 2.84961,-1.30273 -0.472,-0.72072 -1.93765,-3.07516 -3.25782,-5.23242 l -2.40039,-3.92383 1.60938,-0.83203 c 0.88576,-0.45804 1.99034,-1.5396 2.45312,-2.4043 0.46277,-0.8647 0.81365,-2.58621 0.78125,-3.82422 -0.0325,-1.23801 -0.50609,-2.93331 -1.05273,-3.76758 -0.54663,-0.83426 -1.88283,-1.88806 -2.96875,-2.34179 -1.29841,-0.54251 -4.17313,-0.82422 -8.39844,-0.82422 z m 50.08594,0 v 12.23047 12.23046 h 3.20312 3.20508 v -5.24218 -5.24219 h 4.36719 4.36719 v 5.24219 5.24218 h 3.20312 3.20313 v -12.23046 -12.23047 h -3.20313 -3.20312 v 4.36718 4.36915 h -4.36719 -4.36719 v -4.36915 -4.36718 h -3.20508 z m -42.03711,4.76367 c 1.08437,-0.10405 2.55638,0.22244 3.34961,0.74219 0.77814,0.50985 1.41406,1.41378 1.41406,2.00781 0,0.59404 -0.32616,1.34465 -0.72656,1.66797 -0.4004,0.32333 -1.84247,0.76973 -3.20313,0.99414 -1.92531,0.31754 -2.54708,0.21546 -2.80664,-0.46094 -0.18348,-0.47802 -0.24913,-1.74487 -0.14648,-2.81641 0.16627,-1.73561 0.39618,-1.96944 2.11914,-2.13476 z m -117.7168,0.23437 c 1.34389,0.0264 2.84971,0.38556 3.34766,0.79883 0.49796,0.41326 0.90625,1.21124 0.90625,1.77344 0,0.5622 -0.32812,1.28801 -0.72852,1.61133 -0.4004,0.32333 -1.84051,0.76973 -3.20117,0.99414 -1.92532,0.31754 -2.54903,0.21546 -2.80859,-0.46094 -0.18348,-0.47802 -0.24914,-1.74487 -0.14649,-2.81641 0.18001,-1.87912 0.27412,-1.94659 2.63086,-1.90039 z m 93.13281,1.99414 1.08008,3.05469 c 0.59435,1.68067 1.19833,3.38476 1.3418,3.78516 0.18482,0.51578 -0.53219,0.72656 -2.46094,0.72656 -2.32917,0 -2.67659,-0.14558 -2.39648,-1.01758 0.18007,-0.56056 0.80145,-2.26465 1.38086,-3.78515 z m 115.46094,5.36133 c -0.52374,0.1019 -1.03738,0.32053 -1.41601,0.63477 -1.00122,0.83094 -1.51969,5.02337 -1.89844,15.36328 -0.28646,7.82054 -1.03622,17.81875 -1.66602,22.21875 -0.62981,4.4 -2.51076,13.59619 -4.18164,20.43555 -1.67088,6.83935 -4.37883,16.28936 -6.01758,21 -1.63875,4.71063 -3.50893,9.91226 -4.15625,11.55859 -0.64732,1.64634 -4.05696,8.84635 -7.57617,16 -3.5192,7.15366 -8.72331,16.60586 -11.56445,21.00586 -2.84114,4.4 -5.47654,8.52229 -5.85547,9.16016 -0.37889,0.63786 -0.41374,1.87536 -0.0781,2.75 0.33563,0.87463 1.40888,1.58984 2.38476,1.58984 0.97588,0 2.86507,-1.4625 4.19922,-3.25 1.33415,-1.7875 5.25688,-8.12799 8.7168,-14.08984 3.4599,-5.96186 7.86876,-14.28687 9.79687,-18.5 1.92811,-4.21314 4.85465,-11.26016 6.50391,-15.66016 1.64925,-4.4 3.85898,-10.57204 4.91015,-13.7168 1.05118,-3.14476 3.06343,-10.56977 4.47071,-16.5 1.40729,-5.93023 3.42457,-16.63321 4.48242,-23.7832 1.05785,-7.14999 1.92473,-18.0765 1.92773,-24.28125 0.004,-9.15056 -0.28275,-11.39048 -1.50976,-11.86133 -0.41601,-0.15963 -0.94892,-0.17612 -1.47266,-0.0742 z m 73.10156,0.9336 c -1.4247,0.017 -2.55771,0.10593 -3.05468,0.26367 -1.56197,0.49575 -1.89801,2.23241 -2.47461,12.79687 -0.36692,6.72258 -1.12326,16.72267 -1.68164,22.22266 -0.55837,5.49999 -1.88867,14.90295 -2.95508,20.89453 -1.06641,5.99158 -3.26536,16.11659 -4.88672,22.5 -1.62137,6.3834 -4.58894,16.33048 -6.5957,22.10547 -2.00676,5.77499 -5.18892,14.2346 -7.07227,18.79883 -1.88335,4.56422 -5.72236,12.88923 -8.5293,18.5 -2.80693,5.61076 -6.92552,13.35117 -9.15234,17.20117 -2.22682,3.85 -6.09799,10.15 -8.60352,14 -2.50553,3.85 -4.90472,7.15065 -5.33203,7.33398 -0.42731,0.18334 -0.77734,1.37975 -0.77734,2.66016 0,1.70098 1.54873,3.41198 5.75,6.35156 3.1625,2.21278 6.425,4.04376 7.25,4.06836 0.825,0.0246 3.28679,-2.75591 5.4707,-6.17969 2.18392,-3.42377 6.86985,-10.95317 10.41211,-16.73046 3.54228,-5.7773 9.25443,-16.35392 12.69531,-23.50391 3.44089,-7.14999 7.45649,-16.15 8.92383,-20 1.46733,-3.85 4.23605,-11.45873 6.15235,-16.9082 1.9163,-5.44948 5.01721,-15.88772 6.89062,-23.19727 1.87342,-7.30954 4.31126,-18.6028 5.41602,-25.09375 1.10476,-6.49096 2.68984,-18.72685 3.52343,-27.19141 0.8336,-8.46454 1.51563,-18.45092 1.51563,-22.1914 0,-3.74049 -0.45475,-7.08155 -1.01172,-7.42578 -0.55696,-0.34422 -3.73709,-0.84168 -7.06641,-1.10547 -1.66465,-0.13188 -3.38193,-0.18696 -4.80664,-0.16992 z m -546.09765,15.09179 c -0.54375,-0.1185 -1.0879,-0.1108 -1.50391,0.0488 -1.0428,0.40016 -1.51367,1.98895 -1.51367,5.11719 0,2.49588 0.69185,9.14738 1.53711,14.78125 0.84526,5.63387 2.41965,14.48017 3.5,19.6582 1.08035,5.17804 4.22836,16.20305 6.99414,24.5 2.76578,8.29695 8.34007,21.83595 12.38672,30.08594 4.04664,8.24999 10.538224,19.72501 14.42578,25.5 3.887566,5.77499 9.969619,14.1 13.515625,18.5 3.546006,4.4 10.652084,12.27501 15.792969,17.5 5.140875,5.22499 12.27266,12.00612 15.847656,15.07031 3.574996,3.06421 10.396298,8.35272 15.158203,11.75196 4.761905,3.39923 11.949037,8.20992 15.970703,10.68945 4.0216762,2.47952 7.742412,4.36516 8.2695315,4.18945 0.5271195,-0.17571 1.4399975,-1.12677 2.0292969,-2.11328 0.8429891,-1.41123 0.6811929,-2.03912 -0.7597657,-2.94141 -1.0072989,-0.63074 -7.0823067,-4.58343 -13.4999997,-8.78515 -6.417694,-4.20173 -15.267973,-10.65213 -19.667969,-14.33203 -4.399996,-3.67991 -10.475003,-9.07456 -13.5,-11.99024 -3.024997,-2.91567 -7.770115,-7.71723 -10.544922,-10.66992 -2.774807,-2.95268 -7.559885,-8.51914 -10.632812,-12.36914 -3.072927,-3.85 -8.973356,-12.17501 -13.113282,-18.5 -4.139915,-6.32499 -9.994878,-16.22501 -13.009765,-22 -3.014899,-5.77499 -7.777989,-16.64376 -10.583989,-24.15234 -2.80599,-7.5086 -6.42826,-18.98361 -8.05078,-25.5 -1.62252,-6.51641 -3.65139,-16.92641 -4.50781,-23.13282 -0.85643,-6.2064 -1.55664,-13.0132 -1.55664,-15.12695 0,-2.18157 -0.64208,-4.37747 -1.48633,-5.07812 -0.40899,-0.33947 -0.95234,-0.58268 -1.49609,-0.70118 z m 306.05664,7.16016 c -1.69197,-0.007 -3.98017,0.36496 -5.08399,0.82617 -1.10381,0.4612 -2.53518,1.70532 -3.18164,2.76563 -0.64645,1.06032 -1.17673,2.79266 -1.17773,3.84961 -0.001,1.05695 0.36911,2.63932 0.82226,3.51562 0.45315,0.8763 1.43555,1.90552 2.1836,2.28711 0.74805,0.38159 2.6431,1.15852 4.21094,1.72656 1.56783,0.56805 3.13778,1.49022 3.49023,2.05078 0.46518,0.73932 0.46682,1.29975 0.004,2.03907 -0.35099,0.56056 -1.50468,1.10494 -2.5625,1.20898 -1.28943,0.12681 -2.48718,-0.23019 -3.63672,-1.08008 l -1.71485,-1.26758 -1.98242,1.92188 c -1.08996,1.05643 -1.98047,2.07525 -1.98047,2.26367 0,0.18842 0.81015,0.82106 1.80078,1.40625 0.99063,0.58518 2.49645,1.27409 3.34766,1.53125 0.85085,0.25703 2.72872,0.48847 4.16992,0.51563 1.44139,0.0266 3.53219,-0.40891 4.64649,-0.96875 1.11473,-0.56007 2.6225,-1.90769 3.34961,-2.9961 0.79153,-1.18485 1.32031,-2.86125 1.32031,-4.17773 0,-1.5101 -0.46702,-2.7543 -1.49219,-3.97266 -0.90065,-1.07036 -2.86082,-2.27263 -4.9414,-3.03125 -1.89657,-0.69152 -3.73596,-1.60524 -4.0879,-2.02929 -0.35188,-0.42406 -0.55184,-1.22249 -0.44531,-1.7754 0.10653,-0.5529 0.9072,-1.19645 1.7793,-1.42968 1.07251,-0.28682 2.23812,-0.0907 3.60351,0.60547 2.01864,1.02916 2.0198,1.02898 3.80274,-0.81055 0.98062,-1.01174 1.78125,-2.03669 1.78125,-2.27734 0,-0.24066 -1.11325,-0.9426 -2.47461,-1.56055 -1.42352,-0.64616 -3.78156,-1.12972 -5.55078,-1.13672 z m -50.21289,0.56836 v 12.23047 12.23047 h 3.20312 3.20313 v -12.23047 -12.23047 h -3.20313 z m 12.8125,0 v 12.23047 12.23047 h 2.89453 2.89453 l 0.16406,-7.56641 0.16211,-7.56641 4.59571,7.56641 4.59765,7.56641 h 3.41016 3.41211 v -12.23047 -12.23047 h -2.89453 -2.89454 l -0.1621,7.42578 -0.16407,7.42578 -4.55664,-7.42578 -4.55664,-7.42578 h -3.45117 z m 47.75586,0 v 2.62109 2.6211 h 3.49609 3.49414 v 9.60937 9.60938 h 3.20313 3.20312 v -9.60938 -9.60937 h 3.20313 3.20312 v -2.6211 -2.62109 h -9.90039 z m 23.8789,0 v 12.23047 12.23047 h 3.20313 3.20312 v -12.23047 -12.23047 h -3.20312 z m 10.48438,0 v 2.62109 2.6211 h 3.49414 3.49414 v 9.60937 9.60938 h 2.91211 2.91211 v -9.60938 -9.60937 h 3.49414 3.49414 v -2.6211 -2.62109 h -9.90039 z m 23.87695,0 v 8.75586 c 0,6.16825 0.24053,9.32835 0.8125,10.69726 0.4465,1.0686 1.69061,2.60563 2.76563,3.41602 1.07503,0.81039 2.48045,1.60217 3.12109,1.75781 0.64064,0.15563 2.35299,0.31251 3.80664,0.34961 1.70384,0.0435 3.55378,-0.39742 5.20703,-1.24219 1.41048,-0.72071 3.10428,-2.04996 3.76367,-2.95312 1.0736,-1.47052 1.21929,-2.64188 1.38477,-11.21094 l 0.18359,-9.57031 h -2.89648 -2.89649 l -0.19921,8.38476 c -0.17323,7.25483 -0.35058,8.55147 -1.31055,9.61133 -0.74561,0.82321 -1.81352,1.22461 -3.25781,1.22461 -1.4436,0 -2.51452,-0.40236 -3.25977,-1.22461 -0.9614,-1.06072 -1.13347,-2.34302 -1.29687,-9.60937 l -0.18946,-8.38672 h -2.86914 z m 25.04492,0 v 2.62109 2.6211 h 3.20313 3.20312 v 9.60937 9.60938 h 3.20313 3.20312 v -9.60938 -9.60937 h 3.49414 3.49414 v -2.6211 -2.62109 h -9.90039 z m 23.87696,0 v 12.23047 12.23047 h 8.44531 8.44531 v -2.61914 -2.6211 h -5.5332 -5.5332 v -2.33008 -2.33007 h 4.95117 4.94922 v -2.6211 -2.62109 h -4.94922 -4.95117 v -2.03711 -2.03906 h 5.24218 5.24219 v -2.6211 -2.62109 h -8.1543 z m -462.14063,33.61719 c -0.5569,0.0329 -1.15041,0.18568 -1.64648,0.45117 -0.99213,0.53097 -1.7938,1.73654 -1.7793,2.67969 0.0145,0.94315 1.11264,5.98985 2.43945,11.21484 1.32681,5.22499 2.702,10.625 3.05664,12 0.35464,1.375 0.99972,3.4 1.43164,4.5 0.43193,1.1 1.79582,5.15 3.03125,9 1.23543,3.85 4.25123,11.72501 6.70313,17.5 2.4519,5.77499 6.96034,15.21896 10.01758,20.98633 3.05724,5.76735 6.11804,11.39236 6.80273,12.5 0.68469,1.10763 3.40298,5.38867 6.04102,9.51367 2.63805,4.125 7.50221,11.1 10.80859,15.5 3.30639,4.4 9.48327,12.05 13.72656,17 4.2433,4.95 11.248755,12.39584 15.566411,16.54687 4.317655,4.15104 10.800153,10.00105 14.40625,13 3.606086,2.99896 8.331092,6.877 10.5,8.61719 2.168897,1.74019 6.193362,4.75885 8.943359,6.70703 2.749997,1.94819 9.275005,6.20704 14.5,9.46485 5.224995,3.2578 14.797311,8.68403 21.271484,12.05859 6.474174,3.37457 17.3135878,8.34619 24.087891,11.04883 6.774303,2.70264 16.327011,6.11157 21.228516,7.57422 4.901505,1.46266 10.487111,3.07559 12.412109,3.58398 1.924998,0.5084 5.750003,1.42112 8.5,2.0293 2.749997,0.60819 9.275005,1.92291 14.5,2.92187 5.224995,0.99898 11.075002,1.73442 13,1.63282 3.008297,-0.15878 3.54342,-0.56672 3.8125,-2.90039 0.24837,-2.15412 -0.164882,-2.81808 -2,-3.21289 -1.272179,-0.27369 -5.237504,-0.94804 -8.8125,-1.49805 -3.574996,-0.55001 -10.775005,-1.90415 -16,-3.00977 -5.224995,-1.10562 -11.075002,-2.46904 -13,-3.02929 -1.924998,-0.56024 -6.650004,-1.94664 -10.5,-3.08204 -3.849996,-1.13538 -7.781289,-2.49053 -8.736328,-3.00976 -0.955039,-0.51922 -2.250757,-0.94336 -2.878906,-0.94336 -0.62815,0 -5.471858,-1.83315 -10.7636723,-4.07422 -5.2918047,-2.24107 -13.4460984,-5.92782 -18.1210937,-8.19336 -4.674995,-2.26555 -11.200003,-5.68349 -14.5,-7.59375 -3.299997,-1.91026 -10.275005,-6.27579 -15.5,-9.70117 -5.224995,-3.42537 -12.875004,-8.74909 -17,-11.83008 -4.124996,-3.08099 -12.689589,-10.43927 -19.033203,-16.35351 -6.343614,-5.91425 -15.440539,-15.25392 -20.214844,-20.75391 -4.774313,-5.49999 -10.906133,-12.96414 -13.626953,-16.58789 -2.72082,-3.62375 -7.88786,-11.13634 -11.48242,-16.69336 -3.59457,-5.55702 -8.75179,-14.29093 -11.45899,-19.41016 -2.70718,-5.11921 -6.8312,-13.8086 -9.16601,-19.30859 -2.33481,-5.49999 -4.62049,-10.9 -5.07813,-12 -0.45764,-1.1 -2.17981,-6.05 -3.82617,-11 -1.64635,-4.95 -4.33721,-14.35362 -5.98047,-20.89648 -1.64326,-6.54286 -3.55807,-12.24844 -4.25586,-12.67969 -0.34889,-0.21563 -0.86887,-0.30239 -1.42578,-0.26953 z m 112.855471,86.52539 c -0.980599,0.18885 -1.929152,1.09971 -2.107422,2.02539 -0.19327,1.00359 2.599663,4.75141 6.917968,9.28125 3.983097,4.1782 11.548646,11.15088 16.8125,15.49609 5.263855,4.34522 12.720317,10.1063 16.570313,12.80274 3.8499962,2.69643 9.9250036,6.57636 13.5,8.62109 3.5749964,2.04472 11.568878,6.16534 17.763672,9.15625 6.194804,2.9909 11.856012,5.4375 12.582031,5.4375 0.726029,0 1.658133,0.3375 2.070313,0.75 0.412179,0.4125 5.774031,2.39671 11.916015,4.41016 6.141984,2.01344 12.581899,3.701 14.310547,3.75 1.909078,0.0542 3.364152,-0.48733 3.707031,-1.38086 0.31048,-0.80908 -0.121971,-2.15908 -0.96289,-3 -0.840909,-0.84092 -2.285766,-1.53597 -3.208985,-1.54297 -0.923209,-0.007 -7.527741,-1.9875 -14.677734,-4.40235 -7.149993,-2.41485 -16.894955,-6.22034 -21.65625,-8.45507 -4.761285,-2.23474 -13.0862954,-6.6177 -18.5,-9.74219 -5.4136946,-3.12449 -13.2187541,-8.15646 -17.34375,-11.18164 -4.124996,-3.02517 -10.425004,-7.99711 -14,-11.04883 -3.574996,-3.05173 -9.967002,-9.09859 -14.205078,-13.43555 -5.036875,-5.1544 -8.322843,-7.76545 -9.488281,-7.54101 z M 336.4473,327.01627 c -0.3977,0 -2.50418,2.35598 -4.67969,5.23633 -2.17552,2.88035 -8.49597,10.41785 -14.04492,16.75 -5.54896,6.33214 -13.64897,14.71079 -18,18.61914 -4.35104,3.90835 -9.48516,8.46284 -11.41016,10.12109 -1.925,1.65825 -8.75973,6.84949 -15.1875,11.53516 -6.42778,4.68566 -14.30279,10.02583 -17.5,11.86719 -3.19722,1.84136 -7.1625,4.1378 -8.8125,5.10351 -1.65,0.96571 -7.27501,3.94575 -12.5,6.6211 -5.22499,2.67534 -15.68751,7.27366 -23.25,10.21875 -9.80507,3.81841 -13.75,5.81933 -13.75,6.9746 0,0.89105 0.29935,1.92045 0.66602,2.28711 0.36666,0.36667 1.28757,0.66602 2.04492,0.66602 0.75736,0 5.74355,-1.61412 11.08203,-3.58789 5.33847,-1.97376 16.48235,-6.91234 24.76367,-10.97461 8.28132,-4.06227 19.08134,-9.90856 24,-12.99023 4.91867,-3.08169 12.76836,-8.35201 17.44336,-11.7129 4.675,-3.36089 12.55,-9.57436 17.5,-13.80664 4.95,-4.23228 13.29295,-12.13395 18.53906,-17.56054 5.24612,-5.4266 12.98857,-14.02462 17.20703,-19.10547 4.21847,-5.08085 8.13912,-10.11124 8.71094,-11.17969 0.78769,-1.47182 0.65782,-2.32265 -0.53125,-3.51172 -0.8632,-0.8632 -1.89332,-1.57031 -2.29101,-1.57031 z M 49.709014,346.34049 c -0.474149,0.19535 -0.811465,0.59355 -1.046875,1.20703 -0.421929,1.09952 -0.05971,2.20787 0.964844,2.95703 0.901389,0.65911 6.261635,2.383 11.912109,3.83203 5.650475,1.44903 13.423442,3.13769 17.273438,3.75196 3.849996,0.61428 11.275005,1.41714 16.5,1.78515 5.22499,0.36801 13.55,0.55726 18.5,0.41992 4.95,-0.13733 11.925,-0.48568 15.5,-0.77343 3.575,-0.28774 10.325,-1.13324 15,-1.88086 4.675,-0.74761 12.2125,-2.36905 16.75,-3.60157 6.51447,-1.76952 8.25,-2.6261 8.25,-4.07226 0,-1.00729 -0.45644,-2.11265 -1.01367,-2.45703 -0.55723,-0.34439 -3.36973,0.048 -6.25,0.87304 -2.88027,0.82505 -10.18634,2.46499 -16.23633,3.64258 -7.67098,1.4931 -16.5988,2.30295 -29.5,2.67578 -13.8538,0.40037 -21.513749,0.13127 -30.5,-1.0664 -6.599993,-0.87963 -16.500006,-2.75348 -22,-4.16407 -5.499994,-1.41058 -11.007622,-2.81569 -12.238281,-3.12304 -0.780469,-0.19492 -1.391085,-0.20122 -1.865235,-0.006 z m -97.449218,19.86523 c -0.509259,0.13364 -1.05129,0.51299 -1.677735,1.1543 -1.696318,1.73658 -1.605707,1.95634 2.230469,5.32422 2.199998,1.93143 8.275005,6.32566 13.5,9.76562 5.224995,3.43997 15.125007,9.22084 22,12.84571 6.8749931,3.62486 17.450006,8.59214 23.5,11.03906 6.049994,2.44693 13.700003,5.36194 17,6.47851 3.299997,1.11658 11.400007,3.3928 18,5.0586 6.599993,1.66579 14.925004,3.57008 18.5,4.23047 3.574996,0.66038 11.675006,1.754 18,2.43164 6.324994,0.67764 12.681795,1.28872 14.126953,1.35742 1.445149,0.0687 3.140737,-0.49276 3.767577,-1.24805 0.62682,-0.75529 0.89131,-2.01984 0.58789,-2.81054 -0.40419,-1.0533 -4.084966,-1.78039 -13.767576,-2.7168 -7.268563,-0.70294 -17.489849,-2.13994 -22.714844,-3.19336 -5.224995,-1.05341 -12.425004,-2.62234 -16,-3.48828 -3.574996,-0.86594 -9.650004,-2.49763 -13.5,-3.625 -3.849996,-1.12737 -9.025002,-2.85101 -11.5,-3.83008 -2.474998,-0.97907 -8.100004,-3.21096 -12.5,-4.96094 -4.3999956,-1.74998 -13.1750063,-5.90061 -19.5,-9.22265 -6.324994,-3.32206 -17.28048,-9.91941 -24.345703,-14.66016 -7.065213,-4.74074 -13.46852,-9.06088 -14.230469,-9.60156 -0.490659,-0.34817 -0.967304,-0.46176 -1.476562,-0.32813 z m 254.052734,86.94922 c 0,-0.20401 -1.0125,-0.12507 -2.25,0.17578 -1.2375,0.30085 -3.825,0.98833 -5.75,1.52735 -1.925,0.53903 -6.875,1.88444 -11,2.99023 -4.125,1.10579 -12.00001,2.90853 -17.5,4.00781 -5.49999,1.09928 -13.6,2.47322 -18,3.05274 -4.4,0.57952 -12.36104,1.51543 -17.69141,2.08008 -5.33036,0.56465 -15.23037,1.01766 -22,1.00586 -6.76962,-0.0119 -19.283599,-0.69357 -27.80859,-1.51563 -8.524991,-0.82206 -17.075002,-1.74435 -19,-2.04883 -1.924998,-0.30449 -8.000006,-1.4328 -13.5,-2.50781 -5.499995,-1.07502 -14.725006,-3.2414 -20.5,-4.8125 -5.774994,-1.57109 -11.254222,-3.1691 -12.175781,-3.55273 -1.149619,-0.47858 -2.159691,0.0419 -3.21875,1.6582 -0.848969,1.29569 -2.33072,5.35657 -3.292969,9.02539 -0.962309,3.66882 -1.438893,6.98298 -1.058594,7.36328 0.3803,0.3803 3.066273,1.34132 5.96875,2.13672 2.902487,0.7954 6.852346,1.89447 8.777344,2.44141 1.924998,0.54694 10.475009,2.50894 19,4.36132 8.524991,1.85239 20.435433,3.86493 26.466797,4.47071 6.031354,0.60579 11.192663,1.32744 11.470703,1.60547 0.27803,0.27804 13.342619,0.31604 29.0332,0.084 15.69059,-0.23205 32.3543,-0.90455 37.0293,-1.49609 4.675,-0.59154 14.35001,-2.20436 21.5,-3.58204 7.14999,-1.37768 14.8,-2.94784 17,-3.49023 2.2,-0.54239 5.8,-1.49179 8,-2.10937 2.2,-0.61758 5.35,-1.49315 7,-1.94727 1.65,-0.45411 4.2375,-1.31866 5.75,-1.91992 1.63568,-0.65023 2.75,-1.85372 2.75,-2.97071 0,-1.03286 -1.125,-4.98062 -2.5,-8.77148 -1.375,-3.79086 -2.5,-7.05772 -2.5,-7.26172 z" /></g></svg>
