<?xml version="1.0" encoding="UTF-8" standalone="no"?>
<!-- Created with Inkscape (http://www.inkscape.org/) -->

<svg
   width="689.7016mm"
   height="144.16823mm"
   viewBox="0 0 689.7016 144.16823"
   version="1.1"
   id="svg5"
   xml:space="preserve"
   xmlns:inkscape="http://www.inkscape.org/namespaces/inkscape"
   xmlns:sodipodi="http://sodipodi.sourceforge.net/DTD/sodipodi-0.dtd"
   xmlns="http://www.w3.org/2000/svg"
   xmlns:svg="http://www.w3.org/2000/svg"><sodipodi:namedview
     id="namedview7"
     pagecolor="#ffffff"
     bordercolor="#000000"
     borderopacity="0.25"
     inkscape:showpageshadow="2"
     inkscape:pageopacity="0.0"
     inkscape:pagecheckerboard="0"
     inkscape:deskcolor="#d1d1d1"
     inkscape:document-units="mm"
     showgrid="false" /><defs
     id="defs2" /><g
     inkscape:label="Layer 1"
     inkscape:groupmode="layer"
     id="layer1"
     transform="translate(761.70599,118.53732)"><path
       id="path1348"
       style="fill:#000000;stroke-width:0.264583"
       d="m -144.16436,-118.5368 c -8.0587,-0.004 -8.37569,0.0195 -13.6803,1.02836 -2.10528,0.40039 -5.12714,1.11385 -6.08025,1.43557 -0.22001,0.0743 -0.72432,0.22353 -1.12034,0.33176 -0.39601,0.10825 -0.86372,0.25046 -1.03973,0.31626 -0.17601,0.0658 -0.60813,0.20781 -0.96015,0.31523 -0.76142,0.23237 -2.71575,0.92547 -3.2799,1.16323 -0.22,0.0927 -0.54437,0.22344 -0.72037,0.29094 -0.17601,0.0675 -0.66092,0.27411 -1.07797,0.45889 -0.41706,0.18478 -0.80377,0.3359 -0.85887,0.3359 -0.14535,0 -5.45313,2.6369 -6.30349,3.13159 -2.36586,1.37634 -3.67477,2.19419 -5.60017,3.49849 -1.18804,0.8048 -2.30394,1.57989 -2.47995,1.72238 -0.176,0.14249 -1.25633,0.9984 -2.40037,1.90221 -2.68822,2.12372 -8.44093,7.881625 -10.68979,10.699086 -2.46754,3.091429 -4.45262,5.995838 -6.51175,9.527584 -1.42429,2.442907 -2.51067,4.614603 -3.7424,7.480163 -0.48347,1.124779 -1.19998,2.952096 -1.39579,3.55999 -0.11338,0.352017 -0.26383,0.708589 -0.33382,0.792199 -0.07,0.0836 -0.12713,0.282752 -0.12713,0.442351 0,0.159604 -0.0682,0.415116 -0.15141,0.567924 -0.13813,0.253679 -0.78899,2.271954 -1.04438,3.238045 -0.0581,0.220007 -0.17772,0.651616 -0.26562,0.959631 -0.36776,1.288464 -1.19954,5.031337 -1.44022,6.480742 -0.15471,0.931686 -0.22102,1.420159 -0.64906,4.799707 -0.27884,2.197325 -0.28088,12.860616 -0.004,15.12104 0.40517,3.302957 0.49039,3.931897 0.65009,4.800224 0.33751,1.834998 0.67503,3.418811 1.00665,4.720126 0.0897,0.352017 0.22936,0.909707 0.31006,1.239717 0.0807,0.330017 0.23023,0.906014 0.33228,1.280025 0.23444,0.859233 1.5424,4.893678 1.72496,5.320606 0.0753,0.176006 0.44013,1.075841 0.8108,1.999878 1.28875,3.212618 2.895,6.516381 4.55063,9.360152 1.24275,2.1345952 4.46619,6.937976 4.88601,7.2806926 0.0539,0.044001 0.27069,0.3317381 0.48162,0.6397542 1.97434,2.88309761 7.76837,8.835189 11.44271,11.7548381 0.43925,0.3490236 0.83502,0.6761911 0.87902,0.7265701 0.40059,0.458852 5.71138,4.131306 7.68015,5.310787 2.71342,1.625616 8.94289,4.768702 9.4511,4.768702 0.0846,0 0.27868,0.06386 0.4315,0.141593 0.7788,0.396194 3.29045,1.339678 4.75785,1.787488 0.35202,0.10741 0.78414,0.249446 0.96015,0.315226 0.17601,0.06578 0.64424,0.208016 1.04025,0.31626 0.39601,0.108244 0.89981,0.251977 1.11982,0.319877 3.39546,1.047768 9.29856,2.09725 13.52063,2.403471 h 5.1e-4 c 0.96804,0.07021 4.17186,0.10191 7.11998,0.07028 4.29055,-0.04608 5.80751,-0.122036 7.60057,-0.379822 4.91549,-0.706695 7.41143,-1.1989 10.2402,-2.018998 0.79203,-0.229623 1.65629,-0.476848 1.9203,-0.549837 1.16804,-0.322972 4.1555,-1.383715 6.35568,-2.25671 1.70792,-0.677675 6.8132,-3.127491 7.80004,-3.742924 0.3107,-0.193767 1.03305,-0.625814 1.60507,-0.960148 1.57154,-0.918497 3.08324,-1.890474 3.43029,-2.205034 0.1706,-0.154609 0.37611,-0.28112 0.45681,-0.28112 0.0807,0 0.34937,-0.161661 0.59738,-0.359667 0.248,-0.198006 0.75736,-0.576245 1.13172,-0.840259 0.74731,-0.527008 4.398581,-3.4029832 4.786786,-3.7703128 0.133655,-0.1264649 0.601877,-0.5483426 1.040247,-0.9379272 2.843069,-2.5267381 5.448953,-5.2717588 7.987109,-8.4124064 0.497847,-0.6160201 1.004179,-1.2401869 1.124996,-1.3869955 0.209545,-0.2545987 1.631774,-2.2389168 2.488737,-3.4726562 0.749947,-1.0797043 2.345422,-3.6153017 2.831869,-4.5005009 0.265998,-0.484022 0.729698,-1.31218 1.030428,-1.840197 0.670078,-1.176427 1.820497,-3.553441 2.91145,-6.015654 0.662391,-1.494996 2.184617,-5.73538 2.66547,-7.42487 0.524915,-1.844359 0.597176,-2.115043 0.938961,-3.520198 1.500361,-6.168432 2.020698,-10.62854 2.015898,-17.280599 -0.0042,-5.903739 -0.417344,-10.098857 -1.453658,-14.759823 -0.825438,-3.712557 -1.034483,-4.521598 -1.74563,-6.760827 -0.237563,-0.748031 -0.469001,-1.523069 -0.514181,-1.722376 -0.04515,-0.199307 -0.145235,-0.401685 -0.222725,-0.449585 -0.07749,-0.0479 -0.141077,-0.227968 -0.141077,-0.399975 0,-0.172009 -0.06504,-0.437849 -0.144694,-0.590662 -0.07965,-0.152814 -0.409909,-0.961791 -0.733805,-1.797823 -0.746318,-1.92634 -0.900989,-2.269514 -2.3797,-5.280298 -1.104366,-2.248558 -1.521059,-3.03894 -2.656685,-5.040002 -1.458137,-2.569311 -5.212914,-7.795667 -7.299813,-10.160621 -2.761658,-3.129628 -5.652172,-6.033051 -7.5861,-7.620211 -0.308011,-0.25278 -0.704044,-0.59295 -0.88005,-0.75602 -0.176006,-0.16307 -0.572033,-0.48733 -0.88005,-0.72037 -0.308009,-0.23303 -0.66146,-0.51995 -0.785481,-0.63769 -0.124034,-0.11774 -0.591742,-0.48328 -1.039732,-0.81235 -0.448,-0.32908 -1.36731,-1.00663 -2.04277,-1.50585 -0.67547,-0.49923 -1.29194,-0.90796 -1.36994,-0.90796 -0.078,0 -0.28157,-0.12608 -0.45217,-0.28008 -0.32593,-0.29422 -2.09754,-1.48002 -2.21123,-1.48002 -0.0364,0 -0.53227,-0.28314 -1.10226,-0.62942 -0.90515,-0.5499 -1.73631,-1.00607 -4.11655,-2.25877 -1.05417,-0.55481 -4.34582,-2.07171 -4.49533,-2.07171 -0.0821,0 -0.27454,-0.0639 -0.42736,-0.14159 -0.15281,-0.0777 -0.47579,-0.22158 -0.71779,-0.31988 -0.24201,-0.0983 -0.60194,-0.24508 -0.79995,-0.32608 -0.68649,-0.28064 -2.60568,-0.9526 -3.72019,-1.30276 -0.61603,-0.19355 -1.26421,-0.40644 -1.44022,-0.47284 -0.17601,-0.0664 -0.64371,-0.2095 -1.03973,-0.31833 -0.39602,-0.10883 -1.0442,-0.29045 -1.44022,-0.40359 -0.39601,-0.11314 -0.97201,-0.25568 -1.28003,-0.31678 -0.30801,-0.0611 -0.84791,-0.1806 -1.19992,-0.2651 -0.35202,-0.0845 -1.0002,-0.22321 -1.44022,-0.30851 -5.86617,-1.13733 -6.3469,-1.1768 -14.40068,-1.1808 z m -0.76067,2.65462 c 3.89228,0.005 8.20667,0.28227 11.32075,0.78599 0.61603,0.0996 1.48028,0.23851 1.9203,0.30851 1.41449,0.22518 1.89864,0.34005 7.11998,1.69034 0.22001,0.0569 0.54436,0.15939 0.72037,0.22789 0.176,0.0685 0.60762,0.21245 0.95963,0.31988 0.68794,0.20993 2.6759,0.90995 3.20032,1.12706 0.17601,0.0729 0.7881,0.31165 1.36012,0.53072 2.08973,0.80029 6.2368,2.80075 8.24033,3.97495 0.61603,0.36102 1.37199,0.79995 1.68,0.97513 1.46206,0.83153 6.25831,4.15414 6.97787,4.83382 0.0978,0.0923 0.45645,0.38349 0.79685,0.6475 1.969897,1.527832 6.015335,5.379591 8.234638,7.840351 0.989941,1.097632 3.312864,3.971627 4.074169,5.040519 0.344754,0.48402 0.672421,0.916148 0.728121,0.960148 0.129991,0.10268 2.874741,4.356627 3.355351,5.2002 1.519846,2.667714 3.252545,6.140528 4.010608,8.039819 0.07903,0.198008 0.213637,0.522362 0.299207,0.72037 0.293774,0.679721 0.833621,2.120723 1.064017,2.840136 0.126822,0.39602 0.300277,0.845058 0.385506,0.997872 0.08524,0.152814 0.15503,0.41056 0.15503,0.573092 0,0.162532 0.05127,0.347371 0.114205,0.410311 0.06293,0.06293 0.209316,0.452858 0.325561,0.866613 0.116263,0.413751 0.276708,0.967958 0.356568,1.231967 0.596486,1.971797 0.80314,2.853116 1.424719,6.080249 0.823539,4.275758 1.090246,6.603249 1.243852,10.860835 l 0.0801,2.22002 -0.452686,-0.07855 c -0.248853,-0.04319 -1.316424,-0.242182 -2.372465,-0.441834 -1.693698,-0.320197 -2.429647,-0.363386 -6.240445,-0.366386 -2.61447,-0.0021 -4.888371,0.07583 -5.759856,0.197404 -2.036687,0.284141 -5.326153,0.872586 -7.160286,1.280542 -2.363227,0.525653 -3.658524,0.900007 -8.040334,2.32544 -2.44656,0.795883 -3.36823,1.078405 -4.52014,1.384928 -0.28602,0.0761 -0.75424,0.205018 -1.04025,0.286288 -0.28602,0.08127 -1.06029,0.255747 -1.72031,0.38809 -4.95777,0.994102 -8.23997,1.085179 -11.50007,0.318843 -2.84965,-0.66983 -5.39269,-2.25388 -6.905,-4.301029 -1.99284,-2.697622 -2.70641,-5.406445 -2.49598,-9.473324 0.18298,-3.536594 0.45011,-5.873038 1.38597,-12.121224 0.43232,-2.886418 0.51283,-3.449089 0.62941,-4.400248 0.67937,-5.543069 0.81493,-8.665304 0.48938,-11.280448 -0.33995,-2.73079 -0.90728,-4.212655 -1.95595,-5.110283 -0.61914,-0.529946 -0.74133,-0.569991 -1.73271,-0.569991 -1.55016,0 -2.52656,0.602973 -3.62821,2.240174 -0.54877,0.815559 -1.32756,2.45528 -1.32756,2.795178 0,0.124203 -0.0722,0.270655 -0.1602,0.325045 -0.088,0.05439 -0.15968,0.269937 -0.15968,0.479557 0,0.209621 -0.0637,0.420585 -0.14159,0.468705 -0.0779,0.04812 -0.179,0.286598 -0.2248,0.529683 -0.0457,0.243086 -0.20036,0.837866 -0.34313,1.321884 -0.14278,0.484019 -0.33281,1.203887 -0.42271,1.599902 -0.0899,0.396016 -0.23204,0.99032 -0.31574,1.320333 -0.40309,1.589293 -0.46284,1.870728 -1.09296,5.159892 -0.18545,0.968036 -0.40633,2.120547 -0.49093,2.560567 -0.0846,0.440014 -0.23256,1.267661 -0.32866,1.839681 -0.0961,0.572024 -0.24299,1.400183 -0.32659,1.840198 -0.0836,0.44002 -0.3313,1.771981 -0.55036,2.960026 -0.21907,1.188044 -0.47539,2.556103 -0.56999,3.040124 -0.0946,0.484016 -0.24505,1.276084 -0.33435,1.760099 -0.0893,0.484022 -0.22432,1.132212 -0.29972,1.440223 -0.0754,0.308015 -0.26781,1.136168 -0.42788,1.840197 l -0.29094,1.280026 -0.0491,-7.440373 c -0.0269,-4.092158 0.0276,-10.140401 0.12092,-13.440523 0.23756,-8.405365 0.2048,-19.001891 -0.0651,-21.120675 -0.24256,-1.903921 -0.35194,-2.306092 -0.94465,-3.475757 -0.94891,-1.872596 -2.16179,-2.684586 -4.01112,-2.684586 -1.03462,0 -1.20258,0.0485 -1.96732,0.57154 -1.69659,1.16044 -2.81914,3.154028 -3.50676,6.228557 -1.32624,5.929904 -1.75852,13.99896 -2.15698,40.241471 -0.0174,1.144049 -0.0584,1.828332 -0.091,1.520321 -0.0326,-0.308016 -0.1215,-0.704044 -0.1974,-0.88005 -0.11744,-0.272505 -0.49218,-2.404737 -0.98392,-5.600175 -0.11818,-0.767956 -0.34242,-2.139271 -0.62839,-3.840075 -0.074,-0.440014 -0.2073,-1.268174 -0.2961,-1.840198 -0.2102,-1.354097 -0.47344,-2.799219 -0.65629,-3.600297 -0.0804,-0.352012 -0.22783,-1.107975 -0.32763,-1.680001 -0.0998,-0.572018 -0.24281,-1.327988 -0.31781,-1.680001 -0.075,-0.352013 -0.22083,-1.071881 -0.32401,-1.599902 -0.21672,-1.108785 -0.91884,-4.094969 -1.12862,-4.800224 -1.45542,-4.89254 -2.68883,-6.215272 -4.86998,-5.221903 -1.70942,0.778527 -2.90185,3.105566 -3.57808,6.982003 -0.51722,2.96497 -0.33386,12.132921 0.44338,22.160404 0.4008,5.170695 0.49936,6.610528 0.56896,8.320422 0.0744,1.826753 0.0419,1.834006 -0.36484,0.0801 -0.0816,-0.352018 -0.34829,-1.467913 -0.59221,-2.479952 -0.24392,-1.012039 -0.50729,-2.200129 -0.58549,-2.640149 -0.0781,-0.440014 -0.21431,-1.159889 -0.30231,-1.599902 -0.088,-0.440021 -0.2213,-1.124308 -0.2961,-1.520321 -0.1502,-0.794554 -0.3529,-1.745537 -0.73329,-3.4401 -0.1383,-0.61602 -0.29447,-1.355678 -0.34727,-1.643827 -0.0528,-0.288151 -0.15851,-0.562732 -0.23461,-0.609782 -0.0761,-0.04706 -0.13849,-0.211526 -0.13849,-0.36587 0,-0.871253 -1.49456,-2.992358 -2.46032,-3.491776 -0.58637,-0.303205 -1.99916,-0.315675 -2.52077,-0.02222 -0.58954,0.331692 -1.62747,1.476101 -1.95647,2.156974 -0.16376,0.338901 -0.36199,0.741189 -0.44029,0.894003 -0.0783,0.152806 -0.14211,0.418652 -0.14211,0.590661 0,0.172008 -0.0644,0.352906 -0.14314,0.401526 -0.14816,0.09157 -0.20948,0.40825 -0.49558,2.570386 -0.18663,1.410319 -0.0885,8.077764 0.15762,10.720276 0.082,0.880035 0.22566,2.464158 0.31936,3.520198 0.32384,3.65059 1.14917,9.316414 1.84174,12.640572 0.055,0.264015 0.17407,0.840012 0.26407,1.280026 0.40549,1.981722 1.83772,6.727245 2.48719,8.240324 2.10718,4.909196 4.91864,8.982792 8.64908,12.5315344 0.55002,0.5232397 0.99994,1.0380012 0.99994,1.1441162 0,0.106103 -0.62988,0.4860739 -1.39991,0.8443929 -2.91685,1.3572652 -4.5297,1.9396795 -7.32049,2.644283 -2.42523,0.612313 -2.82946,0.6873834 -6.32002,1.170988 -1.26325,0.1750139 -13.45808,0.1978608 -14.60738,0.027388 -0.98202,-0.1456655 -1.12865,-0.2170712 -1.51929,-0.7415568 -0.23779,-0.3192583 -0.47091,-0.6163988 -0.51831,-0.6604248 -0.0474,-0.044002 -0.36951,-0.4761263 -0.71572,-0.9601481 -0.3462,-0.4840158 -0.67167,-0.9161222 -0.72347,-0.9601481 -0.0999,-0.084882 -1.9001,-2.8089621 -2.62361,-3.9703007 -0.44509,-0.71443 -0.72361,-1.195641 -1.63918,-2.829802 -0.56751,-1.012934 -2.93419,-5.792389 -2.93419,-5.925736 0,-0.04295 -0.13538,-0.382969 -0.30127,-0.756026 -0.16592,-0.373051 -0.49699,-1.18232 -0.73587,-1.79834 -0.23891,-0.616026 -0.49958,-1.245557 -0.57878,-1.398364 -0.0792,-0.152819 -0.14418,-0.418136 -0.14418,-0.590145 0,-0.172002 -0.0717,-0.357491 -0.15968,-0.411861 -0.088,-0.05439 -0.1602,-0.239337 -0.1602,-0.411345 0,-0.172009 -0.0656,-0.437836 -0.14624,-0.590661 -0.14028,-0.266059 -0.71439,-2.105379 -0.99839,-3.198255 -0.0743,-0.28601 -0.21287,-0.789817 -0.30747,-1.119828 -0.35995,-1.255136 -1.12577,-5.07136 -1.45314,-7.240385 -0.98092,-6.499132 -0.80243,-16.125616 0.41392,-22.320601 0.13824,-0.70403 0.29123,-1.496085 0.34003,-1.7601 0.10745,-0.581247 0.35756,-1.705077 0.56121,-2.520259 0.53265,-2.132001 1.24564,-4.579078 1.44436,-4.957837 0.0802,-0.152807 0.14572,-0.408835 0.14572,-0.568441 0,-0.1596 0.0576,-0.358234 0.12765,-0.441833 0.07,-0.08361 0.22074,-0.440183 0.33486,-0.7922 0.90599,-2.794754 3.35134,-8.043242 5.36763,-11.520227 0.53317,-0.919439 2.99833,-4.760485 3.13211,-4.880322 0.0491,-0.044 0.44511,-0.583904 0.88005,-1.199927 0.43497,-0.616025 0.87753,-1.228118 0.98392,-1.360124 0.74912,-0.929509 1.90265,-2.33405 1.97145,-2.40037 0.0456,-0.044 0.51481,-0.580786 1.04283,-1.193209 3.0242,-3.507602 7.91124,-7.901765 11.76053,-10.574545 0.74803,-0.51941 1.38405,-1.00047 1.41335,-1.06867 0.0293,-0.0682 0.12445,-0.12402 0.21135,-0.12402 0.0869,0 0.61241,-0.32385 1.16737,-0.71986 0.55497,-0.39602 1.06077,-0.72037 1.12397,-0.72037 0.0632,0 0.3059,-0.13556 0.5395,-0.30127 0.65057,-0.46148 2.84525,-1.67066 4.82503,-2.65875 1.44622,-0.72179 3.49927,-1.68 3.59978,-1.68 0.046,0 0.42476,-0.15112 0.84181,-0.3359 0.41706,-0.18478 0.90247,-0.39087 1.07848,-0.45837 0.17601,-0.0675 0.49985,-0.20027 0.71986,-0.29507 0.54708,-0.23562 3.43637,-1.21864 4.32015,-1.46968 1.39284,-0.39564 1.84389,-0.52673 2.24017,-0.65267 2.14051,-0.68031 6.81456,-1.5465 11.20035,-2.07533 1.68127,-0.20273 3.86477,-0.29756 6.20014,-0.29455 z m -266.24732,2.81068 c -0.52967,0 -0.52968,0.15444 -0.52968,68.678492 0,65.265866 0.023,68.674311 0.46302,68.589611 0.43937,-0.08459 0.46648,-3.595801 0.52968,-68.678495 0.0665,-68.457048 0.0656,-68.589608 -0.46302,-68.589608 z m 260.64456,13.811556 c 0.428,0 1.2588,0.691576 1.58233,1.317233 0.68375,1.321769 0.70086,1.677485 0.68936,13.771252 -0.006,6.353951 -0.0691,14.540551 -0.14004,18.192688 -0.071,3.652143 -0.0659,8.76445 0.0109,11.360547 0.18032,6.096412 0.38975,7.227383 1.44023,7.770585 0.59407,0.30723 1.06627,0.212546 1.73219,-0.347782 0.66516,-0.559701 1.06029,-1.441982 1.82159,-4.062802 0.34315,-1.181271 1.02189,-4.118302 1.38648,-6.00015 0.1023,-0.528018 0.24681,-1.247891 0.32091,-1.599902 0.0741,-0.352012 0.25346,-1.288461 0.39843,-2.080494 0.14498,-0.792031 0.32487,-1.764055 0.39997,-2.160074 0.0751,-0.396013 0.21121,-1.151984 0.30231,-1.680001 0.0911,-0.528023 0.20933,-1.176214 0.26303,-1.440222 0.0537,-0.264009 0.15695,-0.840005 0.22945,-1.280026 0.0725,-0.440013 0.20829,-1.195984 0.30179,-1.68 0.0935,-0.484022 0.28451,-1.492143 0.42478,-2.240174 0.32714,-1.744543 0.5373,-2.798719 0.71727,-3.59978 0.0791,-0.352014 0.21672,-0.964109 0.30592,-1.360124 0.32416,-1.439018 1.04504,-4.07575 1.29036,-4.720125 0.067,-0.176006 0.21374,-0.608134 0.32608,-0.960148 0.6012,-1.88389 1.80328,-3.759977 2.40916,-3.759977 0.3294,0 0.70912,0.70908 0.85679,1.599902 0.32571,1.965129 0.40263,2.859386 0.40463,4.640027 10e-4,2.261741 -0.17577,4.201241 -0.79479,8.720398 -0.0964,0.704029 -0.23929,1.748246 -0.31729,2.320272 -0.078,0.572024 -0.32925,2.263916 -0.55811,3.759977 -0.76906,5.02743 -1.10302,9.203989 -0.96634,12.080399 0.0565,1.188045 0.16674,2.412231 0.24494,2.720248 0.0782,0.308009 0.22877,0.920109 0.33487,1.360123 0.44033,1.82606 1.97015,4.319885 3.73723,6.093169 1.77927,1.785523 3.34319,2.749982 5.7857,3.56774 2.0504,0.686455 3.38177,0.869683 6.3841,0.877983 3.60718,0.01007 5.43574,-0.239593 9.88002,-1.348755 1.35188,-0.337389 2.07688,-0.553381 4.52014,-1.345654 6.71144,-2.176293 8.672674,-2.6686 13.600719,-3.413745 3.20177,-0.484131 5.263277,-0.673594 7.342188,-0.671794 2.601762,0.0013 3.911249,0.167101 8.449613,1.069185 0.520083,0.103363 0.690373,0.666129 0.451135,1.490866 -0.08919,0.307435 -0.162264,1.105602 -0.162264,1.773535 0,0.667931 -0.06727,1.604317 -0.149344,2.08101 -0.08206,0.476692 -0.233419,1.478713 -0.336414,2.226737 -0.326685,2.372347 -1.23137,6.653908 -1.758032,8.320422 -0.06952,0.220008 -0.319356,1.048172 -0.555522,1.840198 -0.23619,0.792031 -0.495039,1.564917 -0.575159,1.717725 -0.08011,0.15282 -0.145727,0.388062 -0.145727,0.522449 0,0.134386 -0.0663,0.369112 -0.147278,0.521932 -0.08096,0.152807 -0.307402,0.710143 -0.503328,1.238167 -0.195926,0.528017 -0.461026,1.211793 -0.589112,1.519804 -0.128086,0.308009 -0.290281,0.704038 -0.360701,0.880049 -1.163631,2.907935 -3.429724,7.188065 -5.609477,10.5952193 -6.177339,9.65571393 -14.939197,17.8486705 -25.031547,23.4068397 -1.44589,0.796301 -5.72314,2.879411 -5.9123,2.879411 -0.0434,0 -0.45903,0.171739 -0.92346,0.381889 -0.80355,0.363581 -1.37044,0.58388 -3.56464,1.383895 -1.35589,0.494368 -1.85904,0.654106 -3.4401,1.091406 -3.65961,1.012214 -4.35853,1.185611 -6.00015,1.488281 -3.1736,0.585124 -4.22643,0.725108 -8.16022,1.086239 -1.93607,0.177736 -4.52834,0.316075 -5.76038,0.307475 -2.94403,-0.02083 -8.00983,-0.508341 -11.36054,-1.092957 -2.79187,-0.487106 -4.64177,-0.913399 -7.68015,-1.769401 -0.26401,-0.07437 -0.66004,-0.183983 -0.88005,-0.243913 -0.4479,-0.122068 -3.42392,-1.139723 -3.92018,-1.340486 -0.17601,-0.0712 -0.49984,-0.204516 -0.71985,-0.296106 -0.22001,-0.09159 -0.70305,-0.279555 -1.07332,-0.417546 -2.78142,-1.036489 -7.79771,-3.635542 -10.89546,-5.64565 -0.99445,-0.64529 -1.87035,-1.173572 -1.94665,-1.173572 -0.0763,0 -0.16242,-0.05534 -0.19172,-0.12299 -0.0293,-0.06765 -0.55755,-0.477164 -1.17357,-0.9105385 -1.43398,-1.00881 -3.7713,-2.8604771 -5.42499,-4.2974121 -1.63968,-1.4247551 -5.69526,-5.4884416 -5.69526,-5.70662844 0,-0.10924089 0.46968,-0.12376112 1.39991,-0.04340821 3.1346,0.27076359 9.69746,0.05949637 13.40073,-0.4314982 2.60649,-0.34557696 6.59392,-1.22738265 7.3179,-1.61798905 0.15283,-0.082451 0.41865,-0.1498617 0.59066,-0.1498617 0.17201,0 0.35695,-0.072194 0.41135,-0.1601969 0.0544,-0.088003 0.23986,-0.1596802 0.41186,-0.1596802 0.17201,0 0.43784,-0.065776 0.59066,-0.1462443 0.1528,-0.080468 0.67353,-0.3039017 1.15755,-0.4966105 1.49519,-0.5952894 1.9446,-0.8001663 3.68195,-1.6789673 l 1.68207,-0.8511109 0.7183,0.5291667 c 0.99693,0.7341273 1.88701,1.2414017 3.83852,2.1884969 1.9051,0.9245805 1.91695,0.9296447 3.44011,1.4583089 2.47903,0.86041674 4.11192,1.22461643 7.03988,1.56941328 2.72901,0.32139304 8.5288,-0.03017633 12.00081,-0.7270874 0.26401,-0.0529941 0.87611,-0.17565066 1.36013,-0.27285158 1.18195,-0.2373694 3.50587,-0.8708818 4.8798,-1.3301514 3.97427,-1.3284973 6.91113,-2.8391757 10.00043,-5.1443888 2.02077,-1.5078777 5.13138,-4.5662643 6.40012,-6.2921223 0.22001,-0.299278 0.67045,-0.888897 1.00046,-1.310514 0.33001,-0.421612 0.59996,-0.827237 0.59996,-0.901237 0,-0.074 0.12926,-0.273818 0.28732,-0.444418 0.70316,-0.758958 3.97641,-6.822702 4.83175,-8.950875 0.0708,-0.176011 0.23758,-0.572038 0.37104,-0.880049 0.6489,-1.497658 1.40247,-3.389051 1.63142,-4.094841 0.14004,-0.431692 0.31866,-0.929353 0.39636,-1.105359 0.30348,-0.687114 1.16828,-3.223062 1.24178,-3.641638 0.0427,-0.243097 0.14121,-0.481543 0.21911,-0.529683 0.17154,-0.106037 0.19049,-1.027945 0.0212,-1.030945 -0.066,-0.0012 -0.87586,0.371589 -1.79989,0.828373 -1.90003,0.939233 -1.9363,0.954851 -3.36,1.430921 -1.82387,0.609875 -3.11217,0.857792 -6.08025,1.171504 -2.19354,0.231848 -4.98924,0.124381 -6.17172,-0.237711 -0.27025,-0.08276 -0.66117,-0.150895 -0.86868,-0.150895 -0.20752,0 -0.59843,-0.0688 -0.86868,-0.152963 -1.88017,-0.585528 -4.22357,-1.344056 -4.49172,-1.454174 -0.54687,-0.224579 -3.15916,-1.126109 -3.99975,-1.380278 -0.44002,-0.133063 -0.92516,-0.307167 -1.07797,-0.387056 -0.15282,-0.07988 -0.38807,-0.145211 -0.52245,-0.145211 -0.13439,0 -0.36911,-0.06371 -0.52193,-0.141077 -0.67371,-0.341151 -3.39092,-1.107064 -5.7981,-1.634525 -5.42477,-1.188667 -9.97327,-1.226585 -14.16037,-0.117823 -0.70037,0.185452 -0.76761,0.209478 -2.40037,0.865581 -3.08889,1.241214 -6.17468,3.517087 -8.11941,5.987748 -0.81828,1.039603 -2.03913,3.282874 -2.39468,4.400248 -1.04578,3.286555 -1.17,5.922029 -0.39584,8.400521 0.0962,0.308009 0.2323,0.627974 0.3023,0.711584 0.0701,0.0836 0.12713,0.24931 0.12713,0.367936 0,0.354715 1.09921,1.985338 1.89601,2.812749 1.26298,1.311454 2.06582,1.542242 2.80241,0.805635 0.736,-0.735977 0.59688,-1.328686 -0.59376,-2.531111 -0.97455,-0.984184 -1.58655,-1.999489 -2.02314,-3.355351 -0.24488,-0.760555 -0.25335,-4.101047 -0.0114,-4.553211 0.0934,-0.174596 0.17001,-0.498219 0.17001,-0.718819 0,-0.2206 0.0722,-0.445341 0.1602,-0.499711 0.088,-0.05439 0.15968,-0.225466 0.15968,-0.379822 0,-0.429987 1.37353,-3.024082 2.03708,-3.847827 1.85169,-2.298761 5.00844,-4.488378 7.80366,-5.412589 2.76315,-0.913604 3.80095,-1.074603 6.9603,-1.072803 2.56521,6.6e-4 3.28646,0.0701 5.92005,0.569474 2.04191,0.387184 6.81007,1.70033 7.5582,2.081527 0.15282,0.07787 0.38755,0.141593 0.52193,0.141593 0.13439,0 0.36963,0.06703 0.52245,0.149345 0.15281,0.08231 0.85401,0.338089 1.55804,0.567924 0.70402,0.229816 1.40473,0.486101 1.55753,0.569991 0.15282,0.08387 0.38806,0.152963 0.52245,0.152963 0.13439,0 0.36911,0.06963 0.52193,0.155029 0.28328,0.158293 3.11917,1.09276 4.27829,1.409733 2.54965,0.697229 4.39541,0.882852 7.76025,0.780831 2.88,-0.08733 4.16272,-0.219692 5.56039,-0.573609 0.37402,-0.09471 0.95001,-0.238697 1.28002,-0.319877 0.33002,-0.08117 0.75888,-0.196662 0.95343,-0.256832 0.32594,-0.100848 0.34361,-0.07332 0.22066,0.347783 -0.14461,0.495281 -1.15549,3.13256 -1.51464,3.951697 -0.60856,1.388023 -0.85538,1.921379 -1.63917,3.54552 -3.17459,6.578268 -6.98765,11.34496 -11.74089,14.6766231 -1.78719,1.2526738 -4.82143,2.8377682 -6.9603,3.6364705 -0.52802,0.1971779 -1.10402,0.41533 -1.28002,0.484725 -0.17601,0.069389 -0.64424,0.2147339 -1.04025,0.3229777 -0.39602,0.1082437 -0.89982,0.2541083 -1.11983,0.3240112 -0.22001,0.069891 -0.94039,0.2482556 -1.60042,0.3963582 -0.66003,0.1481028 -1.45209,0.3294363 -1.76009,0.4030762 -0.30801,0.073646 -1.06398,0.209911 -1.68001,0.3028239 -5.2865,0.7973899 -10.42964,0.751606 -13.92059,-0.1245402 -0.35201,-0.088335 -0.95383,-0.2394939 -1.33739,-0.3358968 -1.69663,-0.4263531 -5.35951,-2.0396138 -6.60735,-2.9098999 -0.23359,-0.1629009 -0.49591,-0.296106 -0.58291,-0.296106 -0.087,0 -0.19768,-0.1030363 -0.24598,-0.2289266 -0.0605,-0.1577363 0.45881,-0.5809272 1.67018,-1.3606404 0.96683,-0.6223091 1.84469,-1.2071791 1.95079,-1.3001791 1.15261,-1.0104238 7.60319,-5.2246998 9.31571,-6.0859338 0.26679,-0.134168 0.54349,-0.01401 1.5999,0.692465 0.70261,0.469858 1.74567,1.041971 2.31769,1.271757 3.55834,1.429363 7.41737,1.485019 7.89926,0.113688 0.1902,-0.541255 0.0262,-1.170563 -0.41134,-1.578198 -0.31019,-0.289001 -0.56019,-0.324528 -2.29134,-0.324528 -2.07403,0 -2.98108,-0.201129 -4.80901,-1.066602 -1.31769,-0.623893 -1.28497,-0.656203 1.61231,-1.610754 3.08728,-1.017144 4.84255,-1.377884 8.02018,-1.647445 3.4542,-0.293019 6.4948,0.05423 11.50059,1.312581 1.44118,0.362271 1.89596,0.345159 2.36265,-0.08733 0.56247,-0.521316 0.59762,-1.34051 0.0775,-1.808675 -0.37775,-0.340026 -0.68613,-0.485402 -1.48001,-0.696598 -0.26401,-0.07024 -0.87611,-0.235494 -1.36012,-0.36742 -4.88513,-1.331538 -11.5193,-1.48218 -16.48065,-0.374137 -0.57203,0.127761 -1.07453,0.199443 -1.11673,0.159163 -0.0422,-0.04026 0.20448,-0.626833 0.54829,-1.303279 0.46775,-0.920323 0.97767,-1.582173 2.02675,-2.629814 0.77108,-0.770025 1.47289,-1.399915 1.55959,-1.399915 0.0867,0 0.37932,-0.186612 0.65009,-0.414445 0.41059,-0.345467 0.49196,-0.529434 0.49196,-1.108976 0,-0.584404 -0.0737,-0.74749 -0.46457,-1.025777 -0.2556,-0.182005 -0.61355,-0.331246 -0.7953,-0.331246 -0.97647,0 -3.71945,2.256562 -5.00331,4.116028 -0.63767,0.923583 -1.57665,2.716101 -1.57665,3.009119 0,0.131937 -0.067,0.364461 -0.14831,0.517281 -0.0813,0.152808 -0.23445,0.620166 -0.34055,1.038179 -0.13359,0.526294 -0.27539,0.760161 -0.46044,0.760161 -0.14696,0 -0.33549,0.05864 -0.41909,0.130741 -0.0836,0.07212 -0.69183,0.337162 -1.35186,0.589111 -1.31365,0.501439 -2.76197,1.235194 -5.48494,2.777608 -0.33267,0.188452 -0.63876,0.342615 -0.68006,0.342615 -0.13715,0 -0.0777,-2.53894 0.0682,-2.913 0.0788,-0.202149 0.23727,-0.691253 0.35243,-1.087272 0.34577,-1.189037 1.19781,-2.631875 2.16989,-3.675228 0.60495,-0.649306 0.75376,-1.107428 0.54157,-1.665532 -0.23207,-0.610377 -0.86127,-0.955243 -1.51825,-0.83199 -0.61078,0.114582 -1.52026,1.032799 -2.39055,2.412772 -1.85003,2.933461 -2.42208,5.58078 -1.98593,9.190137 0.038,0.314463 -0.12366,0.509932 -0.83302,1.008207 -0.48402,0.339977 -1.02392,0.720882 -1.19993,0.845944 -1.25874,0.894421 -2.29764,1.620181 -2.51354,1.755965 -0.13992,0.088 -0.97453,0.639241 -1.85415,1.225248 -2.05341,1.3680019 -2.22008,1.4531304 -2.60915,1.3296345 -0.43383,-0.1376829 -3.35946,-3.0556825 -4.56664,-4.5547605 -0.5315,-0.660028 -1.31987,-1.740349 -1.75183,-2.400371 -0.43195,-0.660028 -0.82107,-1.235995 -0.86507,-1.280025 -0.21498,-0.214982 -1.94483,-3.569712 -2.24895,-4.361491 -0.10953,-0.285144 -0.29872,-0.770476 -0.42013,-1.078487 -0.27328,-0.693336 -0.90129,-2.582743 -1.1436,-3.4401 -0.96332,-3.408387 -1.61167,-6.434339 -2.09135,-9.760644 -0.0888,-0.61602 -0.23739,-1.624153 -0.32969,-2.240174 -0.89493,-5.97092 -1.54448,-17.131723 -1.12707,-19.360575 0.39952,-2.13332 1.05498,-3.799407 1.57303,-3.998206 0.67725,-0.25989 1.64524,2.288453 2.3394,6.158281 0.0553,0.30801 0.16382,0.847915 0.24132,1.199927 0.0775,0.352016 0.22558,1.072396 0.32918,1.600419 0.54315,2.767833 0.65481,3.289754 1.19838,5.600175 0.67676,2.876451 0.9285,3.748662 1.57045,5.439978 0.9408,2.478715 2.47062,3.350209 3.7083,2.112532 0.29014,-0.29014 0.60671,-0.812248 0.70331,-1.160136 0.21923,-0.789068 0.22466,-5.562134 0.009,-8.232572 -0.24898,-3.08726 -0.46682,-5.944683 -0.64028,-8.400521 -0.087,-1.232047 -0.23226,-3.247784 -0.32246,-4.47983 -0.28017,-3.828554 -0.37238,-11.659521 -0.15761,-13.360941 0.37578,-2.976982 1.31904,-5.924866 1.93373,-6.042526 0.13801,-0.02642 0.32316,0.170761 0.44855,0.478524 0.11738,0.288075 0.27099,0.667869 0.34159,0.843876 0.0706,0.176007 0.21822,0.644231 0.32814,1.040247 0.10993,0.396015 0.25991,0.935917 0.33331,1.199927 0.199,0.716466 0.88382,3.704018 1.10019,4.800223 0.10421,0.528021 0.25142,1.247892 0.32712,1.599903 0.0757,0.352017 0.18434,0.928013 0.24184,1.280025 0.17154,1.049751 0.34565,2.001986 0.62787,3.4401 0.1468,0.74803 0.3395,1.828346 0.4284,2.40037 0.15777,1.014755 0.34245,2.140155 0.61702,3.759977 0.0746,0.440015 0.2092,1.268173 0.2992,1.840198 0.17597,1.118559 0.56765,3.48617 0.83354,5.040003 0.15644,0.914251 0.27858,1.646905 0.62012,3.720186 0.81265,4.933041 1.65733,6.285047 3.37344,5.397603 0.54818,-0.283468 0.84514,-0.806993 1.08675,-1.917195 0.47965,-2.203906 0.56178,-4.22853 1.01183,-24.961267 0.30202,-13.91327 0.75171,-19.290063 2.03088,-24.287924 0.40722,-1.59105 1.83649,-3.632853 2.543,-3.632853 z m -514.64507,11.847339 v 1.722376 1.722892 h 1.27485 c 2.09568,0 3.92558,0.68855 5.19038,1.953369 2.20578,2.20576 2.54477,5.300289 1.22319,11.161593 -0.8349,3.702754 -1.57427,6.380023 -4.67207,16.915246 -0.3851,1.309687 -1.04265,3.601643 -1.46141,5.093229 -1.56059,5.558661 -2.32939,8.245968 -3.5388,12.369271 -1.11784,3.811216 -1.9668,6.776948 -3.6742,12.832292 -0.9651,3.422676 -0.69221,3.715338 -3.33674,-3.571875 -0.42246,-1.164169 -1.25401,-3.426355 -1.84795,-5.027083 -1.51183,-4.074736 -2.9727,-8.072744 -4.64055,-12.7 -0.78677,-2.18281 -1.97931,-5.457034 -2.65048,-7.276042 -0.6712,-1.819009 -1.56251,-4.259794 -1.98076,-5.423958 -0.41826,-1.164166 -1.24893,-3.426355 -1.84588,-5.027084 -0.59696,-1.600727 -1.42752,-3.862917 -1.84588,-5.027083 -0.41836,-1.164165 -1.17948,-3.247762 -1.69086,-4.630208 -0.51139,-1.382447 -1.81947,-4.976655 -2.90731,-7.98711 -2.7404,-7.583852 -2.34758,-6.961849 -4.3987,-6.961849 h -1.70739 l -0.45734,1.190625 c -0.25146,0.654844 -1.43,4.226723 -2.61896,7.9375 -1.18896,3.710778 -2.78569,8.651878 -3.54862,10.980209 -0.76292,2.32833 -2.42412,7.448025 -3.69176,11.377083 -1.26763,3.929058 -2.64808,8.155782 -3.06752,9.392708 -0.41942,1.236926 -2.08679,6.356617 -3.7052,11.377084 -4.13223,12.818627 -4.56194,14.059576 -4.78523,13.829646 -0.10879,-0.11202 -0.6277,-1.632357 -1.15342,-3.378605 -0.52572,-1.746248 -1.30294,-4.306103 -1.72703,-5.688541 -0.98808,-3.220897 -2.47143,-8.070174 -3.60184,-11.773959 -1.06869,-3.501555 -1.97641,-6.460305 -3.81528,-12.435416 -0.76133,-2.473853 -1.72498,-5.629012 -2.14147,-7.011459 -0.41648,-1.382445 -1.1841,-3.882762 -1.70532,-5.55625 -1.71076,-5.492744 -3.02259,-10.693156 -3.02359,-11.989966 -0.003,-3.044316 1.92952,-4.452437 6.65128,-4.846215 l 2.07894,-0.173116 v -1.682068 -1.681551 h -15.57838 c -13.14613,0 -15.62642,0.05863 -15.88998,0.376204 -0.17473,0.210577 -0.2766,0.938883 -0.231,1.653646 0.0799,1.253133 0.0992,1.278724 1.00769,1.344104 1.77088,0.127434 4.0935,0.647509 5.02037,1.124479 2.53868,1.306392 3.74882,3.837811 7.14581,14.948442 0.75636,2.473851 1.72162,5.599246 2.14509,6.945312 0.42346,1.346067 1.11616,3.548725 1.53944,4.894792 0.42328,1.346065 1.32556,4.292866 2.00505,6.548437 0.67949,2.255571 1.45256,4.755886 1.71772,5.55625 0.26517,0.800364 1.09873,3.479274 1.8526,5.953125 0.75387,2.473849 1.71008,5.569478 2.12494,6.879167 0.41486,1.309679 1.24892,3.988597 1.85363,5.953125 0.6047,1.964528 1.43513,4.643446 1.84537,5.953125 1.52422,4.866075 2.91998,9.3713504 4.09794,13.2291666 0.66651,2.1828078 1.26377,4.1175793 1.32757,4.2994791 0.075,0.2140298 0.66577,0.3307292 1.67431,0.3307292 h 1.55856 l 0.9338,-2.8442708 c 0.51353,-1.5643485 1.90483,-5.8803691 3.0918,-9.5911461 1.18697,-3.710776 2.44191,-7.580319 2.78898,-8.598958 0.34706,-1.018649 1.59722,-4.888182 2.77812,-8.598958 1.1809,-3.710777 2.43011,-7.580315 2.77554,-8.598959 0.34542,-1.018645 1.5954,-4.888181 2.77813,-8.598958 1.18273,-3.710778 2.43368,-7.580313 2.77967,-8.598958 0.346,-1.018644 1.43007,-4.352399 2.40916,-7.408334 l 1.78025,-5.55625 0.51728,1.190625 c 0.28466,0.654844 0.85624,2.143126 1.26969,3.307292 0.41346,1.164166 1.24015,3.426356 1.8371,5.027083 0.59695,1.600728 1.43038,3.862919 1.85208,5.027084 0.4217,1.164165 1.25514,3.426355 1.85209,5.027083 0.59695,1.600727 1.42879,3.862917 1.84898,5.027083 0.42015,1.164165 1.25734,3.426356 1.86035,5.027084 0.60304,1.600727 1.38176,3.72661 1.73013,4.724259 0.34841,0.997649 0.99032,2.724049 1.42678,3.836458 0.43648,1.112399 1.75772,4.641992 2.93626,7.843449 1.17856,3.201457 2.56036,6.951927 3.07061,8.334375 1.70542,4.620666 2.72367,7.3897972 3.67265,9.9890546 1.63435,4.47653551 1.30533,4.0337953 2.9993,4.0317953 l 1.48931,-0.00207 0.6289,-2.1807454 c 0.3461,-1.1994388 1.02234,-3.5499655 1.50224,-5.2234538 0.4799,-1.6734887 1.34889,-4.6500557 1.93115,-6.6145837 0.58226,-1.964528 1.4928,-5.060158 2.02313,-6.879166 0.53033,-1.819009 1.37233,-4.706278 1.8712,-6.416146 0.49884,-1.709869 1.315,-4.50784 1.81384,-6.217709 0.49887,-1.709868 1.33232,-4.567371 1.85209,-6.35 0.51981,-1.782628 1.37239,-4.699663 1.89497,-6.482291 0.52258,-1.782629 1.18175,-4.074585 1.46451,-5.093229 0.28276,-1.018645 0.85702,-2.983179 1.27641,-4.365625 0.41939,-1.382447 1.1974,-4.001825 1.72858,-5.820834 3.2595,-11.162135 5.5731,-16.733235 7.75456,-18.673279 1.11358,-0.990348 3.21789,-1.934372 4.8178,-2.161625 l 1.4552,-0.206705 v -1.583883 -1.583883 l -11.44323,-0.06925 z m 101.6,0.270268 v 1.547709 1.548226 l 4.16718,0.155029 c 4.52906,0.168529 6.48908,0.585692 7.39387,1.573031 0.96846,1.056833 1.67683,2.806127 1.93218,4.771802 0.35902,2.763482 0.34033,57.743876 -0.0207,60.992142 -0.41624,3.745107 -1.39272,5.93494 -3.54397,7.9473189 -2.07073,1.937078 -4.29607,3.0746016 -6.81096,3.4814412 -3.43391,0.5555095 -3.11763,0.3402202 -3.11763,2.1259685 v 1.5823323 h 15.47812 15.47813 v -1.5823323 c 0,-1.4332786 -0.0561,-1.5927859 -0.59532,-1.6887859 -5.77111,-1.0272389 -7.19078,-1.6117041 -9.5343,-3.9253418 -1.69145,-1.6699089 -2.63777,-3.4543979 -3.12849,-5.9004149 -0.3794,-1.890848 -0.66695,-62.604619 -0.29456,-62.1745 0.12473,0.144047 0.59242,1.095438 1.03922,2.114083 0.4468,1.018645 1.29007,2.923648 1.8743,4.233334 1.8724,4.197485 5.366,12.062943 6.99234,15.742708 0.86828,1.964529 2.033,4.583907 2.58847,5.820833 2.091,4.656406 4.50549,10.073232 6.48643,14.552084 1.12633,2.546607 2.81963,6.356618 3.76256,8.466666 0.94289,2.110058 2.19018,4.90802 2.77192,6.217709 0.58171,1.309688 1.75395,3.929065 2.60501,5.820833 0.85106,1.891778 2.41838,5.4041206 3.48299,7.8052082 l 1.9358,4.365625 1.58234,0.068213 1.58233,0.068213 0.78083,-1.7880045 c 0.42958,-0.983459 1.10083,-2.5023755 1.49138,-3.3755046 0.39057,-0.8731191 1.60315,-3.6115691 2.69493,-6.0854171 2.94345,-6.669533 5.95315,-13.49588 6.94066,-15.742708 0.47966,-1.091409 2.97939,-6.746876 5.55521,-12.567708 2.57585,-5.820828 5.10064,-11.535836 5.61051,-12.7 1.86626,-4.26109 4.4765,-10.163303 5.38262,-12.170834 0.26273,-0.582083 1.02807,-2.308491 1.70067,-3.836458 0.67259,-1.527967 1.65579,-3.753812 2.18437,-4.946468 0.52859,-1.192656 1.05834,-2.108478 1.17718,-2.035018 0.29792,0.184155 0.25684,51.133539 -0.0475,58.972111 -0.25789,6.640983 -0.59609,8.791914 -1.60455,10.2081625 -1.32535,1.8612682 -3.31905,2.5071624 -8.58294,2.7801921 l -3.57187,0.1855184 v 1.5487427 1.5492594 h 20.6375 20.6375 v -1.5875 -1.5875 l -1.91927,-5.168e-4 c -2.98465,-3.4e-4 -7.56091,-0.5023626 -8.62634,-0.9467122 -2.64446,-1.1029289 -3.70953,-3.2638814 -4.02611,-8.1679771 -0.28188,-4.378896 -0.28257,-57.720514 0,-61.793127 0.26165,-3.771376 0.62802,-5.007291 1.92184,-6.477124 1.3127,-1.491312 2.40278,-1.74628 8.2181,-1.92288 l 4.43178,-0.134359 v -1.553911 -1.553393 h -13.29532 l -13.29531,5.17e-4 -0.85059,1.917712 c -0.46786,1.054867 -1.81896,4.120888 -3.0024,6.813021 -1.18348,2.692132 -2.36386,5.371042 -2.6231,5.953125 -0.68585,1.539947 -4.41329,9.985195 -5.43016,12.303125 -0.47879,1.091405 -1.78849,4.067972 -2.91042,6.614583 -1.12193,2.546613 -2.43073,5.523179 -2.90835,6.614584 -0.47762,1.091405 -1.29894,2.966641 -1.82469,4.167187 -0.52576,1.200546 -1.38524,3.165079 -1.90996,4.365625 -0.96303,2.203398 -2.57521,5.833262 -3.67265,8.268229 -0.79332,1.760168 -2.10745,4.745107 -4.1062,9.326563 -0.90467,2.073668 -1.69755,3.770312 -1.76165,3.770312 -0.13803,0 -0.92162,-1.697246 -3.6649,-7.9375 -2.9829,-6.785353 -3.72628,-8.466117 -5.56038,-12.567708 -0.91101,-2.037289 -2.57368,-5.787764 -3.69435,-8.334375 -1.12064,-2.546613 -2.489,-5.642241 -3.04116,-6.879167 -4.79284,-10.737024 -5.33676,-11.962301 -7.30704,-16.470312 -0.52473,-1.200546 -1.40495,-3.194845 -1.95647,-4.431771 -0.55152,-1.236926 -1.50241,-3.380054 -2.11305,-4.7625 -1.29304,-2.927366 -1.47508,-3.331978 -2.882,-6.416146 l -1.05575,-2.315104 h -13.11393 z m 288.39583,12.436967 c -11.20602,0 -21.44023,4.516293 -27.59625,12.178068 -3.51187,4.370841 -5.43724,8.49025 -6.64455,14.216703 -0.5765,2.7344 -0.6842,3.92991 -0.6842,7.593335 0,6.381269 0.88413,10.559181 3.30626,15.623336 3.15496,6.596423 8.08543,11.611866 14.68541,14.938623 3.55967,1.7942786 7.66738,3.0004385 12.03854,3.5346679 0.43656,0.05339 2.52016,0.1139756 4.63021,0.1348755 7.92622,0.07868 13.64076,-1.5211236 19.53265,-5.4684004 2.43874,-1.633838 5.60276,-4.410523 5.60276,-4.917012 0,-0.27812 -4.08049,-4.271843 -9.21701,-9.020638 l -1.4118,-1.30483 -1.10174,1.212846 c -3.18835,3.510386 -7.37753,5.254741 -12.60078,5.247741 -3.40511,-0.0048 -5.53911,-0.478774 -8.41706,-1.869653 -3.94167,-1.904958 -6.98197,-5.356378 -8.7328,-9.914123 -1.16083,-3.021857 -1.46861,-5.163771 -1.32446,-9.215975 0.1057,-2.97168 0.23686,-3.796849 0.91364,-5.744353 1.16654,-3.356947 2.56431,-5.672457 4.69635,-7.779886 2.22456,-2.198908 4.0879,-3.344997 7.2285,-4.445207 2.0805,-0.728829 2.64362,-0.812955 5.4932,-0.821655 4.99393,-0.01528 9.06658,1.424718 11.92641,4.216796 0.81505,0.795753 1.56173,1.446941 1.65933,1.446941 0.0976,0 2.49555,-2.320155 5.32836,-5.155758 l 5.15007,-5.155758 -1.3162,-1.346171 c -1.56888,-1.604513 -4.83761,-3.788601 -7.40213,-4.945951 -2.57426,-1.161742 -7.74224,-2.601484 -10.58334,-2.948141 -1.30968,-0.159799 -3.6314,-0.290421 -5.15937,-0.290421 z m -341.64426,0.275952 c -1.52603,0.0075 -2.13892,0.179426 -3.97754,0.789099 -5.69713,1.889139 -10.87761,6.781305 -12.73927,12.030274 -1.06408,3.000075 -0.75131,8.813627 0.64389,11.967745 0.69823,1.578452 0.66959,1.881637 -0.19793,2.073775 -4.75749,1.053676 -7.28409,2.280573 -9.74307,4.73046 -3.22858,3.216661 -4.66837,7.043128 -4.68447,12.448853 -0.02,6.754323 2.25592,11.923028 7.40162,16.808793 5.50806,5.2298252 12.21081,8.0980422 20.58582,8.8092815 7.36141,0.6251593 16.24811,-0.611307 21.5992,-3.0049846 7.37853,-3.3006069 13.53176,-9.7675149 15.61868,-16.4150189 0.87377,-2.783207 0.88876,-7.980603 0.031,-10.70684 -0.78105,-2.482481 -2.36223,-4.872761 -4.747,-7.174756 l -1.96163,-1.893424 2.3244,-0.15968 c 2.97821,-0.20466 7.65357,-1.080333 9.89242,-1.8526 4.31345,-1.487868 8.09134,-5.290613 9.93376,-9.998873 0.69791,-1.783439 0.75593,-2.197622 0.75293,-5.50044 -0.002,-3.568428 -0.003,-3.574097 -0.97927,-5.632214 -1.28239,-2.702248 -3.61206,-5.161591 -6.00739,-6.341732 -1.7143,-0.84462 -1.80312,-0.858345 -5.44669,-0.858345 h -3.70417 l -1.98437,0.961181 c -4.8538,2.351119 -6.93821,6.679093 -5.01572,10.414868 0.80642,1.567038 1.83877,2.233215 3.76876,2.43241 2.84483,0.293613 5.19813,-1.545759 5.42138,-4.237984 0.10062,-1.213542 -0.0136,-1.613393 -0.99167,-3.470589 -0.93773,-1.780542 -1.06229,-2.193482 -0.82062,-2.723865 0.58509,-1.284143 3.61605,-1.797052 6.13761,-1.03818 2.5556,0.769125 4.98132,3.339896 5.55004,5.881295 0.50019,2.235024 0.20407,6.063379 -0.60461,7.819678 -1.95934,4.255385 -6.62192,6.856152 -13.89941,7.753015 -1.7149,0.211341 -5.49889,0.446626 -8.40931,0.522965 -5.06472,0.132845 -9.33688,0.668901 -12.03854,1.509986 -4.86774,1.515436 -8.61635,5.031563 -10.50375,9.852628 -0.64501,1.647708 -0.74104,2.254967 -0.74104,4.677234 0,2.605878 0.055,2.894868 0.8599,4.529956 1.65808,3.368047 4.63867,5.300821 8.44134,5.473051 1.89415,0.08579 2.35084,0.01108 3.73776,-0.611332 2.98349,-1.338899 4.29121,-3.394815 4.29121,-6.745841 0,-1.410809 -0.1234,-1.960159 -0.59531,-2.651518 -1.25148,-1.833418 -4.0103,-2.432143 -5.78208,-1.254704 -1.39327,0.925899 -2.08928,2.568127 -2.08928,4.927865 0,2.318207 -0.37593,2.941422 -1.77405,2.941422 -1.21986,0 -2.22324,-0.5665 -3.36258,-1.897558 -1.17379,-1.371319 -1.5623,-2.722736 -1.42938,-4.975924 0.19479,-3.30168 2.39192,-6.158062 6.30091,-8.191748 2.54352,-1.323283 4.86988,-1.858801 8.07031,-1.858801 4.57046,0 8.34888,1.375275 11.04274,4.019909 5.51049,5.409826 5.16724,13.948307 -0.80357,19.990511 -7.59383,7.684603 -21.22269,10.7808458 -32.80317,7.452259 -5.09986,-1.465849 -8.91414,-3.828474 -12.95114,-8.02225 -4.07136,-4.229435 -6.03784,-8.185664 -6.3469,-12.768729 -0.24583,-3.645215 1.10953,-6.968403 3.8132,-9.348267 1.25442,-1.104174 3.57292,-2.130924 4.78731,-2.120284 1.06993,0.0094 3.54785,1.109936 4.85603,2.156974 2.90253,2.323119 4.66515,2.699781 6.06836,1.296562 0.64617,-0.646149 0.7736,-0.98856 0.7736,-2.08101 0,-2.428237 -1.37633,-3.392648 -5.37487,-3.767729 -1.88436,-0.17676 -2.48474,-0.340088 -2.98689,-0.811836 -1.55717,-1.462907 -2.32655,-6.013525 -1.59681,-9.447486 1.21431,-5.714102 6.90761,-11.009649 12.89999,-11.999267 3.87692,-0.64026 7.47399,0.734617 9.16327,3.503145 0.74626,1.223036 0.85989,1.645635 0.85989,3.197221 0,1.163957 -0.18464,2.256537 -0.52916,3.130558 -0.62576,1.587581 -0.68531,2.867223 -0.14315,3.075265 0.64498,0.247506 2.11754,-0.390031 2.99103,-1.294495 0.45411,-0.470201 1.21726,-1.688166 1.69602,-2.706811 0.75835,-1.613598 0.87169,-2.124641 0.86869,-3.96875 -0.002,-1.901126 -0.0939,-2.286807 -0.90228,-3.788916 -1.12756,-2.095221 -2.75589,-3.560814 -5.30406,-4.773352 -1.88838,-0.898588 -2.1452,-0.949278 -5.30149,-1.044898 -0.79084,-0.02396 -1.40077,-0.03969 -1.90944,-0.03721 z m 242.16093,1.574581 v 32.279167 32.2791662 h 7.8052 7.80521 V -40.57567 -72.854837 h -7.80521 z m 33.86666,0 v 32.279167 32.2791662 h 7.80521 7.80521 V -40.57567 -72.854837 h -7.80521 z" /></g></svg>
