<?xml version="1.0" encoding="UTF-8" standalone="no"?>
<!-- Created with Inkscape (http://www.inkscape.org/) -->

<svg
   version="1.1"
   id="svg1129"
   width="852.15686"
   height="161.45303"
   viewBox="0 0 852.15686 161.45303"
   sodipodi:docname="jftaylor.svg"
   inkscape:version="1.2.2 (732a01da63, 2022-12-09)"
   xmlns:inkscape="http://www.inkscape.org/namespaces/inkscape"
   xmlns:sodipodi="http://sodipodi.sourceforge.net/DTD/sodipodi-0.dtd"
   xmlns="http://www.w3.org/2000/svg"
   xmlns:svg="http://www.w3.org/2000/svg">
  <defs
     id="defs1133" />
  <sodipodi:namedview
     id="namedview1131"
     pagecolor="#ffffff"
     bordercolor="#000000"
     borderopacity="0.25"
     inkscape:showpageshadow="2"
     inkscape:pageopacity="0.0"
     inkscape:pagecheckerboard="0"
     inkscape:deskcolor="#d1d1d1"
     showgrid="false"
     inkscape:zoom="0.31250412"
     inkscape:cx="265.5965"
     inkscape:cy="-71.999051"
     inkscape:window-width="1128"
     inkscape:window-height="682"
     inkscape:window-x="-6"
     inkscape:window-y="-6"
     inkscape:window-maximized="1"
     inkscape:current-layer="g1135" />
  <g
     inkscape:groupmode="layer"
     inkscape:label="Image"
     id="g1135"
     transform="translate(-9.5004763,-213.2435)">
    <path
       style="fill:#000000"
       d="m 71.919721,357.07893 c -9.74552,-9.79773 -17.71913,-18.22699 -17.71913,-18.7317 0,-0.50471 2.47934,-3.3662 5.50965,-6.35887 l 5.50965,-5.44121 12.49035,12.46037 12.49035,12.46036 12.490349,-12.46036 12.49035,-12.46037 5.50965,5.44121 c 3.03031,2.99267 5.50965,5.72887 5.50965,6.08045 0,0.45371 -33.957089,34.69767 -36.319789,36.62662 -0.13308,0.10865 -8.21557,-7.81878 -17.96108,-17.6165 z m 126.780869,-8.73227 c -5.77881,-0.85569 -13.24957,-3.34209 -14.47372,-4.81711 -0.99788,-1.20236 -0.7954,-2.55004 1.05319,-7.01009 1.25871,-3.03687 2.55562,-5.52157 2.88204,-5.52157 0.32641,0 1.67712,0.75902 3.00158,1.6867 3.26957,2.2901 10.73032,3.36877 15.25986,2.20627 2.43668,-0.62537 4.68242,-2.21292 6.5,-4.59496 l 2.77705,-3.63948 0.29973,-42.82926 0.29974,-42.82927 h 6.99904 6.99903 l -0.34801,43.75 c -0.36481,45.86264 -0.5317,47.66319 -5.0375,54.34935 -4.19521,6.22527 -16.74007,10.65196 -26.21203,9.24942 z m 425.4506,-0.37589 c -21.77565,-3.33866 -39.47066,-19.79331 -43.84552,-40.7721 -1.41284,-6.77504 -1.41995,-20.57294 -0.0141,-27.40156 3.80915,-18.50221 19.0406,-34.47284 37.45057,-39.26803 7.36823,-1.91918 22.26165,-1.95907 29.32703,-0.0786 28.26136,7.52204 44.22205,35.85868 37.65478,66.85236 -5.66636,26.74189 -32.75986,44.93218 -60.57276,40.66789 z m 22.44229,-22.37668 c 6.49652,-3.17845 10.96459,-7.97778 14.47722,-15.55057 2.25332,-4.85788 2.57005,-6.84781 2.55387,-16.04563 -0.0232,-13.18904 -2.41358,-20.08484 -9.37561,-27.04687 -11.94705,-11.94704 -33.6176,-11.20183 -44.83499,1.5418 -10.13556,11.5146 -11.03846,35.86815 -1.77984,48.00683 9.0373,11.8485 25.48344,15.6876 38.95935,9.09444 z m -402.39289,-31.5962 v -53 h 24.5 24.5 v 5.5 5.5 h -17.5 -17.5 v 17 17 h 13.5 13.5 v 6 6 h -13.5 -13.5 v 24.5 24.5 h -7 -7 z m 86,8.94962 v -44.05037 l -12.75,0.16641 -12.75,0.1664 -0.28621,-9.61603 -0.28621,-9.61603 h 36.53621 36.53621 l -6.4e-4,9.75 -6.4e-4,9.75 h -12.74936 -12.74936 l -0.26051,43.75 -0.26051,43.75 h -10.48949 -10.48949 z m 28.76296,40.30038 c 0.95184,-2.0625 12.36241,-26.025 25.35683,-53.25 21.84013,-45.75789 23.82724,-49.52415 26.28521,-49.81951 2.89642,-0.34804 0.96599,-3.91483 25.06916,46.31951 3.43068,7.15 11.25245,23.4443 17.38172,36.20956 6.12926,12.76526 11.14412,23.45276 11.14412,23.75 0,0.29724 -5.32793,0.54044 -11.83985,0.54044 h -11.83986 l -4.32029,-10 -4.32029,-10 h -21.22947 -21.22947 l -4.26998,10 -4.26997,10 h -11.82423 -11.82423 z m 64.23704,-35.52757 c 0,-0.5517 -11.78975,-26.84551 -12.2382,-27.29396 -0.35909,-0.35909 -10.15786,20.28725 -12.49222,26.32153 -0.37117,0.95947 2.44661,1.25 12.12343,1.25 6.93385,0 12.60699,-0.12491 12.60699,-0.27757 z m 47.99535,15.02757 -0.005,-24.25 -18.49535,-28.49032 c -10.17244,-15.66968 -18.49535,-28.83218 -18.49535,-29.25 0,-0.41782 5.5125,-0.75402 12.25,-0.74709 l 12.25,0.0126 8.9177,14.73741 c 4.90473,8.10557 9.85473,16.4212 11,18.47916 1.14526,2.05796 2.3073,3.7396 2.5823,3.73697 0.275,-0.003 5.59491,-8.32392 11.82202,-18.49175 l 11.32202,-18.48697 h 12.50954 12.50954 l -2.26729,3.75 c -1.24701,2.0625 -3.91837,6.225 -5.93635,9.25 -2.01798,3.025 -9.3594,14.39817 -16.31427,25.27371 l -12.64521,19.77371 v 24.47629 24.47629 h -10.5 -10.5 l -0.005,-24.25 z m 61.00465,-29.25 v -53.5 h 11 11 v 44 44 h 14.5 14.5 v 9.5 9.5 h -25.5 -25.5 z m 161.24124,0.25 0.25876,-53.25 18,0.0148 c 19.70227,0.0162 25.32278,0.92155 34.63449,5.57912 11.44434,5.72428 16.47265,15.46227 15.65329,30.31475 -0.56489,10.23978 -3.56441,16.44973 -11.25742,23.3064 l -5.55602,4.952 12.01283,20.72823 c 6.60706,11.40052 12.01283,20.93929 12.01283,21.19725 0,0.25797 -5.44964,0.34269 -12.11031,0.18826 l -12.11031,-0.28078 -10.04452,-18.75 -10.04451,-18.75 h -5.34517 -5.34518 v 19 19 h -10.50876 -10.50877 z m 40.9377,-5.4225 c 4.78372,-2.79384 7.28773,-7.73774 7.28773,-14.38882 0,-10.30876 -4.73731,-14.04039 -18.71667,-14.74333 l -8.75,-0.43999 v 16.26328 16.26327 l 8.46433,-0.52807 c 5.72555,-0.3572 9.51601,-1.14228 11.71461,-2.42634 z m 47.82106,39.6725 v -19 h 3 3 v 19 19 h -3 -3 z m 14,-0.0833 c 0,-10.49584 0.381,-18.93334 0.84667,-18.75 0.46567,0.18333 5.47727,5.50833 11.13688,11.83333 5.65962,6.325 10.50639,11.38672 10.7706,11.24826 0.2642,-0.13845 0.40381,-5.42595 0.31023,-11.75 l -0.17015,-11.49829 h 3.05288 3.05289 l -0.0373,19.25 -0.0373,19.25 -7.21273,-7.98906 c -3.96699,-4.39398 -9.11479,-10.01898 -11.43954,-12.5 l -4.22677,-4.51094 -0.0232,12.25 -0.0232,12.25 h -3 -3 v -19.08333 z m 47.00051,17.95988 c -13.24227,-5.28041 -14.87342,-26.77346 -2.63079,-34.66495 3.39366,-2.18753 5.28952,-2.66189 10.63028,-2.65981 3.575,10e-4 7.5125,0.56864 8.75,1.26056 2.14225,1.19777 2.17211,1.3769 0.62353,3.74032 -1.06539,1.626 -2.01404,2.17114 -2.75,1.58029 -5.12077,-4.11114 -15.36256,-0.74169 -18.03313,5.93272 -2.73551,6.83671 -1.46158,14.12339 3.19397,18.26907 2.64881,2.35871 9.1659,3.22684 13.3291,1.77554 3.29342,-1.14809 4.83124,-0.36542 4.87122,2.47919 0.0418,2.97675 -12.31404,4.54806 -17.98418,2.28707 z M 68.941561,314.23906 48.200386,293.48024 l 20.849785,-20.83205 20.84978,-20.83205 20.650319,20.63991 c 11.35768,11.35195 20.65032,20.95946 20.65032,21.35002 0,0.79233 -40.228879,41.19182 -41.017859,41.19182 -0.275,0 -9.83353,-9.34147 -21.24117,-20.75883 z M 26.760759,312.01489 C 16.893851,302.13102 9.1327817,293.6963 9.5139367,293.27106 c 0.381156,-0.42525 8.6714073,-8.75535 18.4227803,-18.51135 l 17.729769,-17.73818 5.775788,5.71552 5.775787,5.71552 -12.509285,12.53712 -12.509287,12.53711 12.493584,12.46359 12.493588,12.46359 -5.711734,5.77195 c -3.141451,3.17458 -5.950816,5.76918 -6.243033,5.76579 -0.292216,-0.003 -8.604227,-8.09297 -18.471135,-17.97683 z m 102.154101,12.19953 -5.70034,-5.76044 12.49359,-12.46359 12.49358,-12.46359 -12.50928,-12.53711 -12.50929,-12.53712 5.77825,-5.71795 5.77825,-5.71796 18.35213,18.37227 18.35214,18.37228 -15.37165,15.3747 c -8.45441,8.45608 -16.74086,16.60416 -18.41435,18.10682 l -3.0427,2.73213 z m -69.780529,-69.76105 -5.544512,-5.54451 17.844122,-17.70549 c 9.81427,-9.73801 18.16772,-17.81915 18.56321,-17.95808 0.39549,-0.13894 8.81077,7.84846 18.700609,17.74977 l 17.98154,18.00238 -5.73728,5.73728 -5.73729,5.73729 -12.50207,-12.47205 -12.502069,-12.47206 -12.26444,12.235 c -6.74544,6.72924 -12.48783,12.23499 -12.76087,12.23499 -0.27304,0 -2.99146,-2.49503 -6.04095,-5.54452 z"
       id="path1256" />
  </g>
</svg>
