<?xml version="1.0" encoding="UTF-8" standalone="no"?>
<!-- Created with Inkscape (http://www.inkscape.org/) -->

<svg
   version="1.1"
   id="svg474"
   width="2651.1152"
   height="1294.0529"
   viewBox="0 0 2651.1152 1294.0529"
   sodipodi:docname="libraries.svg"
   inkscape:version="1.2.2 (732a01da63, 2022-12-09)"
   xmlns:inkscape="http://www.inkscape.org/namespaces/inkscape"
   xmlns:sodipodi="http://sodipodi.sourceforge.net/DTD/sodipodi-0.dtd"
   xmlns="http://www.w3.org/2000/svg"
   xmlns:svg="http://www.w3.org/2000/svg">
  <defs
     id="defs478" />
  <sodipodi:namedview
     id="namedview476"
     pagecolor="#000000"
     bordercolor="#000000"
     borderopacity="0.25"
     inkscape:showpageshadow="2"
     inkscape:pageopacity="0"
     inkscape:pagecheckerboard="0"
     inkscape:deskcolor="#d1d1d1"
     showgrid="false"
     inkscape:zoom="0.16411683"
     inkscape:cx="1218.6441"
     inkscape:cy="161.47034"
     inkscape:window-width="1128"
     inkscape:window-height="682"
     inkscape:window-x="-6"
     inkscape:window-y="-6"
     inkscape:window-maximized="1"
     inkscape:current-layer="g480" />
  <g
     inkscape:groupmode="layer"
     inkscape:label="Image"
     id="g480"
     transform="translate(-314.86805,-563.27243)">
    <path
       style="fill:#fefefe"
       d="m 2121.983,1856.752 c -15.5815,-1.9545 -31.3641,-8.3117 -40.3514,-16.2534 l -4.8224,-4.2613 11.1739,-11.75 c 6.1456,-6.4625 11.6426,-11.75 12.2156,-11.75 0.5731,0 2.7279,1.5232 4.7885,3.3848 11.864,10.7185 27.9713,14.2395 39.1203,8.5517 4.6419,-2.3682 6.8755,-6.3483 6.8755,-12.252 0,-8.2475 -5.4213,-12.2788 -25.6497,-19.0732 -22.1914,-7.4537 -30.5357,-12.8533 -36.1548,-23.3958 -5.845,-10.9663 -6.1359,-27.1131 -0.7023,-38.9816 3.1426,-6.8643 12.3508,-15.954 19.7999,-19.545 19.1769,-9.2448 46.0888,-9.0475 65.0729,0.4769 7.0317,3.5278 15.8628,9.7155 15.4281,10.81 -0.1617,0.4073 -5.3348,6.0358 -11.4957,12.5077 l -11.2017,11.7671 -3.2917,-3.2917 c -1.8104,-1.8104 -6.2197,-4.6653 -9.7983,-6.3441 -5.385,-2.5261 -7.7135,-3.0422 -13.5067,-2.9933 -7.9238,0.067 -11.8819,1.6668 -15.8809,6.4193 -2.9826,3.5446 -3.4428,8.4657 -1.1977,12.8071 1.6896,3.2675 8.4417,7.06 18.0786,10.1544 27.9909,8.988 40.1984,17.3885 44.9855,30.9566 5.5064,15.6069 0.7905,36.0501 -10.9709,47.5586 -11.4008,11.1556 -32.5685,16.9992 -52.5146,14.4972 z m -1031,-76.0147 v -73 h 18 18 v 57 57 h 28 28 v 16 16 h -46 -46 z m 117,0 v -73 h 18.5 18.5 v 73 73 h -18.5 -18.5 z m 76,0 v -73 l 30.75,0.01 c 43.7827,0.01 54.6575,2.029 65.8045,12.2167 6.6523,6.0798 9.0292,10.4103 10.3903,18.9304 2.55,15.9627 -3.7118,29.0948 -17.14,35.9454 l -4.1396,2.1118 5.1496,1.8135 c 6.2246,2.1921 9.6752,4.5613 14.6286,10.0441 15.1068,16.7214 8.5937,46.7561 -12.4434,57.3816 -12.632,6.3802 -22.1682,7.5494 -61.5724,7.5494 h -31.4276 v -73 z m 65.3444,41.9919 c 8.431,-2.4958 13.4534,-10.5207 11.6338,-18.5886 -1.9529,-8.6589 -8.8504,-11.4033 -28.6597,-11.4033 h -13.3185 v 16.1418 16.1418 l 13.25,-0.5768 c 7.2875,-0.3173 14.98,-1.089 17.0944,-1.7149 z m -5.3721,-58.0794 c 13.8536,-2.971 17.5801,-18.4591 5.9874,-24.8843 -3.9725,-2.2017 -5.9072,-2.5148 -17.7097,-2.8658 l -13.25,-0.3941 v 14.6159 14.6158 h 9.9508 c 5.4729,0 12.2326,-0.4894 15.0215,-1.0875 z m 86.0277,15.9903 v -73.0971 l 34.75,0.4398 c 31.5388,0.3991 35.4721,0.6369 42.564,2.5726 15.478,4.2247 25.2354,11.5874 30.4495,22.9764 2.0729,4.5278 2.6731,7.6436 3.0335,15.7458 0.5262,11.8313 -0.9758,18.3673 -5.9445,25.8687 -3.7181,5.6133 -13.2561,13.0324 -18.9461,14.7372 -2.1485,0.6437 -3.9064,1.3457 -3.9064,1.56 0,0.2143 8.1541,13.7472 18.1202,30.0731 9.9661,16.3259 18.3392,30.2544 18.607,30.9521 0.3837,0.9999 -3.9486,1.2686 -20.4551,1.2686 h -20.9418 l -15.7788,-29 -15.7789,-29 h -5.3863 -5.3863 v 29 29 h -17.5 -17.5 z m 66.0921,-13.5806 c 6.321,-2.8494 9.2958,-7.2781 9.3585,-13.9324 0.057,-6.0153 -2.0836,-9.667 -7.5551,-12.8898 -2.8909,-1.7028 -5.5875,-2.0508 -18.1455,-2.3417 l -14.75,-0.3417 v 16.2075 16.2076 l 13.25,-0.4197 c 10.6241,-0.3365 14.1601,-0.8299 17.8421,-2.4898 z m 62.2446,83.4278 c 0.75,-1.7875 14.5481,-34.6476 30.6625,-73.0225 l 29.299,-69.7724 17.4155,0.2724 17.4156,0.2725 29.9252,72 c 16.4589,39.6 29.9298,72.3375 29.9354,72.75 0.01,0.4125 -8.9208,0.75 -19.8364,0.75 h -19.8466 l -5.5913,-14.25 -5.5912,-14.25 -27.4455,-0.2656 -27.4455,-0.2656 -5.3667,14.5061 -5.3667,14.5062 -19.7634,0.01 -19.7634,0.01 1.3635,-3.25 z m 89.6335,-65.75 c -2.1836,-6.05 -5.7749,-16.0007 -7.9807,-22.1126 -2.2058,-6.1119 -4.2953,-11.5731 -4.6432,-12.1361 -0.4972,-0.8045 -13.5255,32.5838 -16.7783,42.9987 l -0.7028,2.25 h 17.0376 17.0377 z m 86.0298,-4.1043 v -73.1044 l 35.25,0.4567 c 31.9644,0.4142 35.9793,0.6549 43.0745,2.5825 18.367,4.99 29.2323,15.3271 32.5511,30.9687 2.3139,10.9055 0.6807,23.1631 -4.1948,31.4825 -3.558,6.0712 -11.3838,12.9086 -18.1062,15.8193 -3.0473,1.3195 -5.5481,2.6697 -5.5575,3.0006 -0.01,0.3309 8.3214,14.2809 18.5129,31 l 18.5299,30.3984 -20.778,0.271 c -16.6882,0.2177 -20.9752,0 -21.7799,-1.1006 -0.5511,-0.7544 -7.752,-13.8052 -16.002,-29.0018 l -15,-27.6303 -5.25,-0.019 -5.25,-0.019 v 29 29 h -18 -18 v -73.1043 z m 62.2008,-12.026 c 4.0806,-0.8703 6.2765,-2.1049 9.5492,-5.3684 3.9501,-3.9391 4.2497,-4.6178 4.2463,-9.6197 0,-6.6809 -2.3673,-10.8503 -7.6282,-13.4616 -3.1706,-1.5738 -6.5279,-1.9781 -18.6181,-2.242 l -14.75,-0.3221 v 16.0721 16.072 h 10.9508 c 6.0229,0 13.3354,-0.5086 16.25,-1.1303 z m 83.7992,12.1303 v -73 h 18 18 v 73 73 h -18 -18 z m 75,0 v -73 h 49 49 v 15.5 15.5 h -31.5 -31.5 v 13 13 h 30 30 v 14.5 14.5 h -30 -30 v 14.5 14.5 h 33.5 33.5 v 15.5 15.5 h -51 -51 z m -140.5,-253.6762 c -20.9912,-2.6343 -40.3533,-10.9473 -57.1536,-24.5385 -12.125,-9.8089 -22.2314,-25.1822 -26.4836,-40.2853 -3.3033,-11.7326 -3.135,-28.9742 0.3878,-39.744 6.0812,-18.5907 19.4248,-30.6857 39.5248,-35.8265 4.1594,-1.0637 7.6714,-2.0456 7.8044,-2.1818 0.133,-0.1362 -0.8431,-3.4782 -2.1692,-7.4266 -5.0455,-15.0235 -5.1483,-27.9289 -0.3252,-40.8199 5.7982,-15.497 25.2022,-32.7207 42.6311,-37.841 22.4536,-6.5964 45.4374,0.9741 54.0392,17.7996 5.5259,10.8091 2.2519,27.7834 -6.965,36.1103 -3.0675,2.7713 -4.6213,3.4792 -7.1081,3.2382 -3.023,-0.2928 -3.1754,-0.5089 -3.0396,-4.3083 0.079,-2.2 0.9075,-6.6527 1.8418,-9.8948 3.3221,-11.5271 -0.5049,-19.9606 -11.5657,-25.4878 -5.3595,-2.6781 -7.3213,-3.1174 -13.9223,-3.1174 -13.3052,0 -24.8299,5.4637 -36.0807,17.1052 -13.0951,13.5498 -17.3277,34.3669 -9.9342,48.8593 2.6713,5.2361 3.5888,5.7323 12.6041,6.8149 10.0937,1.2122 14.7742,3.3525 16.8367,7.699 2.0843,4.3922 1.9847,7.3411 -0.3787,11.2173 -3.7653,6.1752 -11.7888,5.4573 -20.5645,-1.84 -9.9234,-8.2515 -17.2955,-9.745 -26.2001,-5.3077 -6.4064,3.1925 -12.6675,9.9076 -16.1087,17.2768 -3.5927,7.6939 -3.7192,21.3505 -0.2886,31.1752 7.0654,20.2341 28.3313,41.6577 50.5205,50.895 13.9589,5.8111 23.1845,7.4775 41.5974,7.5136 21.9631,0.043 36.4041,-3.0588 53,-11.3838 13.3743,-6.709 27.5657,-19.1114 33.2116,-29.0248 10.3171,-18.1154 7.7662,-38.927 -6.5227,-53.2159 -14.737,-14.737 -41.3455,-17.9803 -62.2971,-7.5934 -12.6134,6.2532 -20.1271,15.7984 -21.1284,26.8411 -0.6438,7.1 0.9417,12.0825 5.4233,17.0431 4.5112,4.9934 9.451,6.7201 12.8513,4.4921 2.1402,-1.4023 2.4627,-2.3616 2.4676,-7.3401 0.01,-8.1606 1.5276,-12.6099 5.4973,-16.0953 6.2349,-5.4744 14.2863,-5.0925 20.0775,0.9523 2.6153,2.7297 2.9428,3.8172 3.2306,10.7269 0.3008,7.2225 0.119,8.0173 -2.9954,13.096 -10.675,17.4082 -39.0818,15.2575 -50.5224,-3.825 -1.7638,-2.9419 -3.7355,-7.8763 -4.3817,-10.9653 -2.5643,-12.2586 2.7831,-28.813 12.9992,-40.2429 12.8073,-14.3289 28.3664,-19.0625 66.8349,-20.3335 35.5251,-1.1737 52.9662,-5.9509 64.3335,-17.6214 6.7428,-6.9225 9.3236,-13.9217 9.3725,-25.4187 0.045,-10.5338 -1.8987,-15.8805 -7.9849,-21.9667 -8.8293,-8.8292 -25.4814,-11.0144 -30.1195,-3.9523 -1.218,1.8546 -0.9849,2.8003 2.1431,8.6946 4.2706,8.0476 4.6539,13.7475 1.2597,18.7346 -3.4247,5.032 -6.8049,7.0412 -12.8088,7.6137 -11.5946,1.1055 -19.5699,-7.0874 -18.6598,-19.1691 0.554,-7.3541 2.5187,-11.3632 8.3422,-17.0231 5.7016,-5.5412 13.2567,-9.0847 22.3921,-10.5021 14.0407,-2.1785 25.5793,1.0235 34.9491,9.6983 9.9438,9.2062 14.1928,18.9095 14.3159,32.6927 0.1404,15.7225 -5.1108,28.5128 -16.3291,39.7725 -10.7832,10.823 -23.1374,15.5752 -46.8419,18.0181 l -12.102,1.2473 5.8009,5.5707 c 3.1905,3.0639 7.2572,7.7036 9.0371,10.3104 8.0921,11.8517 11.0862,28.9791 7.715,44.1323 -5.0074,22.5069 -24.6608,45.5939 -49.0607,57.6318 -17.8499,8.8063 -35.0575,12.0663 -62.5,11.8406 -9.625,-0.079 -18.85,-0.3134 -20.5,-0.5205 z M 375.5757,1429.9729 c -15.89904,-51.5546 -30.54295,-98.2554 -32.54202,-103.7797 -5.69503,-15.7376 -9.81079,-19.7529 -21.7693,-21.238 l -5.78133,-0.7179 -0.3075,-4.25 -0.3075,-4.25 h 42.615 42.615 l -0.3075,4.25 -0.3075,4.25 -6.80195,0.7512 c -10.37481,1.1457 -15.31054,4.4378 -16.30457,10.8748 -0.30675,1.9864 0.46174,7.0753 1.86865,12.374 3.845,14.481 43.18352,142.4783 43.79259,142.4896 0.30509,0.01 13.34846,-39.3646 28.98526,-87.4896 l 28.43053,-87.5 h 5.16692 c 4.83625,0 5.23352,0.191 6.20756,2.9852 4.9141,14.0966 62.62971,171.6768 63.07508,172.2131 0.57916,0.6974 33.37923,-112.2011 37.8248,-130.1937 2.98276,-12.0722 2.84331,-23.3892 -0.34117,-27.6871 -2.9097,-3.927 -7.96517,-7.1629 -12.26545,-7.8508 -8.33091,-1.3326 -8.13825,-1.2027 -8.13825,-5.4858 v -3.9809 h 31.0575 31.0575 l -0.3075,4.2274 c -0.29923,4.1137 -0.41974,4.2464 -4.4811,4.9348 -11.80273,2.0006 -17.46027,9.0085 -25.29904,31.3378 -2.7188,7.7447 -55.02736,185.4649 -55.02736,186.9574 0,0.2984 -1.97614,0.5426 -4.39142,0.5426 -4.14828,0 -4.47227,-0.2076 -5.85161,-3.75 -0.8031,-2.0625 -15.78241,-42.5721 -33.28735,-90.0213 -17.50493,-47.4491 -32.14627,-85.9241 -32.5363,-85.4999 -0.39003,0.4241 -13.66205,40.9337 -29.49338,90.0212 l -28.78424,89.25 -4.57785,-0.014 -4.57785,-0.014 -28.90735,-93.7357 z m 257.40735,90.4054 v -3.3591 l 8.43186,-0.526 c 10.53598,-0.6573 15.18571,-2.7894 18.00511,-8.2559 2.03086,-3.9377 2.06303,-5.1853 2.06303,-80 0,-68.8801 -0.15656,-76.3451 -1.67122,-79.6836 -2.38117,-5.2484 -6.48635,-7.0249 -17.57332,-7.6048 l -9.25546,-0.4841 v -3.8638 -3.8637 h 43.5 43.5 v 3.8637 3.8638 l -9.30144,0.4865 c -11.21908,0.5868 -14.55575,2.0004 -17.19856,7.286 -1.94771,3.8954 -2,6 -2,80.5 0,75.1418 0.0361,76.5615 2.03538,79.9646 3.13252,5.3322 7.04733,7.0735 17.4124,7.745 l 9.05222,0.5864 v 3.352 3.352 h -43.5 -43.5 z m 102,0.01 v -3.352 l 9.05222,-0.5864 c 15.79941,-1.0236 18.80953,-4.4131 20.03369,-22.5588 1.0282,-15.2407 1.02927,-117.4515 0.001,-131.7121 -1.29602,-17.9806 -3.53281,-20.4756 -19.0256,-21.2216 l -10.06131,-0.4875 v -3.8663 -3.8663 h 46 46 v 3.8767 3.8768 l -11.75,0.4407 c -13.63123,0.5113 -17.02492,1.7946 -19.86516,7.5117 -1.7974,3.6181 -1.88484,7.3744 -1.88484,80.9705 0,76.4021 0.0207,77.2047 2.06453,80 4.20713,5.754 8.07693,6.7395 28.11025,7.1592 19.9809,0.4185 32.11092,-0.7625 38.96358,-3.7938 10.06327,-4.4514 19.18771,-17.4911 25.39509,-36.2918 l 3.21912,-9.75 3.62372,-4e-4 3.62371,-5e-4 -0.2488,13.2505 c -0.13683,7.2877 -0.52171,20.1129 -0.85528,28.5004 l -0.60649,15.25 h -80.89471 -80.89472 v -3.352 z m 173,-0.01 v -3.3613 l 8.93644,-0.5095 c 9.61371,-0.5482 13.81628,-2.2039 17.23411,-6.79 3.43723,-4.6121 3.97094,-17.6238 3.64214,-88.7937 -0.30202,-65.3754 -0.38091,-67.8184 -2.31269,-71.6197 -3.31952,-6.5319 -5.95727,-7.7945 -17.43831,-8.3474 l -10.06169,-0.4868 v -3.8663 -3.8663 h 46 46 v 3.8767 3.8768 l -11.87023,0.4232 c -12.63958,0.4507 -15.49828,1.4037 -18.65312,6.2186 -3.04581,4.6485 -3.59435,19.5791 -3.28317,89.3651 0.29852,66.9459 0.35943,68.8309 2.33436,72.2396 3.63952,6.2817 7.49859,7.3577 28.06849,7.8257 21.25842,0.4837 32.70662,-0.7704 40.12812,-4.3957 10.1829,-4.9743 18.6666,-17.4903 24.8626,-36.68 l 2.8252,-8.75 h 3.724 3.724 l -0.4742,24.25 c -0.2608,13.3375 -0.7069,26.1625 -0.9914,28.5 l -0.5172,4.25 h -80.93872 -80.93873 v -3.3613 z m 172.99995,0 v -3.3591 l 8.4319,-0.526 c 10.6408,-0.6639 15.3474,-2.8145 18.0681,-8.2559 1.9478,-3.8955 2,-6 2,-80.5 0,-75.3228 -0.032,-76.5539 -2.0504,-80 -2.8306,-4.8317 -6.3406,-6.2207 -17.1481,-6.786 l -9.3015,-0.4865 v -3.8638 -3.8637 h 43.5 43.5 v 3.8637 3.8638 l -9.2554,0.4841 c -11.087,0.5799 -15.1922,2.3564 -17.5734,7.6048 -1.5146,3.3385 -1.6712,10.8035 -1.6712,79.6836 0,74 0.053,76.1052 2,80 2.7207,5.4414 7.4274,7.592 18.0682,8.2559 l 8.4318,0.526 v 3.3591 3.359 h -43.5 -43.5 z m 100,-0.07 c 0,-3.2814 0.2289,-3.4956 5.3138,-4.9738 10.7383,-3.1218 16.528,-9.7627 24.06,-27.5972 1.9744,-4.675 17.5054,-41.8 34.5134,-82.5 l 30.9236,-74 3.3987,-0.2987 3.3987,-0.2987 33.3345,79.2987 c 39.5563,94.0997 40.5434,96.2866 45.3645,100.5058 3.2381,2.8338 11.6891,6.2929 15.3743,6.2929 0.8402,0 1.3185,1.2697 1.3185,3.5 v 3.5 h -38 -38 v -3.3518 -3.3518 l 7.9872,-0.6159 c 12.5462,-0.9675 16.2149,-3.9758 14.5578,-11.9371 -0.3713,-1.7839 -5.0636,-13.8184 -10.4273,-26.7434 l -9.7522,-23.5 -35.5966,-0.2626 -35.5966,-0.2625 -5.9786,15.2625 c -9.6153,24.5466 -10.9088,29.6439 -9.0753,35.7634 1.6907,5.6431 6.7977,9.6969 14.1222,11.2098 5.6087,1.1584 5.7594,1.2759 5.7594,4.4895 v 3.2999 h -28.5 -28.5 z m 120,-74.0841 c 0,-0.909 -31.2087,-75.9603 -31.9048,-76.7253 -0.3696,-0.4061 -5.9117,11.9689 -12.3158,27.5 -6.4042,15.5311 -13.6716,33.0759 -16.1498,38.9884 l -4.5058,10.75 h 32.4381 c 17.8409,0 32.4381,-0.2309 32.4381,-0.5131 z m 91,74.1432 c 0,-3.3036 0.1131,-3.3923 5.75,-4.5102 7.6923,-1.5255 15.6205,-6.2115 18.904,-11.1732 5.4012,-8.1619 5.5524,-9.9089 6.0528,-69.9467 0.4738,-56.8498 -0.3237,-81.3902 -2.81,-86.4677 -2.6979,-5.5095 -5.7805,-6.8109 -17.3524,-7.3255 l -10.5444,-0.469 v -3.8689 -3.8689 l 29.25,0.01 29.25,0.01 34.4845,77.9574 c 18.9665,42.8766 34.7623,77.6354 35.1018,77.2419 0.3395,-0.3935 15.8715,-35.4684 34.5155,-77.9441 l 33.8982,-77.2287 29.75,-0.021 29.75,-0.021 v 3.8742 3.8742 l -11.25,0.4484 c -13.962,0.5564 -16.8161,1.8111 -19.4092,8.5319 -1.7274,4.4773 -1.8408,9.2698 -1.8408,77.7714 0,40.15 0.3597,74.6971 0.7993,76.7713 1.917,9.0449 8.9352,12.7287 24.2499,12.7287 h 7.4508 v 3.5 3.5 h -46 -46 v -3.3637 -3.3638 l 9.4111,-0.4922 c 11.6735,-0.6106 15.0877,-2.3183 18.5889,-9.2971 l 2.5,-4.9832 0.2623,-73 c 0.1527,-42.4746 -0.1064,-72.3728 -0.6195,-71.5001 -0.485,0.825 -17.2169,38.5347 -37.182,83.7993 l -36.3003,82.2992 -4.0419,-0.2992 -4.0418,-0.2992 -37.0384,-83.2311 -37.0384,-83.231 -0.2697,60.231 c -0.2871,64.1244 0.3012,77.9566 3.5865,84.3337 4.0789,7.9173 12.4061,13.4587 22.4332,14.9283 4.5945,0.6734 4.75,0.807 4.75,4.0826 v 3.3865 h -34.5 -34.5 z m 673,-0.611 c 0,-4.274 -0.1661,-4.1605 8,-5.4614 9.1493,-1.4575 20.2466,-9.3325 24.3597,-17.2864 3.5124,-6.7923 3.8372,-13.0336 4.333,-83.2713 0.546,-77.348 -0.092,-94.3797 -3.7819,-100.9448 -3.279,-5.8343 -7.1426,-7.2685 -21.1326,-7.8447 l -11.7782,-0.485 v -4.3756 -4.3755 l 35.1066,0.2628 35.1066,0.2628 41.0748,92.75 c 22.5911,51.0125 41.3307,92.7348 41.6434,92.7163 0.3127,-0.018 14.0412,-30.7309 30.5077,-68.25 16.4665,-37.5189 34.8542,-79.3538 40.8615,-92.9663 l 10.9225,-24.75 h 35.3884 35.3885 v 4.3818 4.3817 l -12.75,0.4059 c -15.9845,0.5088 -19.5557,1.942 -23.25,9.3306 l -2.5,5 v 88 c 0,48.4 0.3703,90.1725 0.8229,92.8278 1.0196,5.9815 6.2319,12.1648 11.5256,13.6727 2.0083,0.5721 8.714,1.3249 14.9015,1.6728 l 11.25,0.6326 v 3.8471 3.847 h -55 -55 v -3.848 -3.8481 l 10.5109,-0.6431 c 15.0916,-0.9234 19.9778,-3.3089 23.8843,-11.6608 2.0835,-4.4545 2.1073,-5.391 2.352,-92.5 l 0.2472,-88 -15.7645,35.5 c -8.6705,19.525 -28.5818,64.6385 -44.2472,100.2522 l -28.4827,64.7522 -4.8276,-0.2522 -4.8276,-0.2522 -44.1724,-99.2857 -44.1724,-99.2857 -0.2851,76.7857 c -0.1815,48.8911 0.091,79.6603 0.7506,84.6987 1.2193,9.3166 3.9453,14.578 10.5779,20.4163 4.4771,3.9409 14.3487,8.1707 19.069,8.1707 4.2963,0 5.3876,1.0345 5.3876,5.107 v 3.893 h -41 -41 z m 318,0.6449 c 0,-3.2104 0.2173,-3.3965 5.7659,-4.9392 10.8761,-3.0238 16.364,-9.1311 23.728,-26.4063 1.8331,-4.3002 13.7738,-32.7935 26.5349,-63.3185 12.7611,-30.525 26.8788,-64.275 31.3726,-75 l 8.1708,-19.5 3.4639,-0.2745 3.4639,-0.2746 25.9097,61.7746 c 44.479,106.0477 46.6959,111.092 50.956,115.9427 4.0225,4.5802 7.5295,6.5302 13.8843,7.7202 3.4742,0.6506 3.75,0.9563 3.75,4.1569 v 3.4547 h -37.5 -37.5 v -3.5 c 0,-3.3961 0.1147,-3.5 3.8635,-3.5 2.1249,0 6.2874,-0.4485 9.25,-0.9966 5.8964,-1.0909 9.8937,-4.4537 9.877,-8.3092 -0.01,-2.1007 -6.3174,-18.3712 -16.4611,-42.4568 l -4.7432,-11.2625 -35.4874,0.2625 -35.4873,0.2626 -3.4928,8.5 c -14.5027,35.2938 -15.1948,43.3543 -4.3563,50.7315 1.8032,1.2274 5.4744,2.5229 8.1581,2.8789 4.7464,0.6296 4.8795,0.7392 4.8795,4.0184 v 3.3712 h -29 -29 z m 120.8333,-74.5416 c -0.1833,-0.4827 -7.5333,-18.2229 -16.3333,-39.4229 -10.1975,-24.5666 -16.2304,-37.9385 -16.6353,-36.8724 -0.3494,0.9201 -7.2593,17.6479 -15.3552,37.1729 -8.0959,19.525 -15.1114,36.5125 -15.5899,37.75 l -0.8701,2.25 h 32.5586 c 18.2639,0 32.4122,-0.3853 32.2252,-0.8776 z m 92.1667,74.5245 v -3.3531 l 9.5227,-0.5681 c 10.8792,-0.649 14.7465,-2.3219 17.9419,-7.7611 1.9996,-3.4037 2.0354,-4.8199 2.0354,-80.4646 0,-75.8269 -0.031,-77.0533 -2.0505,-80.5 -2.8203,-4.8142 -6.4847,-6.3091 -16.6995,-6.813 l -8.75,-0.4316 v -3.7306 -3.7305 l 12.25,-0.6455 c 29.3909,-1.5485 71.3775,-1.9196 81.6154,-0.7212 29.3242,3.4324 47.2303,13.3676 55.3448,30.708 5.6879,12.1547 4.9415,28.4238 -1.8344,39.9861 -6.3865,10.8977 -20.837,20.5591 -35.8758,23.986 -3.85,0.8773 -7.5341,1.7494 -8.187,1.9381 -0.6528,0.1887 3.1722,4.7564 8.5,10.1505 5.3279,5.3941 15.312,17.2258 22.187,26.2926 30.3525,40.0292 40.5995,48.7053 60.8064,51.4845 5.1018,0.7017 5.1936,0.7745 5.1936,4.1204 v 3.4062 h -26.3514 -26.3514 l -6.3136,-6.25 c -8.1476,-8.0655 -17.8296,-20.2022 -32.5083,-40.75 -19.7867,-27.6982 -30.9685,-40.7493 -36.7904,-42.9405 -1.5483,-0.5827 -5.5207,-1.0595 -8.8274,-1.0595 h -6.0124 l 0.3275,35.75 c 0.3096,33.8028 0.4398,35.9678 2.3904,39.75 3.0365,5.8873 7.5357,7.7436 20.1257,8.3036 l 10.3113,0.4586 v 3.3689 3.3689 h -46 -46 z m 94.6344,-98.1286 c 19.4707,-4.4378 28.3656,-16.9867 28.3656,-40.0183 0,-15.7864 -4.8022,-28.4336 -13.24,-34.8695 -7.2661,-5.5421 -21.6989,-8.6305 -40.3324,-8.6305 h -10.4276 v 43.1528 43.1528 l 14.25,-0.5806 c 7.8375,-0.3193 17.4605,-1.3123 21.3844,-2.2067 z m 137.3656,98.126 v -3.3556 l 7.5294,-0.5695 c 8.1341,-0.6151 12.4872,-2.5094 15.7128,-6.8372 2.4552,-3.2942 3.6529,-16.3915 3.7142,-40.6136 l 0.044,-17.2316 -27.75,-45.5473 c -15.2625,-25.051 -30.225,-49.0218 -33.25,-53.2684 -6.0881,-8.5466 -9.6592,-10.9197 -17.9019,-11.8959 l -5.0981,-0.6038 v -3.8607 -3.8607 h 39 39 v 3.8554 3.8554 l -6.4945,0.6064 c -12.8629,1.2012 -17.2591,6.3089 -12.8954,14.9825 4.7289,9.3994 49.8136,82.6704 50.4532,81.9958 1.3442,-1.4176 38.0653,-63.6225 40.9069,-69.2955 4.4327,-8.8495 5.3483,-12.5048 4.0885,-16.3221 -2.2279,-6.7506 -10.1348,-11.6574 -18.8087,-11.6723 -3.1241,0 -3.25,-0.1606 -3.25,-4.0056 v -4 h 31.5 31.5 v 3.8813 c 0,3.7974 -0.1027,3.9069 -4.75,5.0659 -6.6623,1.6616 -11.9611,4.9941 -17.8188,11.2067 -6.9607,7.3822 -9.8919,11.8954 -36.8922,56.8023 l -23.7003,39.4184 0.3307,27.5627 c 0.306,25.516 0.4838,27.8597 2.3936,31.5627 2.6287,5.0966 6.9358,7.2536 16.2048,8.115 l 7.2322,0.6722 v 3.3564 3.3564 h -40.5 -40.5 v -3.3557 z M 1557.0276,1156.7819 c -4.3242,-4.3242 -0.8424,-9.0319 6.7054,-9.0662 10.1801,-0.046 33.0071,-6.7936 55.25,-16.3308 l 10.5,-4.5021 -7.5,-3.5584 -7.5,-3.5584 -13.5,4.4213 c -19.8624,6.5049 -32.0605,8.7963 -47,8.8289 -22.0581,0.048 -32.6608,-6.1438 -33.7876,-19.7313 -1.1091,-13.3737 7.1505,-21.9371 23.8127,-24.6888 12.6679,-2.0921 27.8458,1.6087 56.5613,13.791 l 15.0863,6.4004 7.4137,-3.1376 c 4.0775,-1.7257 7.5442,-3.2551 7.7039,-3.3987 0.1596,-0.1436 -6.5904,-3.9924 -15,-8.5529 -24.6404,-13.3623 -35.3873,-19.942 -70.3661,-43.0809 -18.1917,-12.0341 -33.5248,-21.8801 -34.0735,-21.8801 -0.5487,0 -3.1644,3.1711 -5.8126,7.0469 -13.6811,20.023 -31.3719,33.7775 -51.5812,40.1043 -10.7684,3.3712 -28.86,3.3601 -37.3006,-0.023 -15.3334,-6.1457 -26.0382,-21.271 -27.3738,-38.678 -1.7658,-23.0142 18.4388,-43.24516 47.4069,-47.46871 14.3128,-2.08681 31.8871,1.7552 50.2413,10.98351 4.4137,2.2192 8.4427,4.0348 8.9534,4.0348 1.4084,0 9.6925,-20.33032 15.6481,-38.40254 5.4497,-16.5369 10.7804,-37.01219 14.5057,-55.71642 l 2.115,-10.619 -8.4649,-21.381 c -10.9643,-27.69368 -16.8182,-41.07784 -28.2534,-64.59697 l -9.3429,-19.21598 -4.5358,1.3651 c -11.1694,3.36148 -20.9665,12.38429 -24.033,22.13349 -1.3689,4.35199 -1.6481,7.42457 -1.1788,12.97533 0.944,11.16746 3.9165,17.8936 11.0684,25.04554 7.1177,7.11769 13.5242,9.95912 25.9748,11.52028 4.4268,0.55508 8.6257,1.48801 9.3307,2.07317 1.6169,1.34189 1.6674,6.03365 0.082,7.61904 -2.6144,2.6144 -21.9823,0.43638 -32.8,-3.68855 -11.9364,-4.55146 -21.2976,-14.7822 -25.2459,-27.59073 -2.8868,-9.36514 -3.094,-25.61178 -0.4242,-33.26919 4.1051,-11.7745 15.3458,-22.47354 28.7439,-27.35871 6.4728,-2.36009 6.347,-2.23801 4.9653,-4.81982 -0.9153,-1.71027 -1.3383,-1.68623 -8.908,0.50628 -37.3909,10.82992 -73.6904,9.74355 -97.5924,-2.92073 -8.332,-4.41465 -16.578,-12.379 -20.5692,-19.86655 -2.8414,-5.33066 -3.421,-7.57115 -3.7935,-14.66408 -1.2619,-24.03014 11.6786,-41.22286 35.904,-47.70213 8.3355,-2.22941 23.2861,-2.22421 31.92,0.0111 9.2817,2.40302 23.1921,9.41116 32.5695,16.4088 10.2417,7.6426 28.855,26.99825 37.9305,39.44322 5.6926,7.80609 7.3736,9.49426 9,9.03845 3.5309,-0.98953 24.5934,-11.20749 32.9275,-15.97393 12.7859,-7.3126 32.6759,-20.54325 32.3505,-21.5193 -0.1631,-0.48937 -2.0924,-1.95493 -4.2873,-3.25681 l -3.9907,-2.36706 -7.469,4.39111 c -14.5125,8.53215 -26.6688,11.9259 -39.9867,11.16337 -13.3997,-0.76722 -23.6846,-6.49925 -25.6399,-14.28965 -1.8341,-7.30757 3.3476,-15.11615 12.2382,-18.44256 12.4138,-4.6446 31.4955,-3.6502 50.5242,2.63296 l 10.6667,3.52209 6.0284,-4.09379 c 6.6919,-4.54441 9.54,-5.07981 11.1381,-2.09379 1.4038,2.62297 0.1039,4.98989 -4.4398,8.08452 -1.9506,1.32852 -3.5496,2.64125 -3.5534,2.9172 0,0.27594 2.0116,1.57248 4.4786,2.88119 l 4.4853,2.37948 5.4718,-4.13119 c 5.537,-4.18049 9.1705,-5.11824 11.3575,-2.9312 2.2047,2.20474 1.2381,4.63491 -3.3339,8.3813 -2.4937,2.04337 -4.4062,4.04177 -4.25,4.44091 0.1561,0.39914 3.8839,3.57472 8.2839,7.05684 16.4451,13.0145 35.9093,33.54177 51.605,54.42362 3.9632,5.27261 7.5064,9.22899 7.8739,8.79195 0.3675,-0.43704 3.7588,-4.84462 7.5362,-9.79462 15.8233,-20.73541 37.2466,-43.17095 51.4849,-53.91762 3.575,-2.6983 6.9323,-5.28795 7.4606,-5.75478 0.5788,-0.51142 -0.9751,-2.55209 -3.9096,-5.1343 -4.2355,-3.72705 -4.7817,-4.63789 -4.1915,-6.98941 0.569,-2.26709 1.2212,-2.70389 4.0371,-2.70389 1.8472,0 3.8738,0.62083 4.5035,1.37962 0.6297,0.75878 2.8938,2.59155 5.0313,4.07282 3.8157,2.64433 3.9469,2.6624 7.2274,0.9954 6.0394,-3.06888 6.1066,-3.36401 1.5561,-6.83477 -4.5148,-3.44356 -5.5966,-5.84581 -3.675,-8.16111 1.9037,-2.29391 4.1962,-1.7453 10.9515,2.62085 l 6.3014,4.07282 10.6036,-3.48987 c 13.7725,-4.53282 23.9734,-6.09727 34.9015,-5.35264 11.9913,0.81709 18.4581,2.95287 23.1514,7.64622 7.3961,7.39608 6.1209,16.49633 -3.183,22.71431 -8.0018,5.34771 -21.6911,6.85686 -34.5979,3.81413 -6.8482,-1.61442 -18.6026,-6.72748 -26.1697,-11.38355 l -4.7311,-2.91108 -4.1338,2.4651 c -2.2736,1.35581 -4.1338,2.87328 -4.1338,3.37215 0,1.06361 18.9645,13.6728 30.5392,20.30503 8.8084,5.04716 34.6929,17.69726 36.0879,17.63663 0.4801,-0.0209 2.562,-2.47119 4.6265,-5.44515 16.3292,-23.52286 38.37,-44.27742 56.9332,-53.61083 15.1054,-7.59487 33.0025,-10.26802 46.8132,-6.99218 13.5262,3.20836 26.6057,12.15462 32.3262,22.11075 6.7447,11.73873 7.519,28.7537 1.834,40.30158 -13.522,27.46701 -60.9672,38.17166 -111.3154,25.11514 -15.2527,-3.95537 -14.7877,-3.90166 -16.2667,-1.87912 -1.2165,1.66371 -0.6793,2.07453 6.4964,4.9678 21.8731,8.81935 31.8927,25.63014 29.0631,48.76221 -3.3682,27.53646 -19.0626,41.16262 -49.9343,43.35395 -8.7896,0.62391 -9.0051,0.58594 -10.6141,-1.86971 -1.2436,-1.89796 -1.4064,-3.12718 -0.6705,-5.06273 0.8414,-2.21304 1.7511,-2.64193 6.7766,-3.19488 14.2957,-1.57296 21.9592,-4.50162 29.4221,-11.24394 7.5854,-6.85291 12.9786,-22.2622 11.5189,-32.91142 -1.7974,-13.11381 -12.1778,-24.40062 -25.9163,-28.17923 l -3.7799,-1.03963 -7.3455,14.67766 c -9.5827,19.14803 -20.7195,44.35094 -30.6995,69.47372 -9.1301,22.98318 -8.8389,19.68364 -3.768,42.70395 3.7465,17.00764 10.6447,41.51255 15.3241,54.43697 3.943,10.89041 11.5021,28.56299 12.2173,28.56299 0.2479,0 4.3614,-1.8665 9.1411,-4.1478 19.9715,-9.53221 35.9263,-12.99043 50.3128,-10.90537 15.2704,2.21316 27.3437,8.35813 37.0428,18.85367 7.5933,8.2168 10.1857,14.8784 10.1956,26.1995 0.022,24.9572 -19.0246,44 -44.0083,44 -9.0342,0 -20.7662,-2.3137 -28.8504,-5.6899 -14.6375,-6.1128 -32.9743,-21.9491 -43.5021,-37.5698 -2.475,-3.6723 -4.9951,-6.6912 -5.6002,-6.7086 -0.6051,-0.017 -14.1803,8.7192 -30.167,19.4148 -32.0892,21.4684 -46.3029,30.2114 -71.1127,43.742 -9.1411,4.9853 -16.977,9.3868 -17.4133,9.7811 -0.4363,0.3943 2.6342,2.1556 6.8233,3.914 l 7.6166,3.1972 13.1766,-5.6514 c 17.2391,-7.3938 34.4492,-13.1096 43.893,-14.5778 9.5051,-1.4778 18.9427,-0.1082 26.745,3.8812 16.6924,8.5349 15.6752,30.5395 -1.7485,37.8237 -13.916,5.8177 -40.456,3.1669 -70.2128,-7.0128 l -10.5,-3.592 -7.2157,3.2742 c -3.9686,1.8008 -7.2311,3.5531 -7.25,3.894 -0.046,0.8406 29.4204,12.5676 38.8736,15.4707 10.0879,3.098 21.293,5.4094 26.2232,5.4094 5.8415,0 7.8689,1.4171 7.8689,5.5 0,4.5897 -2.4226,5.8213 -9.8057,4.9851 -15.2326,-1.7252 -36.0124,-8.1896 -62.5604,-19.4621 l -14.3212,-6.0809 -11.8138,5.0584 c -27.8614,11.9297 -50.3481,18.9891 -65.2043,20.4701 -5.4049,0.5389 -6.4691,0.3549 -8.25,-1.4259 z m 16.1546,-35.0358 c 5.6655,-1.0951 14.3508,-3.2826 19.3008,-4.8612 l 9,-2.87 -8,-3.7492 c -11.3103,-5.3005 -29.2277,-12.2348 -34.8952,-13.5049 -12.3202,-2.761 -24.4136,4.7301 -23.2306,14.3899 1.4585,11.9083 13.5341,15.2909 37.825,10.5954 z m 169.2124,-0.2753 c 11.6591,-6.6574 8.7927,-20.2926 -5.116,-24.3359 -5.1026,-1.4834 -6.1023,-1.4859 -12.0011,-0.03 -7.238,1.7861 -20.6126,6.9569 -33.2945,12.8721 l -8.5,3.9647 4,1.4512 c 13.852,5.0255 29.7165,8.1372 42,8.2379 7.5652,0.062 9.6236,-0.2823 12.9116,-2.1598 z m -91.8,-4.0342 7.1116,-3.2638 -7.8642,-3.3717 -7.8642,-3.3717 -7.3308,3.4039 -7.3308,3.404 6.5834,3.1641 c 3.6209,1.7402 7.2584,3.1944 8.0834,3.2315 0.825,0.037 4.7002,-1.4012 8.6116,-3.1963 z m 5.2806,-27.3723 c 28.5352,-15.1029 48.5333,-27.6062 78.0713,-48.8122 8.5451,-6.1347 19.6049,-13.9088 24.5774,-17.2757 l 9.0409,-6.1217 -5.6705,-11.8087 c -6.2719,-13.06113 -14.2747,-33.83726 -18.5119,-48.05871 -1.5157,-5.0875 -3.0356,-9.25 -3.3775,-9.25 -0.3418,0 -2.1227,4.8375 -3.9576,10.75 -8.3439,26.88712 -12.4301,40.69281 -15.613,52.75001 -3.2929,12.4741 -4.8825,15.5 -8.1424,15.5 -2.9057,0 -5.0214,-3.744 -5.7101,-10.1044 -1.0699,-9.8815 -6.1851,-34.0508 -10.6903,-50.51181 -4.6952,-17.15516 -10.7832,-36.53033 -11.8318,-37.655 -0.9046,-0.97017 -9.6121,26.36609 -15.5353,48.7712 -7.9201,29.95881 -17.7538,77.99731 -20.0611,98.00001 -0.8414,7.2947 -2.667,10.5 -5.9803,10.5 -3.6699,0 -5.0625,-3.2073 -6.9468,-16 -3.9956,-27.1258 -12.7111,-68.5669 -20.1813,-95.95921 -5.2765,-19.34819 -13.6087,-46.0408 -14.3719,-46.0408 -0.9682,0 -10.2404,30.54704 -14.8735,49 -2.1404,8.525 -4.8553,21.35 -6.0331,28.50001 -3.304,20.0571 -3.2363,19.8346 -6.3591,20.9284 -2.118,0.7419 -3.1227,0.6118 -4.2897,-0.5552 -0.8382,-0.8382 -3.5412,-8.9151 -6.0068,-17.9486 -2.4655,-9.03354 -5.1175,-18.44961 -5.8934,-20.92461 -0.7758,-2.475 -3.962,-12.5805 -7.0803,-22.45667 l -5.6696,-17.95667 -5.7345,17.45667 c -6.3478,19.32356 -10.8591,30.61435 -17.5755,43.98768 l -4.4766,8.9134 7.746,5.2203 c 4.2604,2.8712 17.1219,11.9186 28.5813,20.1052 24.059,17.1881 32.2318,22.5582 50.172,32.9668 14.7861,8.5786 37.5513,20.7257 38.885,20.7482 0.4907,0.01 6.5657,-2.9877 13.5,-6.6579 z m -211.0673,-27.349 c 7.7656,-2.7188 17.7929,-9.7696 25.4751,-17.9131 6.0834,-6.4488 19.7,-25.6254 19.7,-27.7442 0,-0.544 -3.9375,-2.8545 -8.75,-5.1344 -28.4806,-13.49293 -49.0538,-14.60531 -63.7054,-3.4445 -13.6312,10.3834 -17.722,24.4539 -11.2315,38.631 4.1069,8.9706 10.5112,14.7439 19.6869,17.7471 3.5547,1.1635 12.1903,0.1809 18.8249,-2.1419 z m 420.3252,-0.6562 c 14.1846,-7.7202 20.441,-26.4176 13.5517,-40.499 -3.4652,-7.0825 -9.9662,-13.1048 -18.5222,-17.1583 -6.2795,-2.9749 -7.3385,-3.1607 -17.6796,-3.1014 -9.9052,0.057 -12.045,0.4194 -21.5,3.6437 -12.9867,4.4287 -26,10.5328 -26,12.1956 0,3.2026 13.0197,20.8018 21.9047,29.6093 17.5093,17.3566 34.5497,22.7642 48.2454,15.3101 z m -203.0428,-156.16095 7.8048,-15.59106 -5.8794,-13.5349 c -7.148,-16.45514 -15.8943,-34.97993 -19.3279,-40.93666 l -2.5372,-4.40175 -5.9599,11.90175 c -3.278,6.54597 -9.4316,19.73715 -13.6747,29.31374 l -7.7147,17.41199 10.4794,21.58801 c 5.7638,11.87341 11.9568,25.27257 13.7622,29.77591 l 3.2827,8.18788 5.9799,-14.06193 c 3.2889,-7.73406 9.4921,-21.0779 13.7848,-29.65298 z m 59.6514,4.10166 6.0646,-15.23748 -2.8488,-16.76252 c -1.5668,-9.21939 -3.1663,-19.62938 -3.5545,-23.13332 l -0.7057,-6.37079 -3.4051,5.37079 c -1.8728,2.95394 -6.965,12.39419 -11.316,20.97833 l -7.9109,15.60754 7.9589,17.18798 c 4.3773,9.45339 7.9588,17.7075 7.9588,18.34247 0,2.6134 1.9832,-1.47205 7.7587,-15.983 z m -143.4902,-1.2652 c 4.2523,-9.35148 7.7315,-17.66826 7.7315,-18.48173 0,-1.79364 -13.6822,-28.89026 -18.3752,-36.39062 l -3.3631,-5.37504 -0.7264,5.87504 c -0.3995,3.23126 -2.0294,13.52503 -3.622,22.87503 l -2.8956,17 6.1681,15.75 c 3.3924,8.6625 6.4342,15.75 6.7596,15.75 0.3253,0 4.0707,-7.65121 8.3231,-17.00268 z m 33.7565,-66.49732 c 4.0526,-7.15 9.9855,-17.15851 13.1841,-22.24114 l 5.8157,-9.24114 -5.1431,-8.25886 c -17.5404,-28.16647 -37.2542,-52.48645 -55.0282,-67.88545 l -5.6466,-4.89204 -10.4928,7.34575 c -14.4079,10.08668 -30.5694,19.66561 -46.1235,27.33747 -7.1998,3.55124 -13.0476,6.69663 -12.9951,6.98976 0.053,0.29312 1.5681,2.96276 3.3679,5.93252 2.7688,4.56841 3.9085,5.55854 7.4046,6.43236 28.1125,7.02664 58.2286,31.76251 85.4667,70.19791 l 7.5949,10.71714 2.6135,-4.71714 c 1.4374,-2.59443 5.9293,-10.56714 9.9819,-17.71714 z m 80.4695,12.5 c 24.7265,-36.03021 56.8516,-62.98324 84.0804,-70.54375 5.6956,-1.58148 6.2984,-2.04432 9.6547,-7.41368 l 3.5799,-5.7269 -16.1548,-8.1112 c -16.4435,-8.25621 -31.2108,-17.11982 -45.7563,-27.46376 l -8.0986,-5.7593 -4.6867,3.9239 c -15.7822,13.21359 -38.5586,40.79338 -53.9589,65.33846 l -7.3458,11.70775 6.4192,10.27424 c 7.2712,11.63788 18.1973,30.63479 22.2272,38.6458 1.4861,2.95435 3.0406,4.97935 3.4542,4.5 0.4137,-0.47936 3.3772,-4.69656 6.5855,-9.37156 z m 78.259,-53.83757 c -1.0958,-0.47492 -9.1233,4.259 -16.4786,9.71766 l -6.2251,4.61991 -0.019,6.5 c -0.01,3.575 0.2731,10.25146 0.63,14.83658 l 0.6489,8.33657 11.1113,-21.83657 c 6.1112,-12.01012 10.7608,-21.98849 10.3324,-22.17415 z m -234.2334,29.3017 c 0.6649,-12.4137 0.5697,-13.70877 -1.1476,-15.62158 -2.4699,-2.75116 -11.5981,-8.92116 -17.9535,-12.1353 l -5.0809,-2.56962 7.0809,13.24872 c 3.8946,7.2868 8.881,17.13781 11.081,21.89114 2.2,4.75333 4.2914,8.66043 4.6476,8.68246 0.3561,0.022 0.9738,-6.05109 1.3725,-13.49582 z m -87.3762,-56.43272 c 5.8541,-1.13444 12.2971,-2.63498 14.3177,-3.33452 l 3.6737,-1.2719 -5.889,-8.9625 c -17.6391,-26.84511 -37.2235,-45.64284 -53.7697,-51.60993 -15.2642,-5.50475 -33.7928,-0.66179 -41.8279,10.93287 -6.5454,9.44497 -8.564,22.44439 -4.7695,30.71457 4.1857,9.12297 19.0798,19.28164 33.7043,22.98839 15.728,3.98646 35.7621,4.18586 54.5604,0.54302 z m 438.8318,-0.0341 c 16.7324,-4.09611 31.2224,-13.57785 36.078,-23.6082 1.8298,-3.77994 2.1214,-5.74874 1.735,-11.71626 -0.5675,-8.76693 -3.1742,-14.96603 -8.9094,-21.18802 -5.2968,-5.74632 -11.5816,-9.02616 -20.1575,-10.51958 -22.0621,-3.84196 -46.7766,14.15026 -72.6759,52.90841 -4.5526,6.81288 -5.9201,9.58602 -5.0059,10.15104 1.6898,1.04437 20.2826,4.92852 28.6999,5.99559 10.6306,1.34765 30.5601,0.34563 40.2358,-2.02298 z m -366.7701,-53.00791 c 4.5619,-1.65268 10.0944,-4.09404 12.2944,-5.42525 l 4,-2.42037 -3,-1.16008 c -12.2974,-4.75535 -30.8089,-6.63168 -40.2045,-4.07515 -9.698,2.6388 -13.1408,9.54745 -6.642,13.32821 7.8085,4.54274 20.5901,4.4485 33.5521,-0.24736 z m 274.2904,1.1154 c 2.478,-1.09616 4.5952,-2.81683 4.9878,-4.05367 0.8718,-2.74684 -1.55,-6.51688 -5.4977,-8.5583 -4.4307,-2.29125 -15.7459,-3.41122 -24.5211,-2.42712 -7.8809,0.8838 -21.1072,4.54636 -22.0754,6.11298 -0.7343,1.188 14.9768,8.45972 22.2572,10.3016 7.3707,1.8647 18.9765,1.22228 24.8492,-1.37549 z m -210.5597,-19.68152 c -1.051,-1.26645 -1.0714,-2.39793 -0.1034,-5.75 0.6629,-2.2953 1.7203,-6.72962 2.3498,-9.85404 l 1.1446,-5.68075 -5.3346,-5.81925 c -8.901,-9.70965 -16.9944,-24.04965 -16.992,-30.10675 5e-4,-1.31238 -0.8757,-1.71249 -3.75,-1.71249 -3.6198,0 -3.7507,-0.12211 -3.7507,-3.5 0,-3.21777 0.2621,-3.52527 3.25,-3.81336 4.1002,-0.39533 4.1932,-2.39213 0.1821,-3.90618 -2.6879,-1.01457 -3.0286,-1.56816 -2.75,-4.46923 0.2996,-3.12074 0.5445,-3.31504 4.2567,-3.37749 4.6483,-0.0782 5.6417,-1.6204 2.0871,-3.23999 -4.3493,-1.98166 -2.8526,-8.19375 1.9741,-8.19375 1.155,0 2.64,0.54 3.3,1.2 0.9333,0.93333 1.4778,0.91949 2.45,-0.0623 1.0012,-1.01102 0.9017,-1.45882 -0.5,-2.24969 -2.1191,-1.1957 -2.2972,-5.18902 -0.305,-6.84235 2.0489,-1.70048 5.8213,-0.90802 7.03,1.4768 0.5751,1.13479 1.7785,1.87352 2.7417,1.68309 1.4361,-0.28391 1.519,-0.65594 0.5073,-2.27594 -1.5315,-2.45225 0.038,-5.28981 3.1832,-5.7564 2.8958,-0.42954 5.0928,1.48979 5.0928,4.44921 0,1.44672 0.5873,2.37756 1.5,2.37756 0.8986,0 1.5,-0.92222 1.5,-2.3 0,-2.89144 1.7614,-4.7 4.5776,-4.7 2.9066,0 4.5923,2.21871 4.2237,5.55937 -0.1685,1.52676 0.2499,2.92407 0.9487,3.16907 0.7429,0.26044 1.25,-0.41567 1.25,-1.66655 0,-2.85182 3.9943,-4.67048 6.8735,-3.12959 2.2675,1.21354 2.8537,4.9405 1.0593,6.73492 -0.7563,0.75629 -0.6255,1.23671 0.4488,1.64897 0.9532,0.36579 1.7454,-0.14089 2.1339,-1.36489 0.7701,-2.42649 4.9989,-3.5992 6.9975,-1.94052 1.7434,1.44694 1.9584,5.1178 0.3915,6.68477 -0.7941,0.79406 1.201,2.33977 7.25,5.61686 9.1477,4.95593 10.9329,5.46337 15.2463,4.33359 4.1851,-1.0962 18.1807,-8.95217 16.7801,-9.41902 -0.6495,-0.21651 -1.1809,-1.92257 -1.1809,-3.79126 0,-2.79482 0.4459,-3.50952 2.513,-4.02834 2.7117,-0.68058 5.487,0.9456 5.487,3.21506 0,1.57306 0.9007,1.72668 2.8568,0.48725 0.9458,-0.5993 1.0215,-1.06688 0.25,-1.54371 -1.599,-0.98821 -1.3598,-5.11109 0.3802,-6.55521 2.2212,-1.84338 6.3733,-0.41556 7.0895,2.43789 0.8026,3.19805 3.2818,2.26098 2.6576,-1.00451 -0.5832,-3.05068 1.2923,-5.44413 4.2659,-5.44413 2.8656,0 4.89,2.40076 4.2116,4.99467 -0.3847,1.47142 -0.034,2.00533 1.3187,2.00533 1.3483,0 1.9271,-0.87229 2.1563,-3.25 0.2741,-2.84196 0.7131,-3.28872 3.497,-3.55841 3.827,-0.37073 6.0613,2.548 4.3699,5.70845 -0.7854,1.46744 -0.6469,2.042 0.6079,2.52354 0.8937,0.34292 1.6729,0.5004 1.7317,0.34996 1.7761,-4.54584 6.0922,-6.19795 8.3009,-3.17738 1.7334,2.37062 1.6468,3.92021 -0.3297,5.8967 -1.2208,1.22078 -1.3476,1.92381 -0.5,2.77143 0.8476,0.84761 1.4401,0.83131 2.3357,-0.0643 1.6578,-1.65776 5.3031,-1.50366 6.7892,0.28701 1.6899,2.03616 0.4683,6.23301 -2.0466,7.0312 -2.9387,0.93271 -1.7865,3.0445 1.4476,2.65329 3.3786,-0.40869 5.6098,1.34764 5.6098,4.41576 0,2.50028 -3.2474,4.91552 -5.465,4.06456 -0.8872,-0.34046 -1.1465,0.11781 -0.8052,1.423 0.3491,1.33498 1.3816,1.92518 3.3678,1.92518 2.2252,0 3.005,0.5607 3.495,2.51299 0.822,3.27488 -1.2109,5.67143 -4.4851,5.28757 -2.3507,-0.27559 -2.7559,0.27187 -4.8787,6.59098 -2.6215,7.80376 -8.7008,17.66429 -15.5708,25.25539 -5.3163,5.87437 -5.479,6.9305 -2.6437,17.16216 3.4138,12.31916 9.1027,11.19091 -56.427,11.19091 -50.0806,0 -56.4878,-0.17523 -57.651,-1.57672 z m 102.3137,-10.0977 c -2.7078,-1.8889 -2.9706,-6.05808 -0.5,-7.93353 1.4634,-1.11085 -5.769,-1.33365 -44.155,-1.36025 -44.4097,-0.0308 -45.8511,0.0278 -44.25,1.79694 2.3084,2.55074 2.063,5.64271 -0.595,7.49684 -2.0581,1.43568 1.7579,1.56952 44.75,1.56952 42.9921,0 46.8081,-0.13384 44.75,-1.56952 z m -75.5,-0.40568 c -3.5597,-2.07331 -1.5296,-7.9199 2.75,-7.9199 4.2112,0 5.949,4.40816 2.9286,7.42857 -1.8079,1.80786 -3.21,1.92917 -5.6786,0.49133 z m 18.3002,-0.35943 c -0.6571,-0.79174 -1.0497,-2.70424 -0.8725,-4.25 0.2849,-2.48392 0.729,-2.81047 3.8223,-2.81047 3.0933,0 3.5374,0.32655 3.8223,2.81047 0.3707,3.2332 -1.2795,5.68953 -3.8223,5.68953 -0.9653,0 -2.2927,-0.64779 -2.9498,-1.43953 z m 18.5212,-0.1319 c -1.8427,-1.84273 -1.9426,-2.86643 -0.5362,-5.49431 1.1571,-2.16212 4.9277,-2.57138 6.7648,-0.73426 1.8371,1.83712 1.4279,5.60769 -0.7343,6.76482 -2.6278,1.40639 -3.6515,1.30648 -5.4943,-0.53625 z m 19.1786,0.49133 c -3.5597,-2.07331 -1.5296,-7.9199 2.75,-7.9199 4.2112,0 5.949,4.40816 2.9286,7.42857 -1.8079,1.80786 -3.21,1.92917 -5.6786,0.49133 z m -71.6114,-16.39186 c 0.2596,-0.25958 -3.1633,-4.19708 -7.6065,-8.75 -4.7947,-4.91309 -9.4918,-10.92024 -11.5553,-14.77804 -3.274,-6.12086 -3.4768,-7.05816 -3.4768,-16.06927 0,-8.76061 0.232,-9.9202 2.7457,-13.72211 3.9456,-5.96762 7.7112,-7.68386 16.8273,-7.66941 6.532,0.0104 8.4941,0.46544 14.2729,3.31029 7.5928,3.73792 16.3396,11.39388 22.7165,19.88344 6.0578,8.06487 6.0449,8.05371 5.3597,4.62771 -0.5273,-2.63652 -0.2795,-3.16676 1.7313,-3.7051 3.0013,-0.80352 7.6919,-0.80352 10.6932,0 1.964,0.5258 2.2534,1.09431 1.775,3.48635 -0.3144,1.57195 -0.4326,2.8581 -0.2628,2.8581 0.1698,0 2.0078,-2.46697 4.0845,-5.48216 5.6436,-8.19428 16.3707,-17.80866 24.1339,-21.63048 5.8466,-2.87825 7.8162,-3.33966 14.3498,-3.36175 9.8268,-0.0332 13.8378,2.25048 17.6546,10.05172 2.3739,4.85202 2.6239,6.31948 2.2004,12.9181 -0.6817,10.62263 -4.7378,18.4084 -15.2049,29.18611 -4.488,4.62122 -7.9539,8.60838 -7.7019,8.86034 2.7615,2.7615 14.2074,-9.06262 20.0906,-20.75461 6.4275,-12.77354 6.4251,-24.32506 -0.01,-34.0359 -3.6216,-5.46768 -9.1766,-8.21274 -16.4079,-8.10822 -7.2283,0.10449 -10.815,1.44646 -29.338,10.97684 -21.4369,11.02964 -20.3623,11.03192 -41.6234,-0.0881 -22.7051,-11.8754 -31.1281,-13.51027 -40.6861,-7.89705 -8.3597,4.9094 -12.0897,20.03626 -7.9529,32.25177 4.5957,13.57031 19.4967,31.33302 23.1882,27.64147 z m 29.1435,-2.88042 c 3.268,-1.37343 11.7179,-9.75657 11.7179,-11.62528 0,-1.30061 0.056,-1.30608 -5.0536,0.49656 -5.3112,1.87392 -5.9098,1.19801 -5.9311,-6.69747 -0.01,-3.70861 0.5004,-6.19425 1.4712,-7.16505 1.3153,-1.3153 0.8672,-2.27355 -3.8914,-8.32143 -6.1668,-7.83782 -12.7585,-13.14695 -21.0171,-16.92789 -4.6972,-2.15043 -6.7973,-2.55361 -11.3394,-2.17694 -4.6739,0.38759 -6.0242,0.96554 -8.3575,3.57692 -8.1411,9.11152 -5.0093,23.10015 8.4389,37.69296 l 5.5294,6 -0.5627,-5.73129 c -0.6461,-6.58151 0.5109,-8.76871 4.6386,-8.76871 2.5874,0 2.6787,-0.19019 2.6276,-5.47533 -0.045,-4.65925 0.3513,-5.87985 2.6592,-8.18933 2.6338,-2.63577 2.7697,-2.66182 4.7123,-0.90375 2.6915,2.43575 4.3806,7.9034 3.5748,11.57187 -0.6186,2.81663 -0.4753,2.99654 2.3862,2.99654 3.4993,0 5.1146,2.21068 5.1146,7 0,3.33748 -1.5227,7 -2.9102,7 -0.4619,0 -1.1162,-1.38194 -1.454,-3.07097 -0.4913,-2.45645 -1.0545,-3.00674 -2.8145,-2.75 -1.8344,0.26759 -2.2104,0.98621 -2.2608,4.32097 -0.043,2.84998 0.5145,4.4602 1.9395,5.60067 3.9002,3.12148 6.2377,3.45684 10.7821,1.54695 z m 45.049,-1.38884 c 3.1348,-2.54205 3.0168,-9.61756 -0.1681,-10.08181 -1.7084,-0.24903 -2.4616,0.38101 -3.2874,2.75 -0.5892,1.69017 -1.4247,3.07303 -1.8568,3.07303 -2.0556,0 -2.7508,-10.86803 -0.8188,-12.8 0.66,-0.66 2.3713,-1.2 3.8029,-1.2 2.4934,0 2.6007,-0.23038 2.55,-5.47533 -0.045,-4.64977 0.3531,-5.88164 2.6398,-8.16999 2.3197,-2.32136 2.9176,-2.50803 4.316,-1.3475 3.0676,2.5459 4.7318,7.08766 4.0832,11.14367 -0.5983,3.7413 -0.5321,3.84915 2.3611,3.84915 3.4275,0 5.047,2.24619 5.047,7 0,3.33748 -1.5227,7 -2.9102,7 -0.4619,0 -1.1162,-1.38194 -1.454,-3.07097 -0.4886,-2.44298 -1.0578,-3.00533 -2.7836,-2.75 -1.8569,0.27474 -2.1693,0.96916 -2.1693,4.82097 0,7.08442 2.4814,6.55031 11.5839,-2.4934 15.2614,-15.16271 19.3758,-32.43816 9.7662,-41.0066 -3.5943,-3.2049 -13.9447,-2.80481 -21.0886,0.81517 -7.2589,3.67823 -13.7159,9.27615 -19.359,16.7831 -4.1736,5.55212 -4.4261,6.20386 -2.9683,7.6617 1.2199,1.21986 1.4996,3.06669 1.1932,7.87832 -0.2201,3.45672 -0.6473,6.53202 -0.9493,6.834 -0.3019,0.30199 -2.4894,-0.13554 -4.861,-0.97229 -2.3716,-0.83675 -4.5449,-1.28841 -4.8296,-1.00369 -1.1482,1.14816 5.9072,9.14877 9.978,11.31491 4.808,2.55833 8.5562,2.38836 12.1827,-0.55244 z m -66.1629,-0.76896 c 0.8458,-0.32399 1.292,-2.05749 1.2226,-4.75 -0.09,-3.50515 -0.4749,-4.29452 -2.2203,-4.55548 -3.0859,-0.46141 -5.5918,5.51832 -3.38,8.06566 1.6188,1.86434 2.2677,2.04813 4.3777,1.23982 z m 42.0119,-13.98576 c 0.9397,-2.06233 0.8222,-2.84409 -0.6764,-4.5 -0.9975,-1.10223 -2.271,-2.00406 -2.8299,-2.00406 -1.6678,0 -4.6738,3.18686 -4.6738,4.95499 0,4.40971 6.3305,5.60852 8.1801,1.54907 z m -10.8663,-34.45429 c -3.5215,-2.14722 -5.3138,-4.84016 -5.3138,-7.98403 0,-1.97748 0.5341,-2.06574 12.5,-2.06574 13.7518,0 14.0251,0.15011 10.9831,6.03273 -2.995,5.7917 -11.9953,7.78157 -18.1693,4.01704 z m -5.3138,-13.59943 c 0,-3.0782 2.9826,-7.21419 6.3571,-8.8155 1.8948,-0.89916 3.7147,-1.63484 4.044,-1.63484 0.3294,0 0.5989,2.7 0.5989,6 v 6 h -5.5 c -4.3006,0 -5.5,-0.33795 -5.5,-1.54966 z m 13,-4.45034 c 0,-3.52258 0.4334,-6 1.0497,-6 3.8638,0 10.9503,6.55878 10.9503,10.13486 0,1.61295 -0.8113,1.86514 -6,1.86514 h -6 z m -5.75,-7.65555 c -2.4719,-0.53125 -2.8521,-2.6306 -1.2428,-6.86327 1.4678,-3.86065 0.4593,-4.55705 -4.2124,-2.90877 -5.1318,1.81058 -5.7642,1.08949 -5.7642,-6.57241 0,-7.80852 0.7743,-8.69535 5.8268,-6.67375 2.2308,0.8926 4.2648,1.285 4.5201,0.87201 0.2552,-0.413 -0.04,-2.63737 -0.6549,-4.94307 -0.6154,-2.30569 -0.7662,-4.54385 -0.335,-4.97368 0.9727,-0.96964 13.2214,-1.0059 14.1853,-0.042 0.3867,0.38672 0.1289,2.75393 -0.5729,5.26047 -0.7018,2.50655 -1.0687,4.76461 -0.8154,5.01793 0.2533,0.25331 2.3452,-0.27976 4.6487,-1.18459 2.3035,-0.90484 4.5209,-1.3125 4.9275,-0.90592 0.945,0.94505 0.9719,14.17321 0.031,15.11443 -0.3897,0.38968 -2.5834,-0.0417 -4.8748,-0.95851 -2.2915,-0.91687 -4.4073,-1.4261 -4.7017,-1.13163 -0.2945,0.29447 0.021,2.39365 0.7018,4.66485 0.8165,2.72524 0.9005,4.46611 0.2472,5.11948 -1.1347,1.13462 -8.5723,1.82658 -11.914,1.10841 z m 9.25,-16.34445 c 0,-1.24083 -0.9209,-2.86749 -2.0464,-3.6148 -1.7452,-1.15876 -2.3707,-1.13157 -4.25,0.18473 -1.212,0.84891 -2.2036,2.39244 -2.2036,3.43007 0,1.03762 0.9916,2.58115 2.2036,3.43007 1.8793,1.31629 2.5048,1.34348 4.25,0.18473 1.1255,-0.74731 2.0464,-2.37397 2.0464,-3.6148 z"
       id="path607" />
  </g>
</svg>
