<?xml version="1.0" encoding="UTF-8" standalone="no"?>
<!-- Created with Inkscape (http://www.inkscape.org/) -->

<svg
   version="1.1"
   id="svg2"
   width="707.68134"
   height="234.0087"
   viewBox="0 0 707.68134 234.0087"
   sodipodi:docname="marathon.svg"
   inkscape:version="1.2.2 (732a01da63, 2022-12-09)"
   xmlns:inkscape="http://www.inkscape.org/namespaces/inkscape"
   xmlns:sodipodi="http://sodipodi.sourceforge.net/DTD/sodipodi-0.dtd"
   xmlns="http://www.w3.org/2000/svg"
   xmlns:svg="http://www.w3.org/2000/svg">
  <defs
     id="defs6" />
  <sodipodi:namedview
     id="namedview4"
     pagecolor="#ffffff"
     bordercolor="#000000"
     borderopacity="0.25"
     inkscape:showpageshadow="2"
     inkscape:pageopacity="0.0"
     inkscape:pagecheckerboard="0"
     inkscape:deskcolor="#d1d1d1"
     showgrid="false"
     inkscape:zoom="0.30729167"
     inkscape:cx="318.91525"
     inkscape:cy="-226.16949"
     inkscape:window-width="1128"
     inkscape:window-height="682"
     inkscape:window-x="-6"
     inkscape:window-y="-6"
     inkscape:window-maximized="1"
     inkscape:current-layer="g8" />
  <g
     inkscape:groupmode="layer"
     inkscape:label="Image"
     id="g8"
     transform="translate(29.548342,-418.65602)">
    <path
       style="fill:#fefefe;stroke-width:0.444444"
       d="m -4.5762713,652.33799 c -12.4768767,-1.64896 -21.0577477,-8.69001 -23.6031397,-19.36762 -0.98294,-4.12332 -0.987715,-12.34515 -0.0094,-16.17188 2.376442,-9.29549 9.194261,-15.96838 18.8244927,-18.42434 6.833591,-1.74274 17.4417784,-1.69695 27.6769293,0.11948 l 4.222222,0.74931 0.129085,3.66666 c 0.07696,2.18581 -0.04679,3.66667 -0.306416,3.66667 -0.239529,0 -2.897613,-0.60644 -5.906862,-1.34764 -7.7759109,-1.91526 -13.6714673,-2.52168 -18.1580493,-1.86776 -8.9307287,1.30167 -14.7981387,6.74768 -16.6405097,15.44537 -1.155395,5.45454 -0.801807,10.34944 1.118319,15.48143 1.170319,3.12796 5.151262,7.5717 8.3359417,9.30502 6.961116,3.78871 17.7443874,3.58963 28.3361203,-0.52316 l 3.349231,-1.30051 -0.128426,3.58593 -0.128427,3.58594 -3.081818,1.0383 c -6.609413,2.22682 -17.1780443,3.26427 -24.0292933,2.3588 z m 77.6029303,-0.0244 c -6.62794,-1.0204 -11.69802,-3.53346 -16.10673,-7.98353 -6.31067,-6.36988 -8.78187,-15.78703 -6.83538,-26.04801 1.93976,-10.2255 9.97402,-18.16462 20.67251,-20.42774 4.406653,-0.93216 12.991983,-0.93595 17.333343,-0.008 9.820322,2.09987 17.471408,8.99691 20.284278,18.28517 1.13804,3.75788 1.13887,13.58028 0.001,17.3101 -1.42227,4.66396 -3.32786,7.8422 -6.67662,11.1356 -3.611166,3.55148 -7.214258,5.53296 -12.568258,6.91179 -4.09675,1.05506 -11.98356,1.45871 -16.104603,0.82426 z m 12.159313,-6.4186 c 9.23986,-2.40667 13.991512,-9.61593 14.008972,-21.25455 0.0131,-8.78471 -2.76297,-14.80588 -8.551392,-18.54712 -7.99467,-5.16721 -20.967873,-3.48982 -26.401773,3.41366 -3.19659,4.0611 -4.58269,8.68622 -4.58269,15.29153 0,11.18956 4.87085,18.69409 13.71685,21.13357 2.865393,0.7902 8.704273,0.77186 11.810033,-0.0371 z m 143.522928,6.46736 c -1.49316,-0.21179 -4.54316,-0.72108 -6.77778,-1.13174 l -4.06295,-0.74667 v -3.95383 c 0,-2.17458 0.0886,-3.9538 0.19694,-3.9538 0.10831,0 1.95831,0.58571 4.11111,1.30158 10.43405,3.46962 17.84228,3.55939 22.15691,0.26847 2.01281,-1.53525 2.86838,-3.27385 2.86838,-5.82885 0,-4.09446 -2.27749,-6.14327 -11.90254,-10.70744 -10.23072,-4.85136 -14.9059,-8.43383 -16.37696,-12.54923 -0.7409,-2.07269 -0.72886,-6.04041 0.0247,-8.1521 1.40017,-3.92353 5.79157,-7.51588 10.99419,-8.99371 4.6383,-1.31752 14.72936,-0.98005 21.3717,0.71474 l 1.66666,0.42525 v 3.53842 c 0,1.94613 -0.15,3.53387 -0.33333,3.52831 -0.18333,-0.006 -2.53333,-0.60887 -5.22222,-1.3407 -2.68889,-0.73182 -6.2985,-1.45321 -8.02136,-1.60307 -9.74542,-0.84772 -15.6006,6.32483 -9.45642,11.58402 1.00941,0.86401 5.95484,3.60847 10.98986,6.0988 8.31902,4.1146 9.42018,4.79504 12.06453,7.45502 3.28768,3.30714 3.98144,4.95193 3.9746,9.42317 -0.01,6.57868 -5.22148,11.99264 -13.43159,13.95361 -3.47416,0.8298 -11.23565,1.18023 -14.83445,0.66977 z m 75.00651,-0.0112 c -8.4996,-1.19615 -13.61824,-4.92248 -16.17439,-11.77484 -0.96625,-2.59028 -0.99892,-3.23639 -1.14036,-22.55556 l -0.14561,-19.88888 h 4.66557 4.66558 l 0.16519,19 c 0.18407,21.1707 0.2727,21.87151 3.19855,25.28969 0.87183,1.01855 2.57236,2.27009 3.8989,2.86948 2.07617,0.93811 2.97948,1.05992 7.686,1.03643 7.51765,-0.0375 10.36325,-1.5004 12.30362,-6.32516 1.00206,-2.49162 1.02289,-2.88976 1.16148,-22.20378 l 0.14112,-19.66666 h 4.19689 4.19689 l -0.009,17.88888 c -0.005,9.83889 -0.20182,19.22332 -0.43774,20.85429 -1.20363,8.32126 -5.26032,12.96804 -12.92529,14.80543 -3.53198,0.84666 -11.68273,1.20055 -15.4476,0.67071 z m 346.55525,0.0194 c -13.22924,-1.68845 -21.4152,-8.14722 -24.24253,-19.12757 -0.91524,-3.55444 -1.02924,-12.00497 -0.21289,-15.77777 2.03729,-9.41503 9.16449,-16.55927 19.04267,-19.08827 4.602,-1.17819 11.11595,-1.60082 17.34511,-1.12536 5.26991,0.40224 13.68044,1.60469 14.44293,2.0649 0.48858,0.29488 0.40778,7.25984 -0.0842,7.25984 -0.22964,0 -2.87964,-0.60644 -5.88888,-1.34764 -7.79827,-1.92076 -13.6692,-2.52202 -18.19085,-1.86298 -10.50613,1.53128 -16.49898,8.40299 -17.14133,19.65506 -0.30174,5.28614 0.3092,8.66989 2.29569,12.71492 2.53026,5.15229 6.69364,8.36482 12.89671,9.95131 3.97742,1.01725 9.54169,1.1404 14.00173,0.30989 l 2.88891,-0.538 0.12071,-8.55242 0.12071,-8.55243 h 4.65707 4.65707 v 10.8246 10.8246 l -3.44445,0.72358 c -8.08449,1.69834 -17.57964,2.36919 -23.26418,1.64368 z m -511.06915,-27.572 v -26.66666 h 4.57646 4.57646 l 15.75687,19.99539 15.75687,19.99539 0.11564,-19.99539 0.11564,-19.99539 h 3.99548 3.99547 v 26.66666 26.66667 l -4.55556,-0.0163 -4.55555,-0.0163 -15.77778,-20.03157 -15.77778,-20.03148 -0.11564,20.04778 -0.11564,20.0478 h -3.99547 -3.99547 v -26.66667 z m 226.22222,0 v -26.66666 h 4.66667 4.66666 v 23.55555 23.55556 h 14.44445 14.44444 v 3.11111 3.11111 h -19.11111 -19.11111 z m 79.55556,3.11111 v -23.55555 h -11.11112 -11.11111 v -3.11111 -3.11111 h 27.11111 27.11112 v 3.11111 3.11111 h -11.11112 -11.11111 v 23.55555 23.55556 h -4.88889 -4.88888 z m 58.22222,-3.11111 v -26.66666 h 4.66666 4.66667 v 26.66666 26.66667 h -4.66667 -4.66666 z m 43.11111,0 v -26.66666 l 4.55555,0.004 4.55556,0.004 15.77778,20.04958 15.77778,20.04958 0.11564,-20.05381 0.11564,-20.05382 h 3.99547 3.99547 v 26.66667 26.66667 l -4.55556,-0.003 -4.55555,-0.003 -15.77778,-19.9998 -15.77778,-19.99981 -0.11564,20.00261 -0.11565,20.0026 h -3.99546 -3.99547 V 624.79918 Z M -28.798493,585.9096 v -5.11111 H 151.10994 331.01838 l 1.25147,-5.13117 c 1.66437,-6.82409 4.0876,-14.86613 7.09378,-23.54236 3.18685,-9.19765 4.97761,-16.2052 5.68673,-22.25322 0.78457,-6.69157 0.77781,-26.58221 -0.0104,-30.6288 -0.85737,-4.40155 -1.39428,-5.11111 -3.86743,-5.11111 -5.65312,0 -12.20552,-2.18982 -23.43246,-7.83114 -4.59268,-2.30774 -9.6068,-4.65195 -11.14247,-5.20938 -2.65383,-0.96328 -7.43591,-3.72694 -14.2685,-8.24602 -1.70205,-1.12574 -7.86183,-6.60547 -13.68841,-12.17718 -5.82659,-5.57171 -11.09702,-10.32171 -11.71208,-10.55556 -0.61507,-0.23384 -1.81521,-0.42517 -2.667,-0.42517 -1.98276,0 -3.6102,-0.83401 -7.68359,-3.93761 -1.80958,-1.37876 -4.60958,-3.20684 -6.22222,-4.06239 -2.11726,-1.12327 -2.93207,-1.80258 -2.93207,-2.44445 0,-1.354 1.99795,-1.35234 4.67433,0.004 3.75676,1.9037 3.04682,0.92351 -1.5095,-2.08412 -3.60687,-2.38088 -4.25651,-2.99024 -4.26542,-4.00092 -0.019,-2.15405 1.44081,-2.03714 5.47711,0.43862 1.99291,1.2224 3.71141,2.13745 3.81889,2.03343 0.10747,-0.10401 -0.19253,-0.46142 -0.66667,-0.79425 -4.58476,-3.21827 -7.09677,-5.51233 -7.22343,-6.59669 -0.11305,-0.96784 0.079,-1.24592 1.02437,-1.48319 0.97995,-0.24595 1.86081,0.2436 5.58358,3.10314 5.1638,3.96643 5.95022,3.81847 1.08674,-0.20446 -3.31846,-2.74494 -3.91664,-3.8225 -2.688,-4.84218 0.99728,-0.82767 2.06942,-0.25667 6.69324,3.56473 3.92552,3.24428 6.7511,5.14588 7.10804,4.78367 0.078,-0.0791 -0.27029,-1.39916 -0.77396,-2.9334 -1.01774,-3.10032 -0.66572,-4.98838 0.93007,-4.98838 1.07651,0 1.50405,0.54954 2.76625,3.55556 0.56452,1.34444 1.53744,3.22823 2.16205,4.18619 0.94172,1.44433 1.17359,2.43024 1.35787,5.77367 l 0.22222,4.03192 3.33644,2.29058 c 4.26346,2.92701 10.66324,6.13184 25.16028,12.59958 7.21151,3.21736 13.01883,6.12049 15.33334,7.66528 2.49728,1.66677 5.11747,2.94763 7.94772,3.88516 2.32222,0.76925 5.11116,1.89435 6.19765,2.50021 1.91435,1.06752 2.20982,1.09804 9.55556,0.98727 l 7.58012,-0.11432 4.66667,1.70078 c 5.1016,1.85929 8.13739,2.41291 9.05504,1.65132 0.86069,-0.7143 0.40252,-6.90478 -0.66823,-9.02882 -0.97798,-1.94001 -1.08721,-5.30518 -0.21746,-6.70001 0.33758,-0.5414 0.73144,-2.18436 0.87524,-3.65103 0.38786,-3.95609 1.92571,-8.05179 3.68317,-9.80924 2.32952,-2.32953 3.98417,-2.99199 8.02308,-3.21213 4.33541,-0.2363 7.25836,0.62757 9.9664,2.94555 2.7296,2.33645 3.1836,3.60149 3.37653,9.40915 0.0934,2.81111 0.28303,5.75979 0.42138,6.55263 0.3564,2.04253 -0.14302,4.21352 -1.39307,6.0556 -0.59216,0.87259 -1.1984,2.3427 -1.3472,3.26692 -0.1488,0.92423 -0.3576,2.10956 -0.464,2.63407 -0.1064,0.52452 0.0551,1.05636 0.35895,1.18186 0.30381,0.12551 1.27625,0.53813 2.16097,0.91693 1.50844,0.64584 1.716,0.63129 3.33333,-0.2337 3.95973,-2.11771 4.99404,-2.55626 7.73524,-3.27969 1.92894,-0.50907 4.78965,-0.77825 8.67249,-0.81602 l 5.79409,-0.0564 7.31702,-3.72214 c 4.02436,-2.04717 7.91703,-4.27971 8.65036,-4.96121 1.32555,-1.23185 2.6388,-1.97384 7.35533,-4.15584 1.35654,-0.62757 3.95654,-2.4008 5.77778,-3.94051 1.82124,-1.53971 6.51133,-4.92547 10.42244,-7.52392 3.91112,-2.59845 8.24636,-5.74597 9.63383,-6.99449 2.4092,-2.16786 2.50422,-2.33463 2.11111,-3.70525 -0.68142,-2.37608 -0.48351,-4.78759 0.73835,-8.99665 2.06778,-7.12318 2.06178,-7.11111 3.5352,-7.11111 1.26231,0 1.32058,0.0888 1.45876,2.22222 0.0792,1.22223 -0.0847,2.9917 -0.36413,3.93216 -0.27943,0.94047 -0.39334,1.82465 -0.25312,1.96486 0.14018,0.14021 2.68632,-2.18943 5.658,-5.17699 4.4828,-4.50667 5.59912,-5.40913 6.55369,-5.29819 2.06876,0.24043 1.65067,1.66175 -1.52662,5.18948 -1.61404,1.7921 -2.81587,3.37715 -2.67067,3.52235 0.1452,0.1452 1.90787,-1.3526 3.91703,-3.32844 3.9036,-3.83885 4.54844,-4.24367 5.76413,-3.61842 1.41756,0.72906 0.816,1.8676 -3.11111,5.88832 -2.13889,2.18989 -3.58889,3.7747 -3.22222,3.52182 0.36666,-0.25288 2.04235,-1.5012 3.72377,-2.77402 3.37738,-2.55663 4.85249,-2.82118 5.07512,-0.91018 0.10955,0.94057 -0.48334,1.6544 -3.46178,4.16786 -1.97667,1.66809 -3.49805,3.12883 -3.3808,3.24607 0.11724,0.11725 1.33209,-0.42699 2.6996,-1.20941 2.71449,-1.55308 3.78853,-1.50891 3.78853,0.15579 0,0.81736 -0.56533,1.43681 -2.33333,2.55661 -1.28334,0.81284 -4.03334,3.09352 -6.11111,5.06816 -3.70694,3.52296 -4.57445,4.05211 -8.29129,5.05752 -1.58227,0.42801 -2.47694,1.24688 -6.24587,5.71656 -2.41947,2.86934 -6.07013,7.31699 -8.11262,9.88365 -7.69258,9.66682 -9.19938,11.08519 -17.25533,16.2427 -4.08552,2.61559 -8.82823,5.81118 -10.53934,7.1013 -5.62262,4.23929 -14.86942,8.28294 -20.15249,8.81275 -3.24853,0.32578 -6.1096,1.48138 -7.44009,3.0051 -2.28337,2.61502 -4.49688,12.29811 -5.72857,25.06037 -0.47063,4.87622 -4.24298,37.67425 -5.11191,44.44445 -0.47063,3.66667 -0.98947,8.61667 -1.15303,11 l -0.29737,4.33333 h 143.83062 143.83062 v 5.11111 5.11111 H 324.31262 -28.798493 Z m 559.936133,-9.78278 c -6.40991,-1.27679 -12.01449,-4.31439 -16.13071,-8.74266 -3.31947,-3.57114 -5.12347,-6.82485 -6.73818,-12.15317 -1.09413,-3.61049 -1.21004,-4.66129 -1.22435,-11.09916 -0.0129,-5.69047 0.17542,-7.9736 0.94137,-11.4283 1.26312,-5.697 2.88872,-10.36602 5.28129,-15.16903 2.77849,-5.57764 5.08609,-8.83158 9.45414,-13.33133 8.66324,-8.9245 18.75617,-13.40431 31.41577,-13.94412 11.1752,-0.47652 19.25609,1.79178 25.59405,7.18424 7.41204,6.30634 11.00618,17.52336 9.72409,30.34804 -2.50129,25.01973 -18.93494,44.5329 -40.7016,48.32869 -4.69116,0.81806 -13.52587,0.82147 -17.61587,0.007 z M 549.13986,555.747 c 5.33636,-3.12732 9.0444,-10.25333 11.36316,-21.8374 2.3296,-11.63807 1.31093,-20.07925 -2.77413,-22.98808 -2.20614,-1.57089 -6.60774,-1.65883 -9.50645,-0.18994 -5.73827,2.9078 -10.29964,11.75238 -12.57347,24.38026 -1.56782,8.7068 -1.07848,15.63713 1.34427,19.03959 2.31871,3.25635 8.03209,4.00685 12.14662,1.59557 z m -578.657533,19.38483 c 0.126286,-0.42778 3.754313,-18.97778 8.062283,-41.22223 4.307971,-22.24444 7.939803,-40.89444 8.070746,-41.44444 l 0.238071,-1 H 3.9163557 c 9.3846093,0 17.0629293,0.0715 17.0629293,0.15897 0,0.0874 0.699737,9.43743 1.554973,20.77778 0.855231,11.34034 1.566755,21.2188 1.581155,21.95214 0.0236,1.20245 0.135018,1.09339 1.134889,-1.11111 0.609783,-1.34445 5.119747,-11.29445 10.022138,-22.11111 l 8.913439,-19.66667 h 17.31554 c 16.283663,0 17.301633,0.0463 17.082013,0.77778 -0.12845,0.42777 -3.64593,18.37777 -7.816623,39.88889 -4.1707,21.51111 -7.79327,40.16111 -8.05015,41.44444 l -0.46706,2.33333 h -12.19071 c -6.70489,0 -12.190716,-0.17165 -12.190716,-0.38146 0,-0.2098 2.500814,-13.24232 5.557356,-28.96116 3.05656,-15.71883 5.50656,-28.6262 5.44445,-28.68304 -0.0621,-0.0568 -5.9869,12.97568 -13.166219,28.96116 l -13.053302,29.0645 h -8.391142 c -4.6151289,0 -8.3924359,-0.15 -8.3940179,-0.33333 -0.01227,-1.42149 -4.0104894,-58.0504 -4.1052854,-58.1452 -0.06729,-0.0673 -2.49175503,12.11285 -5.387697,27.06698 -2.895943,14.95413 -5.460654,28.13933 -5.699351,29.30044 l -0.434005,2.11111 h -9.9931207 c -9.308432,0 -9.97739,-0.0533 -9.763512,-0.77777 z m 99.459922,0.4042 c 0.0815,-0.20546 9.648153,-19.20212 21.259263,-42.21479 l 21.111108,-41.84122 13.84982,-0.007 13.84982,-0.007 0.26331,1.66666 c 0.14482,0.91667 2.35609,19.36667 4.91394,41 2.55784,21.63334 4.72229,39.88334 4.80989,40.55556 l 0.15927,1.22222 h -13.40794 -13.40795 l -0.74299,-7.88889 c -0.40865,-4.33889 -0.74043,-8.13889 -0.7373,-8.44444 0.004,-0.42965 -2.48945,-0.55556 -11.00367,-0.55556 H 99.849484 l -4.20353,8.44445 -4.203522,8.44444 h -10.82417 c -5.95329,0 -10.757493,-0.16811 -10.676013,-0.37357 z m 50.875831,-36.4042 c -0.12751,-0.67223 -0.57124,-5.52223 -0.98607,-10.77778 -0.41484,-5.25556 -0.89356,-9.71271 -1.06383,-9.90479 -0.25194,-0.28421 -10.67778,20.87237 -10.67778,21.66784 0,0.13032 2.91589,0.23695 6.47976,0.23695 h 6.47975 z m 35.25745,36.44444 c -0.008,-0.18333 3.63798,-19.19205 8.10258,-42.24159 l 8.11745,-41.90825 26.45297,0.14564 c 23.46394,0.12918 26.74566,0.2322 29.04321,0.91164 11.30708,3.34379 16.57053,11.08039 15.08452,22.17233 -0.71142,5.31029 -2.20346,9.43875 -4.78852,13.24979 -2.62757,3.87373 -6.05449,6.79633 -10.96412,9.3506 -1.91272,0.99511 -3.47767,1.9144 -3.47767,2.04287 0,0.19359 7.04301,32.40948 7.7851,35.6103 l 0.23184,1 h -14.67514 c -8.07132,0 -14.67513,-0.16152 -14.67513,-0.35893 0,-0.19741 -1.3,-7.31294 -2.88889,-15.81229 -1.58889,-8.49935 -2.88889,-15.64562 -2.88889,-15.8806 0,-0.25055 -1.60672,-0.37412 -3.88537,-0.29881 l -3.88537,0.12841 -3.11463,16.10803 -3.11463,16.10802 -13.22222,0.003 c -7.27222,0.002 -13.22891,-0.14692 -13.23709,-0.33025 z m 52.95095,-51.40654 c 4.9679,-1.80684 7.60731,-7.31231 5.47889,-11.42823 -1.28324,-2.48152 -3.41494,-3.03327 -11.76197,-3.04436 l -7.34701,-0.01 -1.43077,7.24418 c -0.78693,3.9843 -1.43078,7.50778 -1.43078,7.82996 0,0.90223 13.73939,0.40921 16.49164,-0.59179 z m 25.3001,51.18432 c 0.008,-0.30556 9.46035,-19.25556 21.00594,-42.11111 l 20.99197,-41.55556 13.8729,-0.11743 13.8729,-0.11743 0.21571,1.00632 c 0.11864,0.55347 2.33117,19.00632 4.91673,41.00632 2.58556,22 4.8089,40.55 4.94076,41.22222 l 0.23976,1.22222 h -13.50351 -13.5035 l -0.54903,-6.33333 c -0.30196,-3.48333 -0.66704,-7.28333 -0.81128,-8.44444 l -0.26227,-2.11112 h -10.95209 -10.95209 l -4.20353,8.44445 -4.20352,8.44444 h -10.5649 c -8.16308,0 -10.56174,-0.1263 -10.55095,-0.55555 z m 50.49721,-36.88889 c -0.14104,-1.03889 -0.60243,-6.14021 -1.02531,-11.33627 -0.42288,-5.19606 -0.91298,-9.29606 -1.08911,-9.11111 -0.30689,0.32226 -10.61897,21.86271 -10.61897,22.18149 0,0.0851 2.9227,0.15478 6.4949,0.15478 h 6.49491 z M 419.7932,574.9096 c 0.13395,-0.55 3.75329,-19.1 8.04293,-41.22222 4.2896,-22.12222 7.90551,-40.67222 8.03524,-41.22222 l 0.23596,-1 h 13.11111 13.11111 l -0.22422,1 c -0.60484,2.69717 -5.57049,28.66491 -5.57049,29.13068 0,0.40167 2.38542,0.53599 9.51871,0.53599 h 9.51876 l 0.44733,-2.11112 c 0.24605,-1.16111 1.60253,-8.06111 3.0144,-15.33333 l 2.56707,-13.22222 h 13.02244 c 7.16231,0 13.02885,0.15 13.03671,0.33333 0.008,0.18334 -3.63715,19.18334 -8.10004,42.22222 l -8.1144,41.88889 h -13.01107 c -10.61106,0 -13.01102,-0.11041 -13.01102,-0.59856 0,-0.66548 5.68778,-30.28141 6.052,-31.51255 0.21422,-0.72403 -0.44111,-0.77778 -9.48427,-0.77778 h -9.71435 l -3.02125,15.66667 c -1.66169,8.61667 -3.11715,16.01667 -3.2344,16.44445 -0.19689,0.71837 -1.21591,0.77777 -13.34253,0.77777 H 419.5496 Z m 169.89973,-0.66666 c 0.17022,-0.91667 3.8448,-19.86667 8.16569,-42.11111 l 7.85622,-40.44445 12.46822,-0.11794 12.46818,-0.11794 1.16618,2.78461 c 0.64138,1.53153 4.85222,11.8846 9.35738,23.00683 4.5052,11.12222 8.28689,19.92222 8.40382,19.55555 0.11689,-0.36666 0.73702,-5.36666 1.37809,-11.11111 0.90702,-8.12765 5.20266,-33.46456 5.78458,-34.11916 0.0583,-0.0655 4.89524,-0.0655 10.74884,0 l 10.64289,0.11916 -5.44262,28 c -2.99347,15.4 -6.67867,34.35 -8.18929,42.11111 l -2.74662,14.11111 -10.72094,-0.007 -10.72093,-0.007 -8.16951,-19.54536 c -5.27369,-12.61709 -8.91187,-22.00844 -10.26378,-26.49398 l -2.09418,-6.94862 -0.26386,4.8348 c -0.18494,3.38787 -1.47592,11.08625 -4.31387,25.72368 -2.22747,11.48889 -4.15351,21.23889 -4.28009,21.66667 -0.21093,0.71271 -1.1216,0.77777 -10.88702,0.77777 h -10.65685 l 0.30947,-1.66666 z"
       id="path293" />
  </g>
</svg>
